<svg width="45" height="50" viewBox="0 0 45 50" fill="none" xmlns="http://www.w3.org/2000/svg">
<path d="M15.1563 34.8438C12.5 32.3438 10.9375 28.9062 10.9375 25C10.9375 21.0937 12.5 17.6562 15 15.1562C17.1875 12.9687 17.1875 9.53125 15 7.34375C12.8125 5.15625 9.375 5.15625 7.1875 7.34375C2.8125 11.875 0 18.125 0 25C0 31.875 2.8125 38.125 7.34375 42.6563C9.53125 44.8438 12.9688 44.8438 15.1563 42.6563C17.1875 40.4688 17.1875 37.0313 15.1563 34.8438Z" fill="#FAE501"/>
<path d="M15.1562 15.1563C17.6562 12.5 21.0937 10.9375 25 10.9375C28.9062 10.9375 32.3438 12.5 34.8438 15C37.0313 17.1875 40.4688 17.1875 42.6563 15C44.8438 12.8125 44.8438 9.375 42.6563 7.1875C38.125 2.8125 31.875 0 25 0C18.125 0 11.875 2.8125 7.34375 7.34375C5.15625 9.53125 5.15625 12.9688 7.34375 15.1563C9.53125 17.1875 12.9687 17.1875 15.1562 15.1563Z" fill="#4FB5E1"/>
<path d="M34.8438 34.8438C32.3438 37.5 28.9062 39.0625 25 39.0625C21.0937 39.0625 17.6562 37.5 15.1562 35C12.9687 32.8125 9.53125 32.8125 7.34375 35C5.15625 37.1875 5.15625 40.625 7.34375 42.8125C11.875 47.1875 18.125 50 25 50C31.875 50 38.125 47.1875 42.6563 42.6562C44.8438 40.4687 44.8438 37.0313 42.6563 34.8438C40.4688 32.8125 37.0313 32.8125 34.8438 34.8438Z" fill="#F05751"/>
<path d="M11.2499 16.7188C14.2702 16.7188 16.7187 14.2703 16.7187 11.25C16.7187 8.22969 14.2702 5.78125 11.2499 5.78125C8.22963 5.78125 5.78119 8.22969 5.78119 11.25C5.78119 14.2703 8.22963 16.7188 11.2499 16.7188Z" fill="#0681B6"/>
<path d="M11.2499 44.2187C14.2702 44.2187 16.7187 41.7703 16.7187 38.75C16.7187 35.7297 14.2702 33.2812 11.2499 33.2812C8.22963 33.2812 5.78119 35.7297 5.78119 38.75C5.78119 41.7703 8.22963 44.2187 11.2499 44.2187Z" fill="#CD4739"/>
</svg>
