<svg width="512" height="384" viewBox="0 0 512 384" fill="none" xmlns="http://www.w3.org/2000/svg">
<path d="M10.688 31.156C80.958 90.667 204.26 195.365 240.5 228.01C245.365 232.416 250.583 234.656 256 234.656C261.406 234.656 266.615 232.437 271.469 228.052C307.74 195.375 431.042 90.667 501.313 31.156C505.688 27.458 506.355 20.958 502.813 16.437C494.625 5.99 482.417 0 469.333 0H42.667C29.584 0 17.375 5.99 9.18802 16.438C5.64602 20.958 6.31302 27.458 10.688 31.156Z" fill="#145374"/>
<path d="M505.813 63.406C502.032 61.646 497.584 62.26 494.438 64.948C448.417 103.958 387.782 155.5 342.053 194.833C339.647 196.896 338.293 199.927 338.345 203.104C338.397 206.271 339.866 209.26 342.345 211.239C384.835 245.27 448.866 292.083 495.105 325.354C496.949 326.687 499.136 327.364 501.334 327.364C503.001 327.364 504.667 326.979 506.199 326.187C509.762 324.364 512.001 320.697 512.001 316.697V73.083C512 68.927 509.583 65.146 505.813 63.406Z" fill="#145374"/>
<path d="M16.896 325.354C63.146 292.083 127.188 245.271 169.667 211.239C172.146 209.26 173.615 206.27 173.667 203.104C173.719 199.927 172.365 196.896 169.959 194.833C124.229 155.5 63.583 103.958 17.563 64.948C14.396 62.26 9.938 61.667 6.188 63.406C2.417 65.146 0 68.927 0 73.083V316.698C0 320.698 2.24 324.365 5.802 326.188C7.333 326.98 9 327.365 10.667 327.365C12.865 327.365 15.052 326.688 16.896 325.354Z" fill="#145374"/>
<path d="M498.927 354.375C454.271 322.427 372.01 262.865 322.906 223.01C318.906 219.75 313.114 219.854 309.177 223.25C299.542 231.656 291.479 238.74 285.76 243.885C268.197 259.739 243.822 259.739 226.218 243.864C220.52 238.729 212.458 231.624 202.822 223.249C198.916 219.832 193.114 219.728 189.103 223.009C140.165 262.728 57.811 322.363 13.082 354.374C10.592 356.166 8.98802 358.926 8.67602 361.978C8.37402 365.03 9.38402 368.061 11.478 370.311C19.552 379.01 30.927 384 42.667 384H469.334C481.074 384 492.438 379.01 500.532 370.312C502.615 368.072 503.636 365.041 503.334 361.989C503.021 358.938 501.417 356.167 498.927 354.375Z" fill="#145374"/>
</svg>
