<svg width="172" height="50" viewBox="0 0 172 50" fill="none" xmlns="http://www.w3.org/2000/svg">
<path d="M1.11741 38.793V19.6839H24.9761V18.5662H1.11741V1.13328H26.4846V0.0158691H0V39.9104H26.7079V38.793H1.11775H1.11741ZM48.2201 11.1907L38.3304 24.2096L28.6637 11.191H27.2109L37.6597 25.048L26.2049 39.9101H27.546L38.3297 25.8854L49.1695 39.9101H50.5663L39.0561 25.0473L49.5605 11.1903H48.2198L48.2201 11.1907ZM53.9192 49.7444V31.8648H54.0309C54.7016 34.4722 56.0239 36.5675 57.9982 38.1508C59.9724 39.7337 62.4866 40.5254 65.541 40.5254C67.5153 40.5254 69.2662 40.125 70.7934 39.3242C72.3206 38.5234 73.5963 37.4338 74.6208 36.0555C75.645 34.6771 76.4274 33.0755 76.9677 31.2501C77.5076 29.4251 77.7779 27.5065 77.7779 25.4954C77.7779 23.3347 77.4982 21.3416 76.9395 19.5166C76.3808 17.6912 75.5706 16.108 74.5092 14.7673C73.4474 13.4262 72.1623 12.3829 70.6536 11.6384C69.1451 10.8932 67.4408 10.5206 65.541 10.5206C64.0883 10.5206 62.7381 10.7349 61.4902 11.1632C60.2424 11.5918 59.1343 12.1967 58.1658 12.9791C57.1916 13.7675 56.3437 14.7002 55.6513 15.7448C54.9437 16.8066 54.4034 17.9706 54.0309 19.2373H53.9192V11.1907H52.8018V49.7444H53.9192V49.7444ZM65.541 39.4634C62.0399 39.4634 59.2272 38.2621 57.1041 35.8596C54.9809 33.4571 53.9192 30.0019 53.9192 25.4947C53.9192 23.6321 54.1801 21.8628 54.7016 20.1866C55.2231 18.5105 55.9773 17.039 56.9642 15.7727C57.9515 14.506 59.1716 13.5003 60.624 12.7554C62.0768 12.0103 63.716 11.6377 65.541 11.6377C67.4036 11.6377 69.0334 12.0103 70.4302 12.7554C71.827 13.5003 72.9819 14.5154 73.8945 15.8005C74.807 17.0856 75.4961 18.5571 75.9619 20.2145C76.4274 21.8722 76.6602 23.6321 76.6602 25.4947C76.6602 27.1711 76.4462 28.8382 76.0176 30.4956C75.5894 32.1532 74.928 33.6432 74.034 34.9659C73.1402 36.2879 71.995 37.368 70.5979 38.2064C69.2008 39.0445 67.5153 39.4634 65.541 39.4634V39.4634ZM83.924 39.9104V23.6509C83.924 22.0865 84.1474 20.5589 84.5947 19.0692C85.0414 17.5792 85.7306 16.266 86.6619 15.1301C87.5932 13.9939 88.7756 13.0999 90.21 12.4479C91.644 11.796 93.3482 11.526 95.3225 11.6377V10.5203C93.6088 10.4834 92.1098 10.6692 90.8247 11.079C89.5392 11.4888 88.4312 12.0475 87.4999 12.7554C86.5686 13.4631 85.8238 14.2917 85.2651 15.2418C84.7068 16.1904 84.2925 17.2166 84.0357 18.2868H83.924V11.1907H82.8066V39.9107H83.924V39.9104ZM96.7193 25.774H120.745C120.82 23.7998 120.625 21.9003 120.159 20.075C119.693 18.2496 118.948 16.6292 117.924 15.214C116.899 13.7984 115.577 12.6622 113.957 11.8054C112.336 10.9485 110.409 10.5203 108.174 10.5203C106.572 10.5203 105.007 10.8556 103.48 11.5264C101.953 12.1967 100.612 13.1743 99.4571 14.4594C98.3025 15.7445 97.3712 17.3183 96.6636 19.1812C95.956 21.0435 95.6018 23.1666 95.6018 25.5507C95.6018 27.6739 95.844 29.6575 96.3282 31.5013C96.8125 33.3451 97.5573 34.9471 98.5631 36.3066C99.5691 37.6662 100.864 38.7185 102.447 39.4634C104.029 40.2085 105.939 40.5623 108.174 40.5251C111.452 40.5251 114.208 39.6029 116.443 37.7594C118.678 35.9153 120 33.3173 120.41 29.9647H119.293C118.809 33.1311 117.57 35.5058 115.577 37.0887C113.584 38.6719 111.079 39.4634 108.062 39.4634C106.013 39.4634 104.281 39.1096 102.865 38.402C101.45 37.6943 100.295 36.7255 99.4011 35.4964C98.5074 34.267 97.8461 32.8236 97.4178 31.1659C96.9892 29.5086 96.7565 27.7111 96.7193 25.774ZM119.628 24.6566H96.7196C96.8309 22.6452 97.2035 20.8386 97.8367 19.2369C98.4702 17.6349 99.2988 16.266 100.323 15.1301C101.348 13.9939 102.54 13.128 103.899 12.5318C105.259 11.9358 106.721 11.6377 108.285 11.6377C110.148 11.6377 111.787 11.9824 113.202 12.6716C114.618 13.3608 115.8 14.3015 116.751 15.4933C117.7 16.6852 118.417 18.0729 118.902 19.6558C119.386 21.239 119.628 22.9061 119.628 24.6566ZM143.934 19.6839H145.051C145.051 16.4803 144.12 14.1522 142.258 12.6994C140.395 11.2467 137.862 10.5203 134.658 10.5203C132.87 10.5203 131.362 10.744 130.132 11.191C128.903 11.6377 127.897 12.2152 127.115 12.9228C126.333 13.6304 125.774 14.4128 125.439 15.2696C125.104 16.1265 124.936 16.9461 124.936 17.7281C124.936 19.2926 125.215 20.5405 125.774 21.4717C126.333 22.403 127.208 23.1294 128.4 23.6509C129.22 24.0231 130.151 24.3585 131.194 24.657C132.237 24.9548 133.448 25.2713 134.826 25.6064C136.055 25.9048 137.266 26.2026 138.458 26.5004C139.65 26.7986 140.702 27.199 141.615 27.7017C142.527 28.2047 143.272 28.8473 143.85 29.6297C144.427 30.4117 144.716 31.4362 144.716 32.7025C144.716 33.932 144.427 34.9749 143.85 35.8314C143.277 36.6838 142.524 37.3994 141.643 37.9271C140.749 38.467 139.752 38.858 138.653 39.1002C137.554 39.3423 136.484 39.4634 135.441 39.4634C132.051 39.4634 129.453 38.7091 127.646 37.2007C125.839 35.6919 124.936 33.3173 124.936 30.0764H123.819C123.819 33.6898 124.796 36.3345 126.752 38.0109C128.708 39.687 131.604 40.5251 135.441 40.5251C136.67 40.5251 137.908 40.3853 139.156 40.1059C140.404 39.8266 141.522 39.3705 142.509 38.737C143.487 38.1125 144.309 37.2714 144.911 36.2788C145.526 35.2727 145.833 34.0436 145.833 32.5909C145.833 31.2125 145.563 30.0951 145.023 29.2383C144.483 28.3818 143.775 27.6739 142.9 27.1151C142.024 26.5564 141.037 26.1188 139.939 25.8022C138.833 25.4838 137.725 25.1763 136.614 24.88C135.246 24.5212 133.877 24.1674 132.507 23.8186C131.334 23.5204 130.244 23.1666 129.239 22.7568C128.27 22.347 127.497 21.7605 126.92 20.9969C126.342 20.2333 126.054 19.1437 126.054 17.7281C126.054 17.4676 126.128 17.0018 126.277 16.3314C126.426 15.6607 126.78 14.9809 127.339 14.2917C127.897 13.6029 128.754 12.9882 129.909 12.4479C131.064 11.908 132.647 11.6377 134.658 11.6377C136.037 11.6377 137.294 11.7869 138.43 12.0847C139.566 12.3829 140.544 12.8577 141.363 13.5097C142.183 14.1616 142.816 14.9903 143.263 15.996C143.71 17.0021 143.934 18.2312 143.934 19.6839V19.6839ZM169.803 19.6839H170.921C170.921 16.4803 169.99 14.1522 168.127 12.6994C166.265 11.2467 163.732 10.5203 160.528 10.5203C158.74 10.5203 157.232 10.744 156.003 11.191C154.773 11.6377 153.767 12.2152 152.985 12.9228C152.203 13.6304 151.644 14.4128 151.309 15.2696C150.973 16.1265 150.806 16.9461 150.806 17.7281C150.806 19.2926 151.085 20.5405 151.645 21.4717C152.203 22.403 153.079 23.1294 154.27 23.6509C155.09 24.0231 156.021 24.3585 157.064 24.657C158.107 24.9548 159.318 25.2713 160.696 25.6064C161.925 25.9048 163.136 26.2026 164.328 26.5004C165.52 26.7986 166.572 27.199 167.485 27.7017C168.397 28.2047 169.142 28.8473 169.72 29.6297C170.297 30.4117 170.586 31.4362 170.586 32.7025C170.586 33.932 170.297 34.9749 169.72 35.8314C169.147 36.6838 168.394 37.3993 167.513 37.9271C166.619 38.467 165.622 38.858 164.523 39.1002C163.425 39.3423 162.354 39.4634 161.311 39.4634C157.921 39.4634 155.323 38.7091 153.516 37.2007C151.709 35.6919 150.806 33.3173 150.806 30.0764H149.689C149.689 33.6898 150.666 36.3345 152.622 38.0109C154.578 39.687 157.474 40.5251 161.311 40.5251C162.54 40.5251 163.778 40.3853 165.026 40.1059C166.274 39.8266 167.392 39.3705 168.379 38.737C169.357 38.1125 170.179 37.2714 170.781 36.2788C171.396 35.2727 171.703 34.0436 171.703 32.5909C171.703 31.2125 171.433 30.0951 170.893 29.2383C170.353 28.3818 169.646 27.6739 168.77 27.1151C167.895 26.5564 166.907 26.1188 165.809 25.8022C164.704 25.4838 163.595 25.1763 162.484 24.88C161.116 24.5212 159.747 24.1674 158.377 23.8186C157.204 23.5204 156.114 23.1666 155.108 22.7568C154.14 22.347 153.367 21.7605 152.79 20.9969C152.212 20.2333 151.924 19.1437 151.924 17.7281C151.924 17.4676 151.998 17.0018 152.147 16.3314C152.296 15.6607 152.65 14.9809 153.209 14.2917C153.767 13.6029 154.624 12.9882 155.779 12.4479C156.934 11.908 158.517 11.6377 160.528 11.6377C161.907 11.6377 163.164 11.7869 164.3 12.0847C165.436 12.3829 166.414 12.8577 167.233 13.5097C168.053 14.1616 168.686 14.9903 169.133 15.996C169.58 17.0021 169.804 18.2312 169.804 19.6839H169.803Z" fill="#222222"/>
</svg>
