<svg width="50" height="49" viewBox="0 0 50 49" fill="none" xmlns="http://www.w3.org/2000/svg">
<g clip-path="url(#clip0)">
<path d="M25 0C11.1961 0 0 11.1934 0 25C0.0003014 30.2489 1.65242 35.3646 4.72226 39.6222C7.79209 43.8798 12.1239 47.0634 17.104 48.7218C18.3512 48.9539 18.7561 48.1819 18.7561 47.5205V42.8666C11.7954 44.3783 10.3553 39.916 10.3553 39.916C9.21742 37.0262 7.57748 36.2582 7.57748 36.2582C5.30855 34.706 7.75024 34.7384 7.75024 34.7384C10.2608 34.9139 11.5822 37.3164 11.5822 37.3164C13.8106 41.1362 17.4293 40.0321 18.8573 39.3937C19.08 37.774 19.7279 36.674 20.4446 36.0517C14.8918 35.416 9.05545 33.2726 9.05545 23.6948C9.05545 20.9643 10.0313 18.7345 11.6294 16.9852C11.3716 16.3535 10.5145 13.8093 11.8737 10.3715C11.8737 10.3715 13.9739 9.69658 18.7574 12.936C22.8551 11.8148 27.1787 11.8148 31.2763 12.936C36.049 9.69658 38.1452 10.3715 38.1452 10.3715C39.5057 13.8147 38.6486 16.3589 38.3908 16.9852C39.9943 18.7399 40.9634 20.9656 40.9634 23.6948C40.9634 33.2969 35.115 35.4119 29.5486 36.0301C30.4449 36.8062 31.2628 38.3247 31.2628 40.6598V47.5205C31.2628 48.1846 31.6677 48.9661 32.9325 48.7204C37.9053 47.0555 42.2288 43.8694 45.2916 39.6127C48.3545 35.356 50.0016 30.2441 50 25C50 11.1934 38.8066 0 25 0Z" fill="#F4F4F4"/>
</g>
<defs>
<clipPath id="clip0">
<rect width="50" height="48.7663" fill="white"/>
</clipPath>
</defs>
</svg>
