<svg width="50" height="57" viewBox="0 0 50 57" fill="none" xmlns="http://www.w3.org/2000/svg">
<path fill-rule="evenodd" clip-rule="evenodd" d="M29.8 6.43807L41.3519 13.108C41.6854 12.7551 42.0682 12.4522 42.4882 12.2088C44.8839 10.8314 47.9398 11.6492 49.3314 14.0451C50.7087 16.441 49.891 19.4966 47.4951 20.8882C47.0781 21.1284 46.6288 21.3073 46.1609 21.4195V34.7642C46.6237 34.8766 47.0681 35.0543 47.4808 35.2919C49.891 36.6835 50.7087 39.7394 49.3171 42.1353C47.9398 44.531 44.8697 45.3487 42.4738 43.9716C42.0096 43.7053 41.5915 43.3658 41.2355 42.9663L29.7539 49.5952C29.922 50.1043 30.0074 50.6372 30.0068 51.1733C30.0068 53.9278 27.7689 56.1804 25 56.1804C22.2311 56.1804 19.9932 53.9421 19.9932 51.1733C19.9932 50.6811 20.0639 50.2058 20.1957 49.7567L8.64691 43.0888C8.31706 43.4347 7.93972 43.7319 7.52621 43.9716C5.11606 45.3487 2.0602 44.531 0.682862 42.1353C-0.694284 39.7394 0.123488 36.6835 2.51919 35.2919C2.9319 35.0542 3.37632 34.8765 3.8391 34.764V21.4195C3.37121 21.3073 2.92189 21.1284 2.50493 20.8882C0.109035 19.5111 -0.708737 16.441 0.668604 14.0451C2.04594 11.6492 5.11586 10.8314 7.51175 12.2088C7.92954 12.4509 8.31039 12.7519 8.64261 13.1023L20.1979 6.43065C20.0616 5.96833 19.9927 5.4888 19.9932 5.00683C19.9932 2.23828 22.2311 0 25 0C27.7689 0 30.0068 2.23808 30.0068 5.00683C30.0068 5.50448 29.9346 5.98475 29.8 6.43807ZM28.5965 8.49315L40.1759 15.1787C39.9916 15.8232 39.9387 16.4983 40.0204 17.1637C40.1022 17.829 40.317 18.4712 40.6519 19.0519C41.3568 20.2781 42.505 21.091 43.7795 21.4078V34.7691C43.7144 34.7849 43.6498 34.8023 43.5855 34.8206L28.4619 8.62694C28.5076 8.58319 28.5525 8.53865 28.5965 8.49334V8.49315ZM21.5412 8.62987L6.41781 34.8232C6.35242 34.8043 6.28665 34.7867 6.22055 34.7704V21.4078C7.49496 21.091 8.6432 20.2781 9.34808 19.0519C9.6837 18.4701 9.89865 17.8266 9.98009 17.1598C10.0615 16.4931 10.0078 15.8168 9.8221 15.1713L21.3982 8.48768C21.4449 8.53592 21.4926 8.58338 21.5412 8.62967V8.62987ZM26.399 9.81639L41.5189 36.0038C41.1726 36.3343 40.8757 36.713 40.6375 37.1282C40.3998 37.541 40.2221 37.9854 40.1097 38.4482H9.89066C9.7781 37.9854 9.60028 37.5409 9.36253 37.1282C9.12347 36.7159 8.82716 36.3395 8.48246 36.0103L23.6053 9.81756C24.0587 9.94811 24.5282 10.0141 25 10.0137C25.4857 10.0137 25.9551 9.9449 26.399 9.81639ZM28.7027 47.8003L40.207 41.1581C40.1725 41.0497 40.1417 40.9401 40.1146 40.8296H9.88421C9.86819 40.8946 9.85081 40.9591 9.83226 41.0234L21.3928 47.6981C21.8596 47.2127 22.4199 46.8268 23.0398 46.5635C23.6597 46.3003 24.3265 46.1653 25 46.1665C25.697 46.1653 26.3866 46.31 27.0243 46.5914C27.662 46.8728 28.2338 47.2846 28.7027 47.8003V47.8003Z" fill="#E535AB"/>
</svg>
