<svg width="50" height="50" viewBox="0 0 50 50" fill="none" xmlns="http://www.w3.org/2000/svg">
<g clip-path="url(#clip0)">
<path d="M39.5835 8.98588e-08H10.4166C9.04811 0.000179182 7.69311 0.26996 6.42895 0.793931C5.16479 1.3179 4.01625 2.0858 3.04893 3.05375C2.08161 4.0217 1.31446 5.17075 0.791321 6.43525C0.268177 7.69975 -0.000715702 9.05493 1.43065e-06 10.4234V39.5903C0.00108698 42.3523 1.09898 45.0009 3.05231 46.9537C5.00563 48.9065 7.6545 50.0037 10.4166 50.0041H39.5835C42.3461 50.0041 44.9956 48.9066 46.9491 46.9532C48.9026 44.9997 50 42.3502 50 39.5875V10.4234C50.0011 9.05483 49.7325 7.69949 49.2094 6.43483C48.6864 5.17016 47.9193 4.02098 46.9519 3.05295C45.9845 2.08493 44.8358 1.31704 43.5715 0.7932C42.3072 0.269356 40.952 -0.000179674 39.5835 8.98588e-08V8.98588e-08ZM16.6662 39.5807H10.4166V16.6662H16.6662V39.5807ZM13.5421 14.0252C12.8139 14.0312 12.1003 13.8207 11.4919 13.4204C10.8836 13.0202 10.4078 12.4483 10.125 11.7772C9.84217 11.1061 9.76509 10.3661 9.9035 9.6512C10.0419 8.93624 10.3896 8.27852 10.9024 7.76147C11.4152 7.24443 12.0701 6.89138 12.7839 6.7471C13.4977 6.60283 14.2382 6.67384 14.9116 6.95113C15.585 7.22842 16.1608 7.69949 16.566 8.30456C16.9712 8.90964 17.1876 9.62145 17.1876 10.3497C17.1912 11.3204 16.8093 12.2529 16.1257 12.9421C15.4421 13.6313 14.5128 14.0209 13.5421 14.0252ZM41.6662 39.5834H35.4166V27.9085C35.4166 20.8918 27.0828 21.4227 27.0828 27.9085V39.5834H20.8372V16.6662H27.0869V20.3431C29.9954 14.9561 41.6703 14.5575 41.6703 25.5023L41.6662 39.5834Z" fill="#F4F4F4"/>
</g>
<defs>
<clipPath id="clip0">
<rect width="50" height="50" fill="white"/>
</clipPath>
</defs>
</svg>
