<svg width="50" height="51" viewBox="0 0 50 51" fill="none" xmlns="http://www.w3.org/2000/svg">
<path d="M50 0.0300293V50.0056H0V0.0300293C0.150482 0.0300293 0.301519 0.0300293 0.452557 0.0300293H49.7618H50ZM17.1877 42.2872C17.3104 42.2927 17.4165 42.3016 17.5209 42.3016C18.396 42.3016 19.2709 42.3016 20.1457 42.3016C21.1274 42.3016 22.1085 42.3016 23.0887 42.3016C23.1892 42.3016 23.2897 42.2933 23.3986 42.2888C23.3986 30.2532 23.3986 18.2284 23.3986 6.21423C23.3947 6.1876 23.3884 6.16139 23.3797 6.13593H23.2081C21.2624 6.13593 19.3169 6.13593 17.3715 6.13593C17.1216 6.13593 17.1322 6.13593 17.1322 6.37915C17.1322 10.9365 17.1322 15.494 17.1322 20.0514C17.1322 20.2246 17.1322 20.3979 17.1322 20.5711C17.1322 20.6116 17.1244 20.6522 17.12 20.6922H17.09C17.0561 20.5811 17.0233 20.4673 16.9884 20.3551C16.9423 20.2085 16.8934 20.063 16.8479 19.9164C16.8023 19.7698 16.7546 19.6055 16.7079 19.45C16.6613 19.2945 16.6141 19.1385 16.5686 18.9824C16.528 18.8436 16.493 18.7048 16.4486 18.5649C16.3814 18.3555 16.3031 18.1501 16.2376 17.9402C16.1721 17.7303 16.121 17.5281 16.0621 17.3221C16.0405 17.2461 16.0172 17.1705 15.9927 17.0956C15.9478 16.9584 15.8994 16.8229 15.8572 16.6852C15.7878 16.4587 15.7223 16.231 15.6546 16.0039C15.6068 15.844 15.5568 15.6846 15.5091 15.5247C15.448 15.3226 15.3891 15.1193 15.3264 14.9178C15.2836 14.78 15.2331 14.6446 15.1904 14.5068C15.1182 14.2764 15.0499 14.0443 14.9793 13.8133C14.9371 13.6756 14.8911 13.5356 14.85 13.4002C14.7878 13.1897 14.7311 12.9781 14.6667 12.7682C14.6023 12.5584 14.534 12.3618 14.4696 12.1574C14.4141 11.9853 14.3658 11.8115 14.3141 11.6382C14.2675 11.4822 14.2219 11.3256 14.1742 11.1701C14.1286 11.0235 14.0792 10.8781 14.0343 10.7315C13.9893 10.5849 13.9454 10.4294 13.901 10.2784C13.8621 10.1434 13.826 10.0079 13.7833 9.87411C13.7144 9.66088 13.6378 9.45042 13.5711 9.23664C13.5045 9.02286 13.4523 8.81463 13.3885 8.60473C13.3246 8.39483 13.2563 8.19826 13.193 7.99391C13.1225 7.7668 13.0558 7.53858 12.9875 7.31091C12.9015 7.02494 12.8171 6.73842 12.7288 6.453C12.6955 6.34583 12.6538 6.24144 12.6177 6.14315H6.49738C6.49006 6.15278 6.48356 6.16299 6.47794 6.17369C6.4743 6.18177 6.47205 6.19041 6.47128 6.19924C6.47128 6.22589 6.46795 6.25476 6.46795 6.27864C6.46795 18.2728 6.46999 30.2669 6.47406 42.2611C6.47485 42.2654 6.47677 42.2694 6.47961 42.2727C6.48557 42.2793 6.49187 42.2856 6.49849 42.2916C6.54014 42.2955 6.59233 42.3038 6.64509 42.3038C8.58599 42.3038 10.5271 42.3038 12.4683 42.3038C12.5378 42.3038 12.6072 42.2916 12.6905 42.2844V26.9724C12.6905 26.9236 12.6905 26.8747 12.6905 26.8258C12.6974 26.7959 12.7071 26.7668 12.7193 26.7386L17.1877 42.2872ZM32.7251 29.469C32.5646 29.5017 32.418 29.5301 32.2726 29.5617C32.1698 29.5834 32.0677 29.6083 31.9655 29.6333C31.8516 29.6617 31.7384 29.6939 31.624 29.72C31.5002 29.7483 31.3747 29.771 31.2503 29.7971C31.1731 29.8138 31.0959 29.8316 31.0193 29.8527C30.8866 29.8854 30.7555 29.9215 30.6228 29.9521C30.4412 29.9932 30.2585 30.0281 30.0775 30.0703C29.9581 30.0981 29.8415 30.1386 29.7216 30.1659C29.525 30.2103 29.3268 30.248 29.1296 30.2897C29.0397 30.3086 28.9503 30.3286 28.8609 30.3497C28.7254 30.3824 28.5905 30.4174 28.455 30.4496C28.3478 30.4751 28.2401 30.4974 28.1329 30.5229C27.9996 30.5546 27.868 30.589 27.7348 30.6195C27.5576 30.6601 27.3794 30.695 27.2028 30.7367C26.9979 30.785 26.7941 30.8394 26.5892 30.8888C26.4871 30.9133 26.4721 30.9255 26.4676 31.0271C26.4676 31.0799 26.4676 31.1337 26.4676 31.187C26.4676 33.4163 26.4676 35.6461 26.4676 37.8765C26.4624 38.2003 26.474 38.5241 26.5026 38.8466C26.5279 39.092 26.5732 39.3349 26.6381 39.5729C26.7138 39.8426 26.8241 40.1013 26.9663 40.3425C27.1091 40.5898 27.2775 40.8213 27.4688 41.0333C27.6415 41.2263 27.8327 41.4019 28.0396 41.5575C28.2479 41.7166 28.4732 41.852 28.7115 41.9612C28.9128 42.061 29.1256 42.1356 29.3451 42.1833C29.4828 42.2072 29.6161 42.2605 29.7538 42.2749C29.9658 42.2963 30.1788 42.3063 30.3918 42.3049C33.5764 42.2933 36.7609 42.3321 39.9427 42.2888C40.1372 42.2781 40.3305 42.2515 40.5207 42.2094C40.6871 42.171 40.8508 42.1215 41.0105 42.0612C41.3138 41.9565 41.5997 41.8067 41.8584 41.6169C42.0992 41.4424 42.3223 41.2449 42.5248 41.0272C42.7521 40.7885 42.9474 40.5212 43.1056 40.232C43.297 39.8805 43.4273 39.4989 43.491 39.1037C43.5292 38.8721 43.5477 38.6377 43.5465 38.4029C43.5491 30.5757 43.5491 22.7484 43.5465 14.9211C43.5465 14.7062 43.5465 14.7056 43.3355 14.7056H37.4634C37.4367 14.7056 37.4078 14.7056 37.3834 14.7056C37.2862 14.7112 37.2673 14.7267 37.2618 14.825C37.2568 14.9133 37.259 15.0027 37.259 15.0916V35.7887C37.259 36.0108 37.259 36.0108 37.0402 36.0108H32.9867C32.7645 36.0108 32.7573 36.0441 32.7573 35.7753C32.7573 33.7719 32.7573 31.7686 32.7573 29.7655C32.7604 29.7122 32.7604 29.6588 32.7573 29.6056C32.7499 29.5593 32.7392 29.5137 32.7251 29.469V29.469Z" fill="#1D4914"/>
</svg>
