<svg id="Layer_1" data-name="Layer 1" xmlns="http://www.w3.org/2000/svg" viewBox="0 0 153.05 503.4"><defs><style>.cls-1{fill:#145374;}</style></defs><title>key</title><path class="cls-1" d="M286.35,286.9c1.21,5.18,5.33,6.8,8.92,8.9.3-.16.52-.2.56-.31a7.51,7.51,0,0,1,5.07-4.69,11.35,11.35,0,0,0,3.16-1.69,8,8,0,0,1,6.85-1.07c4.67,1.1,9.37,2.07,14,3.13a9.18,9.18,0,0,1,6.61,5.06,18.47,18.47,0,0,1,1.07,2.66,26.16,26.16,0,0,0,5,8.7,9.13,9.13,0,0,0,4.66,3.22c.54.15,1.07.34,1.59.54,4,1.53,5.08,3.07,5,7.36a11.67,11.67,0,0,0,1,4.88,9.93,9.93,0,0,1,.59,3.69c0,1.07-.62,2.15.68,3,.25.16.2,1.07,0,1.55a4.18,4.18,0,0,1-2.87,2.67c-.67.21-1.34.39-1.94.57.2,4.27.5,8.33.57,12.39a58.33,58.33,0,0,1-1.43,15c-.55,2.22-.6,4.58-1.19,6.79-5.3,19.86-24.06,29.45-41.64,27.5-2.06-.23-4.1-.66-6.15-1-1.7-.3-1.88-.29-2.57,1.29-.45,1.05-1.52,2.06-.3,3.41.25.27-.32,1.48-.74,2.1a22.53,22.53,0,0,1-2.22,2.44,19.9,19.9,0,0,0,1.74,1.39,4.15,4.15,0,0,1,2.11,3.56c.09,2.78.13,5.57.09,8.36a3.31,3.31,0,0,1-.75,1.72,1.69,1.69,0,0,0-.09,2.36,7.11,7.11,0,0,1,1.31,4.53,22.86,22.86,0,0,1,0,4.3,21.58,21.58,0,0,1-1.39,3.83c2.45,2.49,1.35,6.06,1.71,9.3a71.8,71.8,0,0,1,.13,10.27,15.27,15.27,0,0,1-1.21,3.74c2.87,3.34,1.72,7.53,1.62,11.52,0,.87-1,1.71-1.56,2.59l1.81-.55a3.85,3.85,0,0,1-2.59,3.88c-2.36.84-2.75,2.38-2.67,4.63q.9,25.17,1.62,50.35c.34,11.76.51,23.51.85,35.27.48,16.94,1.07,33.89,1.57,50.83.32,10.8.51,21.59.85,32.39.48,14.94,1.05,29.89,1.55,44.83a36.41,36.41,0,0,1-.11,4.79,21.12,21.12,0,0,1-.75,3.23l.93.26a2.36,2.36,0,0,1-2.45,2.14c-3,.29-6,.57-9.07.68q-20.27.71-40.53,1.32c-4.63.14-9.27.26-13.91.23-2.67,0-3.21-.85-3.83-3.56-1.2-5.28-.83-10.66-1.13-16-.43-7.59-.83-15.18-1.06-22.77-.25-8.31-.29-16.63-.4-24.94a6.67,6.67,0,0,1,1.31-4.57c.37,2.14.75,4,1,5.85.17,1.28.56,2.29,2.06,2.51-1.26,1.52-1.49,3-.66,4.43a2,2,0,0,0,1.11.74c.21.05.54-.39,1-.75l-1.58-1c.62-1.33,1.15-2.56,1.77-3.73a3.54,3.54,0,0,1,1.09-1.25c2.2-1.53,2.21-1.51,3.4-3.85,1.21-.24,2.54-.45,3.83-.77s2.34-.7,3.48-1.06l.78,1.84c.29-.27.53-.38.59-.56a1.72,1.72,0,0,1,2.19-1.34,11,11,0,0,0,5.15-.31,45.19,45.19,0,0,1,7.56-.82c1.87-.14,3.72-.78,5.63-.07.43.16,1.06-.27,1.61-.34a9.69,9.69,0,0,1,2.56-.2,2.51,2.51,0,0,0,2.81-1.57,7.78,7.78,0,0,0-1.66-.37c-6.61.23-13.23.52-19.85.75-6.93.23-13.87.41-20.81.61a8.18,8.18,0,0,1-1.1-.1l-.07-.48a17.79,17.79,0,0,1,2.17-.34c5.67-.23,11.35-.42,17-.63l20.14-.73c3.73-.14,4.19-.5,4.14-4.22-.08-6.8-.29-13.59-.5-20.39-.29-9.5-.7-19-.95-28.51-.14-5.51-.05-11-.13-16.54,0-2.48-.23-4.95-.36-7.42-.23-4.31-.52-8.62-.69-12.93-.09-2.39.06-4.78,0-7.17-.05-2.63-.19-5.26-.32-7.88-.06-1-.28-2.07-.31-3.1-.21-7.83-.37-15.67-.57-23.5-.16-6.39-.39-12.78-.53-19.17a4.19,4.19,0,0,0-2.83-4.25c-3-1.24-3.5-2.35-2.76-5.55a1.71,1.71,0,0,0,0-.92c-1.22-3.34-.44-6.47,1-9.51a1.93,1.93,0,0,0-.43-2.36c-2.18-2.57-2-5.38-.75-8.27a8.06,8.06,0,0,0,.8-1.46,2.28,2.28,0,0,0-.19-1.7c-2.28-2.29-2.15-5.08-1.63-7.86a13.77,13.77,0,0,0-.14-5.68A22.34,22.34,0,0,1,260,427a6.21,6.21,0,0,1,1.48-2.86c1-1.4,1.18-1.65,0-2.81a5.2,5.2,0,0,1-1.58-3.39c-.15-1.43-.25-2.87-.33-4.3a7.17,7.17,0,0,1,2.5-6.18c1.52-1.31,1.5-2.11-.14-3.24-1.88-1.3-2.39-3-2.55-5.12-.2-2.63-.48-2.72-2.91-2.08-13.64,3.63-26.23,1.42-37.38-7.31a32.61,32.61,0,0,1-11.54-17.82,26.83,26.83,0,0,0-1.17-3.09c-2.8-7.06-3.43-14.43-3.06-21.93.09-2,.31-4,.38-6s-.11-2.38-2.1-3.17a4.7,4.7,0,0,1-3.05-2.5c-.6-1.53.05-2.6,1.48-2.84a45.08,45.08,0,0,0,.41-5.47,39.21,39.21,0,0,0-.83-5.23c1.85-.24,2.46-1.39,2.76-2.9a3.67,3.67,0,0,1,2.43-2.78c4-1.4,6.81-4.19,9.24-7.54,1-1.44,1.73-2.72,1.06-4.6-.33-.93,0-2.11.06-3.18l.5-.06.76,2a17.23,17.23,0,0,0,1-2,9.86,9.86,0,0,1,7.83-6.93c3.76-.78,7.46-1.82,11.17-2.78a9.83,9.83,0,0,1,7.21.78c2.13,1.1,4.36,2,6.49,3.08a21.49,21.49,0,0,1,2.74,2c1.95-1.11,4.15-2.34,6.32-3.61a1.62,1.62,0,0,0,.73-.91c.62-3,2.46-5.73,1.91-9-.13-.8,0-1.54-.88-2a3.56,3.56,0,0,1-1.11-1.23,9.83,9.83,0,0,0-4-3.69,5.87,5.87,0,0,1-3.17-4.53c-.12-.78-.41-1.55-.5-2.34a5.15,5.15,0,0,0-2-3.39,32.37,32.37,0,0,1-9.68-13.51c-2.91-8.06-3.81-16.22-1.23-24.66a37.05,37.05,0,0,1,11.35-17.18c3.85-3.4,8.57-5.2,13.53-6.38,17.19-4.12,34.38,4.69,40.8,22a33,33,0,0,1,1.81,13.94,5.75,5.75,0,0,0,1.32,4.15,28.76,28.76,0,0,1,5.71,22.36c-.71,4.71-2.06,9-5.19,12.67-4.79,5.62-11.06,7.59-18.2,7.43C289.11,286.87,287.92,286.9,286.35,286.9ZM241.68,665.21a1.3,1.3,0,0,0,.43-.2,10.16,10.16,0,0,0,.7-.76l-.5-.44a10.58,10.58,0,0,0-.68,1c-.06.1.06.3.07.44h-1.59l.07.46Zm85-319.51c-1.56.33-2.43,1.21-3.08,3.49a10.9,10.9,0,0,0,1.65-1.35,18.14,18.14,0,0,0,1.38-2.2c.08-1,1.59-1.68.77-3.4C326.76,343.62,326.14,344.53,326.7,345.7Zm5.09,3.16-3.63,4.54c1.91-.57,2.73-2.25,4.06-3.34l-.43-1.2c1.19.11,1.19.11,1.38-.93ZM289.24,393c-.5,1.34-1,2.68.18,4l-.19-4c-.1-2.71.54-5.47-.27-8.12-1.13,0-1.38.46-1.31,1.21.2,2,.37,4.09.65,6.13C288.34,392.55,288.92,392.76,289.24,393ZM276,469.72l-.78-.9-.3.47,1.14.36c1.14,1.9,1.14,1.9,3.4.41-.18-1.23-.37-2.47-.59-4,2.23-.27,1.55-2.47,2.36-3.81.43-.7-.2-1.41-1.09-1.36-1.32.08-2.64.31-3.59.42l-1.92,5.12c.6,1.68,2.22,1.33,4.06,1.71ZM226.55,328a7.36,7.36,0,0,0,2.2-.46,35.73,35.73,0,0,1,10-3.9,34.53,34.53,0,0,1,8.25-1.23c4.26.16,8.62-.17,12.76,1.34a9.45,9.45,0,0,0,2,.13,9,9,0,0,0-1.47-1.45,7.12,7.12,0,0,1-3.93-8,7.69,7.69,0,0,0,0-1c.11-3.27,2.1-5.2,5.33-5.05a20.07,20.07,0,0,1,3,.57c.82.18,1.62.39,2.47.59.13-2.49-.18-3.4-1.46-3.56-2.14-.27-4.3-.4-6.23,1s-3.92,2.76-5.94,4a4.07,4.07,0,0,0-2.26,3.6c-.13,3.16-1.73,4.81-4.79,5.42a19.81,19.81,0,0,1-3.09.24,19.17,19.17,0,0,0-2.63.08,27.83,27.83,0,0,0-13.51,6.3c-.36.31-.47.9-.7,1.36l-1.46.73.37.49Zm56.71,267.83c-2,1.37-2.17,1.43-1.93,3.25.18,1.35-.24,2.92,1.07,3.88-1.28,4.61,0,9.2-.33,13.75,1.09.3,1.51.07,1.55-1a16.06,16.06,0,0,1,.44-3.3c.28-1.11.23-2-1.06-2.66,1.14-1,1-1.87.11-2.58.46-.49,1.09-.86,1.13-1.27.15-1.72.5-3.56.08-5.17-.52-2-.58-3.67,1.07-5.57l-2.2.7c1-3.09-.65-6.48,1.09-9.49-.25-2.12-.52-4.24-.75-6.37a5.39,5.39,0,0,1,0-1.88,2.83,2.83,0,0,0-.85-3.24c.43-.61,1.15-1.17,1.09-1.63a23.45,23.45,0,0,1,0-5.86,1.48,1.48,0,0,0-.3-.9c-1.68-2.35-.64-5.08-1-7.62-.27-1.77.25-3.65.21-5.47-.12-4.68-.1-9.38-.61-14-.43-4,.44-8-.12-12.05-.28-2-.31-4.1-.43-6.15a19.18,19.18,0,0,1-.09-3.93,24.53,24.53,0,0,0,0-9.88,11.71,11.71,0,0,1-.06-3.44c0-2.17-.32-4.33.38-6.46.08-.27-.15-.62-.18-.93-.33-3.23-.61-6.46-.95-9.68-.21-1.89-.46-3.78-.75-5.65a1.87,1.87,0,0,0-1.77-1.69c-.1,1.11-.22,2.1-.25,3.1-.08,2.48-.12,4.95-.16,7.42,0,.56,0,1.11,0,1.67.19,2.69.4,5.39.59,8.09a3,3,0,0,1,0,.95c-.93,3.64.17,7.28,0,10.93a65.37,65.37,0,0,0,.53,9.78c.4,3.53-.55,7.12.54,10.61.1.34-.15.77-.2,1.16a10,10,0,0,0-.15,1.88c.54,6.33,1.51,12.63,1.15,19-.12,2.11,0,4.23.1,6.35a58.53,58.53,0,0,0,.34,7.39,58.25,58.25,0,0,1,.49,7.8l.15,7.14c0,.39,0,.79,0,1.19q0,5.91,0,11.79Zm40.56-262,.81-.2-.36-.47-.36.77-1.29-1.55c.3-.28.41-.46.52-.47.72-.06,1.25-.28,1.21-1.14s-.71-1.24-1.46-1.21a12.62,12.62,0,0,0-2.24.47c.41-1.44-.46-2.31-1.85-2.87a33.53,33.53,0,0,1-3.26-1.38,1.62,1.62,0,0,0-2,.14c-.34.28-.7.52-1.16.86-.76-1.6-1.68-3-3.38-2.87-2.77.18-5.48-.53-8.2-.37a29.94,29.94,0,0,0-10.35,2.8,30.61,30.61,0,0,0-7.58,4.5c-1.53,1.3-3.22.83-4.18-.89-1.28-2.29-1.16-3.67.49-5.71.45-.56.91-1.11,1.32-1.7a32.7,32.7,0,0,1,8.3-7.7,2.32,2.32,0,0,0,.94-3.18,2,2,0,0,0-2.59-1.49,12.53,12.53,0,0,0-6.78,3.79,11.43,11.43,0,0,1-3.45,2.44,41.81,41.81,0,0,1,.91-9.74c.51-3.08,1.46-6.09,2.22-9.16-2.3.54-2.45.7-4.85,5-2.84-.58-3.38-4.53-6.69-4.87a14.43,14.43,0,0,1,1.26,2.53c1.16,4.36,2.58,8.65,3,13.22.11,1.33-.07,1.9-1.23,2.36a30.52,30.52,0,0,0-3.13-2.16,44.64,44.64,0,0,0-5.63-2.57c-1.27-.46-2.42.4-2.9,1.81-.32.95,0,2.23,1,2.37,1.62.24,2.38,1.48,3.48,2.34a31.44,31.44,0,0,1,7.49,8.27,4.37,4.37,0,0,1-.86,5.41c-1.24,1.12-2.37,1-4.23-.44a23.55,23.55,0,0,0-7.71-4.24c-3-.89-6-1.76-9.15-1.51a28.26,28.26,0,0,1-4,.29,13.4,13.4,0,0,0-9.18,2.5,1.5,1.5,0,0,1-.88.27,5.59,5.59,0,0,0-3.31,1.14c-1.76,1.17-3.68,2.09-5.47,3.21a4.47,4.47,0,0,0-2.12,3.46c-.47,3.27,1.68,5.94,1.62,9.06,0,.13.17.26.27.39l2.73,3.29c.95,1.15,1.36,1.2,2.51.13.63-.6,1.13-1.34,1.77-1.93A3.58,3.58,0,0,0,235,343.2c-1.23-4.93,2.27-9.82,7.16-11.46a22.3,22.3,0,0,1,5.12-1.21c2.45-.21,5-.17,7.19,1.15,1.71,1,3.28,2.25,4.94,3.35,1.18.79,2.49,1.44,3.59,2.33,1.73,1.4,3.25,3.05,5,4.44,3.31,2.62,5.89,5.69,6.7,10,.2,1,.87,1,1.69.73a29.89,29.89,0,0,1,1.36-3.71,29.31,29.31,0,0,1,6-7.58,121.73,121.73,0,0,1,9.68-8.74,15.82,15.82,0,0,1,14.22-3c3.47.88,7,2.24,8.27,6.13a11.79,11.79,0,0,1,.7,5.13c-.4,2.95,1.38,4.24,3.41,5.44.4.24,1.53.12,1.66-.15,1-2,3.07-3.06,3.75-5.42C326.41,337.15,326.44,336,323.82,333.85Zm-104.11,33-.54.56c1,1.81,1.86,3.66,2.89,5.42,3.63,6.17,9.35,9.51,16,11.26a24.34,24.34,0,0,0,16.18-1.53,10.83,10.83,0,0,0,5.63-5.34,16.28,16.28,0,0,0,.93-4.66c.4-3.07.19-3.39-2.67-4.75a16.32,16.32,0,0,1-1.76-.75,10.26,10.26,0,0,1-2.47-1.82,6.84,6.84,0,0,1-1.27-5.35c1.07-1.14,1.77-1.94,2.53-2.69a14.36,14.36,0,0,1,1.79-1.5,23,23,0,0,0,2-1.29,4.35,4.35,0,0,1,3.1-1,16,16,0,0,1,6.85,1.94,13.42,13.42,0,0,0,1.74.51,18.67,18.67,0,0,0-.35-1.86,15.75,15.75,0,0,0-5.05-6.87c-3.18-2.77-6.82-4.92-10.15-7.51a11.13,11.13,0,0,0-9.92-2.29c-3,.75-5.52,2-7.35,4.46,0,1.77-.09,3.61,0,5.44a6.28,6.28,0,0,1-1.35,4.47c-.59.74-1.26,1.43-1.86,2.18-1.09,1.37-2.18,2.77-2.32,4.61-.1,1.35-.1,2.71-.12,4.07-.06,3.77-2.07,6.06-5.79,6.22a13.93,13.93,0,0,1-4.17-.8A17.4,17.4,0,0,1,219.71,366.85Zm111.73-2.55a30.35,30.35,0,0,1-3.05,1.62c-4.34,1.7-8.57-.14-9.25-4.82a25.62,25.62,0,0,1-.32-4.28,5.06,5.06,0,0,0-.92-3.12,10.68,10.68,0,0,0-1.76-2.27,10.83,10.83,0,0,1-3.89-8.88,1.94,1.94,0,0,0,0-.24,6.91,6.91,0,0,0-6.76-6.14c-3.48-.06-6.56,1.38-9.6,2.71-6,2.58-10.14,7.39-14.21,12.21a5.49,5.49,0,0,0-1.28,4.57,15.09,15.09,0,0,0,2.51-1,14.73,14.73,0,0,1,6.31-2.11,7.29,7.29,0,0,1,5.46,1.29c2.18,1.71,3.75,3.7,3.81,6.8,0,2.93-.34,4.21-3,5.57-1.06.55-2.18,1-3.2,1.62-1.91,1.16-2,1.41-1.45,3.5.29,1.16.5,2.34.84,3.49a4.2,4.2,0,0,0,.9,1.9c2.13,2,4.2,4.28,7.09,5.12,7.21,2.1,14.17,1.71,20.79-2.27a36.38,36.38,0,0,0,8-7.09c1.5-1.66,2.33-3.94,3.4-6A1.48,1.48,0,0,0,331.44,364.3ZM259.77,255.71v-2.56c0-1.76-.12-3.53,0-5.27.7-7.49,4.85-13,12.93-14,1.59-.19,1.88-.53,2.24-2.29.45-2.23.87-2.63,3.06-2.89A24.6,24.6,0,0,1,288.9,230c1,.34,2.06.6,3.1.9l.41-.43a20.49,20.49,0,0,0-1.3-2.9c-3.89-6-9.7-9-16.59-9.67-9.92-.93-18.61,4.28-23,13.26a16.2,16.2,0,0,0-1.83,7.85c.27,6.59,3.42,11.67,8.29,15.84A10.89,10.89,0,0,0,259.77,255.71Zm-52.26,91a3.49,3.49,0,0,0-.24.82,42.07,42.07,0,0,0,1.07,12.54,50.48,50.48,0,0,0,7.18,17.52,27.56,27.56,0,0,0,6.84,7.27c4,2.92,8.06,5.62,13.18,6.46,3.93.65,7.79,1.59,11.81.9,1.41-.24,2.82-.49,4.22-.79,2.38-.51,4.75-1.06,7.13-1.6a.74.74,0,0,0,.41-.24,24.21,24.21,0,0,0,2.82-4.63c.49-1.4.22-3.08.31-5-1.08.72-1.95,1.23-2.74,1.84a20.57,20.57,0,0,1-7.27,4,26.2,26.2,0,0,1-9,1c-5.62-.54-11-1.81-15.75-5.08-4.39-3-7.12-7.44-10.54-11.28-.15-.17-.18-.44-.31-.64a20.59,20.59,0,0,1-2.11-5.51,9.49,9.49,0,0,1-.27-5.63,5.19,5.19,0,0,0-1.09-4.89c-.67-.82-1.17-1.6.4-2,.21-.06.29-.6.48-1.05l-3.72.51c-.06-1-.11-1.84-.17-2.79,1.69.95,2.37-1.16,3.87-1.57.55,2,2.26,2.38,3.82,3a8.71,8.71,0,0,0-1.31-2c-.44-.55-1.09-1.05-1.25-1.67-.62-2.43-1.1-4.9-1.59-7.36-.23-1.14,0-2.41-1.13-3.51.1,1.78.18,3.3.28,5.14l-2.77-1.59-2.19,5.77,1.07-.29c.17.4.22.93.51,1.15a4.6,4.6,0,0,0,1.48.45C210.07,348.23,208.66,345.63,207.51,346.7Zm65.2-86.45a23,23,0,0,0,21.7-17.46c.38-1.58.23-2.29-1.14-3-4.87-2.58-9.9-4.05-15.38-1.91-1,.41-2.14.62-3.15,1a7.5,7.5,0,0,0-1.73,1.21A22.78,22.78,0,0,1,270.9,242c-3.85,2.43-5.46,6-4.52,10.44a38.9,38.9,0,0,0,1.25,4.37C268.9,260.42,268.93,260.41,272.71,260.25Zm15,.34c2,.5,2.81.54,3.44,0,1.52-1.27,3-2.57,4.48-3.93,3.15-2.94,4.74-6.81,5.9-10.81a35.92,35.92,0,0,0,1.29-8,27.25,27.25,0,0,0-2.4-12.59,30.73,30.73,0,0,0-7.2-10.34,29.32,29.32,0,0,0-13.37-7.12,29.88,29.88,0,0,0-20.57,1.95,29,29,0,0,0-10.83,8.88c-1.6,2.19-3.37,4.42-4.25,6.91-2.4,6.76-3,13.7-.51,20.65a27.26,27.26,0,0,0,7.92,12c1.35,1.13,2.74,2.21,4.12,3.3s1.71,1.12,3.68-.37c-.67-.58-1.26-1.16-1.91-1.66s-1.49-.92-2.15-1.48a29.53,29.53,0,0,1-7.19-9.46A24.8,24.8,0,0,1,245.86,233c1.46-8.33,6.06-14.67,13.22-19.13,6.64-4.13,13.82-4.78,21.23-2.73,5.78,1.6,10.33,5.21,14.17,9.74a7.55,7.55,0,0,1,1.22,1.77,41.21,41.21,0,0,1,3,7,30.79,30.79,0,0,1,1,8.74c-.35,7.12-3.52,13.18-8.14,18.5C290.49,258.12,289.22,259.18,287.75,260.59Zm4.67,120.55-.59.68c1.14,2,2.24,3.93,3.42,5.87a1.71,1.71,0,0,0,1.11.76,19.27,19.27,0,0,1,2.49-.1,8.16,8.16,0,0,1,2.11,1.24c.07,0,.16,0,.24,0,6.44,1.88,12.71.6,18.83-1.31a25.22,25.22,0,0,0,10.49-6.05c1.76-1.75,3.93-3.18,5.31-5.17,2.56-3.72,5.08-7.54,5.86-12.17.33-2,1.05-3.87,1.32-5.83.47-3.47.89-6.95,1-10.44a61.67,61.67,0,0,0-.45-7.79,51.6,51.6,0,0,0-.77-5.4,1.89,1.89,0,0,0-2.53-1.43,7.35,7.35,0,0,0-1.32.67,11.84,11.84,0,0,0-.8,2.94,7.08,7.08,0,0,1-1.5,4.82,1.84,1.84,0,0,0,.42,2.73,5.26,5.26,0,0,0,2.56,1.07c1.33.33,2-.78,2.85-1.33.67,1.81-.34,3-1.18,4.18a3.61,3.61,0,0,1-.33.35,1.78,1.78,0,0,0-.18,2.41c1.15,1.66.31,3.55.61,5.31,0,.18-.37.43-.66.74a6.73,6.73,0,0,0-.95-.84c-.9-.55-1.57-.27-1.67.75s-.23,1.94.8,2.57a5.79,5.79,0,0,1,.91.8c-.77.43-1.9.79-1.89,1.11.06,1.28-1.16,1.43-1.62,2.2a11.51,11.51,0,0,0-1.2,1.77,26,26,0,0,1-6.28,9.52,31,31,0,0,1-10.17,7.05,33.07,33.07,0,0,1-12.87,2.24,17.53,17.53,0,0,1-8.8-1.86C295.55,382.41,294,381.83,292.42,381.14ZM272.15,668a6.56,6.56,0,0,0-1.36-1.28,3.29,3.29,0,0,0-1.64-.11c-3.68.15-7.36.18-11,.53a4.39,4.39,0,0,1-4.66-2.51c-1.8-3-3.71-6-5.59-8.93-1.41-2.21-2.13-2.42-4.57-1.46-2.12.84-2.33,1.48-.77,3.28a23.67,23.67,0,0,1,3.89,7.38c1.13,2.92,0,4.84-3,5.48-1.72.37-3.48.54-5.19.93a4.76,4.76,0,0,0-2.29,1.13,2.72,2.72,0,0,0-.63,2.11c.06.34,1.16.54,1.82.71a4,4,0,0,0,1.19,0c3.67-.26,7.33-.51,11-.8,1.26-.11,2.31-.07,3,1.26,1.67,3,3.47,5.92,5.24,8.87a24.15,24.15,0,0,0,1.57,2.4,2.34,2.34,0,0,0,3.38.53c1.13-.65,1.22-1.19.45-2.84-1.17-2.54-2.5-5-3.49-7.63-1.34-3.47-.29-5.13,3.31-5.67,2.29-.35,4.59-.62,6.89-.95A2.39,2.39,0,0,0,272.15,668ZM223.07,296.19l-.55-.27a5.91,5.91,0,0,0-2.7,4.12,21.8,21.8,0,0,1-1.68,5.67c-.92,2-2.46,3.72-3.38,5.72-1.11,2.41-3,3.57-5.31,4.46-1.78.69-3.5,1.52-5.2,2.38a2,2,0,0,0-1.23,2.52,1.87,1.87,0,0,0,2.47,1.3c3.09-.69,6-1.67,7.58-4.83a8.78,8.78,0,0,1,1.11-1.55,1.64,1.64,0,0,1,2.15-.47,1.37,1.37,0,0,1,.79,2,15.51,15.51,0,0,1-2,3.73c-2.38,2.73-5.69,4-9,5.28-1,.37-2,.61-2.92,1a4,4,0,0,0-1.93,3.12,3.21,3.21,0,0,0,3,2c2.13-.27,4.23-.76,6.34-1.2.26-.05.48-.38.68-.61,1.76-2,3-4.51,5.32-6a2.65,2.65,0,0,0,.73-.94c1.64-2.92,3.17-5.84,3.52-9.3.32-3.2,1.6-6,4.82-7.43a9.74,9.74,0,0,0,4.61-4.32,13.57,13.57,0,0,1,6.83-6.09A10.86,10.86,0,0,0,240,294.7a7.37,7.37,0,0,0,1.2-1.85,5,5,0,0,0-4.81-.48c-2.73.86-5.51,1.56-8.26,2.33-.42.12-.82.28-1.46.5.54.69.89,1.19,1.29,1.65,1,1.16,1.25,2.36.39,3.43a5.2,5.2,0,0,1-2.26,1.62c-2.86,1-3.9,0-3.43-2.95C222.76,298,222.92,297.11,223.07,296.19Zm98.56-3.2a8.55,8.55,0,0,0-1.15-.5c-3-.78-6-1.57-9-2.28a4.83,4.83,0,0,0-2.14,0,1.94,1.94,0,0,0-1.17,1c-.11.23.3.92.65,1.11a35.11,35.11,0,0,0,3.84,1.9c2.92,1.23,5.55,2.81,7.11,5.71a8.28,8.28,0,0,0,4.2,3.68c2.77,1.25,5.19,3.15,5.58,6.37a19.63,19.63,0,0,0,2.11,6.53,23.69,23.69,0,0,0,3.57,5.58,39,39,0,0,1,3.45,3.57,4.5,4.5,0,0,0,2.43,1.74,48.26,48.26,0,0,0,6.15.74,2,2,0,0,0,1.11-3.73,33.67,33.67,0,0,0-3.17-1.61c-2.75-1.25-5.61-2.28-8.24-3.75a7.63,7.63,0,0,1-3.83-5.79,1.55,1.55,0,0,1,1.78-1.92,4.17,4.17,0,0,1,2,1.12,13.26,13.26,0,0,1,1.73,2.26c1.36,2,3.69,2.21,5.67,3,.53.21,1.3-.19,2-.31-.12-2.91-2.13-3.64-4.09-4.35-3.1-1.13-6.09-2.36-7.42-5.76a2.31,2.31,0,0,0-.44-.56c-2.18-2.56-4.18-5.2-4.47-8.75a5.49,5.49,0,0,0-1-2.68c-.68-.92-1.17-2.27-3-2.4.35.57.53.89.75,1.19a3.13,3.13,0,0,1,0,4.13,3.29,3.29,0,0,1-3.69.92,3.37,3.37,0,0,1-1.87-3.77C321.18,294.59,321.42,293.85,321.63,293Zm-26.09,66.15c-.53-2.75-1-3.28-3.32-3.58a9.2,9.2,0,0,0-7.78,2.23c-.65.59-1.22,1.26-1.85,1.87a9.25,9.25,0,0,1-13-.28,10.16,10.16,0,0,0-8.69-3.11,6.53,6.53,0,0,0-3.4,1.54c-1.48,1.24-1,2.79.8,3.38A14.19,14.19,0,0,1,261,362c3.23,1.84,6.08,4.11,7.57,7.69.14.33.51.56.72.78a9.37,9.37,0,0,1,2.84-.73c2.41.21,3.68-1.13,4.72-3a8.09,8.09,0,0,1,.87-1.41,2.53,2.53,0,0,1,3.08-.36c1,.6,1,1.53.71,2.51-.18.58-.41,1.14-.77,2.13,1,0,1.82.16,2.28-.15a9.62,9.62,0,0,0,2.71-2.56,12.35,12.35,0,0,1,4.42-4.57C292,361.38,293.69,360.26,295.54,359.14Zm9.13-105.88c-.5.9-.89,1.57-1.25,2.26a33.33,33.33,0,0,1-6.74,9.23,26.12,26.12,0,0,1-2.92,2c-.15.94-.86,2.47-.43,3.54.61,1.49,0,2.43-.49,3.55a14,14,0,0,1-1,1.61c3.69,1.88,10.22-.67,13.54-5.19S308.52,257.22,304.67,253.26Zm-56,43.18c-1.06-.7-1.58-1.05-2.12-1.38a1.75,1.75,0,0,0-2.54.47c-1.8,2.35-4.33,3.79-6.82,5.18a11.07,11.07,0,0,0-4.67,4.93,9.37,9.37,0,0,1-4,4.33,7,7,0,0,0-3.82,5.74,21.16,21.16,0,0,1-3,7.76,9.43,9.43,0,0,1-3.57,3.76c-.58.33-1.34.65-1.1,1.78.43-.08,1,0,1.26-.27a40.59,40.59,0,0,0,4.72-4.64,20.41,20.41,0,0,1,6.32-5.41,42.57,42.57,0,0,1,8.5-3.74c2.4-.72,5.05-.61,7.59-.87a8.45,8.45,0,0,0,1.9-.26,3.08,3.08,0,0,0,1.51-3.84c-.52-.91-1.32-.91-2.92,0a4.78,4.78,0,0,1-.61.38,58.65,58.65,0,0,1-5.75,2.27,3.83,3.83,0,0,1-4.35-1.81,4.37,4.37,0,0,1-.31-4.79c1.65-2.86,3.65-5.4,7-6.58C244.12,298.72,246.14,297.61,248.7,296.44Zm0,10.76.47.65a47.79,47.79,0,0,0,6.44-3.34,90.47,90.47,0,0,0,10.27-8.2,17.84,17.84,0,0,0,4.85-9.14c.72-3.2.1-6.35.27-9.51.14-2.48-1-4.39-2.4-6.26s-2.63-3.59-3.85-5.45c-1.56-2.38-6.26-3.23-8.51-1.47-.86.67-.79,1.5.19,2.06a15.86,15.86,0,0,0,3.13,1.69c3.85,1.11,5.91,4.14,7.15,7.42a15.14,15.14,0,0,1,.76,9.63c-.63,2.16-.45,4.61-2.33,6.33a1.27,1.27,0,0,0-.26.89c.15,2-1.16,3.1-2.49,4.11-3.93,3-7.93,5.88-11.87,8.84A18.76,18.76,0,0,0,248.68,307.2Zm79.88,13.93c.1-.5.2-.69.15-.79a34.8,34.8,0,0,1-3.74-9.28,2,2,0,0,0-.53-1c-1.14-1-2.37-1.81-3.49-2.79a18.73,18.73,0,0,1-3.39-3.32,20.43,20.43,0,0,0-8.76-7.18,6.6,6.6,0,0,1-3.21-2.76,10.15,10.15,0,0,0-1.06-1.31l-3.72,1.79a9.66,9.66,0,0,0,1.57,1.24c2.56,1.08,5.19,2,7.72,3.17a9.47,9.47,0,0,1,5.1,4.74,5.27,5.27,0,0,1-1,5.95c-1.19,1.43-2.92,1.74-5.05,1-.67-.25-1.31-.59-2-.89-1.24-.56-2.45-1.19-3.71-1.68A1.7,1.7,0,0,0,301,309a3.24,3.24,0,0,0,2.67,3.64,7.76,7.76,0,0,0,2.15.05,25.54,25.54,0,0,1,9,.63,23.12,23.12,0,0,1,10.46,5ZM286.16,324l.33.57c1.89-.71,3.74-1.57,5.68-2.1a46.84,46.84,0,0,1,6.13-1.1,51.73,51.73,0,0,1,6.44-.51c2.07,0,4.13.38,6.2.48s3.82,1.51,5.95,1.2c.15-1.35-.72-1.67-1.52-2a20.69,20.69,0,0,0-8.17-1.7c-1.28,0-2.56.06-3.83,0-3.22-.22-6.21-2.49-6.51-5.4a4.06,4.06,0,0,0-2.48-3.45c-.9-.48-1.75-1.34-3.15-.82a7.4,7.4,0,0,1,1.48,4.79c-.46,6.32,0,5.13-4.84,8.65C287.27,323,286.73,323.54,286.16,324Zm-8.53-44.92c-.36,5.67.71,10.69,4.66,14.72,1.76,1.8,3.94,3.21,5.74,5,3,2.94,6.82,4.39,10.3,6.48.28.16.78,0,1.17-.06l.16-.46c-3.05-2.14-6.12-4.24-9.13-6.43-2.2-1.6-4.62-2.79-6-5.51-1.81-3.5-3.72-6.82-3.85-10.89C280.58,280.06,280.1,279.73,277.63,279.09ZM216.9,333.66c-.3.19-.53.27-.53.36-.08,2.16-1.26,4.25-.31,6.49a24.27,24.27,0,0,1,.78,3,7.78,7.78,0,0,0,3.14,4.87,3.69,3.69,0,0,1,.78.84c1.1,1.41,2.18,2.85,3.3,4.25a11.51,11.51,0,0,0,4.69,3.13c1.17-1.3.39-2.16-.45-2.91a23.4,23.4,0,0,1-6.36-8.22c-.51-1.22-1.39-2.39-3.34-1.68l.37-1.15c.11-.34.23-.69.32-1l-1.47-1.12c1.92-.46,2.29-.87,1.55-2.19a3.43,3.43,0,0,1-.16-3.14,1.58,1.58,0,0,0-.62-2.14c-.3.8-.54,1.48-.8,2.14,0,.07-.2.1-.28.13Zm113.43-5a6.27,6.27,0,0,0-.07,1.3c.18,1.24.55,2.47.64,3.71a23.12,23.12,0,0,1,0,5.45,25.43,25.43,0,0,1-1.85,4.88c-1.13,2.81-3.22,4.91-5.36,6.92a2,2,0,0,0-.28,3.22c1.27-1.09,2.61-2.07,3.75-3.26a25.29,25.29,0,0,0,7.11-13.17c.74-4-1.47-6.43-3.57-9.09C330.7,328.63,330.57,328.68,330.33,328.7Zm-42.59-65.53c-4.36-.19-7.31,1.93-9.28,5.61a2.17,2.17,0,0,0-.14,1.75,3.19,3.19,0,0,0,4.82.62c2.05-2,4.12-4,6.93-4.94a2.19,2.19,0,0,0,.78-.54c.87-.87.67-1.84-.52-2.15A18.34,18.34,0,0,0,287.74,263.17Zm-6.86,151.49-1.39-1.93,1.93-.9c-.2-.36-.64-.79-.56-1.08a1.38,1.38,0,0,0-1.29-1.89,26.85,26.85,0,0,0-5.36.47c-.46.08-.84.88-1.16,1.41-1,1.6,0,3.18,0,4.7C275.86,416.9,278.37,416.31,280.88,414.66ZM216.4,351.47a3.91,3.91,0,0,0,.09,4.16A18.07,18.07,0,0,0,225,363.3a6,6,0,0,0,3.45-.05c.76-.17.72-1,.18-1.53a5.35,5.35,0,0,0-1-.62c-2.83-1.77-5.66-3.52-7.88-6.09C218.74,353.83,217.61,352.74,216.4,351.47Zm119.15-2.65-.73-.13c-2.78,4.82-7.53,7.55-11.9,11.06.73.44,1.09.81,1.5.87a5.81,5.81,0,0,0,4.28-1.07c1.4-.93,2-2.83,3.95-3.11.15,0,.27-.36.4-.56.47-.72,1-1.42,1.38-2.18a20.56,20.56,0,0,0,1.48-3.24C336.05,350,335.69,349.37,335.55,348.82ZM281.88,633.4l.59,6.5c.1,1,.14,2.07.31,3.09.21,1.22.5,1.3,2,.78a5.38,5.38,0,0,1-.53-1.76c.15-2.49.85-5-.05-7.45-.09-.25.17-.6.19-.91.05-.7,0-1.41.06-2.11a21.06,21.06,0,0,1,.24-3.74,3.23,3.23,0,0,0-.47-2.92,3.5,3.5,0,0,0-.7-.49l-1.41,1.31c.32,1,.58,1.91.84,2.75l-3.3.34,1.89,2.59,1.69-.46C283.15,632.11,283.15,632.11,281.88,633.4ZM284,654.33c-2.3,2.72-.38,5.59-.82,8.38,1.35.09,2-.49,2.23-1.56a18.66,18.66,0,0,0,.37-3.79c-.13-3.26-.4-6.53-.6-9.79-.13-2.21-.64-2.58-3.14-2.09.25.76.53,1.5.71,2.26s.43,1.37.2,1.85C282,651.44,283.09,652.77,284,654.33Zm-52.76,23.09c1.17.62,2,1.4,2.79,1.4,2.25,0,4.57,1.71,6.76-.21.15-.13.47-.08.7-.1,2.13-.17,4.27-.31,6.39-.53a7.3,7.3,0,0,0,2.27-.53,1.26,1.26,0,0,0,.54-1.13,1.3,1.3,0,0,0-1.08-.64c-1.91.12-3.8.36-5.7.54Zm49.44-252.59c-2.32-1.39-4.55-.84-6.69,0-1.12.44-1.21,3.24-.2,4,2.42,1.71,3.63,1.72,5.77-.15C280,427.29,280.31,426.11,280.68,424.83Zm.21,12.61c-2.12-.58-3.82-.08-5.53.11s-2.65,1.15-3,3.12c1.06.31,2.08.67,3.13.89,3.18.7,3.18.68,4.42-2.36A18.34,18.34,0,0,1,280.89,437.44ZM228.52,662.9l.6.18c1.94-1.31.66-4.06,2.17-5.16-.37-2.07-.7-3.85-1-5.64-.18-1-.1-2.14-1.88-2.32-.11.95-.27,1.84-.3,2.74a17.23,17.23,0,0,1,.08,2.37c-.33,1.75-.14,3.31,1,4.23C228.9,660.72,228.71,661.81,228.52,662.9Zm42.21-367.3a18.21,18.21,0,0,0,2.5,1.29,1.67,1.67,0,0,0,1.47-.23,6.57,6.57,0,0,0,1.56-2.59c.14-.56-.59-1.32-.9-2a5,5,0,0,1-.31-.89c-.17-.73-.41-1.59-1.29-1.34-.56.15-1.07.85-1.38,1.42a34.16,34.16,0,0,0-1.53,3.45A3.06,3.06,0,0,0,270.73,295.6Zm8.18,103.3c-1-5.61.35-11-1.12-16.67-1.33,1.25-1,2.48-1,3.6.09,3.79.25,7.58.34,11.37C277.15,398.12,277.35,398.72,278.91,398.9Zm-4.73-.47.57-.15c.79-4.54.32-14-.85-15.91a7.28,7.28,0,0,0-.84,4.19c0,1.5.23,3,.33,4.49.11,1.84.17,3.67.32,5.5A11.24,11.24,0,0,0,274.18,398.43ZM289.9,307.8c-1.53-2.07-3.55-2.57-5.89-2.36-2.53.23-3.2,1-2.9,3.93C284,308.58,286.74,307,289.9,307.8Zm-27,367.45a10.46,10.46,0,0,1,1.51-.54c2.41-.46,4.82-.91,7.24-1.29.88-.14,1.26-.45,1.07-1.59L261,672.93ZM272,375.05c-2.53,1.12-4-.68-5.84-2.11-.41,2.29-1.09,4.28-.4,6.55A13.51,13.51,0,0,0,272,375.05Zm3,77.51c1.5-.25,2.72-.48,3.94-.65,1.59-.22,2.12-.77,2.4-2.57-3.35-1.2-7.51,0-7.38,2.27C274.33,452,274.78,452.35,275,452.56Zm5.78-69.19c-1.05,2.41-.51,4.92-.46,7.38s-.19,5,.73,7.34C281.81,393.16,282.27,388.25,280.79,383.37Zm4.18,15,.72.08a15.66,15.66,0,0,0,.31-1.92c.2-3.42-.39-11.45-.9-12.63a3.67,3.67,0,0,0-.88,2.94q.24,4.39.51,8.77C284.79,396.57,284.89,397.48,285,398.4Zm-15.63-15.07a12.09,12.09,0,0,0-.3,2.21c.1,3.65.27,7.3.41,10.95a4.26,4.26,0,0,0,.1,1.19,4.47,4.47,0,0,0,.63,1,7.45,7.45,0,0,0,.38-2.91c0-2.14-.06-4.27-.1-6.41C270.42,387.34,271.21,385.26,269.34,383.33Zm-2,304.65c-2.22-.28-7.31,1.59-8.58,3a3.33,3.33,0,0,0,3.6.17C263.88,690.06,266.29,690.31,267.34,688Zm8.32-415.65c-2.17-2.39-4.05-5.06-6.9-6.72C270.25,268.67,272.31,271.16,275.66,272.33Zm8.06,402.4.52.06a6.1,6.1,0,0,1,.7-1.19,4.52,4.52,0,0,1,1.16-.8c1.18-.61,1.42-1-.08-1.57-.32-.11-.42-.87-.62-1.33-2.85.54-3,.88-2,3.52A11.41,11.41,0,0,1,283.72,674.73Zm-18-283.6c1.54-2.47,1.45-4.82-.14-6C264.78,387.18,265.7,389.14,265.75,391.13Zm21.33-13.43c.64-1.52.64-2.3,0-2.41a32.06,32.06,0,0,0-3.55-.31l-.16.52ZM230.8,671.31c1.76-.7,1.56-1.81,1.31-2.87-.07-.29-.59-.74-.78-.68-.38.11-1,.52-1,.8A19.23,19.23,0,0,0,230.8,671.31ZM242,646.74l.64,2.1c2.15,0,2.15,0,2.57-1.74Zm45.29-305.18.5.47,5.25-4.86-.38-.41Zm-3.23,337.07,1.38-2.55-.27-.43c-.58.18-1.47.18-1.67.55C283.12,677,282.85,678,284.09,678.63ZM279.8,404.77c-4.34-1.49-4.34-1.49-4.8.22Zm-3.56,15.15c.56,2.06,1,2.14,2.93.85C278.53,419.58,277.47,419.93,276.24,419.92Zm8,247.88c1-1.31,1.26-2.31.41-3.31-.15-.18-.78,0-1.23.08C283.65,665.65,283.88,666.54,284.2,667.8Zm1.11,17.64c.57-.69,1.13-1.08,1.2-1.54.05-.3-.71-1.06-.95-1a2.35,2.35,0,0,0-1.3,1.07C284.16,684.14,284.78,684.72,285.31,685.44ZM266.59,394.1c-1.31,1.47-1.3,1.82,0,4Zm13.28,40.42c-1.76-1.55-1.84-1.54-3,.24ZM227.3,299.11a6.53,6.53,0,0,0-1.75-.87c-.21,0-.53.61-.8.95a6.13,6.13,0,0,0,1.39,1C226.3,300.27,226.73,299.67,227.3,299.11ZM263.12,642.3c-.28,1.05-.21,1.71.61,2.18C264.37,643.19,264.37,643.19,263.12,642.3ZM331,322.85l-.56.44a14.23,14.23,0,0,0,2.33,2.64l.42-.33ZM286.38,687.57c-.76-.56-1.4-.67-1.81.14-.12.24.06.91.25,1C285.87,689.07,286.11,688.32,286.38,687.57Zm-48.87-35.86-.17-.61c-.76-.35-1.4-.21-1.69,1.17ZM273.94,287c1.38-1.25,1.38-1.25.47-2.64C274.24,285.32,274.12,286,273.94,287ZM262.4,389c.54-.72,1.3-1.43,0-2.46ZM235.14,656c.37-.42.74-.69.7-.83a1.83,1.83,0,0,0-.64-.89c-.08-.07-.69.3-.67.38A7.17,7.17,0,0,0,235.14,656ZM230,665.67c-.41-.21-.73-.49-.89-.42s-.5.48-.74.73c.27.21.57.63.79.58S229.61,666.09,230,665.67Zm16.88-28.3a3.13,3.13,0,0,0,.31,2.89C247.47,639.06,247.93,638.33,246.85,637.37ZM279,373.84l.1-.55-2.47-.34C277.39,374.48,278.23,374,279,373.84ZM265.87,647.15c-.61-.25-1-.57-1.29-.49a1.81,1.81,0,0,0-.9.87c-.07.13.47.79.57.75A9,9,0,0,0,265.87,647.15ZM325.1,295.7a5.7,5.7,0,0,0-.89,1.15c0,.1.58.67.73.61a2.1,2.1,0,0,0,.9-.87C325.9,296.49,325.44,296.1,325.1,295.7ZM276.94,445.1l.08.66c.82.62,1.35.09,1.79-.91ZM242.27,662.27l-1-1.67-1.31.91ZM255.11,651l.52.35.66-1.12c-.13-.08-.36-.24-.38-.21C255.63,650.3,255.37,650.64,255.11,651Zm-22.52,14.79c-.31-.28-.5-.57-.62-.54a2.6,2.6,0,0,0-.7.43c.15.17.29.48.43.48A2.71,2.71,0,0,0,232.59,665.76ZM240,646.69a3.94,3.94,0,0,0,.61-.71c0-.06-.32-.44-.39-.42a1.67,1.67,0,0,0-.65.5S239.73,646.38,240,646.69Zm31.24,5.53-.24-.47a2.48,2.48,0,0,0-.68.11,3.69,3.69,0,0,0-.65.49l.24.44Zm4.41-297,.62.1.27-1.41-.46-.12ZM229,689l-.4.17c.15.35.29.7.44,1a2.17,2.17,0,0,0,.36-.2C229.33,689.68,229.18,689.35,229,689Zm6.71-389.7c1,.45,1.68.23,1.8-1Zm35.9,356.23-.39-.06-.22,1.16.61,0ZM257,636.28v-.4h-1.18v.4Zm9.49,16.32.13-.4-.93-.3a4,4,0,0,0-.11.39C265.92,652.41,266.23,652.5,266.53,652.6Zm-.35,9,.3-.55c-.12-.07-.27-.21-.36-.18a2.11,2.11,0,0,0-.5.32Zm-23.11-327-.48.4c.1.08.23.24.29.22a2.72,2.72,0,0,0,.51-.32Zm91.61,11.85-.39-.37-.55.9.31.21ZM228.87,686.82c-.17.33-.37.58-.32.67a2.88,2.88,0,0,0,.61.54c.12-.15.38-.37.34-.45A4.09,4.09,0,0,0,228.87,686.82Zm-8.19-364.31-.38-.23-.28,1.07ZM322.3,391l.14.27.85-.43-.14-.27ZM283.18,622.7l-.58.38c.12.16.21.42.36.46a.58.58,0,0,0,.49-.28C283.5,623.15,283.3,622.94,283.18,622.7Zm-45.32,17.54-.3-.23c-.07.1-.2.22-.19.31s.18.16.28.24Z" transform="translate(-198.26 -203.31)"/><path class="cls-1" d="M321.59,337.39c1.79,1.36,1.79,1.36.85,2.71Z" transform="translate(-198.26 -203.31)"/><path class="cls-1" d="M233,334.08,232,335.51a9,9,0,0,1,0-1.19,5.78,5.78,0,0,1,.29-.89Z" transform="translate(-198.26 -203.31)"/><path class="cls-1" d="M320.92,333.59c-.27.13-.44.27-.6.27s-.28-.26-.25-.36a1.78,1.78,0,0,1,.36-.48Z" transform="translate(-198.26 -203.31)"/><path class="cls-1" d="M340.37,338c1.51,2.42,1.51,2.42-.69,5C338.81,341.05,340.84,339.73,340.37,338Z" transform="translate(-198.26 -203.31)"/><path class="cls-1" d="M342.07,344.15c-.08-.49-.15-1-.22-1.48l.45-.1.42,1.44Z" transform="translate(-198.26 -203.31)"/></svg>