<svg width="310" height="634" viewBox="0 0 310 634" fill="none" xmlns="http://www.w3.org/2000/svg">
<path d="M295.307 133.342C294.937 131.752 293.757 130.492 293.777 128.702C293.787 127.672 292.497 125.812 291.697 125.762C289.107 125.602 289.617 124.222 289.687 122.762C291.527 122.372 292.197 124.322 293.647 124.232C296.007 120.272 296.237 116.502 292.967 112.982C291.437 111.342 289.827 109.832 287.247 111.212C287.637 113.032 289.197 114.252 288.997 116.032C287.687 117.482 285.877 116.722 283.797 116.962C286.057 118.862 284.967 121.392 286.297 123.282C286.797 124.002 285.557 125.042 284.637 125.432C283.397 125.962 283.347 124.892 283.097 124.092C282.927 123.562 282.607 123.072 281.697 123.152C281.957 125.922 283.257 128.252 284.747 130.672C283.317 130.122 282.297 129.212 280.677 129.562C279.187 129.892 278.527 127.932 277.167 127.502C276.147 127.172 275.267 127.002 274.557 128.082C274.127 128.732 273.577 128.462 273.107 128.082C272.617 127.682 272.357 127.062 272.697 126.582C273.537 125.412 273.957 124.142 274.317 122.762C275.527 118.102 274.217 115.972 269.447 115.112C269.767 113.032 269.487 110.552 272.477 110.312C271.777 107.632 273.147 104.862 272.197 102.182C271.967 101.542 272.217 101.172 272.957 101.002C273.937 100.782 274.817 100.322 274.817 98.8216C272.107 98.2216 271.287 95.4916 269.417 93.8316C268.047 92.6116 266.007 91.7016 266.947 89.4616C267.777 87.4716 269.817 88.4616 271.357 88.2316C269.777 85.3516 268.147 82.4816 268.037 79.0616C270.807 78.1016 272.757 80.7516 276.257 81.2316C272.837 77.2616 270.737 73.5216 267.587 70.6016C267.187 70.2216 266.667 69.8316 266.157 69.7316C263.307 69.1916 261.537 67.0816 259.727 65.1716C258.537 63.9116 257.187 63.0316 255.787 62.0916C253.297 60.4216 250.567 58.9416 249.117 56.0916C250.937 55.6716 252.977 53.4616 254.337 56.8316C254.497 57.2316 255.417 57.1616 255.767 56.5916C256.107 56.0316 255.777 55.5016 255.367 55.1116C251.887 51.8216 248.257 48.7116 243.717 46.9416C242.187 46.3516 240.697 45.7516 239.567 44.5216C236.927 44.4116 234.317 43.7616 231.637 44.0516C230.487 44.1716 228.737 43.1816 229.467 42.4116C231.017 40.7616 229.487 40.9516 228.807 40.7116C226.947 40.0716 224.767 40.1716 223.167 38.5316C226.857 35.8416 230.447 37.9116 233.987 38.2716C234.127 36.3816 233.337 35.1116 232.137 34.4216C228.537 32.3416 225.017 29.8516 220.417 31.1316C218.167 31.7616 215.907 31.6016 213.847 30.2716C213.157 29.8316 212.557 29.3416 211.587 30.0116C210.407 30.8216 210.477 31.9116 210.657 33.2116C206.567 30.5116 203.537 30.1416 199.187 31.7016C201.487 34.2216 206.017 33.0716 208.157 37.3016C204.627 36.0916 201.647 35.6616 198.827 34.3016C196.017 32.9416 192.797 32.7716 189.747 32.0816C186.687 31.3816 183.607 30.9416 180.477 30.8816C177.497 30.8316 174.517 30.8716 171.547 30.8716C173.637 31.8916 175.697 32.4616 177.787 32.7616C180.027 33.0816 182.307 33.2116 184.577 33.3216C188.427 33.5016 188.427 33.4716 190.227 34.6516C188.487 34.8616 186.817 34.9816 185.107 34.6716C183.277 34.3416 181.447 34.4516 179.607 34.8016C173.877 35.9016 167.977 36.5916 162.317 35.6316C157.927 34.8916 154.267 35.8616 150.427 37.2516C147.307 38.3816 144.127 39.3616 141.147 37.0616C140.247 36.3716 139.167 36.3816 138.207 35.8716C139.167 34.6316 140.497 35.5016 141.487 34.9816C142.127 34.6416 142.807 34.2316 142.527 33.3916C142.227 32.5016 141.537 31.9316 140.547 32.3516C139.117 32.9516 137.867 33.9116 136.327 34.3616C135.257 34.6716 132.617 33.9816 134.407 36.7316C134.457 36.8116 134.137 37.3116 133.947 37.3316C131.017 37.6816 128.327 39.8816 124.577 38.5916C129.407 34.3016 133.837 30.3716 140.237 30.0916C142.737 29.9816 145.007 29.5616 146.907 27.8116C148.267 26.5616 149.887 26.4816 151.737 26.9016C151.137 27.8016 149.517 26.9516 149.477 28.8416C158.907 28.9216 168.337 29.0116 177.757 29.0816C178.317 29.0816 178.897 29.0016 179.037 28.2816C178.967 27.7916 178.597 27.6016 178.187 27.5116C169.727 25.6616 160.967 27.1216 152.507 25.1316C151.867 24.9816 151.117 25.3616 150.407 25.3916C145.447 25.6116 140.357 26.6116 135.567 25.8116C129.277 24.7616 123.787 26.2216 118.337 28.6816C114.717 30.3216 114.777 30.4716 115.277 34.6516C120.717 32.2916 127.167 31.0016 130.537 31.8416C126.787 33.3716 123.447 34.7916 120.057 36.1116C117.167 37.2416 114.727 39.2516 111.577 39.9816C109.027 40.5616 110.167 38.4716 109.407 37.4916C106.387 41.4716 101.087 41.2616 97.7965 44.5316C97.7065 44.6216 97.5265 44.7016 97.4065 44.6816C97.0065 44.6216 96.5365 44.6116 96.2465 44.3816C95.7365 43.9916 95.7365 43.4116 96.0665 42.8616C96.5165 42.1016 97.1565 41.5016 97.9765 41.2416C100.037 40.5816 101.617 39.0716 103.557 38.2116C104.097 37.9716 104.747 37.8216 104.407 37.1116C104.007 36.2916 103.287 36.4816 102.597 36.8216C101.727 37.2516 100.937 38.8916 100.247 38.2616C98.5165 36.6916 98.2465 38.1816 97.5265 39.1116C96.9365 39.8616 96.2465 40.5316 95.5865 41.2416C95.1365 39.9616 95.7965 38.9616 96.3765 37.8416C97.4065 35.8516 96.6065 34.8816 94.3565 34.7016C92.8865 34.5816 91.5865 35.5716 90.0765 35.4516C90.1465 34.9716 90.1365 34.8316 90.1865 34.7016C90.7465 33.0216 94.2665 33.3916 93.2665 30.9516C92.4365 28.9216 90.1565 30.2616 88.5165 29.9616C89.4065 34.8516 87.2765 38.2716 83.0165 41.1716C83.2465 39.2416 84.7065 38.3716 84.6765 36.8516C83.5465 36.2716 82.6765 37.8816 81.5165 37.2316C80.1665 36.4716 81.9065 35.1616 80.8965 34.1716C79.4565 35.3516 77.9265 36.3316 76.8765 37.9016C77.5065 39.0116 79.0165 37.1916 79.3565 39.0416C77.4365 41.6516 74.1465 43.1516 72.3665 46.1216C71.8865 46.9116 70.6565 46.9916 70.0765 46.3916C67.9465 44.2016 66.6865 45.9816 65.6965 47.4116C64.1065 49.7116 62.3665 51.9216 61.8765 54.9016C61.1865 59.0916 58.0565 62.0416 55.7865 65.4116C55.3365 66.0816 54.6365 66.7716 53.4165 65.7916C55.2665 62.7316 56.4665 59.3416 57.0865 55.7516C57.1965 55.1416 57.5165 54.7016 58.1965 54.7116C61.2465 54.7616 59.9465 52.3116 59.5665 51.4516C59.0365 50.2716 57.4365 49.4216 56.0265 50.6216C54.4865 51.9316 52.2365 52.5016 51.8465 55.1116C51.6565 56.3816 50.7565 57.9316 49.6965 58.6016C48.3465 59.4616 46.5065 59.4616 47.2965 61.8916C47.5265 62.6016 46.5465 63.1016 45.8365 63.1116C41.6865 63.1516 39.3665 66.0316 36.9165 68.7116C33.3265 71.8616 29.8065 75.0216 31.5565 80.5816C31.6865 81.0016 31.4065 81.5416 30.9765 81.5516C28.3565 81.5516 28.3465 83.7216 27.8965 85.3716C27.6565 86.2516 27.4365 86.8516 26.6065 87.3416C24.1865 88.7916 22.8765 91.1916 21.8165 93.6616C20.9065 95.7716 19.9065 97.7416 18.2665 99.4116C17.0065 100.692 16.1365 102.262 16.1365 104.102C17.6965 104.612 17.5165 102.532 18.7465 102.862C19.3565 103.632 18.8565 104.532 19.0765 105.332C19.3165 106.212 19.8365 107.152 20.8365 106.532C22.9065 105.232 22.5665 106.992 22.6765 107.912C23.1065 111.492 22.0365 114.972 21.8965 118.512C21.7665 121.642 20.1965 124.152 18.3865 126.552C17.8765 127.232 17.4265 127.872 16.3165 127.632C13.8365 127.082 13.2565 129.092 12.4265 130.722C10.2465 134.952 11.5765 140.012 9.27654 144.232C9.04654 144.652 9.19654 145.392 9.38654 145.892C10.0165 147.572 9.46654 148.912 8.41654 150.212C7.36654 151.532 6.84654 152.922 8.30654 154.372C9.42654 155.482 9.22655 156.672 8.29655 157.792C6.80655 159.562 6.27653 161.412 7.20653 163.692C8.23653 166.222 5.59654 169.352 8.39654 171.672C8.44654 171.712 8.38655 171.992 8.29655 172.052C5.77655 173.862 7.06654 175.122 8.78654 176.572C9.60654 177.262 8.99654 178.432 8.78654 179.402C8.52654 180.622 7.67654 181.822 8.24654 183.092C9.71654 186.382 9.06654 189.732 8.55654 193.052C8.38654 194.182 8.20654 195.262 8.24654 196.412C8.37654 199.962 8.44654 203.512 8.49654 207.062C8.53654 209.652 8.50654 212.252 8.50654 214.672C9.96654 215.112 10.1665 212.982 11.4065 214.042C11.7965 215.712 11.2165 217.532 12.1365 219.062C13.2365 220.862 13.1665 222.472 11.9265 224.192C11.0065 225.472 10.3665 226.882 12.9365 227.052C14.3965 227.142 14.2665 228.252 14.2765 229.242C14.3065 231.502 15.5365 235.952 16.6865 237.962C16.8265 238.202 16.8665 238.502 16.9965 238.752C18.5365 241.572 19.0965 241.592 21.2465 239.432C24.0765 236.582 25.7465 232.892 28.3065 229.852C29.2665 228.712 29.2865 227.512 27.5365 226.862C26.2965 226.402 26.1965 225.472 26.9365 224.492C27.6565 223.552 28.6465 223.432 29.5665 224.122C30.3465 224.712 31.0465 225.452 31.6565 226.222C33.9965 229.162 35.4565 232.542 36.2865 236.182C37.8065 242.842 40.1265 249.252 42.3365 255.702C43.6765 259.632 45.6865 263.222 48.6065 266.242C49.0765 266.732 49.6265 267.472 50.3665 267.052C51.2065 266.582 51.2765 265.572 50.9565 264.772C50.5365 263.732 49.9365 262.742 49.3265 261.792C42.7265 251.502 40.5165 240.112 40.7065 228.072C40.8365 219.632 44.9965 214.132 52.7465 211.302C61.5465 208.102 70.7265 207.722 80.0365 207.682C79.9065 208.592 79.5765 209.142 79.0665 209.472C79.7665 209.622 80.3765 210.022 80.7765 210.622H80.7865C83.7265 210.622 86.3465 211.652 89.1765 212.272C91.8065 212.852 91.6065 216.022 89.8565 217.222C89.8765 217.312 89.8865 217.402 89.8865 217.482C89.8765 219.342 88.4065 219.692 86.9965 220.042L86.5765 220.132C81.6165 221.372 76.6565 222.602 71.6965 223.842C68.8065 224.562 65.9565 225.682 63.3765 226.942C60.8565 228.182 59.0565 230.942 57.0265 233.112C55.2765 234.982 55.2165 236.242 56.5665 237.952C59.1265 241.222 60.0665 241.472 62.7965 240.162C66.0565 238.602 69.1465 236.392 73.1965 237.712C74.3965 238.102 75.8965 237.522 75.4965 235.632C75.0965 233.702 76.7065 233.622 77.7365 233.102C79.0665 232.432 80.0565 233.332 80.4565 234.402C82.1865 238.992 85.7065 239.442 89.8365 238.752C90.8165 238.582 91.8165 238.432 92.7965 238.442C96.1165 238.462 99.0465 237.892 100.317 234.232C100.567 233.512 101.237 233.122 102.027 233.402C102.757 233.662 103.387 234.452 103.127 235.032C102.137 237.282 103.617 238.472 104.897 239.802C105.297 240.222 105.657 240.752 105.447 241.322C104.757 243.142 102.927 243.512 101.417 244.162C100.177 244.692 98.8165 244.842 98.6765 242.822C98.6465 242.322 98.2965 241.952 97.8765 242.232C94.9465 244.212 91.1665 243.232 88.1865 245.082C86.2065 246.312 83.9765 246.652 81.6565 246.732C79.6765 246.792 77.7065 247.152 75.7165 247.312C73.7565 247.472 71.7965 247.542 69.0665 247.702C71.4665 248.872 73.1965 248.942 74.8565 249.322C75.6665 249.512 76.8665 249.722 76.5065 250.772C75.9965 252.272 76.5265 252.432 77.7865 252.432C88.3265 252.392 98.3265 250.032 107.787 245.412C108.817 244.912 109.777 244.292 110.487 243.372C111.567 241.962 112.087 239.992 114.477 240.012C115.317 240.022 115.307 239.062 115.177 238.302C115.037 237.492 114.387 236.792 114.737 235.582C116.247 236.722 117.887 237.892 119.557 236.312C121.097 234.852 120.827 232.982 120.207 231.142C119.887 230.212 119.487 229.332 119.547 228.272C119.677 226.042 119.277 224.092 118.477 222.352C117.557 223.992 114.867 224.682 113.607 222.562C111.557 219.132 106.817 218.782 103.217 218.632C100.237 218.512 99.2865 213.712 102.477 213.202C104.877 212.812 107.147 212.712 109.557 213.042C110.017 213.102 110.377 213.252 110.677 213.462C112.657 213.162 114.057 214.222 115.417 215.212C120.807 219.122 123.747 224.452 124.097 231.092C124.627 241.482 121.267 250.652 114.957 258.792C112.437 262.042 109.787 265.222 106.577 267.842C105.797 268.482 104.797 269.212 105.567 270.252C106.357 271.322 107.347 270.372 108.227 270.022C109.207 269.632 110.267 268.182 111.217 269.322C113.217 271.712 114.177 269.852 115.057 268.512C119.407 261.842 123.607 255.042 125.857 247.342C127.387 242.112 129.777 237.272 132.147 232.462C136.067 224.502 146.637 225.132 150.607 231.872C152.597 235.252 154.767 238.712 155.947 242.492C158.057 249.222 161.407 255.222 165.457 260.942C168.477 265.202 169.397 265.712 174.837 264.442L174.827 264.432C173.117 263.792 171.897 262.952 173.407 260.972C173.787 260.472 173.547 259.962 173.277 259.492L173.497 259.792C173.197 258.442 170.957 258.222 171.247 256.932C171.767 254.582 170.047 253.652 169.017 252.232C165.387 247.252 162.767 241.752 160.717 235.972C160.327 234.872 159.527 233.542 161.077 232.512C160.667 231.862 160.507 231.032 160.687 230.262C161.067 228.682 161.347 227.052 161.737 225.482C161.547 225.622 161.347 225.762 161.137 225.882C159.877 226.622 159.227 225.882 159.417 224.602C159.827 221.902 161.097 219.562 162.817 217.472C163.297 216.892 163.947 216.622 164.687 216.912C165.347 217.172 165.607 217.702 165.687 218.592C168.317 216.552 172.467 215.632 174.437 219.052C176.367 222.392 174.597 226.362 172.547 229.132C170.737 231.582 167.347 234.432 170.277 237.152C171.437 238.232 171.307 239.592 170.587 240.572C171.947 242.002 173.617 243.132 175.597 243.922C175.807 244.002 175.997 244.112 176.177 244.222C176.197 244.222 176.207 244.222 176.227 244.232C186.927 246.962 197.917 250.572 209.057 249.182C209.037 249.112 209.007 249.032 208.997 248.942C211.837 247.182 215.477 247.652 218.557 246.152C217.807 244.572 216.467 244.222 215.287 244.352C211.887 244.722 208.487 243.932 205.087 244.492C202.457 244.932 199.947 244.522 197.997 243.362C197.787 241.622 199.977 242.422 199.537 240.732C199.217 240.622 198.827 240.392 198.447 240.392C194.357 240.422 190.257 240.642 186.367 238.982C185.947 238.802 185.557 238.752 185.227 239.142C183.397 241.302 182.997 238.882 182.807 238.122C182.367 236.372 182.357 234.512 182.267 232.692C182.197 231.222 183.027 230.152 184.357 229.822C186.027 229.392 186.027 230.982 186.347 231.972C187.377 235.172 189.447 236.962 192.867 237.072C195.417 237.152 197.977 237.322 200.527 237.302C202.757 237.282 204.637 236.652 205.667 234.282C206.107 233.262 206.667 231.502 208.217 231.912C209.937 232.362 208.257 233.932 208.677 234.782C209.247 235.942 210.417 236.942 208.127 237.422C207.397 237.572 206.627 237.882 207.127 238.822C207.497 239.522 208.377 239.702 208.997 239.382C210.117 238.802 211.097 237.952 212.167 237.272C216.627 234.462 217.917 234.662 221.257 238.732C221.717 239.292 222.127 240.092 222.887 239.732C224.787 238.842 226.477 239.662 228.257 240.032C229.947 240.382 233.347 238.902 233.027 238.172C232.647 237.322 232.677 236.472 232.817 235.632C231.007 234.092 230.357 232.122 229.267 229.882C228.227 227.752 226.287 227.492 224.787 225.932C223.187 224.272 223.607 222.132 223.227 220.072C223.047 219.092 222.197 215.662 220.787 216.042C220.097 216.232 219.407 216.122 218.817 215.812C217.937 215.692 217.067 215.202 216.737 214.462C216.397 213.712 216.157 213.032 216.057 212.342C214.737 211.612 213.507 210.662 213.187 209.132C213.137 208.902 213.097 208.522 213.097 208.152C212.347 208.402 211.037 208.552 210.517 208.722C207.687 209.672 206.217 206.102 207.767 204.242C207.267 203.982 206.987 203.482 207.037 202.762C207.097 201.852 207.837 201.682 208.557 201.632C216.377 201.082 224.197 200.672 231.737 203.472C237.857 205.742 241.367 210.192 242.617 216.592C243.687 222.092 243.317 227.582 243.207 233.122C243.047 241.352 240.707 248.762 236.527 255.672C234.917 258.322 233.887 261.262 232.037 263.782C236.187 261.022 239.427 257.602 241.387 252.982C243.797 247.312 245.027 241.362 246.197 235.372C247.087 230.782 247.177 226.042 248.677 221.562C249.817 218.152 251.117 214.862 254.887 213.412C256.377 212.832 256.967 211.612 256.777 209.982C256.597 208.432 256.447 206.862 256.467 205.302C256.497 203.192 255.537 202.362 253.487 202.042C247.457 201.092 241.447 199.962 235.437 198.892C227.717 197.512 220.017 196.952 212.127 197.492C205.867 197.912 199.657 199.332 193.237 198.522C194.157 200.322 194.037 200.832 192.737 200.652C190.617 200.372 188.487 200.002 186.407 200.592C184.297 201.192 182.287 201.102 180.127 200.832C175.657 200.282 171.347 201.072 167.577 203.732C166.247 204.672 164.927 205.362 163.277 205.302C161.937 205.252 161.187 205.832 160.947 207.212C160.137 211.952 156.857 213.732 152.467 214.042C148.807 214.302 145.187 214.582 141.537 215.292C136.637 216.242 131.657 213.992 126.607 214.302C125.057 214.392 123.237 213.872 122.507 212.442C120.757 208.992 117.697 207.562 114.347 206.412C112.327 205.722 110.157 205.042 108.467 203.972C105.007 201.772 102.227 198.312 97.3965 199.982C96.9165 200.152 96.2765 199.892 95.7165 199.802C93.1465 199.392 90.6565 199.752 88.1165 200.242C85.0865 200.832 82.6165 203.202 79.3365 203.302H93.2565C89.9865 203.912 86.7265 203.892 83.4665 203.912C71.6565 203.982 59.9465 204.852 48.4665 207.832C42.8365 209.292 37.2165 210.872 31.5065 211.962C25.9065 213.032 25.8565 212.792 26.0165 218.392C26.0365 218.962 25.9665 219.552 26.0965 220.092C26.7665 222.752 25.7065 224.752 23.8265 226.512C23.2065 227.092 22.6765 227.762 22.0965 228.372C21.4765 229.022 21.1465 230.502 19.9065 229.642C19.0865 229.072 19.6465 227.982 20.1365 227.342C22.1865 224.652 22.1265 221.132 23.7965 218.302C24.1465 217.702 24.4765 216.722 23.8565 216.342C22.2465 215.352 23.1465 214.492 23.8065 213.602C25.0065 211.992 26.0265 210.272 26.6765 208.392C28.7865 202.252 31.3265 196.232 32.4965 189.792C32.8765 187.702 34.5365 186.032 34.4865 183.782C34.4265 181.052 35.0565 178.432 35.7865 175.822C35.9865 175.102 36.5465 174.182 35.4065 173.652C33.8465 174.342 33.0965 176.122 31.4465 176.612C30.1265 175.722 30.6865 174.552 30.7065 173.462C30.7665 170.452 32.2265 167.722 32.4665 164.772C32.8865 159.612 34.2065 154.742 36.8465 150.282C37.5465 149.102 37.9865 148.322 36.1465 147.862C34.7865 147.522 34.9865 146.492 35.5865 145.512C36.3465 144.262 37.2665 143.172 38.7765 142.882C40.7965 142.492 42.1265 141.492 42.4865 139.352C42.6465 138.412 43.3165 137.802 44.2765 137.842C45.8465 137.912 46.2565 136.532 47.2165 135.792C50.3665 133.332 53.3265 130.192 57.9865 131.142C59.4665 131.442 60.9665 131.272 61.8665 130.012C63.1965 128.152 64.6065 128.602 66.3265 129.272C68.6065 130.152 70.9065 132.052 73.3465 129.292C73.9065 128.662 75.4065 128.802 76.1965 129.332C78.1365 130.652 80.4765 129.222 82.3665 130.442C82.7865 130.722 83.2765 130.632 83.2465 130.052C83.0465 126.962 84.9865 127.832 86.6365 128.202C87.4765 128.392 88.2865 128.492 89.1565 128.262C93.8065 127.012 98.4965 128.112 103.157 128.142C105.107 128.152 107.047 128.992 108.937 127.802C109.547 127.422 110.337 127.292 110.987 127.632C112.877 128.622 114.567 127.652 116.337 127.242C117.807 126.902 119.357 126.692 120.807 126.432C124.687 125.732 128.447 124.912 132.347 126.082C132.467 126.122 132.627 126.052 132.767 126.002C136.717 124.632 140.577 125.242 144.377 126.602C145.897 127.142 147.527 127.412 148.987 126.992C151.777 126.192 154.607 126.392 157.407 126.162C159.517 125.982 161.607 125.992 163.687 125.302C168.997 123.522 174.297 123.992 179.497 125.922C180.847 126.422 182.257 126.832 183.667 126.472C186.187 125.842 188.177 126.842 189.827 128.492C191.897 130.552 194.227 130.842 196.887 130.152C198.557 129.722 200.377 129.412 201.907 130.232C205.047 131.902 208.507 132.702 211.737 134.102C216.467 136.142 221.257 137.822 226.527 135.992C227.397 135.692 228.507 135.942 229.477 136.102C231.077 136.372 232.637 136.402 234.007 135.472C235.587 134.402 236.667 135.132 237.677 136.282C238.797 137.552 239.647 139.352 241.047 140.042C244.917 141.942 246.097 145.742 247.567 149.082C248.847 151.992 249.637 154.922 252.987 155.992C252.217 157.782 250.567 156.092 249.847 157.572C251.237 158.892 252.317 160.552 253.407 162.192C253.477 162.332 253.547 162.462 253.607 162.602C254.727 164.782 257.477 165.972 257.517 168.932C255.877 168.772 254.347 168.612 251.897 168.372C255.897 171.622 255.307 176.302 258.167 179.252C259.497 180.622 257.347 183.232 258.957 183.932C260.487 184.592 262.427 184.412 263.757 185.802C263.277 186.822 262.337 187.092 261.357 187.292C260.657 187.442 260.177 187.632 260.017 188.572C259.637 190.792 259.197 192.942 260.337 195.072C260.877 196.072 261.507 197.102 261.457 198.262C261.307 201.782 263.027 204.492 265.067 207.102C265.077 207.112 265.157 207.202 265.317 207.362C268.587 209.392 268.687 209.672 267.497 213.042V213.102C266.067 216.082 269.037 217.702 269.687 220.042C269.737 220.232 270.127 220.322 270.357 220.462C270.887 220.352 270.907 219.912 270.977 219.502C271.047 219.062 271.187 218.682 272.157 218.792C273.217 221.212 273.177 223.952 273.587 227.082C270.767 226.072 269.457 223.902 267.557 222.552C265.197 220.872 262.987 221.502 260.617 221.892C260.737 223.222 261.437 223.762 262.097 224.262C265.967 227.212 268.877 230.962 271.207 235.172C272.167 236.912 273.027 238.702 273.947 240.462C275.757 243.922 276.997 244.042 279.457 240.972C279.887 240.432 280.417 239.792 280.477 239.162C280.657 237.092 282.147 235.942 283.377 234.592C284.337 233.542 285.337 232.532 286.277 231.472C287.207 230.422 287.707 229.282 286.547 228.082C285.057 226.542 285.077 224.522 285.607 222.872C286.317 220.662 286.467 218.592 285.707 216.412C287.297 216.182 287.487 218.172 288.977 217.732C290.357 213.682 290.447 209.732 287.637 206.072C286.567 204.682 287.137 203.342 288.017 202.162C288.687 201.262 289.637 200.592 290.367 199.722C291.847 197.962 292.317 196.252 290.947 193.962C288.847 190.442 287.207 186.642 285.387 182.962C285.137 182.452 284.967 181.902 286.027 181.582C287.787 184.412 289.587 187.302 291.497 190.362C292.237 189.012 291.427 188.122 291.437 187.162C291.467 184.642 290.317 182.052 291.497 179.612C292.317 177.912 291.827 176.652 290.917 175.282C289.957 173.832 289.517 172.292 289.667 170.462C290.097 165.242 288.777 160.392 285.757 156.132C284.257 154.012 284.027 151.852 284.347 149.442C286.737 149.892 285.717 152.642 287.157 153.632C287.437 153.492 287.587 153.452 287.677 153.362C288.007 153.002 287.887 152.612 287.777 152.192C286.417 146.912 282.917 142.362 282.837 136.592C282.817 134.912 282.607 133.302 282.797 131.432C285.167 132.942 285.807 135.102 286.067 137.132C286.327 139.132 287.167 140.922 287.487 142.862C287.787 144.712 288.897 145.542 290.697 145.592C290.657 145.722 290.727 145.842 290.897 145.952C292.587 146.312 292.957 147.632 293.137 149.072L293.197 149.262C293.367 148.592 293.837 147.832 293.667 147.252C292.547 143.362 293.697 139.322 292.897 135.472C292.377 133.042 294.097 133.762 295.307 133.342V133.342ZM138.127 28.1316C138.167 28.0316 138.587 27.9616 138.777 28.0316C138.977 28.1016 139.117 28.3516 139.287 28.5216C139.097 28.6316 138.907 28.7316 138.727 28.8416C138.367 28.7316 137.957 28.6216 138.127 28.1316V28.1316ZM127.527 28.8016C126.877 28.9116 125.977 28.9516 125.967 27.9716C125.967 27.1616 126.727 26.9316 127.437 26.8316C128.987 26.6316 130.417 27.0816 132.357 27.7416C130.397 28.1816 128.977 28.5516 127.527 28.8016V28.8016ZM13.3165 184.962C12.8565 183.292 12.9965 181.722 14.0865 179.682C15.1765 182.022 14.5365 183.532 13.3165 184.962ZM220.247 229.762C219.327 229.642 218.837 229.082 218.417 227.792C219.597 228.442 220.397 228.712 220.247 229.762ZM205.907 213.802C206.547 213.532 207.297 213.492 207.797 214.152C208.157 214.632 208.037 215.182 207.857 215.732C207.067 218.112 206.097 218.422 201.927 217.212C203.217 215.632 204.357 214.472 205.907 213.802ZM197.167 219.322C203.017 219.612 208.557 220.962 214.057 224.822C212.867 224.822 212.567 224.892 212.327 224.812C209.707 223.932 207.277 223.442 204.267 223.832C200.537 224.322 196.477 223.462 192.527 222.332C193.207 219.492 195.147 219.222 197.167 219.322V219.322ZM140.477 223.052C140.737 223.042 140.997 223.162 141.307 223.242C140.697 223.732 140.007 223.772 139.537 223.302C139.387 223.152 140.127 223.072 140.477 223.052ZM100.957 204.982C101.367 205.112 101.737 205.352 101.717 205.792C101.697 206.272 101.237 206.422 100.877 206.262C100.557 206.112 100.167 205.762 100.127 205.462C100.087 205.002 100.547 204.932 100.957 204.982ZM91.7765 224.132C91.6565 224.782 91.0465 224.982 90.4765 225.012C85.9065 225.262 81.6365 227.032 77.1765 227.642C73.9765 228.072 71.3365 229.642 68.2365 230.482C71.0665 226.932 75.0965 225.262 79.1465 223.692C81.9165 222.622 84.8265 221.872 87.8465 221.982C88.8165 222.012 89.8165 222.202 90.7465 222.502C91.4165 222.722 91.9265 223.322 91.7765 224.132V224.132ZM26.3965 93.2716C26.4565 93.1416 26.8565 93.0316 27.0165 93.1116C27.1865 93.1916 27.2565 93.4916 27.3765 93.7016C27.1965 93.8416 26.9965 94.1116 26.8365 94.0916C26.3865 94.0216 26.2165 93.6616 26.3965 93.2716V93.2716ZM22.9565 204.022C22.8865 204.222 22.6065 204.362 22.4265 204.522C22.3665 204.292 22.2065 204.022 22.2665 203.832C22.3365 203.632 22.6065 203.502 22.7965 203.342C22.8565 203.572 23.0165 203.842 22.9565 204.022ZM22.3665 130.642C21.7665 130.562 21.3365 130.212 21.3265 129.572C21.3165 129.082 21.6265 128.842 22.1265 128.872C22.7065 129.002 23.1565 129.302 23.1665 129.952C23.1765 130.442 22.8365 130.712 22.3665 130.642V130.642ZM23.4165 98.7316C23.2965 98.1516 23.6365 97.6716 24.2165 97.4016C25.0765 97.3516 25.3765 98.0016 25.6065 98.6416C25.7965 99.1816 25.7965 99.8616 25.1665 100.032C24.1665 100.292 23.6065 99.6216 23.4165 98.7316V98.7316ZM24.7365 123.282C25.0065 123.562 25.2965 123.892 25.3765 124.252C25.4465 124.542 25.0765 124.652 24.8165 124.402C24.5365 124.132 24.3265 123.802 24.1265 123.542C24.2465 123.122 24.4865 123.022 24.7365 123.282ZM29.3865 154.092C28.3865 154.392 27.9265 157.242 27.9165 159.142C27.9065 160.962 27.8765 162.842 26.0365 164.942C24.8365 161.522 24.8465 158.532 26.0365 155.852C26.9265 153.842 26.6565 152.202 26.3965 150.192C25.8365 145.842 24.4665 141.622 24.3665 137.182C24.2865 133.682 25.3165 130.572 26.5865 127.502C27.9365 127.622 27.9865 128.462 28.2665 129.292C29.7365 133.622 29.2765 137.782 27.5665 141.952C26.8365 143.722 27.2765 145.572 28.9065 148.012C28.9665 145.562 29.0065 143.872 29.0565 142.192C29.0765 141.582 29.2665 141.012 29.9765 141.022C30.6365 141.032 30.9165 141.592 30.9965 142.172C31.2965 144.412 31.9065 146.702 31.7165 148.902C31.5565 150.672 32.5765 153.122 29.3865 154.092V154.092ZM36.9565 68.7416C38.2665 68.0016 39.5665 67.3816 40.6365 69.1116C39.3976 69.2595 38.1412 69.1332 36.9565 68.7416ZM42.8465 71.2416C42.8165 71.4816 42.1565 71.9016 41.8865 71.8316C40.4265 71.4816 40.8765 70.3116 40.8365 69.3516C41.5365 69.9716 43.0165 69.7916 42.8465 71.2416V71.2416ZM44.9665 65.8816C44.5565 66.2316 44.0965 66.5116 43.5465 66.3316C43.2365 66.2316 43.2165 65.9316 43.4565 65.6916C43.8565 65.2816 44.3665 65.1716 44.8965 65.3016C45.2465 65.3816 45.2565 65.6316 44.9665 65.8816V65.8816ZM53.3265 121.382C53.1565 121.832 52.5865 121.832 52.2565 121.592C50.7665 120.502 49.3165 119.352 47.8465 118.222C50.0165 118.162 51.6265 119.162 53.1565 120.272C53.3765 120.432 53.4465 121.072 53.3265 121.382V121.382ZM56.7265 123.342C58.6865 123.342 59.6065 123.842 60.1765 125.092C59.1665 124.632 57.8465 124.962 56.7265 123.342ZM63.8365 59.6616C63.6265 56.5616 65.1165 54.1616 66.6965 51.8916C67.2365 51.1116 68.4665 51.6016 69.4165 51.8016C67.5765 54.4416 65.7065 57.0516 63.8365 59.6616ZM69.4165 51.7316C69.2565 51.5716 69.0965 51.4216 68.9565 51.2516C68.2965 50.4416 68.0165 49.5916 68.8265 48.7216C68.9765 48.5616 69.4165 48.4216 69.5365 48.5216C70.7065 49.4016 69.3465 50.1616 69.3765 51.0016C69.3965 51.2416 69.4065 51.4816 69.4165 51.7316ZM71.4565 118.502C71.0165 118.472 70.9465 118.262 71.2765 118.142C71.5165 118.052 71.8165 118.122 72.0865 118.152C72.1465 118.162 72.1965 118.302 72.2465 118.392C71.9865 118.432 71.7165 118.522 71.4565 118.502ZM75.3065 46.2416C75.0665 46.2716 74.6065 46.1616 74.5865 46.0516C74.4865 45.5716 74.8565 45.3416 75.2665 45.2216C75.5165 45.3216 75.9265 45.3616 75.9765 45.5216C76.1665 46.0716 75.6965 46.2016 75.3065 46.2416V46.2416ZM80.3965 45.4516C79.7965 45.5616 79.8265 45.0416 79.9465 44.6416C80.0665 44.2316 80.3365 43.8616 80.8165 43.9216C80.9565 43.9416 81.0465 44.3316 81.1965 44.6316C80.9465 44.9016 80.7065 45.3916 80.3965 45.4516ZM92.7565 42.8716C93.2265 41.4716 94.2165 41.2716 95.3665 41.3316C94.3965 41.5916 94.0465 42.9016 92.7565 42.8716ZM102.977 46.9316C102.577 46.8616 102.407 46.6316 102.577 46.3316C103.127 45.3616 103.657 44.3416 105.457 44.4316C104.817 45.8416 103.957 46.4816 102.977 46.9316ZM129.867 71.1916C130.097 71.2116 130.307 71.3616 130.527 71.4516C130.297 71.5316 130.057 71.6916 129.827 71.6816C129.557 71.6716 129.057 71.9016 129.147 71.3016C129.167 71.2216 129.627 71.1616 129.867 71.1916V71.1916ZM128.107 45.4816C128.187 45.0316 128.487 44.7616 128.937 44.9316C129.337 45.0916 129.497 45.4916 129.357 45.9016C129.227 46.2716 128.987 46.6116 128.387 46.4316C128.067 46.2616 128.037 45.8716 128.107 45.4816V45.4816ZM118.267 39.2116C117.737 40.7116 116.677 40.3016 115.887 40.5416C116.227 39.2416 117.117 39.2416 118.267 39.2116ZM111.867 97.9016C117.947 96.0016 123.457 94.8416 129.157 96.9916C123.587 97.0416 118.107 98.8116 111.867 97.9016ZM123.947 100.292C123.397 100.452 122.717 100.382 122.567 99.7416C122.357 98.8116 123.167 98.4016 123.827 98.4516C126.437 98.6616 129.027 99.0116 131.637 99.3116C128.947 99.9316 126.437 99.5816 123.947 100.292ZM135.217 42.7616C134.827 42.8116 134.277 42.8616 134.247 42.3516C134.237 42.1416 134.827 41.9016 135.097 41.7116C135.447 41.8316 135.847 41.8616 135.907 42.0116C136.097 42.5816 135.617 42.7016 135.217 42.7616ZM136.467 71.2416C136.127 71.1516 136.007 70.7616 136.277 70.6016C136.897 70.2416 137.587 70.1416 138.247 70.6116C137.847 71.4116 137.177 71.4316 136.467 71.2416V71.2416ZM140.027 108.922C141.337 108.542 142.277 108.272 143.227 107.992C142.627 109.172 141.687 109.452 140.027 108.922ZM143.237 107.992C143.237 107.992 143.247 107.992 143.237 107.992L146.427 107.692C145.397 108.702 144.317 108.422 143.237 107.992ZM143.757 74.7216C144.707 74.3716 145.557 74.1316 146.497 74.7216C145.547 75.1616 144.697 75.1416 143.757 74.7216ZM147.557 71.6916C147.337 71.5916 147.117 71.5016 146.907 71.4016C147.147 71.3216 147.397 71.1716 147.637 71.1716C147.857 71.1816 148.077 71.3516 148.297 71.4516C148.047 71.5316 147.807 71.6116 147.557 71.6916V71.6916ZM156.747 39.3316C158.977 39.0716 161.247 39.1716 163.427 38.3716C164.587 37.9516 165.917 37.9716 167.017 39.2016C161.307 41.6516 155.237 41.7216 149.627 44.5616C150.837 40.6016 153.597 39.7016 156.747 39.3316ZM167.487 70.6816H164.897C165.867 70.0616 166.667 70.2316 167.487 70.6816ZM159.987 47.4116C159.837 47.7916 159.517 48.0216 159.107 47.9716C158.907 47.7916 158.737 47.6216 158.567 47.4616C158.857 47.2316 159.117 46.8916 159.447 46.7816C159.937 46.6316 160.177 46.9416 159.987 47.4116ZM157.187 75.6916C157.847 75.1916 158.487 75.5416 159.167 75.6616C158.497 75.9816 157.857 76.1116 157.187 75.6916ZM159.027 93.3016H168.717C165.677 95.0816 162.867 96.8016 159.027 93.3016ZM196.317 39.7116C192.297 40.7016 188.967 41.5916 185.467 41.3616C188.727 39.9116 192.007 38.8016 196.317 39.7116ZM185.847 42.8816C186.097 42.9116 186.447 42.9316 186.557 43.0916C186.687 43.2816 186.437 43.4716 186.077 43.4416C185.837 43.3816 185.467 43.4016 185.377 43.2516C185.247 43.0316 185.497 42.8316 185.847 42.8816V42.8816ZM185.227 44.8916L185.727 45.3616C185.557 45.5116 185.387 45.7916 185.217 45.7916C185.047 45.7916 184.887 45.5116 184.717 45.3516L185.227 44.8916V44.8916ZM184.177 50.5516C186.407 49.3916 188.767 48.7216 191.287 48.7116C190.567 49.5616 189.587 50.0316 188.597 50.4616C186.607 51.3216 184.117 51.1616 182.907 53.7816C182.257 51.9316 183.037 51.1416 184.177 50.5516ZM181.857 43.9516C180.287 48.1916 177.517 44.2816 175.467 44.6216C177.537 44.4016 179.617 44.1816 181.857 43.9516ZM179.837 53.3616C179.747 54.0016 179.267 54.2516 178.637 54.2316C178.197 54.1316 177.787 53.8816 177.847 53.4316C177.927 52.7916 178.467 52.5616 179.067 52.5916C179.527 52.6116 179.907 52.8816 179.837 53.3616ZM173.887 59.2816C177.357 55.4416 181.317 55.0216 186.207 54.7816C182.087 57.1816 178.427 58.4316 173.887 59.2816ZM186.237 61.1716C187.577 60.7316 188.637 60.7416 190.207 61.1116C188.657 61.4416 187.597 61.5516 186.237 61.1716ZM190.127 76.4516C191.277 75.8716 191.947 75.2816 193.067 75.9016C192.337 76.7916 191.517 76.8816 190.127 76.4516ZM191.527 48.6216C191.567 48.5216 191.617 48.4216 191.657 48.3216C193.227 44.7316 193.227 44.7316 196.517 47.5416C194.827 48.3116 193.287 48.9116 191.527 48.6216ZM196.367 51.1716C196.177 51.2416 195.897 51.0616 195.627 50.9816C196.127 50.3316 196.787 50.7316 197.367 50.6816C197.357 51.4716 196.707 51.0516 196.367 51.1716ZM211.057 37.3416C213.037 37.7616 215.007 37.6416 217.007 37.5316C214.977 38.6916 212.967 38.7916 211.057 37.3416ZM213.797 111.592C215.577 111.182 216.377 111.652 217.107 112.722C215.797 113.052 215.197 112.122 213.797 111.592ZM220.947 40.7616C220.827 40.7916 220.667 40.7916 220.577 40.7316C220.337 40.5716 220.437 40.4316 220.827 40.4316C221.067 40.4316 221.307 40.5016 221.607 40.5516C221.357 40.6316 221.157 40.7116 220.947 40.7616V40.7616ZM227.437 62.2916C227.097 62.3016 226.587 62.4516 226.557 61.9116C226.557 61.7916 227.217 61.6516 227.487 61.5516C227.837 61.6716 228.297 61.7716 228.287 61.8416C228.257 62.3916 227.767 62.2716 227.437 62.2916V62.2916ZM237.577 53.6916C237.317 54.2516 236.797 54.6016 236.207 54.4616C233.107 53.7316 229.947 53.1916 226.357 51.7716C229.567 49.9916 231.317 52.8516 233.647 52.6716C233.887 51.6016 232.507 51.7616 232.317 50.7416C234.197 50.3116 235.747 50.9416 237.127 52.1916C237.567 52.5816 237.857 53.0916 237.577 53.6916ZM244.967 60.2716C244.487 60.0816 243.917 59.9416 243.577 59.5916C243.227 59.2316 243.537 58.8516 244.007 58.8516C244.567 58.8616 245.027 59.1416 245.267 59.6916C245.167 59.9016 244.987 60.2816 244.967 60.2716ZM241.487 55.7516C240.387 54.4916 239.957 57.5116 239.377 55.9016C239.067 55.0416 239.347 53.7116 240.367 53.3616C242.457 52.6316 244.517 51.9516 246.897 52.5716C249.027 53.1316 248.317 54.8916 248.947 56.0616C246.407 57.4416 243.767 58.3516 241.487 55.7516V55.7516ZM261.547 102.802C261.997 102.642 262.347 102.852 262.277 103.362C262.247 103.552 261.927 103.812 261.727 103.832C261.537 103.842 261.337 103.562 261.137 103.412C261.267 103.202 261.357 102.872 261.547 102.802V102.802ZM258.907 75.3016C259.317 75.2116 259.677 75.3816 259.857 75.8116C259.717 75.9916 259.517 76.3416 259.437 76.3116C259.087 76.1916 258.777 75.9716 258.457 75.7816C258.607 75.6116 258.727 75.3416 258.907 75.3016V75.3016ZM261.017 85.6416C259.257 85.4216 258.247 84.7416 256.767 82.9416C259.067 83.4316 260.297 83.7716 261.017 85.6416ZM259.097 108.442C258.937 108.812 258.677 109.132 258.607 109.252C257.867 109.212 257.657 108.982 257.827 108.702C258.027 108.382 258.367 108.072 258.707 107.942C258.987 107.832 259.227 108.142 259.097 108.442ZM250.927 80.1216C252.357 79.2616 252.887 80.4616 254.277 81.4116C252.407 81.5616 251.637 80.9316 250.927 80.1216ZM253.987 123.112C253.607 123.282 253.217 123.232 253.207 122.722C253.207 122.622 253.597 122.502 253.807 122.392C254.037 122.462 254.267 122.532 254.497 122.612C254.327 122.772 254.187 123.022 253.987 123.112V123.112ZM255.887 116.722C255.777 116.692 255.657 116.182 255.757 116.042C256.417 115.092 257.327 115.252 258.247 115.492C257.577 116.132 257.047 117.052 255.887 116.722V116.722ZM256.397 119.122C257.477 118.562 257.477 118.562 259.177 119.152C257.847 119.712 257.107 119.612 256.397 119.122ZM260.497 116.232C259.847 115.562 259.187 115.362 258.367 115.442C258.017 113.812 259.677 113.582 260.437 112.802C261.187 112.042 261.507 113.232 261.997 113.572C262.847 114.162 262.887 114.932 262.187 115.652C261.737 116.092 261.157 116.902 260.497 116.232V116.232ZM261.557 175.302C262.407 176.082 262.247 176.952 262.057 177.832C262.107 176.982 261.107 176.302 261.557 175.302ZM262.057 178.042C263.717 178.722 264.057 180.142 264.027 181.702C263.997 183.062 263.847 184.412 263.767 185.782C262.287 183.402 262.417 180.672 262.057 178.042V178.042ZM263.827 194.472C263.627 194.332 263.507 194.052 263.417 193.812C263.307 193.482 263.527 193.142 263.747 193.272C264.057 193.442 264.247 193.832 264.437 194.072C264.327 194.512 264.097 194.662 263.827 194.472V194.472ZM264.507 81.3816C264.397 81.3316 264.257 81.2416 264.227 81.1416C264.137 80.8416 264.277 80.6716 264.627 80.6316C264.767 80.7816 265.047 80.9416 265.057 81.1116C265.077 81.4016 264.807 81.5116 264.507 81.3816ZM264.667 78.0516C266.097 78.5116 266.997 78.7916 267.907 79.0616C266.927 79.4016 265.937 79.6016 264.667 78.0516ZM265.317 198.672C267.187 199.562 267.597 200.712 268.067 202.412C266.327 201.722 265.857 200.562 265.317 198.672ZM268.937 199.432C268.847 199.142 268.647 198.802 268.657 198.462C268.667 198.122 268.967 198.072 269.197 198.362C269.347 198.562 269.477 198.802 269.517 199.042C269.557 199.362 269.357 199.502 268.937 199.432V199.432ZM274.427 189.442C275.257 191.112 275.527 192.252 274.437 193.752C273.297 192.232 273.527 191.092 274.427 189.442ZM276.197 219.892C274.737 218.092 275.327 216.422 276.197 214.752V219.892ZM276.357 211.092C274.687 210.662 273.337 210.742 273.037 208.782C272.807 207.312 271.817 205.952 271.097 204.582C270.697 203.822 270.157 203.082 270.397 202.212C270.647 201.332 270.547 200.022 271.777 199.862C272.757 199.742 273.227 200.722 273.407 201.532C274.117 204.672 276.517 207.282 276.357 211.092ZM279.177 191.472C279.617 191.262 279.867 191.552 279.997 191.972C279.927 192.202 279.927 192.562 279.777 192.632C279.347 192.842 279.037 192.572 278.977 192.142C278.947 191.922 279.027 191.542 279.177 191.472V191.472ZM277.457 182.052C278.637 182.782 279.127 183.542 278.357 184.942C277.607 184.062 277.127 183.292 277.457 182.052ZM279.207 209.802C277.777 206.872 277.787 203.942 277.197 200.662C281.177 205.572 281.177 205.572 279.207 209.802ZM281.317 199.992C279.617 197.982 277.267 196.832 277.057 193.832C281.647 195.822 281.647 195.822 281.317 199.992ZM285.357 176.882C286.237 176.762 286.497 177.462 286.797 178.072C286.677 178.322 286.597 178.732 286.457 178.752C285.597 178.862 285.247 178.262 285.077 177.552C285.037 177.342 285.227 176.892 285.357 176.882ZM283.027 224.972C283.827 225.012 284.127 225.672 284.257 226.312C284.197 227.122 283.717 227.262 283.107 227.202C282.457 227.142 282.117 226.742 282.117 226.112C282.117 225.522 282.337 224.942 283.027 224.972V224.972ZM149.877 485.562C151.177 484.072 153.357 483.252 152.437 480.682C152.147 479.882 153.297 479.872 153.987 479.742C157.837 478.972 158.877 477.502 158.677 473.202C158.607 471.592 159.987 471.412 160.957 471.262C163.167 470.922 164.997 470.082 166.467 468.372C168.857 465.592 168.507 462.352 165.407 460.302C164.097 459.432 163.527 458.682 164.777 457.302C166.337 455.582 166.027 453.462 165.017 451.792C164.027 450.162 161.947 450.332 160.317 450.782C155.417 452.142 150.387 451.582 145.437 451.992C144.627 452.062 143.707 451.842 142.977 451.482C140.687 450.372 138.297 450.452 135.877 450.592C135.027 450.642 133.847 451.112 133.397 450.722C130.247 448.032 125.647 448.222 122.727 445.222C121.627 444.092 120.537 442.852 119.027 442.432C113.987 441.022 111.177 436.662 106.737 433.732C109.727 431.582 112.857 431.792 115.747 431.972C118.897 432.162 121.817 432.652 124.347 430.012C125.127 429.192 126.677 428.872 127.907 428.772C132.387 428.412 136.807 426.852 141.387 428.112C143.387 428.662 145.367 428.242 147.107 427.102C148.817 425.992 150.557 425.842 152.357 426.702C154.397 427.672 156.647 427.772 158.617 427.202C163.797 425.692 168.867 425.862 173.777 427.422C174.827 426.712 174.517 425.722 174.837 424.962C175.007 424.562 175.207 424.162 175.687 424.162C176.347 424.162 176.637 424.642 176.837 425.212C177.337 426.642 176.537 428.362 177.967 429.862C179.357 428.402 177.257 426.532 178.807 425.052C181.577 426.492 182.417 428.882 181.867 431.832C183.577 432.192 184.667 431.412 185.707 430.752C188.727 428.842 192.017 427.882 195.547 427.422C197.547 427.162 199.777 427.232 201.157 425.002C201.867 423.852 204.057 424.612 203.817 425.892C203.417 427.992 203.967 429.702 204.767 431.512C205.127 432.332 204.517 433.142 204.027 433.852C202.527 436.062 203.957 437.542 205.297 439.072C206.627 440.592 208.097 440.622 209.897 439.952C214.607 438.202 218.517 435.142 223.137 431.922C222.647 434.032 221.547 435.022 220.527 436.002C206.217 449.802 192.937 464.642 178.257 478.082C176.797 479.412 176.227 481.822 173.577 481.842C177.927 475.662 183.907 470.922 188.717 464.992C187.247 464.242 186.627 465.292 185.937 465.832C178.867 471.312 171.957 477.022 165.497 483.192C162.477 486.072 159.267 486.752 155.517 486.172C153.677 485.902 151.917 485.372 149.877 485.562V485.562ZM180.487 359.212C178.207 358.142 174.757 359.592 171.337 357.992C168.167 356.512 164.067 358.012 160.517 358.972C155.057 360.442 149.557 361.872 143.957 362.182C140.357 362.382 136.597 361.542 133.067 360.592C123.967 358.152 114.627 357.522 105.337 356.522C105.197 356.512 105.017 356.332 104.947 356.382C101.057 358.742 97.5165 357.392 93.8865 355.582C93.0265 355.152 91.6665 355.702 90.5465 355.832C89.6965 355.922 88.8465 356.212 88.0165 356.142C86.2865 355.992 84.3965 355.512 83.9265 353.712C83.5165 352.132 85.0865 351.382 86.3665 350.652C87.7065 349.882 88.9365 348.892 90.1765 347.952C91.7465 346.762 93.1865 346.612 94.7465 348.052C97.3965 350.502 100.447 350.712 103.867 349.802C108.657 348.522 113.437 347.072 118.497 347.262C119.197 347.292 120.017 347.332 120.597 347.022C127.697 343.222 134.837 345.842 141.957 346.832C143.227 347.012 144.547 347.552 145.707 346.962C148.647 345.452 152.027 345.442 155.007 343.992C157.737 342.662 160.807 342.802 163.807 343.072C169.627 343.582 175.297 344.932 180.937 346.342C185.797 347.552 190.497 347.322 195.017 345.152C196.277 344.552 197.477 344.622 198.747 344.722C200.507 344.872 202.247 345.102 202.617 347.282C202.877 348.812 201.087 351.222 199.327 351.752C198.387 352.032 197.417 352.262 196.447 352.402C191.737 353.102 188.307 356.252 184.477 358.622C183.467 359.232 182.587 359.872 180.487 359.212V359.212ZM125.937 351.242C126.147 351.082 126.467 350.962 126.527 350.752C126.627 350.432 126.357 350.242 126.007 350.382C125.767 350.482 125.467 350.652 125.397 350.862C125.307 351.162 125.577 351.312 125.937 351.242ZM139.247 334.442C136.317 331.922 136.317 331.922 137.727 329.392C139.117 326.902 138.847 325.122 136.347 323.662C133.877 322.222 131.677 320.562 129.577 318.622C127.597 316.802 125.377 315.812 122.237 317.032C118.547 318.472 114.127 315.522 112.897 311.632C112.577 310.622 112.577 309.702 113.237 308.812C114.437 307.192 119.437 305.502 121.387 306.322C124.377 307.582 127.357 310.272 130.197 310.102C133.107 309.922 136.187 308.962 139.287 308.842C141.687 308.752 144.067 308.532 146.497 308.772C148.747 308.992 150.987 308.552 152.987 307.212C159.187 303.072 165.417 304.362 171.527 307.402C175.217 309.232 175.697 312.252 172.867 315.292C171.587 316.662 170.597 318.152 169.637 319.742C168.707 321.272 167.737 323.022 165.317 322.312C164.417 322.052 163.727 322.752 163.097 323.332C162.177 324.162 161.257 324.712 160.137 323.652C159.707 323.242 158.877 322.892 158.627 323.312C156.987 326.112 154.627 324.322 152.547 324.422C149.737 324.562 147.197 326.192 144.287 326.052C143.567 326.022 143.147 326.932 143.107 327.642C142.907 330.562 140.637 332.222 139.247 334.442V334.442ZM107.817 553.522C107.477 552.172 107.747 549.622 106.777 549.672C102.927 549.842 104.727 548.102 105.357 546.542C105.987 544.992 105.387 543.512 105.017 541.982C104.417 539.522 103.337 542.182 102.417 541.542C103.777 538.112 103.247 534.762 101.417 531.552C100.927 530.692 100.497 529.782 100.557 528.742C100.827 523.962 98.9065 519.722 96.4065 515.992C93.2765 511.322 92.7465 505.972 91.2265 500.872C90.9265 499.862 91.2465 498.812 92.1865 498.252C93.0765 497.712 93.7765 498.452 94.4265 498.972C95.1965 499.602 96.2865 500.242 96.2965 501.202C96.3465 504.852 99.1865 506.882 100.847 509.602C102.687 512.592 105.347 515.142 105.917 518.842C106.007 519.432 106.487 520.002 107.047 519.962C109.287 519.782 110.197 521.572 111.547 522.762C113.717 524.662 115.227 526.712 114.047 529.802C113.947 530.062 114.347 530.512 114.747 531.362C118.287 528.122 123.157 528.002 126.817 525.232C127.147 524.982 127.547 524.782 127.947 524.652C128.537 524.472 129.057 524.662 129.387 525.212C129.717 525.772 129.687 526.332 129.187 526.732C127.387 528.162 125.407 529.402 123.137 529.732C120.027 530.192 117.427 532.112 114.317 532.532C112.777 532.742 112.527 534.252 112.417 535.522C112.007 540.172 111.977 544.782 113.207 549.392C114.447 554.022 115.217 558.772 116.357 564.252C114.117 562.912 112.477 561.962 110.877 560.942C110.577 560.752 110.317 560.282 110.297 559.932C110.167 556.122 110.177 556.122 107.717 553.422L107.817 553.522V553.522ZM134.507 391.102C137.687 387.282 137.857 386.082 136.107 383.532C135.257 382.282 134.147 381.542 132.617 381.372C131.257 381.222 129.757 381.382 128.787 380.232C128.787 379.562 129.067 379.192 129.487 379.182C134.307 379.072 139.067 377.982 143.927 378.322C145.037 378.402 146.237 378.362 147.287 378.032C149.947 377.212 152.517 376.762 155.087 378.302C156.507 379.162 158.137 377.802 159.947 378.632C158.467 380.412 156.397 380.592 154.677 381.382C154.017 381.692 153.277 381.992 153.297 382.802C153.327 383.772 154.097 384.292 154.957 384.512C156.777 384.982 158.617 385.042 160.367 384.192C161.887 383.452 163.387 382.662 164.887 381.882C166.957 380.812 167.987 381.402 168.057 383.702C168.097 384.882 167.507 385.872 167.107 386.932C165.987 389.862 166.667 390.832 169.767 390.702C170.247 390.682 170.767 390.002 171.107 390.832C171.397 391.542 171.257 392.272 170.587 392.722C169.397 393.512 168.127 393.192 166.897 392.812C161.557 391.132 156.337 390.582 150.647 391.962C145.637 393.172 140.327 391.992 134.507 391.102V391.102ZM157.827 388.232C157.547 388.392 157.357 388.502 157.167 388.612C157.387 388.902 157.597 389.212 157.857 389.452C157.907 389.492 158.207 389.252 158.397 389.142C158.217 388.842 158.017 388.542 157.827 388.232V388.232ZM142.527 10.5816C142.367 11.2916 141.567 11.0216 141.017 11.7616C143.277 12.2616 145.507 11.9516 147.617 12.5616C150.407 13.3616 153.467 12.9616 155.977 15.0516C156.997 15.9016 158.747 15.5316 160.137 15.2916C163.327 14.7516 166.307 15.3316 169.587 16.7916C167.447 17.1716 165.727 17.1816 164.017 16.5616C163.617 16.4216 163.147 16.2216 162.777 16.3216C158.617 17.3816 154.377 16.6116 150.187 16.9616C145.457 17.3516 140.897 18.7216 136.127 19.1416C131.827 19.5216 127.667 21.3716 123.297 21.9616C119.707 22.4416 116.017 21.4416 112.497 22.8216C110.387 23.6516 108.267 24.5116 105.977 24.6516C105.047 24.7116 103.657 25.1516 103.497 23.8416C103.357 22.7416 103.337 21.2816 105.047 20.7716C110.977 19.0116 116.117 15.3816 122.187 13.7416C125.537 12.8416 128.867 11.7316 132.257 10.8116C135.767 9.84158 139.077 9.71159 142.527 10.5816V10.5816ZM292.507 271.272C291.067 266.282 288.547 261.802 287.877 256.662C287.547 254.132 287.027 251.622 286.437 249.142C285.527 245.312 289.597 240.512 293.577 240.852C295.077 240.982 296.267 241.692 297.127 242.932C297.287 243.162 297.417 243.422 297.547 243.672C300.387 249.052 298.917 264.812 295.127 269.582C294.607 270.232 294.067 270.922 292.507 271.272Z" fill="#145374"/>
<path d="M158.377 504.592C148.677 506.742 139.507 510.292 130.387 514.052C138.427 508.632 147.377 505.042 156.107 501.082C155.497 499.672 152.367 500.602 154.227 498.152C154.307 498.052 154.347 497.852 154.297 497.742C152.327 492.982 156.227 491.182 159.147 489.012C158.007 490.132 156.787 491.182 155.737 492.382C154.017 494.352 154.887 497.302 157.417 498.152C158.067 498.372 158.287 497.552 158.737 497.122C160.037 497.942 159.187 499.502 159.877 500.562C160.397 501.352 160.157 502.762 161.157 503.142C164.337 504.332 163.997 507.682 165.487 509.882C166.337 511.142 165.627 512.062 164.407 512.552C162.297 513.402 160.167 514.202 158.027 514.932C156.837 515.342 155.667 515.092 155.097 513.892C154.377 512.372 155.747 512.002 156.707 511.452C158.647 510.342 160.847 509.682 162.407 507.852C147.657 513.192 133.367 519.702 118.207 525.602C118.487 522.922 119.857 522.202 121.307 521.822C126.147 520.552 130.547 518.152 135.027 516.092C141.097 513.302 147.247 510.822 153.547 508.652C155.607 507.962 157.217 506.582 158.377 504.592V504.592ZM283.737 274.972C284.567 279.892 281.047 283.442 278.847 287.472C278.547 288.022 277.767 288.382 277.147 288.692C274.467 290.042 273.257 289.372 273.697 286.502C274.047 284.252 273.667 282.492 272.497 280.512C271.167 278.252 271.707 275.352 272.337 273.102C272.977 270.802 273.357 268.442 273.987 266.142C275.167 261.832 276.617 261.432 280.147 264.292C283.577 267.072 283.747 270.822 283.737 274.972ZM70.8165 472.482C68.1765 463.102 65.5165 453.782 63.9065 444.172C65.8865 446.032 66.4165 448.582 67.6365 450.752C69.9265 454.842 72.6665 458.772 74.2865 463.112C76.2865 468.512 79.1665 473.252 82.5065 477.832C83.0765 478.612 83.4065 479.612 83.6565 480.562C84.4465 483.532 85.9565 486.062 88.1565 488.162C89.5665 489.502 90.0765 491.282 90.7665 492.982C91.2665 494.222 90.5265 494.722 89.5265 495.232C88.3965 495.802 87.9665 495.152 87.5265 494.382C86.6865 492.902 85.7365 491.462 85.0865 489.892C83.4465 485.912 79.5065 483.562 77.9765 479.472C76.4865 475.482 74.6965 471.612 72.9565 467.722C72.5765 466.882 72.4065 465.772 71.2665 465.432C70.3865 467.732 72.2565 470.152 70.8165 472.482V472.482ZM238.027 414.002C238.737 416.292 237.807 417.772 237.137 419.312C232.187 430.762 225.097 440.802 216.807 450.032C207.427 460.482 197.627 470.532 187.867 480.622C186.647 481.892 185.507 483.382 182.487 483.462C185.917 479.682 188.757 476.432 191.727 473.312C201.787 462.732 212.107 452.392 221.297 441.012C224.417 437.142 227.307 433.112 229.927 428.892C230.527 427.932 231.277 426.952 231.477 425.882C232.367 421.382 235.167 418.002 238.027 414.002V414.002ZM114.327 538.872C114.637 538.822 114.147 538.562 114.027 537.932C113.897 537.292 114.297 536.842 114.907 536.702C121.177 535.312 126.817 532.252 132.807 530.112C139.647 527.672 146.287 524.892 152.577 521.282C156.767 518.872 161.517 517.642 165.597 515.002C166.457 514.442 167.487 513.852 168.077 515.172C168.577 516.282 169.157 517.582 168.067 518.742C167.787 519.032 167.357 519.232 166.957 519.352C156.577 522.432 147.307 528.242 137.017 531.512C133.217 532.712 129.497 534.052 125.937 535.852C122.587 537.532 118.877 537.902 114.327 538.872V538.872ZM171.937 518.482C171.637 520.802 169.987 522.702 169.957 525.172C169.947 526.182 168.497 526.322 167.577 526.652C157.447 530.282 147.557 534.612 137.087 537.282C134.897 537.842 132.777 538.652 130.637 539.402C128.157 540.272 128.207 540.302 127.737 543.372C127.637 544.022 127.087 544.612 126.787 545.122C126.357 545.352 126.187 545.232 126.037 544.882C124.317 540.932 123.167 540.782 120.407 544.182C119.857 544.862 119.427 545.652 118.397 545.312C117.467 545.002 117.257 544.082 117.037 543.292C116.747 542.212 117.657 541.732 118.407 541.462C122.797 539.872 127.147 538.062 131.647 536.872C143.237 533.822 154.037 528.832 164.837 523.802C166.777 522.902 168.657 521.862 169.657 519.812C170.177 518.732 171.007 518.452 172.107 518.652C172.097 518.662 171.937 518.482 171.937 518.482ZM150.887 560.912C156.267 554.802 157.627 547.682 156.207 539.852C156.057 539.012 155.877 538.182 155.737 537.342C155.367 535.132 155.377 535.132 158.077 534.022C160.387 542.252 159.867 550.062 155.107 557.462C152.717 561.182 151.647 565.522 150.557 569.792C148.447 578.012 147.097 586.472 142.967 594.072C141.997 593.172 142.917 592.362 143.157 591.632C144.557 587.422 144.897 583.022 145.557 578.682C146.437 572.902 147.917 567.292 150.147 561.892C150.387 561.582 150.637 561.252 150.887 560.912V560.912ZM100.427 587.772C99.9065 587.452 99.4965 587.342 99.4765 587.172C98.4065 580.352 95.4765 573.912 96.0165 566.722C96.7365 557.062 96.1965 547.402 94.0465 537.892C93.9565 537.482 93.8665 537.042 94.5065 536.512C95.7965 537.932 95.4665 539.962 96.2765 541.462C100.137 548.622 99.5765 556.332 99.0065 563.972C98.4965 570.842 98.5965 577.592 100.557 584.252C100.797 585.052 100.827 585.922 100.877 586.762C100.887 587.002 100.657 587.262 100.427 587.772V587.772ZM226.677 456.682C222.407 463.582 217.547 470.072 212.207 476.142C203.677 485.852 194.877 495.322 186.157 504.852C184.847 506.282 183.777 508.132 181.487 508.272L181.667 508.442C181.387 506.622 182.697 505.612 183.727 504.492C191.857 495.662 199.997 486.832 208.147 478.022C213.527 472.212 218.637 466.182 223.457 459.892C224.377 458.692 225.007 457.132 226.757 456.792L226.677 456.682V456.682ZM175.037 264.402L174.867 264.472L174.827 264.432C174.647 264.062 174.327 263.702 174.317 263.332C174.307 262.792 174.847 262.582 175.177 262.922C178.507 266.312 183.367 266.482 187.307 268.672C191.387 270.952 196.207 271.492 200.927 271.462C208.647 271.402 216.137 270.012 223.397 267.352C224.437 266.972 225.387 266.222 226.687 266.492C227.047 267.472 226.177 267.602 225.647 267.832C213.497 273.022 201.017 275.222 187.927 272.032C184.177 271.122 180.747 269.432 177.377 267.612C176.117 266.942 174.887 266.142 175.037 264.402V264.402ZM129.897 566.642C131.887 567.742 131.567 569.142 131.497 570.352C131.317 573.332 131.067 576.332 130.007 579.142C126.787 587.682 123.057 595.922 116.437 602.532C113.587 605.372 111.697 608.892 110.397 612.712C110.157 613.412 109.787 614.172 108.977 614.002C107.787 613.752 108.127 612.672 108.277 611.912C108.657 610.042 109.867 608.612 111.027 607.172C117.027 599.752 122.487 592.002 126.077 583.062C127.137 580.432 128.317 577.892 128.857 575.052C129.367 572.412 129.487 569.732 129.897 566.642V566.642Z" fill="#145374"/>
<path d="M99.0465 621.352C99.2465 620.682 99.5465 620.012 99.6465 619.322C100.727 611.902 103.937 605.452 109.157 600.182C114.277 595.022 117.547 588.792 120.657 582.412C121.787 580.102 122.387 577.612 122.627 575.042C122.697 574.252 122.557 573.372 123.617 572.452C124.927 576.462 123.867 579.822 122.337 583.132C119.407 589.482 115.667 595.312 111.277 600.752C106.967 606.092 103.357 611.832 101.307 618.452C100.937 619.662 100.487 620.922 99.0365 621.322L99.0465 621.352V621.352ZM192.017 484.392C195.717 481.522 198.387 477.652 201.647 474.342C208.477 467.412 215.007 460.192 221.267 452.742C222.147 451.702 223.417 450.842 223.397 449.232L223.337 449.202C224.807 451.692 222.857 453.192 221.587 454.742C214.597 463.262 207.507 471.692 199.777 479.562C197.707 481.662 195.417 483.592 193.957 486.232C193.667 485.232 193.057 484.582 192.017 484.392ZM141.357 573.122C141.437 572.502 141.737 572.032 142.397 572.022C143.607 572.022 143.247 572.862 143.047 573.482C142.247 576.052 141.267 578.562 140.587 581.162C138.757 588.142 137.457 595.252 134.867 602.022C134.047 604.152 133.897 606.422 133.987 608.712C134.027 609.882 134.477 611.212 133.347 612.402C131.627 611.062 131.997 609.202 132.287 607.712C134.557 596.072 136.027 584.222 141.247 573.352C141.287 573.282 141.327 573.202 141.357 573.122ZM4.00652 251.322C4.00652 249.792 3.98653 249.222 4.01653 248.662C4.06653 247.652 4.16652 246.572 5.20652 246.122C6.26652 245.652 7.13652 246.322 7.81652 247.062C8.86652 248.202 9.90653 249.362 10.8365 250.602C11.5365 251.542 11.9065 252.782 11.3965 253.822C10.22 256.218 8.90785 258.545 7.46653 260.792C6.78653 261.842 5.52653 261.262 5.22653 259.602C4.66653 256.532 4.30652 253.442 4.00652 251.322V251.322ZM106.517 596.332C103.697 585.092 103.557 573.942 103.897 562.792C105.207 562.232 105.647 563.102 105.867 563.852C106.187 564.932 106.417 566.082 106.397 567.202C106.267 576.302 106.577 585.382 107.607 594.442C107.667 595.002 107.537 595.562 106.517 596.332ZM177.887 302.532C176.667 295.662 175.207 288.872 176.897 281.842C177.977 284.582 181.797 285.642 181.177 289.332C181.137 289.602 181.387 289.992 181.267 290.162C178.677 293.872 179.827 298.552 177.887 302.532V302.532ZM127.507 592.642C132.607 581.822 137.417 570.982 136.317 557.722C138.347 561.362 138.747 563.782 138.257 567.722C137.617 572.852 135.737 577.602 133.597 582.252C131.907 585.912 130.007 589.442 127.507 592.642ZM150.887 560.912C150.637 561.242 150.387 561.582 150.137 561.912C149.667 562.422 149.197 562.932 148.797 563.362C148.047 563.292 147.977 562.862 148.117 562.492C150.647 555.892 150.557 549.162 149.167 542.362C149.027 541.662 148.917 540.962 148.797 540.262C148.617 539.172 148.037 537.802 149.757 537.552C151.697 537.272 151.057 538.952 151.227 539.912C151.497 541.442 151.617 543.012 151.897 544.542C152.897 550.092 152.937 555.562 150.887 560.912V560.912ZM15.8365 112.842C17.2065 113.652 17.4465 114.472 17.5065 115.342C17.6465 117.302 17.4965 119.252 18.6265 121.092C19.3165 122.212 18.6965 123.542 17.3065 123.592C15.6365 123.642 14.4965 124.672 12.5865 125.782C13.3565 123.062 13.3465 120.812 15.4165 119.492C14.4965 118.142 13.1265 118.922 11.9965 118.242C12.4965 115.852 14.8965 114.962 15.8365 112.842V112.842ZM112.497 588.792C111.417 583.962 111.547 579.382 111.557 574.902C112.807 574.422 113.627 574.802 114.057 575.572C115.387 577.922 114.517 585.832 112.497 588.792Z" fill="#145374"/>
<path d="M141.357 573.122C141.327 573.202 141.287 573.282 141.247 573.352C140.987 573.712 140.587 574.012 140.257 573.662C139.627 573.012 140.257 572.342 140.477 571.732C142.097 567.192 143.297 562.572 143.257 557.702C143.257 557.282 143.287 556.852 143.337 556.432C143.407 555.832 143.687 555.342 144.357 555.342C145.087 555.342 145.277 555.922 145.327 556.492C145.647 559.912 145.277 563.252 144.037 566.472C143.197 568.722 142.257 570.912 141.357 573.122V573.122ZM115.417 615.362C116.327 608.392 117.747 602.392 123.157 598.262C122.137 602.502 117.967 611.952 115.417 615.362ZM64.9165 275.152C71.0765 274.082 76.3265 276.002 81.8865 276.852C78.6665 278.472 71.0865 277.732 64.9165 275.152ZM132.617 588.522C130.987 593.742 129.647 598.062 128.277 602.362C128.067 603.032 127.797 603.702 127.447 604.302C127.047 604.982 126.337 605.242 125.647 604.882C125.027 604.562 125.257 603.872 125.417 603.352C126.357 600.222 127.607 597.222 129.107 594.332C130.017 592.582 130.647 590.682 132.617 588.522V588.522ZM290.687 145.572C290.647 145.702 290.717 145.822 290.887 145.932C291.637 146.972 292.387 148.012 293.127 149.052L293.187 149.242C294.257 149.052 295.187 149.722 294.707 150.552C292.997 153.492 293.177 156.372 294.687 159.302C293.127 159.632 292.967 158.612 292.787 157.892C291.867 154.322 291.007 150.732 290.217 147.122C290.117 146.672 290.517 146.102 290.687 145.572V145.572ZM99.6665 273.382C94.8765 276.622 90.1065 277.572 86.2865 275.932C91.2465 275.352 95.3765 273.972 99.6665 273.382ZM182.447 577.982C182.567 579.922 179.617 584.052 177.257 584.802C176.687 584.982 176.077 584.982 175.817 584.392C175.687 584.092 175.797 583.452 176.027 583.262C178.147 581.552 179.857 579.542 180.987 577.052C181.077 576.862 181.447 576.672 181.677 576.692C182.167 576.732 182.357 577.132 182.447 577.982V577.982ZM124.567 620.102C124.457 621.412 123.467 622.572 123.927 624.692C122.317 623.232 120.857 623.222 119.347 623.352C120.417 619.462 119.727 618.362 124.567 620.102V620.102ZM116.927 569.522C113.607 567.902 111.557 565.142 108.697 562.792C112.717 562.722 116.287 565.702 116.927 569.522ZM222.437 471.172C222.437 470.892 222.327 470.552 222.457 470.352C225.477 465.512 228.457 460.642 232.647 456.682L232.547 456.582C229.657 461.772 226.277 466.622 222.337 471.082C222.337 471.072 222.437 471.172 222.437 471.172ZM116.727 573.072C114.057 570.962 110.157 570.202 109.507 566.062C112.717 567.422 116.377 570.952 116.727 573.072ZM206.887 27.3816L193.517 26.0316L193.637 25.1116C198.207 24.5016 202.607 25.1516 206.777 27.4816L206.887 27.3816V27.3816ZM171.937 518.482L172.107 518.672C173.147 515.992 175.487 514.352 177.217 511.432C177.297 515.672 175.617 517.652 171.937 518.482V518.482ZM20.8165 273.112C20.7565 274.182 21.0665 275.582 19.5965 275.862C18.3465 276.102 17.9165 274.992 17.8765 273.952C17.8365 272.742 17.5265 271.132 19.2465 270.932C20.4165 270.802 20.6365 272.092 20.8165 273.112ZM156.347 600.042C156.237 597.702 155.117 595.102 157.837 592.852C158.767 595.832 158.457 598.082 156.347 600.042ZM88.4765 29.8016C87.0265 30.5916 86.0565 32.1616 84.1465 32.3616C86.1365 30.8216 84.7365 26.7116 88.5565 26.4616C89.3565 27.8616 88.4165 28.8616 88.3565 29.9316L88.4765 29.8016ZM265.057 207.102C265.067 207.112 265.147 207.202 265.307 207.362C266.377 209.122 267.657 210.802 267.487 213.042V213.102C264.797 212.402 264.067 209.902 263.227 207.842C262.657 206.452 264.047 206.482 265.057 207.102ZM179.297 570.212C178.307 575.962 177.387 577.012 173.477 577.072C175.277 574.732 177.667 573.272 179.297 570.212ZM187.757 570.352C189.537 570.942 190.117 571.982 190.287 573.292C190.387 574.012 190.177 574.672 189.537 575.092C188.877 575.522 188.187 575.372 187.577 575.012C186.917 574.632 186.657 574.062 186.927 573.262C187.237 572.362 187.457 571.432 187.757 570.352ZM170.287 548.232C172.937 546.922 175.207 545.562 177.477 543.572C175.717 548.302 174.197 549.302 170.287 548.232ZM113.677 630.502C113.307 628.032 112.937 625.572 112.497 622.712C114.387 627.432 114.387 627.432 113.677 630.502ZM135.767 543.752C135.727 544.492 135.707 545.482 134.797 545.222C133.217 544.772 133.997 543.122 133.627 542.052C133.407 541.432 133.967 540.972 134.587 541.112C136.127 541.462 135.537 542.822 135.767 543.752V543.752ZM164.677 591.952C163.667 588.252 163.667 588.252 164.167 585.432C165.177 587.732 165.177 587.732 164.677 591.952ZM107.607 628.462C107.697 630.152 107.997 631.602 106.737 632.872C105.647 630.662 105.647 630.662 107.607 628.462ZM99.0465 621.342C99.4665 624.482 100.257 627.662 98.1165 631.392C97.7865 627.442 99.4165 624.492 99.0465 621.362V621.342ZM147.707 600.112C147.787 602.202 149.287 604.192 148.177 606.372C146.877 604.362 147.937 602.192 147.707 600.112ZM13.5665 110.252C14.2165 108.432 15.5165 107.562 16.8465 106.292C16.6965 109.162 16.6965 109.162 13.5665 110.252ZM268.107 90.1116C269.907 90.0116 271.027 90.5716 272.227 90.9416C270.517 92.6816 270.517 92.6816 268.107 90.1116ZM104.147 27.4316C102.837 29.8716 101.427 30.4416 99.2365 31.0816C100.187 28.7616 101.557 28.0816 104.147 27.4316ZM281.557 252.622C281.097 253.852 280.577 255.282 280.047 256.712C279.477 254.992 279.257 253.362 280.777 252.102C281.037 251.882 281.317 252.032 281.557 252.622V252.622ZM181.177 568.342C181.627 566.422 181.627 566.422 183.297 565.152C182.747 567.182 182.747 567.182 181.177 568.342ZM219.707 29.3116C217.757 30.3716 216.377 30.3216 214.677 28.8516C216.547 28.0816 217.917 28.2616 219.707 29.3116ZM147.187 32.3416C147.507 31.6616 147.567 31.2716 147.717 31.2316C149.167 30.8516 150.637 30.5416 152.167 30.4616C150.787 31.6016 149.237 32.2116 147.187 32.3416V32.3416ZM272.777 110.282L272.557 110.602C273.027 110.002 273.487 109.402 273.957 108.792L273.917 108.702C274.167 109.632 274.467 110.562 274.647 111.512C274.787 112.262 274.457 113.042 273.717 113.132C272.617 113.262 272.417 112.302 272.397 111.452C272.397 111.072 272.647 110.672 272.777 110.282V110.282ZM223.387 449.232C225.847 448.722 226.107 445.852 228.097 444.842C226.377 448.702 226.377 448.702 223.347 449.212L223.387 449.232ZM173.277 259.492L173.497 259.792C173.267 259.102 173.077 258.192 174.147 258.402C175.387 258.652 176.207 259.692 176.957 261.192C175.347 261.012 174.207 260.502 173.277 259.492V259.492ZM97.8365 24.1516C96.9165 25.9016 95.4965 25.7916 93.8565 25.7516C95.3465 23.9616 95.3465 23.9616 97.8365 24.1516ZM279.457 105.942C279.417 106.662 279.147 107.002 278.707 107.052C277.707 107.172 277.137 106.572 276.927 105.682C276.787 105.072 277.127 104.552 277.787 104.572C278.757 104.602 279.107 105.422 279.457 105.942V105.942ZM174.187 386.662C174.537 386.872 174.727 386.922 174.747 387.012C175.007 388.062 175.197 389.122 174.397 390.032C174.317 390.122 173.797 390.002 173.687 389.832C172.817 388.572 173.487 387.642 174.187 386.662ZM253.407 162.192C253.477 162.332 253.547 162.462 253.607 162.602C253.437 163.252 253.247 164.152 252.377 163.622C251.697 163.212 251.297 162.092 251.847 161.482C252.417 160.852 252.977 161.712 253.407 162.192V162.192ZM171.267 483.992C171.357 485.672 170.397 486.332 168.827 487.072C168.877 485.052 170.317 484.682 171.267 483.992ZM107.717 553.422C108.107 554.782 108.747 556.212 106.947 557.072C106.567 557.252 106.107 556.892 105.957 556.472C105.337 554.722 107.217 554.522 107.817 553.522L107.717 553.422V553.422ZM268.437 246.412C267.967 244.412 267.487 243.292 268.047 241.912C269.147 243.052 269.057 244.212 268.437 246.412ZM181.667 508.442L181.487 508.272C181.537 508.402 181.617 508.532 181.627 508.662C181.687 509.752 181.307 510.542 180.127 510.682C179.967 510.702 179.617 510.352 179.607 510.162C179.547 508.712 180.327 508.222 181.667 508.442ZM226.757 456.782C226.727 454.542 228.537 453.352 229.747 451.832C229.187 453.732 227.977 455.222 226.667 456.672C226.677 456.682 226.757 456.782 226.757 456.782ZM194.067 486.102C192.747 486.392 192.147 488.102 190.367 487.972C189.957 486.102 191.907 485.502 192.247 484.172C192.407 485.232 193.067 485.842 194.067 486.102ZM162.887 469.022C162.467 469.002 161.917 468.912 161.967 468.452C162.057 467.542 162.897 467.592 163.547 467.542C163.987 467.502 164.447 467.732 164.257 468.252C164.047 468.822 163.467 468.982 162.887 469.022V469.022ZM155.107 18.7116C156.167 18.0116 156.947 17.8316 157.747 18.3316C157.817 18.3816 157.757 18.9016 157.627 18.9816C156.877 19.4416 156.087 19.6816 155.107 18.7116V18.7116ZM213.057 356.462C213.047 356.862 212.837 357.352 212.207 357.442C211.737 357.512 211.477 357.152 211.447 356.712C211.417 356.132 211.587 355.602 212.247 355.542C212.687 355.502 212.987 355.822 213.057 356.462ZM239.417 44.3616L239.677 44.5116C239.247 44.4816 238.867 44.3116 238.767 43.8716C238.737 43.7216 239.007 43.3316 239.117 43.3416C239.507 43.3616 239.907 43.4616 240.267 43.6316C240.727 43.8416 241.487 44.2216 241.127 44.6916C240.637 45.3316 239.957 44.7216 239.417 44.3616V44.3616ZM108.797 26.6016C108.737 27.0816 108.357 27.2216 107.977 27.3216C107.597 27.4216 107.097 27.4716 107.097 26.9616C107.097 26.7016 107.537 26.3516 107.857 26.2016C108.217 26.0416 108.637 26.1216 108.797 26.6016ZM287.467 105.742C287.437 106.072 287.237 106.252 286.927 106.142C286.367 105.942 285.977 105.542 285.947 104.922C285.937 104.592 286.187 104.392 286.487 104.492C287.057 104.692 287.347 105.152 287.467 105.742ZM192.707 28.7416C191.387 29.5116 190.257 29.3416 188.947 28.9716C190.157 27.8816 191.307 28.3216 192.707 28.7416ZM142.097 541.432C141.707 541.482 141.537 541.132 141.457 540.732C141.377 540.322 141.477 539.892 141.897 539.752C142.387 539.592 142.627 539.952 142.657 540.392C142.687 540.802 142.677 541.212 142.097 541.432V541.432ZM83.7765 495.182C83.6265 495.362 83.4565 495.712 83.3165 495.702C82.8165 495.682 82.7165 495.232 82.7665 494.842C82.7865 494.642 83.0565 494.302 83.1865 494.312C83.6665 494.362 83.7565 494.772 83.7765 495.182V495.182ZM286.617 99.1416C286.457 99.6016 286.077 99.6916 285.707 99.5216C285.207 99.2916 284.787 98.9116 285.057 98.2916C285.127 98.1216 285.527 97.9616 285.727 98.0016C286.287 98.1416 286.607 98.5416 286.617 99.1416ZM214.547 242.392C214.367 242.582 214.217 242.882 214.007 242.932C213.587 243.022 213.127 242.902 213.257 242.332C213.297 242.162 213.707 241.972 213.947 241.982C214.147 241.972 214.347 242.242 214.547 242.392ZM167.177 569.222C167.687 570.472 166.787 571.112 166.497 571.942C166.087 570.902 166.447 570.092 167.177 569.222ZM232.647 456.682C232.587 455.592 233.297 454.912 233.947 454.082C234.347 455.522 233.287 455.952 232.547 456.582C232.547 456.572 232.647 456.682 232.647 456.682V456.682ZM80.9665 488.102C81.7865 488.792 82.0465 489.442 81.9565 490.152C81.9265 490.402 81.4765 490.402 81.2665 490.142C80.7965 489.562 80.8565 488.942 80.9665 488.102ZM151.857 583.812C152.357 585.022 152.397 586.172 151.147 587.592C151.467 586.102 151.697 585.012 151.917 583.902C151.887 583.872 151.857 583.812 151.857 583.812V583.812ZM169.847 587.702C170.277 588.392 170.247 589.492 169.837 589.572C169.227 589.692 169.517 588.782 169.487 588.302C169.467 588.122 169.707 587.922 169.847 587.702ZM202.277 240.292C202.537 240.492 202.907 240.672 203.127 240.972C203.367 241.302 203.427 241.822 202.807 241.742C202.477 241.702 202.157 241.282 201.917 240.972C201.707 240.702 201.847 240.442 202.277 240.292V240.292ZM157.867 606.982C158.317 606.762 158.497 606.862 158.397 607.192C158.317 607.432 158.157 607.662 157.987 607.862C157.777 608.112 157.347 608.082 157.377 607.882C157.417 607.542 157.717 607.222 157.867 606.982V606.982ZM209.387 423.202C209.307 423.002 209.127 422.782 209.167 422.602C209.227 422.312 209.497 422.272 209.727 422.462C209.807 422.532 209.897 422.732 209.867 422.772C209.737 422.942 209.557 423.072 209.387 423.202V423.202Z" fill="#145374"/>
<path d="M273.957 108.802C274.597 108.932 275.207 108.102 275.837 108.672C276.107 108.922 276.467 109.402 276.387 109.652C276.147 110.452 275.577 110.042 275.167 109.772C274.727 109.482 274.347 109.092 273.927 108.732C273.917 108.712 273.957 108.802 273.957 108.802V108.802ZM127.947 386.112L127.547 385.592C127.737 385.482 127.947 385.262 128.107 385.292C128.267 385.322 128.377 385.602 128.507 385.782C128.337 385.892 128.147 386.002 127.947 386.112ZM170.207 383.752C170.027 383.592 169.737 383.452 169.707 383.262C169.627 382.852 169.777 382.432 170.307 382.532C170.467 382.562 170.657 382.952 170.637 383.172C170.627 383.372 170.367 383.562 170.207 383.752V383.752ZM270.047 296.822C269.737 296.852 269.527 296.702 269.567 296.382C269.597 296.142 269.717 295.872 269.887 295.692C270.127 295.442 270.417 295.512 270.497 295.842C270.597 296.252 270.487 296.622 270.047 296.822ZM271.397 88.2716C272.357 88.1216 273.297 88.0716 274.007 89.2316C272.817 89.5316 272.307 88.4816 271.507 88.1816C271.473 88.2151 271.436 88.2452 271.397 88.2716V88.2716ZM162.227 30.8816C162.297 31.3016 162.137 31.4916 161.807 31.4416C161.567 31.4016 161.297 31.2916 161.117 31.1216C160.857 30.8816 160.947 30.5316 161.257 30.5316C161.597 30.5316 161.937 30.7716 162.227 30.8816ZM206.777 27.4816C207.037 27.5516 207.317 27.6016 207.567 27.7016C207.807 27.8016 208.107 27.9116 208.247 28.1016C208.437 28.3716 208.257 28.6316 207.927 28.5516C207.697 28.4916 207.487 28.2616 207.317 28.0716C207.147 27.8716 207.037 27.6116 206.897 27.3716L206.777 27.4816Z" fill="#145374"/>
</svg>
