<svg id="Layer_1" data-name="Layer 1" xmlns="http://www.w3.org/2000/svg" viewBox="0 0 651.46 316.63"><defs><style>.cls-1{fill:#fff;}</style></defs><title>portfolio</title><path class="cls-1" d="M414.1,388.93V330c1.4-.38,2.91-.84,4.44-1.2l35.25-8.25q14-3.25,28-6.49c2.74-.64,4.31.5,4.45,3.36.19,3.75.24,7.52.32,11.27q.39,19,.76,37.91c.07,3.51,0,7,0,10.75-3,.59-5.79,1.17-8.61,1.68-7.71,1.38-15.43,2.72-23.14,4.09q-18,3.21-36.1,6.44A9.11,9.11,0,0,1,414.1,388.93Zm66.34-70.44a7.91,7.91,0,0,0-1.36,0c-6.17,1.29-12.36,2.51-18.5,3.93-12.54,2.89-25,5.89-37.56,8.82-4.62,1.08-5.15,1.69-5.21,6.41,0,.16,0,.32,0,.48q.17,22.53.33,45.07c0,.78.1,1.55.18,2.6l63.59-11.67c.06-1.09.15-1.87.13-2.65q-.46-24.09-1-48.19A45.1,45.1,0,0,0,480.44,318.49Z" transform="translate(138.51 -313.92)"/><path class="cls-1" d="M496.56,630.14a27.38,27.38,0,0,1-3.74.4q-15.94-.75-31.86-1.6-10.9-.56-21.8-1.15-10.19-.54-20.36-1.11a15.57,15.57,0,0,1-1.77-.38c-.37-20.91-1.16-41.73-1.19-62.5,3.09-.83,75.38-1.41,79-.64C495.42,585.36,496,607.62,496.56,630.14Zm-6-2.72c.57-4.46-.94-58.72-1.68-61.39-.73,0-1.51-.11-2.29-.1q-30.58,0-61.16.07c-1.12,0-2.24.11-3.35.19a1.69,1.69,0,0,0-1.83,1.76c-.09,1.67-.43,3.33-.41,5,0,5.35.2,10.71.32,16.06q.36,15.94.73,31.89c0,.94.16,1.88.27,3.15Z" transform="translate(138.51 -313.92)"/><path class="cls-1" d="M-74.5,421.19c-.4,23.85-1.17,47.54-2.07,71.15-2.45.55-57.37-3.76-61.84-4.8,0-.7-.12-1.46-.1-2.23.24-8.47.46-16.94.76-25.41q.56-15.7,1.21-31.4.27-6.94.65-13.89c.11-2.07.74-2.67,2.81-2.73a12.74,12.74,0,0,1,2.37.26l35.76,5.55q9.23,1.46,18.45,3C-75.95,420.75-75.42,420.94-74.5,421.19Zm-4.41,2.07c-17-2.7-34.19-5.41-51.47-7.9a17.24,17.24,0,0,0-.32,1.71c-.15,2.55-.32,5.11-.41,7.66q-.76,20.73-1.49,41.46-.28,8.15-.5,16.29c0,.84.11,1.69.16,2.46,5.16,1,50.15,4.72,52.25,4.4C-79.63,485.12-78,427.65-78.91,423.26Z" transform="translate(138.51 -313.92)"/><path class="cls-1" d="M-55.36,601.84l-60.12.67c-.07-1.3-.19-2.3-.15-3.3q.39-10.07.84-20.13.87-20.75,1.76-41.48c.12-2.71.34-5.42.54-8.13a16.61,16.61,0,0,1,.31-1.67c2.87-.61,5.66-.25,8.43-.09q18.56,1.06,37.11,2.23,6.11.38,12.21.79c.54,0,1.08.17,1.92.3C-53.18,554.58-54.36,578-55.36,601.84Zm-51.46-71.35c-.14,1.14-.3,2-.34,2.84q-.7,14.5-1.39,29-.78,16.77-1.54,33.54c0,1.16.1,2.34.15,3.44,3.71.64,48.5.21,50.57-.47.06-.51.16-1.06.18-1.61q1.32-29.22,2.61-58.46c.08-1.8-.05-3.61-.08-5.6Z" transform="translate(138.51 -313.92)"/><path class="cls-1" d="M512.81,472.54c-18.4,1.48-36.55,2.95-54.71,4.4a6.77,6.77,0,0,1-1.49-.29c-.37-22,0-44.09-.37-66.41,1.08-.24,2.06-.52,3.05-.66,8.22-1.21,16.45-2.38,24.68-3.58,6.64-1,13.28-2,19.92-3,1.5-.23,3-.49,4.5-.67,2.55-.3,3.78.73,3.81,3.28.12,10.32.19,20.64.31,30.95.13,10.8.3,21.6.43,32.39C513,470.15,512.86,471.32,512.81,472.54Zm-6.26-66.36a21.48,21.48,0,0,0-2.32,0c-2.78.36-5.55.75-8.32,1.14-7.43,1.06-14.88,2.1-22.31,3.2-3.56.53-7.09,1.21-10.65,1.77a2.29,2.29,0,0,0-2.24,2.33c-.14,1.9-.47,3.8-.46,5.7.05,12.56.16,25.11.26,37.66,0,4.48,0,9,.09,13.44,0,.68.15,1.36.25,2.23,15.67-1.23,31.07-2.66,46.69-4.15C507.07,448.27,507.21,427.34,506.55,406.18Z" transform="translate(138.51 -313.92)"/><path class="cls-1" d="M430.08,539.52c-19,.72-37.73,1.21-56.82,1.59-.2-23.26-.4-46.24-.59-69.35,1-.16,1.67-.31,2.37-.38l38.88-3.91c3.74-.38,7.47-.79,11.21-1.18a8.59,8.59,0,0,1,1.43-.09c2.49.15,3.07.7,3.1,3.23.11,7.83.15,15.67.25,23.5.15,11.52.35,23,.49,34.54,0,3.44-.06,6.88-.12,10.31A16.53,16.53,0,0,1,430.08,539.52Zm-52.94-1.07,47.8-1.51c0-1.1,0-2,0-2.82q-.1-11.4-.2-22.8c-.11-11.6-.19-23.2-.35-34.8,0-2.27-.34-4.55-.52-6.86-1.38,0-2.42-.08-3.44,0q-16.73,1.57-33.43,3.2c-2.79.28-5.56.68-8.34,1a1.59,1.59,0,0,0-1.63,1.68c-.1,1.67-.41,3.33-.4,5q.12,25.8.34,51.6C377,534.12,377.07,536.1,377.14,538.45Z" transform="translate(138.51 -313.92)"/><path class="cls-1" d="M3.17,351.11c-.47,22.21-.94,44.17-1.41,66.15a49.13,49.13,0,0,1-6.33,0c-4.42-.62-8.85-1.31-13.2-2.3-3.54-.81-7.12-1.24-10.68-1.89s-7.2-1.42-10.81-2.08c-3.3-.61-6.61-1.14-9.91-1.71-.85-.15-1.7-.33-2.76-.53,0-1.09,0-2,0-3q.59-20.62,1.18-41.24.33-11.28.67-22.54c.1-2.89,1.49-3.94,4.37-3.21,10.07,2.53,20.12,5.11,30.19,7.66C-10.24,347.74-5,349,.3,350.33,1.15,350.54,2,350.79,3.17,351.11Zm-3.9,1.95-44.13-11c-1.24,21.52-1.23,42.68-2,64.05,7.73,1.45,15.16,2.89,22.62,4.21s14.76,3.08,22.48,4.07C-1.6,393.82-.53,373.63-.73,353.06Z" transform="translate(138.51 -313.92)"/><path class="cls-1" d="M-25.81,531.68c.74-22.61,1.48-45,2.21-67.27a7.68,7.68,0,0,1,5.07-.61Q-1.76,465.89,15,468c4,.5,7.9,1.08,11.78,1.61.63,2-.63,58.91-1.42,64.55a24.84,24.84,0,0,1-2.9.17Q8.93,533.7-4.6,533c-6.23-.33-12.45-.71-18.68-1.07C-24,531.85-24.69,531.78-25.81,531.68Zm49.43-59.95c-14.2-1.85-27.94-3.62-41.66-5.09-.66,2.47-2.7,60.84-2.23,62.88.8.1,1.66.24,2.52.29q12.57.78,25.14,1.53,6,.35,12,.59a23.26,23.26,0,0,0,2.5-.13c.17-3.91.34-7.5.46-11.09q.66-20.5,1.29-41C23.69,477.18,23.62,474.63,23.62,471.73Z" transform="translate(138.51 -313.92)"/><path class="cls-1" d="M23,552.38l45.92,1.33c.67,2.38-.55,58.47-1.28,62.2-3.66.94-43.91,2.45-46.64,1.65C21.65,596,22.31,574.43,23,552.38Zm42.47,4c-2.86-.75-35.33-1.58-37.27-1-.53,2.27-2.16,58.72-1.67,60.42,1.68-.09,3.41-.19,5.15-.26l30.42-1.18c2.23-.09,2.27-.16,2.33-2.33q.66-25.17,1.31-50.32C65.77,560,65.56,558.22,65.46,556.4Z" transform="translate(138.51 -313.92)"/><path class="cls-1" d="M297.24,463.77c2.05-.3,4.17-.65,6.29-.92q23.31-2.91,46.61-5.78a31.26,31.26,0,0,1,4.35.09c.75,2.39,1.3,52.64.71,55.55-2,.53-55.87,3.45-57.53,3.12C297,513.56,296.62,467.58,297.24,463.77Zm3.64,50,49.21-3.13c.44-2.12-.06-48.81-.48-50.48-3.24-.17-46.89,5.16-48.8,6C300.35,481.84,300.8,497.62,300.88,513.72Z" transform="translate(138.51 -313.92)"/><path class="cls-1" d="M333.34,394.84c4.82-.95,9.27-1.85,13.74-2.71q12.59-2.43,25.19-4.81c4.24-.81,8.48-1.64,12.74-2.29a13.71,13.71,0,0,1,3.62.38c.58,1.91.63,46.76.09,49.69l-10.78,1.5q-8.19,1.14-16.37,2.25c-5.3.72-10.59,1.46-15.9,2.09-3.39.41-6.81.66-10.22,1-.62.05-1.24,0-2.22,0C333.14,426.16,333.39,410.61,333.34,394.84Zm3.71,44.05,46.55-6.55c.09-.73.18-1.12.18-1.51q.11-19.06.17-38.13c0-1.39-.25-2.78-.39-4.25-.78.05-1.26,0-1.72.1q-17.1,3.09-34.2,6.21c-2.67.49-5.32,1.08-8,1.69-2.09.47-2.09.51-2.35,2.61a33.18,33.18,0,0,0-.35,3.57q-.09,16.9-.12,33.81C336.85,437.14,337,437.84,337.05,438.89Z" transform="translate(138.51 -313.92)"/><path class="cls-1" d="M50,423.05a6,6,0,0,1,4.27-.54l21.19,4c5,.94,10.05,1.85,15.07,2.79.85.16,1.69.38,2.8.63,0,19.93-1,39.76-1.39,60-7.54-.43-14.69-1.61-21.88-2.37s-14.28-1.55-21.41-2.32C48.07,483.4,49.27,427.88,50,423.05Zm4.64,2.17c-.74,19.45-1.22,38.58-1.63,57.94l35.28,4.11c.13-.72.26-1.17.29-1.63.14-2.71.32-5.42.39-8.14.2-8.39.33-16.78.53-25.17.11-4.31.35-8.62.46-12.94a34.05,34.05,0,0,0-.19-5.25c-.32-2.53-.4-2.54-2.84-3q-12.48-2.38-25-4.74C59.63,426,57.28,425.64,54.64,425.22Z" transform="translate(138.51 -313.92)"/><path class="cls-1" d="M286.35,542l-41.89,1.75-.44-.41c-.05-.06-.13-.12-.14-.19a15.28,15.28,0,0,1-.15-1.66q-.14-28.41-.25-56.84a4.62,4.62,0,0,1,.3-1c13-1.51,26.06-2.93,39.17-4.15a15.8,15.8,0,0,1,3.27.37C286.4,500.64,286.47,521.22,286.35,542Zm-39.19-.67,34.21-1.36a9.63,9.63,0,0,0,.21-1.26q0-26.26-.09-52.55c0-1.32-.25-2.63-.39-4.1-11.3,1.13-22.32,2.12-33.31,3.62a33.63,33.63,0,0,0-.8,5.08c0,14.56.1,29.12.17,43.68C247.17,536.54,247.16,538.69,247.16,541.29Z" transform="translate(138.51 -313.92)"/><path class="cls-1" d="M306,436.93c-2.6.4-5.1.8-7.6,1.17l-28.9,4.28c-2,.29-3.95.55-5.92.85a10.26,10.26,0,0,1-4.9-.68c0-14.16-.27-28.27.1-42.56.93-.26,1.66-.52,2.41-.67l39.92-8.07A11.23,11.23,0,0,1,303,391c2.36,0,3.14.72,3.14,3.1q0,20.26,0,40.52C306.16,435.29,306.08,436,306,436.93Zm-5.42-42.6c-.74.09-1.52.14-2.29.28-10.43,2-20.87,4-31.28,6.08-4.5.9-4.69,1.22-4.72,5.91-.07,10.31-.07,20.62-.09,30.92,0,.78.1,1.55.16,2.6L301,434.46C301.69,429.38,301.37,396.75,300.6,394.33Z" transform="translate(138.51 -313.92)"/><path class="cls-1" d="M330.08,605.72c-1.51.09-2.69.26-3.87.21-9.58-.37-19.16-.78-28.73-1.18l-11.4-.49c-.65-2.24-1-39.25-.43-42h43.76C329.63,576.73,329.85,591.14,330.08,605.72Zm-5-2.2c-.53-13.24-.21-26.06-1-38.79h-35c-.41,12.49.3,24.75.06,37.31C301.16,602.69,312.94,603,325.1,603.52Z" transform="translate(138.51 -313.92)"/><path class="cls-1" d="M465.37,352c-2.11.06-2.82,1.62-3.3,3.49l2-1.51c-1.63,3.64-1.49,7.34-3.89,10.14.82,2.4-.12,4.33-2.51,5-.84.24-1.69.47-2.56.63s-2,.26-3.18.41a10.66,10.66,0,0,1,1.43-5.28c.21-.4,1.31.44,1.26-.68a12.45,12.45,0,0,0-.17-2,18.24,18.24,0,0,0-.72-2.11c-1.42,1.6-3,2.88-3.88,4.55-.54,1.06.05,2.7.13,4.17a11,11,0,0,0-1.4,1.1c-1.65,1.69-1.64,1.71-3.46.1.39-.65.78-1.31,1.16-1.93-.67-1.26-1.5-1-2.1-.23a11.8,11.8,0,0,0-1.42,2.73c-.4,1-.78,1.89-2.08,2s-2.85,1.06-3.88-.9c-.74.47-1.4.88-2,1.31-.19.13-.3.39-.49.52-2,1.3-3.13.93-4.06-1.05l2.82-3.11c.2.45.42.93.63,1.42a4.84,4.84,0,0,0,1.56-.77c.61-.68.81-1.8,2.26-1.69l.69,1.61.47,0c.32-1.09.65-2.18,1-3.27.39-1.36.77-2.73,1.16-4.1.31-1.07.69-2.13.93-3.22a2.54,2.54,0,0,0-.05-1.64c-1-1.85-2.1-3.63-3.17-5.44,1.78.49,2.38-.74,3-1.84-.31-.52-.72-.9-.71-1.28a3.86,3.86,0,0,1,.53-1.37c-1.26-.77-1.84-.06-2.33.69-.78,1.2-1.62,2.44-.38,3.86-1.54.55-3.31.79-4.58,1.72a20.45,20.45,0,0,0-4.44,4.56,47.63,47.63,0,0,0-3.1,5.81c-.28-7.69-.41-15.05-.1-22.68l34.76-7.64.85,1.16c1.45-1.54,2.92-1.17,4.5-.21.92.55,2,1.56,3,.17l1.29,1.65.41-4.64.5-.05c.21,1.32.41,2.63.61,4,.56,0,.95,0,1.34,0,1.15-.14,1.69.4,1.62,1.49-.28,4.17,0,8.32.14,12.48a3.67,3.67,0,0,1-.29.75c-.41-1.09-.72-1.93-.94-2.5l-1.93-.86-1.46-.66c-.21-.29-.42-.59-.91-1.3-.11.92-.15,1.35-.25,2.22l1.21-1c-.16.61-.33,1.22-.53,2l3.17,1c-.87.95-1.76.37-2.51.52-.45.1-1.11.4-1.2.74-.2.74.45.79,1,.9a8.23,8.23,0,0,1,1.69.81l.93-1.17,2.07,1.26c.12,4.27.25,8.63.39,13.2l-6.23,1.15c.34-1.53.67-2.78.88-4.05s.3-2.51.45-3.76c-.16,0-.38-.14-.42-.09-1.35,1.51-2.87,2.06-4.8,1.06-1.19-.62-1.83,0-2,1.17a1.45,1.45,0,0,1-1.73,1.5h0c.59-2,1.2-3.91,1.79-5.86.5-1.68,1-3.36,1.46-5-.06-.52-.11-1-.17-1.63l-1.09.54Zm-9.32,12.1c-1.51.91-1.35,2.44-1.38,3.91.45-1.32.9-2.63,1.33-4l.6-3-.55,0ZM445,365.58l.74.2a55.41,55.41,0,0,0,1.95-7.76c.16-1.44.79-2.9-.38-4.26-1.26-.18-1.77.4-1.55,1.63a17.11,17.11,0,0,1-.74,8.45A6,6,0,0,0,445,365.58ZM464.43,345c.33.78.65,1.51,1,2.35l1.09-1.38c.15.79.27,1.37.41,2.09,1.53-.69,2-1.64,1.52-3.22C467.16,344.88,465.91,344,464.43,345Zm-11.2,12.22.4.21a8.32,8.32,0,0,1,1.15-1.28,3.77,3.77,0,0,1,1.57-.7,6.28,6.28,0,0,1,1.71.31l.44-1.72-4.86.5c-.1.41-.24.87-.32,1.34S453.26,356.78,453.23,357.23Zm19.39-13.48.53-.17c-.13-.54-.09-1.26-.43-1.59a4.43,4.43,0,0,0-4.31-.45ZM446.76,352l1.92,1.77c.37-.65.57-1,.76-1.33s.33-.66.48-1l-1.44-1.35Zm9.53,16.09c1.88-2.86,2-3.67,1-4.79C455.94,366,455.88,366.25,456.29,368.11Zm10.12-30.34-3-2.22-.61,2.83Zm-16.93,9.38.42-.06c0-.86,0-1.73,0-2.6s-.16-1.58-.24-2.37-.19-1.55-.28-2.32l-.46.07Zm21.06,17.76.34.59c.57-.16,1.47-.16,1.64-.51.44-.9-.32-1.32-1.2-1.7Zm-3.62-12.83c1.78-.67,1.29-1.84,1.16-3.16A2.53,2.53,0,0,0,466.92,352.08Zm-2.77-9.76a3.44,3.44,0,0,0,3.24-1.07C466,341.54,464.88,340.84,464.15,342.32Zm-1,2.86c-.33,2.53-.33,2.53.72,3.43C463.6,347.42,463.36,346.3,463.13,345.18Zm-21.75,9.18c1.65,0,2-1,1.71-2.32Zm19-17c-.27-1.18-.83-1.46-2-.83Zm-29.78,5.13c-.52.49-.84.7-.81.78a14.7,14.7,0,0,0,.68,1.38l.25-.09C430.65,344,430.62,343.51,430.56,342.5Zm41.82,3.73.09-.48h-1ZM450.5,357l.29-.12-.21-.93-.57.25Z" transform="translate(138.51 -313.92)"/><path class="cls-1" d="M462.05,362.94c.52.28,1,.77,1.54.79a24.88,24.88,0,0,0,3.37-.29c.24-.46.5-1,.76-1.49.29.15.52.19.55.28.24.87-.79,2,.59,2.72.19.11-.26,1.4-.46,2.36l-3.43-1c-.5.29.17,2.05-1.28,1.79a9.1,9.1,0,0,1-2.33-1.23c.23-1.22.47-2.59.71-3.95Z" transform="translate(138.51 -313.92)"/><path class="cls-1" d="M436.36,357a6.81,6.81,0,0,1,.05,1.1,1.36,1.36,0,0,1-.73,1.05l.13-2.13Z" transform="translate(138.51 -313.92)"/><path class="cls-1" d="M435.07,362.17l-.56,1.41-.31-.1.42-1.52Z" transform="translate(138.51 -313.92)"/><path class="cls-1" d="M467.4,604.74c-.78.22-.81.22-.76.46.37,1.85,1,3.55,3.07,4.35l1.86-1.34,2.66,1.48a11.81,11.81,0,0,1-2,.32c-7.42-.22-14.85-.48-22.27-.73-1.68-.06-3.35-.19-5-.23-1.1,0-2-.11-2.34-1.49-.16-.62-1-1.08-1.62-1.55-.87-.7-1.51-1.42-.55-2.77l2.06,1.68c.35-.62.64-1.16.79-1.44l5.37.39-.43.69,3.58,2.36c.09-1.71-.21-3.29.35-4.43a19,19,0,0,0,1.74-3.94c-1.89-1.07-3.27,1.15-5.33.53a16.61,16.61,0,0,0,2-1,14.79,14.79,0,0,0,1.48-1.39c-2-1.76-2.68-1.83-5-.5-.26-1.42-.5-2.75-.84-4.68-.43.87-.6,1.23-.9,1.85l-.69-1.85c-1.21-.14-1.45.6-1.78,1.37a19,19,0,0,1-1.4,2.31c.8,1.35,0,2.23-1.51,3a13.32,13.32,0,0,0-2.43,2.06c-.05-2-1.09-3.54-.44-5.55.4-1.23-.22-2.8-.39-4.22l2.11-.85-.08-.46-2-.72V582a21.7,21.7,0,0,1,2.86-.36c4.07,0,8.15.07,12.22.23a13.53,13.53,0,0,1,3,.86c2.82-1.69,6-.5,9.44-.63l-1.5,4.41c2.29-.76,2.2-2.75,3-4.16h8.39V596.4l-1.26-1-2.74,2.84c-2-.59-1.89-2.58-2.89-3.73-.25-.28.3-1.25.47-1.84,2.72,0,2.72,0,4.7-2.15-.19-1.06-.38-2.12-.6-3.4l-2.44-.23c-.28,1.2-.52,2.26-.8,3.47-2.43-.78-3.19,1.93-4.87,2.17-.24,1.91-.51,3.6-.65,5.3-.12,1.35,0,2.71-.1,4.06a3.75,3.75,0,0,0,2.61,3.91c-.39-1.3-.73-2.4-1.06-3.49,2.07-.42,2.52,0,2.86,2.42Zm-7.57-4.82a30.3,30.3,0,0,0,.55-3.54,28.64,28.64,0,0,0-.25-3.48l-2.14-.16c-1.79,1.51-2.92,3.07-1.23,5.08-1.58,2.19-1.65,2.72-.62,3.86a3.68,3.68,0,0,0,4.58.65c.31-.22.38-.78.57-1.21Zm3.71-9c-.08-.93-.14-1.6-.21-2.38-1.07.27-2.34-.24-3.19,1.25Zm-7-1.57a27.18,27.18,0,0,0,1.81-2.16c.16-.25.15-.89,0-1s-1.06-.41-1.2-.24a4.49,4.49,0,0,0-1,1.82C456,588.17,456.33,588.7,456.51,589.34ZM438,582.77c.62,1.24.62,1.24.14,2.9.77.61,1.26.1,1.37-.54C439.71,584.14,439.79,583,438,582.77Zm7,24.12-.37.47,1.38,1,.32-.45Z" transform="translate(138.51 -313.92)"/><path class="cls-1" d="M474.41,604.75a6.47,6.47,0,0,1-2,0,2.73,2.73,0,0,1-1.51-1.2,31,31,0,0,1-.84-4c1.85.56.74,2.33,1.66,3.23h2.49Z" transform="translate(138.51 -313.92)"/><path class="cls-1" d="M467.4,604.75c.38-.28.78-.54,1.13-.85,1-.85.89-1.6-.35-2.23,2,.24,2,.24,1.69,2.69l-2.47.37Z" transform="translate(138.51 -313.92)"/><path class="cls-1" d="M437,607.87l3-.69C439.29,608.77,439.24,608.78,437,607.87Z" transform="translate(138.51 -313.92)"/><path class="cls-1" d="M439.09,606.12c-1.94.87-1.91-.13-2-1.54Z" transform="translate(138.51 -313.92)"/><path class="cls-1" d="M446,602.42c.38-.41.75-.83,1.12-1.24l.34.29-1.08,1.28Z" transform="translate(138.51 -313.92)"/><path class="cls-1" d="M-117.35,462.63c-1.22-1.75-1.49-1.78-3.55-.69a1.53,1.53,0,0,1-1.27-.11c2.45-1.16,4.67-2.85,7.7-2.22,1.09.23,2.33-.25,3.61-.42-.2,1.81,1.71,2.62,2.44,4.58l.87-2,2.11.3,0-.26a3.23,3.23,0,0,0-1-.55c-2.82-.42-3.12-2.61-3.46-4.8a4.07,4.07,0,0,0-.1-.7c-.2-.58-.27-1.36-.68-1.67-.75-.57-.68.78-1.07.74-1.8-.22-2.16.9-2.43,2.45l2.56-.22a4.26,4.26,0,0,1-4.18,1.16c.18-3.94,2.36-5.63,7.54-5.88a4.69,4.69,0,0,0-5.17-1.22c-2,.84-3.45,3.47-3.35,6.17l-6.94,2.29c.45-11.14.91-22.35,1.37-33.84,1.89.21,3.52.35,5.15.6q4,.6,8,1.34a4.57,4.57,0,0,1,1.42.73c.59.36,1.14.82,1.76,1.13,1.28.65,2.18,1.5,2,3.08l0-.06c-.62-.35-1.46-.55-1.81-1.07-1.06-1.59-2.65-1.51-4.51-1.77.21,4.1,3.23,7,3.85,11.13a13.25,13.25,0,0,0,1.55-1.37c1.69-2.14,3.74-2.08,5.31.19A37.15,37.15,0,0,0-97.24,443a9.36,9.36,0,0,0,6.86,3.5v6.93c-.75-.4-1.22-.59-1.64-.87-2-1.33-3.92-2.74-6-4-1.77-1.1-1.84-1-4.14-.59-.86,2.07-1.69,4.08-2.51,6l-2.69-1.15a27.48,27.48,0,0,1,3.14,4.38c.81,1.79,3.22,1.05,3.91,2.78-.81.7-1.58,1.3-2.27,2s-1.24,1.45-2,2.35l-1.54-.68c-.14.53-.26,1-.39,1.44l1.35.21c-.73,1-1.57,1.7-1.79,3-.19,1.09-1.41,2-2.23,3s-1.61,1.75-2.41,2.63l.09-.09-2.72.23c-.15.19-.5,1-.77.95-2.53-.23-3.88,1.68-5.78,3.14a32.93,32.93,0,0,0-2.36-3.19c-1.07-1.15-1-2.37-.84-3.78.21-2.1.12-4.23.2-6.35a5.37,5.37,0,0,1,.43-1.27c.68,1.22,1.3,1.89,2.62,1.17,1-.56,1.12-.41,1.69,1l-3.34.42,0,.4H-118a6,6,0,0,1,1.34,4.73,21.32,21.32,0,0,1-2.53-1.53c-1.6-1.31-1.71-1.37-4.51-.11a15.2,15.2,0,0,0,1.45.74c1.6.65,3.2,1.31,4.84,1.86a1.17,1.17,0,0,0,1.58-1.25,10.24,10.24,0,0,0-.44-2.09c-.4-1.71-.25-3.18,1.6-4l.44-.34,3.1-.49c2.43,1.6,2.43,1.6,3.43.7-.63-.47-1.29-.9-1.88-1.41a7.49,7.49,0,0,0-5.74-1.95,2.08,2.08,0,0,0-2,1.23Zm11.2-3.87.08-1.5h-.42l.33,1.5,2.6,1.23C-104.12,458.34-105,458.19-106.15,458.76Zm-3.55-12.11c1.72-.12,3.19-.18,4.66-.34a1.36,1.36,0,0,0,.88-.61c.1-.16-.11-.78-.22-.79-1.4-.12-1.6-1.51-2.47-2.43C-108,443.78-109.83,444.44-109.7,446.65Zm4.35,5.12c1.84-1.32,1.93-1.56,1.35-3.39C-105.32,449.08-105.54,450.16-105.35,451.77Zm-3.73,2.94c.42,1,.36,1.92,1.69,2l.68-2Zm-4.37-13.07-.2.16.56.67.2-.17Zm-.46,29.56.18.22.78-.61-.19-.24Zm-1.77,2.44c.23-.25.43-.39.5-.59s-.28-.39-.36-.36a.78.78,0,0,0-.5.4C-116.08,473.19-115.84,473.41-115.68,473.64Zm4.55-4.75.21.24.8-.72-.22-.24Z" transform="translate(138.51 -313.92)"/><path class="cls-1" d="M-100.53,474.14c.23-.46.45-.93.77-1.58l-2.1-.27,2.83-2.08c-.72-.74-2.53.66-2.15-1.41h-2.58c.2-.59.34-1,.57-1.66,1.34,1.36,2.4.71,3.49-.16.84-.66,1.56-1.69,3-1.15a5.36,5.36,0,0,1-.26.83c-.68,1.31-1.77,2.6,0,3.93.2.14.16,1-.07,1.28-1,1.1-.55,2,.17,3,1.17,1.59,2.3,3.22,3.47,4.81.16.21.48.3,1,.19l-1.13-1.72.85-1c1.43.77,1.06,2,.79,3s-1.25,1-2.2.89c-1.26-.18-2.54-.26-3.81-.41-2-.25-2.71-1.06-2.81-3.26a2.28,2.28,0,0,0-.43-1.22c-.58-.75-1.26-1.42-1.88-2.1,1.06-1.34,1.62.39,2.42.11.44.7.89,1.4,1.34,2.1-.6,1.55-.6,1.55.47,2.85a2.25,2.25,0,0,0-.53-2.79C-99.64,475.55-100.08,474.84-100.53,474.14Z" transform="translate(138.51 -313.92)"/><path class="cls-1" d="M-104,432.66c.42-1.24,1.23-.73,2.12-.58l-.88-.7v0c.79-.54,1.45-1.53,2.64-.8.11.06.4-.19.6-.29a6.56,6.56,0,0,1,7.38.9l2-.86a6.64,6.64,0,0,1,.12,4.5l-2-.51-2.34,1.43.06.07c1.08-1.61-.6-1.7-1.3-2.34.56-1.4.49-1.51-1.16-1.4l1.24,1.45c-1.43.11-.79,1.08-.75,1.8l.08-.07-3-.64c-.22.8-.37,1.38-.57,2.1-2-.91-2.92-2.73-4.2-4.15Z" transform="translate(138.51 -313.92)"/><path class="cls-1" d="M-111.45,473.83l-.09.09c1.49-.9,3-1.82,4.48-2.69,1.88-1.08,3.06-.66,4.24,1.54-1.35.37-1.28,2-2,2.6-1.2,1.06.31,2.47-1.06,3.16l2.2,1-.09.25-8.4-.72,1.72-3.32-1.64.14Zm3,2.29,1,2.35C-106.53,476.11-106.57,476-108.4,476.12Zm-.18,1.63a2.17,2.17,0,0,0-.6-.36c-.07,0-.3.22-.28.3a2.07,2.07,0,0,0,.29.52Z" transform="translate(138.51 -313.92)"/><path class="cls-1" d="M-94.36,435.77c-.53,1.39-2.09,1.8-2.9,3.14a10.82,10.82,0,0,1,2.82,1.84c.7.88,2.31,1.34,1.82,3.37-2.18-2-4.2-3.85-6.14-5.75-.68-.66-.58-.75.24-2l1,.53c.46-.55.9-1.09,1.33-1.62l-.08.07,2,.49Z" transform="translate(138.51 -313.92)"/><path class="cls-1" d="M-104.06,466.12c.3-.31.54-.73.9-.91a8.22,8.22,0,0,0,3.62-2.77c.27-.4,1.13-.4,2.23-.73a31.18,31.18,0,0,1-3.23,3.14,20.74,20.74,0,0,1-3.33,1.57Z" transform="translate(138.51 -313.92)"/><path class="cls-1" d="M-114.28,464.62l-.44.34-2.63.46v-2.79l-.05.07c1.11.45,2.22.9,3.32,1.38C-114.07,464.08-114.21,464.43-114.28,464.62Z" transform="translate(138.51 -313.92)"/><path class="cls-1" d="M-93.56,440.36l2-.61.92,1.31a3.08,3.08,0,0,1-.51.47C-92.3,442.14-92.91,441.5-93.56,440.36Z" transform="translate(138.51 -313.92)"/><path class="cls-1" d="M-91.77,471l-1.82,2c-.59-1.58,0-2.2,1.26-2.43Z" transform="translate(138.51 -313.92)"/><path class="cls-1" d="M-92.28,468.32l-1.81,1.73-.32-.32L-92.6,468Z" transform="translate(138.51 -313.92)"/><path class="cls-1" d="M-123.34,478c-.29-.69-.58-1.38-.86-2.07l.6-.24.77,2.09Z" transform="translate(138.51 -313.92)"/><path class="cls-1" d="M-94.57,474c-.43.1-.7.25-.81.18a2.52,2.52,0,0,1-.47-.67c.2-.08.45-.29.59-.23S-94.88,473.7-94.57,474Z" transform="translate(138.51 -313.92)"/><path class="cls-1" d="M-102.76,431.38c0-.65-.07-1.3-.11-1.95h.48l-.36,2Z" transform="translate(138.51 -313.92)"/><path class="cls-1" d="M-102,452.92l.45-1,.26.08-.3,1Z" transform="translate(138.51 -313.92)"/><path class="cls-1" d="M-91.81,475.16l.29,1-.36.1-.32-1Z" transform="translate(138.51 -313.92)"/><path class="cls-1" d="M-92.71,465.33l.38.24a2.73,2.73,0,0,1-.35.47.85.85,0,0,1-.31-.17A5.52,5.52,0,0,1-92.71,465.33Z" transform="translate(138.51 -313.92)"/><path class="cls-1" d="M-100.38,570.09c.46-1.6,1.07-3,2.76-2.92.66-1,1.19-1.87,1.72-2.7a7.74,7.74,0,0,0,1-1.59c.64-1.94,1.14-3.93,1.76-5.88.46-1.45.56-2.79-.56-4a4.61,4.61,0,0,1-.5-1.25l2.28.34c.94-3.48,1.83-6.91,2.81-10.32a12.64,12.64,0,0,1,1.16-2.25v0a5.62,5.62,0,0,1,0,5,56.88,56.88,0,0,0-1.91,5.41,2.21,2.21,0,0,0,.25,1.83c1.09-2.94,2.18-5.89,3.43-9.25,1.62,1.64,3.3,2.82,4.26,4.43s2.92,2.18,4.09,3.56c-.49.64-.92,1.19-1.6,2.09h2.75l1.33-2.29,2.74,3-1.28,1.9,2.61,1.82c-.41,1.71-2.84,1.52-2.49,4a1.91,1.91,0,0,1,.6.32c1.32,1,2.28.74,2.51-.88.27-1.84.19-3.72.47-5.55a20.58,20.58,0,0,1,1.14-3.4l-2.71-1.5,0-.39,2.35-.27c-.63-2.34-1.36-2.61-3.4-1-.14-.76-.25-1.35-.39-2.09l-1.17.92c.47.71.88,1.34,1.29,2l-4.17.36-.13.46-2.24-2.12c1.22-1.27,2.38-2.43,3.48-3.64s2-2.27,3-3.4l-.06.07c1.58-1.4,3.32-.4,5-.44.51,1.83-1.64,1.85-1.88,3.4l1.84,1.75c-.13,4.71-.27,9.65-.41,14.59,0,2-1.54,2.33-3.1,2.76,1.11,0,1.74,1.12,2.86.91a1.43,1.43,0,0,1,.16.43c.42,1.45-.89,1.58-1.86,2.08a14.87,14.87,0,0,1,1,1.46,3.88,3.88,0,0,1,.63,1.74c-.24,6.62-.55,13.24-.86,19.86a4.62,4.62,0,0,1-.33.94c-7.55.34-15.19.35-23,.31,0-2.39.88-5-2.52-6.23-.54,2.11-1.06,4.12-1.6,6.22h-4.2c.12-2.22.23-4.34.38-6.46a1.72,1.72,0,0,1,.42-.84c1-1.23,2-2.49,3-3.65,1.26-1.4,3-1.23,4.95-1.3a9,9,0,0,1,.14,2.28c-.58,2.72.23,4.21,2.89,4.1s5.51.16,7.73-1.92a3.7,3.7,0,0,1,1-.53c1.56-.67,1.75-1.42.71-2.62-1.24-1.44-2.45-2.91-3.65-4.39a2.68,2.68,0,0,0-2.16-1.26,9.22,9.22,0,0,1-2.55-.78l-2.44,3-2-2.72-.4.17c.07.38.13.76.21,1.14s.2.76.3,1.15c-1.58,2.07-3.66,1-5.59,1.05l-2.27,2.63V573.6l.47-.18,1.62,2,.7-1c1.06.7,2.11,1.42,3.2,2.07.14.08.52-.26.79-.4-1.67-3.63-1.67-3.63-6-3.4-.17-.85-.34-1.74-.51-2.65l1.49,1.2,3-2A4.21,4.21,0,0,0-100.38,570.09Zm26,16.34,1.61-.5-.25-.52-1.37,1.07c.17-2.24.12-2.31-2.35-2.68v3.12C-75.85,586.74-75.14,586.6-74.41,586.43Zm-4-12.32,4.37-7.42c-.35-1.09-.63-2-1.05-3.24-.62,2.26-2.27,2-3.71,2.2a2.74,2.74,0,0,1-2.91-1,10.92,10.92,0,0,0-3-1.92c-.12-.07-.4.13-.72.25l.82,1.62c-.56.87-1,1.64-1.5,2.36,1.23.74,2.54,1.13,3.15,2s.54,2.27.79,3.54Zm-.52-19c-1.25,1.07-1.35,1.34-.44,2.35.46.52.87.94.54,1.63-.68,1.46.28,2.54.73,3.93l1.18-.88c.2.37.41.73.83,1.5.5-1,1.25-1.89,1.06-2.34C-75.94,559-76.49,556.44-78.88,555.08Zm-10.47,13.24a1.31,1.31,0,0,0-2,0c-1,1.25-1.95,2.62-2.93,4,1.17,1.11,1.83.28,2.46-.42s1.3-1.54,1.9-2.35A7.32,7.32,0,0,0-89.35,568.32Zm8.53-11.82c-.81.94-1.19,1.91-2.49,2.14-.76.13-1.06,1.71-.44,2.15.39.28,1.42.34,1.63.07a9.19,9.19,0,0,0,1.37-2.66A4.93,4.93,0,0,0-80.82,556.5Zm5.34,18.12a3.19,3.19,0,0,0,1.65-3,1.18,1.18,0,0,0-.58-.88,1,1,0,0,0-1,.32C-76,572.17-76.46,573.33-75.48,574.62Zm-15.91-12c-.08,1.09.28,1.87,1.26,1.54.7-.24,1.2-1.08,1.79-1.66-.32-.25-.7-.77-1-.71A11.92,11.92,0,0,0-91.39,562.64Zm-.77-4.63A13.69,13.69,0,0,0-90,552.33C-91.68,554.23-91.86,556.1-92.16,558Zm5.36,5.58-1.93,2.06,1.93,1.06ZM-85.23,552c2,0,2.21-.2,1.82-2.11Zm1,2.74-.41-.3c-1,.75-1.21,1.1-1.82,3.43Zm7.31,10.16.18-.34-.84-.55-.25.54Z" transform="translate(138.51 -313.92)"/><path class="cls-1" d="M-73.14,540.87c-1.74,1.49-3.49,3-5.22,4.49-.59.51-1.15,1.06-1.81,1.67l-5.3-5a3,3,0,0,1,3.12-2.19c2.54.1,5.09.15,7.63.33.53,0,1,.54,1.52.82Z" transform="translate(138.51 -313.92)"/><path class="cls-1" d="M-91,580.25a8.3,8.3,0,0,1,.58,2.29c0,.32-.74.61-1.15.91-.25-.42-.78-.92-.69-1.23A9.14,9.14,0,0,1-91,580.25Z" transform="translate(138.51 -313.92)"/><path class="cls-1" d="M-93.13,549.68l-2.67-2.32.29-.33,2.6,2.38Z" transform="translate(138.51 -313.92)"/><path class="cls-1" d="M-87.94,539.5l2.6.22c-1.08.9-1.08.9-2.6-.23Z" transform="translate(138.51 -313.92)"/><path class="cls-1" d="M-68.38,543.92c-.08-.1-.23-.2-.23-.29s.15-.2.23-.3c.09.1.24.2.24.29S-68.29,543.82-68.38,543.92Z" transform="translate(138.51 -313.92)"/><path class="cls-1" d="M495.47,443.9l-1.22.86a7.08,7.08,0,0,0,.71,2.07c2,2.52,1,5.39,1,8.1,0,1.56-2,2.32-4.56,2,.63-1.64,1.16-3.21,2.71-4.3a2.65,2.65,0,0,0-.67-4.73,10.83,10.83,0,0,0-4-.41,2.4,2.4,0,0,1-2.59-1.33c.71-1.39,2.05-2.06,3.36-2.79.8-.45,2.06-.9,1.47-2.07-.69-1.32-1.61-.15-2.42.17s-1.39.51-2.39.87c.14-1.88,1.24-2.78,1.88-3.9.43-.76,1-1.47,1.38-2.24a.87.87,0,0,0-.13-.84,1.31,1.31,0,0,0-1.06-.14,4,4,0,0,0-1,1c-1.12,1.33-2.23,2.68-3.52,4.24-.61-2.53,1.68-4.57.73-7a3.24,3.24,0,0,0-2.18,2.32,30.47,30.47,0,0,1-1.31,3.84c-.51,1.23-1,2.53-2.57,3-1.63-2.2.23-5.19-2-7.51-.62,1.57-1.18,3-1.73,4.35l-.43-.1c.09-1.56.19-3.12.29-4.91.44-.44,1.08-1.09,1.7-1.75,1.14-1.2,2.76-1.34,4.91-.3.2-1.47.73-2.71,0-4.3-.84-1.92.19-3.24,2.3-3.46,1.42-.15,2.85-.15,4.68-.23a13.45,13.45,0,0,1-.53,2.47c-.45,1.08.15,2.27-.58,3.38-.27.4.72.95,1.42.77s1.34-.51,2-.75c1.21-.43,2.42-.21,2.84,1s1.21.56,2.05.85c-.82,1.51-1.6,2.95-2.47,4.57l2.17-.95C496.49,438.33,495.64,441,495.47,443.9Zm-12.59-16.5c1.85,2.2-.35,4,0,5.85l3.41-1.09c.83-2.25.8-3.4-.27-6.16-.27.53-.46.89-.45.89Zm-3.09,5.89c-.8.44-1.22.88-.75,1.69a.64.64,0,0,0,.62.17C480.56,434.66,480.16,434.05,479.79,433.29Z" transform="translate(138.51 -313.92)"/><path class="cls-1" d="M487.4,457.53c-2.88.26-5.8.55-8.73.76-1,.08-1,0-1.74-1.52,1.22-1.48,2.37-3,3.72-4.44a6.76,6.76,0,0,1,2.6-1.33c-1.54,2.81-1.54,2.81-.06,4.57a4.75,4.75,0,0,0,1.82-4.11c0-2.6,0-2.64,2.75-2.64,0,2,.62,4-.31,6A7.52,7.52,0,0,0,487.4,457.53Z" transform="translate(138.51 -313.92)"/><path class="cls-1" d="M475,449.53v-7.94c.59.71,1,1,1,1.29C476.56,448.26,476.55,448.26,475,449.53Z" transform="translate(138.51 -313.92)"/><path class="cls-1" d="M417.24,528.38l-30.16,1.3c-.13-16.37-.27-32.47-.4-48.84,10.13-.84,19.9-2.22,29.86-2.81.09.89.21,1.51.21,2.13,0,4.87.08,9.75.09,14.63,0,2.18,0,2.18-2.16,2.6a7.12,7.12,0,0,0-.94.2c-1.11.41-1.36,1.1-.61,2a11.31,11.31,0,0,0,1.53,1.33c.88-.66.27-2.25,2.08-2C416.9,508.61,417.07,518.37,417.24,528.38ZM408,504.1c-.41-1.81-.77-3.49-1.19-5.15-.05-.17-.44-.25-.82-.46v1.86l-3,1.19C402.72,504.47,403.74,505,408,504.1Zm4.64,2.44,2.06-.83c-1.9-1.16-3.24-.28-4.7.66l4.39,2.92a6.55,6.55,0,0,0-.46-1.13C413.55,507.65,413.13,507.18,412.62,506.54Zm-3.35-3.28a3.26,3.26,0,0,0,.07-4.55C408.12,501.53,408,501.53,409.27,503.26Zm-14,17.93a4.68,4.68,0,0,0,4.31,3.63A11.9,11.9,0,0,0,395.26,521.19Zm4.79-10.8c.28-2.59-1-4.21-1.91-6.32A9.54,9.54,0,0,0,400.05,510.39Zm-6.42-6a8.07,8.07,0,0,1-.85-2.35c0-1.45.07-1.46-1.82-1.18C391,502.61,392,503.58,393.63,504.41Zm3.66-7.21c2.34.39,2.7.06,2.41-1.9Zm-2.89,17.54-.56,0c-.54,2.17-.54,2.17.8,2.56C394.55,516.41,394.48,515.58,394.4,514.74Zm7.5-8.57-.5.36c0,1.05.54,1.45,2,1.63Zm-3.13-3.46c-.36-.22-.57-.44-.81-.48s-.33.24-.5.37a2.61,2.61,0,0,0,.61.59C398.16,503.24,398.41,503,398.77,502.71Z" transform="translate(138.51 -313.92)"/><path class="cls-1" d="M-40.1,384.49a29.85,29.85,0,0,1,8.8-13.36c-1.23-2.47-3.6-3.69-5-5.79,2.27,1,3.68,3.21,6,4.23,1.52-1.07,2-2.7,2.67-4.21.49-1.17.66-2.48,1.21-3.62A3.32,3.32,0,0,1-24.74,360c1.08-.29,1.77.7,2,1.64.4,1.54.58,3.13.86,4.7,0,.08,0,.2,0,.23-1.85,1.43-.67,3.53-1.14,5.41-1.5-.77-1.48-1.95-.91-3.44-1.55.3-2.55,1.84-4,.75-.11,1.12-.21,2-.3,2.91l-.59.33,1.53,1.13c-.17,1.33-.27,2.75-.57,4.13a19.76,19.76,0,0,1-1,2.71.6.6,0,0,0,0,.45,4.33,4.33,0,0,1,0,4.5,2.52,2.52,0,0,1,.29,2.81l-2.46.72c.49,1.2.92,2.12,1.24,3.08.43,1.26.46,2.75,2.15,3.14a.43.43,0,0,1,.19.14c.53.55,0,3.68-.88,4.91-.61.89-1.22.89-2.86,0,1.3-1.1,1.3-1.1.85-2.68-.13-.46-.29-.91-.4-1.38s-.16-.91-.22-1.28c-1.67-.84-1.6,1.42-3,1.33a6,6,0,0,1-.46-1.11c-.35-1.6-.27-3.36-2.2-4.2-.36-.16-.46-1.11-.54-1.72-.21-1.65-.35-3.31-.53-5.15Zm15.63-17.34c1.85-3.58,1.85-4.56.11-6.15C-25.31,362.93-25,364.78-24.47,367.15Z" transform="translate(138.51 -313.92)"/><path class="cls-1" d="M-23.39,374.26l-.95-1.22.27-.21.91,1.26Z" transform="translate(138.51 -313.92)"/><path class="cls-1" d="M9.74,488.26c.46.87,1.22.88,2.06.81,1.61-.14,2.14.27,2.24,1.86a35.83,35.83,0,0,1,0,3.59q-.43,13.89-.89,27.78c0,.54-.12,1.07-.22,1.92-2.4-.2-4.68-.35-7-.59-1.36-.14-2.7-.41-4-.64.68-1.55,2-2.85,1.85-4.71C2.48,519.58,1.4,521,1.9,523a3.72,3.72,0,0,1-1.26.41c-2.22-.16-4.43-.42-6.66-.6C-7,522.7-7.3,522-7.46,521l7.64-6.81c-1.43-.35-2.11.47-2.86,1.13l-5.7,5,.05.06a24.5,24.5,0,0,0-2.79-2.79,5.52,5.52,0,0,1-2.2-6.34,11,11,0,0,0,.19-3.27c-.06-2.27,0-4.54.06-6.81a1.09,1.09,0,0,1,.34-.84c1.28-.7,2.53-1.68,4.17-.94-.18-.53-.34-1.05-.51-1.57.74.44,1.35.11,1.35-.6s.54-1.82-.91-1.84l.12-1.85-2.25,1.83,1.87.24c-1.35.71-.55,1.51-.1,2.3-.5-.38-1.18-.67-1.47-1.17-.52-.93-1.29-1-2.2-.83-.46-2.36-.08-4,2.2-5.26a49.88,49.88,0,0,0,8.24-6.06l-3.17,1.8a13.94,13.94,0,0,0-1.56-1.72c-.19-.16-.79,0-1.11.22-1,.57-.9,1.41.26,3.16l-3.78,2.59c-.1-1-.21-1.76-.22-2.51,0-1-1.21-1.54-.74-2.77a17.41,17.41,0,0,0,.41-3.28c.06-.4.41-.75.58-1.14A10.43,10.43,0,0,0-10.41,478c.07-.7-.55-1.48-.9-2.34a29,29,0,0,1,5.74.62c1.11.33,1.92,1.67,3,2.69.1-.75.19-1.47.28-2.18,1.91-.39,2.58,1.69,4.44,2.18l-1-1.94c4.49.39,8.75.9,13.25,1.61-.13,1.8.2,3.67-.48,5-.82,1.63,1.27,3-.22,4.43-1.3-1.31-2.61.18-4,.18,0-.7.89-1.62-.2-2-.51-.19-1.28.3-2.2.57Zm-13,5-3.57,5.14.38.3,2.92-3.45c.26.3.47.81.78.87,2,.39,2.31,2.18,3.08,3.61a2.12,2.12,0,0,1-.1,2.46c-2.34,3.18-.92,6.1.51,9.42l3.68-4.14c-.1-1-1.44-2-.17-3.13L6.7,506c-.43-1.55-.7-2.6-1-3.63-.55-1.91-1.12-3.82-1.68-5.73.31.53.67,1,.94,1.58.65,1.33,1.26,2.68,2,4.21C9.08,501,9.19,499,9.14,497.11c1.85-.4,2-2,2.57-3.36-2.1-1-3.92-1.1-5.53.68-.42.46-1.1.66-1.54,1.1a3.85,3.85,0,0,0-.56,1.21l-1.91.3c-.22-2.2.47-4.68-1.31-6l-3.71-.58c-.15.88-.33,2-.52,3.06Zm-3.4,2.54c1.21-1.42,2.12-2.74,2-4.66C-7.3,492.41-7.71,493.3-6.69,495.83Zm-1.26-19.44c-.19,2.35.86,3.64,2.2,5C-5.53,479-5.82,478.26-7.95,476.39Zm.66,6c-.13-.75-.23-1.37-.36-2.09l-1.58.59v-2.58a3.25,3.25,0,0,0-1,3.28c.7.32,1.34.63,2,.9C-8.12,482.54-7.94,482.46-7.29,482.39Zm-3.47,6c.81-.81,1.37-2.69,1.47-5.16,0-.28-.31-.57-.56-1C-10.58,484-11.06,487.49-10.76,488.4Zm20.41-3.8L5.3,481.16l-.21.25,3,3.71Zm-2.11,37-.44-.31-1.68.92,1.62.71Zm-.23-30.9C6,490.59,6,490.59,6.18,492.3Zm-12.14-6.09.59-.09a8.44,8.44,0,0,0-.24-1.11c0-.05-.4,0-.62.06Z" transform="translate(138.51 -313.92)"/><path class="cls-1" d="M-8.38,520.28c-1.18,1.64-2.55,2.83-4.86,1.94a4.09,4.09,0,0,1,1-3.72l1.13,1.84h2.74Z" transform="translate(138.51 -313.92)"/><path class="cls-1" d="M56.38,607.31,32,607.8c.3-14.93.64-29.68,1.37-44.66h8.12l.5,1.93c.27-.19.46-.32.64-.46.6-.47,1.18-1.33,1.8-1.35,4.3-.12,8.61-.06,13.23-.06C57.21,578,56.8,592.4,56.38,607.31ZM43.65,580.2c.2-1.48.37-2.7.54-3.91-1.91.29-2.33.79-2.78,3.5Zm7.7,6.6c.7-1.15.9-2-.32-2.77s-1.91-.19-2.68,1ZM46,589.42c1.65,3.45,3,5.07,5,6A18.84,18.84,0,0,0,46,589.42Zm-2,10.67c.72-1.54,1.31-2.78,1.93-4.09C43.58,596.7,43.18,597.47,44,600.09ZM35.6,591c0,1.27,0,1.27,1.1,2C37.09,591.81,37.09,591.81,35.6,591Zm18.53-6.79-1.49-1.51C52.39,583.91,53.1,584.26,54.13,584.2Zm-16,8.87c1.05-1.05,1.26-1.65.34-2.25-.1-.07-.29,0-.57,0Zm7.19-12.44c.18,1.35.18,1.35,1.37,2Z" transform="translate(138.51 -313.92)"/><path class="cls-1" d="M318.21,485.6l-2.44.47c-.59,1.29-1,2.32-1.6,3.51-1.51-1.33-.51-3-1.2-4.53-1.8,1.36-2.15,3.27-2.65,5.14s-1.13,3.71-1.81,5.93c-.38-.44-.89-.75-.91-1.1-.09-1.56,0-3.14,0-4.83l1.19.08c-.08-.43-.35-.95-.22-1.33a5.08,5.08,0,0,1,1-1.29c.2-.24.6-.57.54-.74-.68-2.11,1-2.55,2.25-3.3a10.77,10.77,0,0,0,1.44-1.28c-1.51-.38-2.6-1.79-4-.21-.06.07-.38,0-.54-.12-.54-.26-1.06-.56-1.68-.89v-5.89l1.25.62c1.16-1.75,2.92-1.38,4.68-1.22-2.31,1-2.63,3.23-3.59,5,2.34,1.83,4,2.14,5.52,1.1-.07-.12-.11-.29-.22-.34-1.11-.55-2.55-.72-2.2-2.58s1.89-3.73,3.48-4a21,21,0,0,1,9.91.8c2.44.75,4.94,1.32,7.36,2.12a34.17,34.17,0,0,1,4,1.87h4.8c-.24,1.58-.44,2.89-.63,4.12-1.66-.05-3.21-.15-4.76-.13-.88,0-1.15-.46-1.1-1.16.2-2.63-.24-3.51-2.52-4.06-2.71-.64-5.46-1.12-8.2-1.64-1.55-.29-3.11-.5-4.82-.77a1.69,1.69,0,0,0-.13.72c.29,1.22.6,2.45,1,3.66s.43,2.35,2.15,2.38c.66,0,1.31.72,2.07,1.18.58-1,1.3-1.68.45-2.86-.24-.33.28-1.25.56-1.85a1.71,1.71,0,0,1,1.06.22,1.38,1.38,0,0,1,.48,1.9c-.57,1.05-1.22,2.06-1.94,3.25l-3.76-.91c-.84,1.41-2.31,2.08-3.73,2.83Zm.43-10.18a2.59,2.59,0,0,0-3.12.92c-.42.89,0,1.65,1.31,2.55.06,0,.16-.07.19-.14C317.54,477.7,318.05,476.65,318.64,475.42Zm1.24,6-1.65-2c-.51,1.25-.59,2.14.58,3.2Zm-1.67,2.74.6-.81a2.46,2.46,0,0,0-.71-.41c-.12,0-.45.29-.43.4A3.18,3.18,0,0,0,318.21,484.13Z" transform="translate(138.51 -313.92)"/><path class="cls-1" d="M318.21,485.6l.5-.09,10.91-1.38a3.71,3.71,0,0,1-3.73,1.89,12.09,12.09,0,0,1-1.4-.3c-1.4-.15-1.79.22-2.15,1.61-.41,1.6-.9,3.19-1.44,4.75-.14.38-.61.66-.95,1-1,.85-.91,1.31.26,1.87l3.11,1.47-.81,2.87c2.08-1.69,4-2.76,6.53-2.66a5.73,5.73,0,0,0-1.13-.86A7,7,0,0,1,324.7,493a2.85,2.85,0,0,1-.32-2.19c.17-.45,1.13-.74,1.78-.83a4.78,4.78,0,0,1,2.12.24,2.67,2.67,0,0,0,2.89-.24c.93-.72,1.81.09,2.55.62.9.65,1.71,1.43,2.73,2.3,0,2,.47,4.38-2.38,5.07v3.91a13.2,13.2,0,0,1-5.9-1.11,10.31,10.31,0,0,0-4.49-.31,3,3,0,0,1-2.86-1.3c-1-1.34-1-1.64.58-2.62-2.55-1.26-3.62-.93-5,1.41a9.61,9.61,0,0,1-2.05,2.42c.11-.47.2-.94.34-1.4.86-2.82,1.83-5.61,2.56-8.46a9.78,9.78,0,0,0,.05-3.54A1,1,0,0,1,318.21,485.6ZM333,494.26c.55-.78,1-1.16,1-1.59s-.45-.67-.7-1c-.32.27-.86.51-.9.82S332.72,493.37,333,494.26Zm-15-2.4-.37.07v2.15h.37Z" transform="translate(138.51 -313.92)"/><path class="cls-1" d="M334.11,473.52c1.13.38.74-.65,1.06-1.19,1.38.39,2.56-.3,3.88-.7,1.91-.58,4-.42,6.45-.61-.61.8-.95,1.3-1.35,1.76-.76.88-1.77,1.55-1.16,3.07.17.44-.64,1.29-1.15,2.23a17.89,17.89,0,0,1-2-2.46c-1.06-2-1-2-3.66-2.14l1.38,1.26c-1.28-.13-2.56-.15-3.42-1.23Z" transform="translate(138.51 -313.92)"/><path class="cls-1" d="M344.17,492c.62,2.31,1.58,4.56,1.69,7l-.49.24q-2.67-3.8-5.37-7.6l1.38-2.56,3,3.12A.77.77,0,0,0,344.17,492Z" transform="translate(138.51 -313.92)"/><path class="cls-1" d="M339.28,500.75l-2.62-1.24c.59-1.66,1.11-3.13,1.69-4.79.6.13,1.36.07,1.65.41a2.61,2.61,0,0,1,.63,1.91A25.41,25.41,0,0,1,339.28,500.75Z" transform="translate(138.51 -313.92)"/><path class="cls-1" d="M345.66,477.28c0,1.4.06,2.79,0,4.18a1.25,1.25,0,0,1-.91.8c-.34,0-1-.52-1-.71.28-1.48.7-2.95,1.08-4.42Z" transform="translate(138.51 -313.92)"/><path class="cls-1" d="M343.36,486.12l2.27-1.64v4.34Z" transform="translate(138.51 -313.92)"/><path class="cls-1" d="M339,484.83c.35-1,1.05-1.35,1.71-.81.95.79.15,1.69,0,3.12Z" transform="translate(138.51 -313.92)"/><path class="cls-1" d="M344.17,492a.77.77,0,0,1,.18.18l-.54-1.89.53-.26,1.52,1.92-.34.48Z" transform="translate(138.51 -313.92)"/><path class="cls-1" d="M339.19,488.56c.5,2.09-1.1,1.91-1.82,2.48Z" transform="translate(138.51 -313.92)"/><path class="cls-1" d="M334.15,473.51l-2.73-.14.05-.46,2.63.62Z" transform="translate(138.51 -313.92)"/><path class="cls-1" d="M331.12,487.57l-1.44-.42.08-.31,1.44.42Z" transform="translate(138.51 -313.92)"/><path class="cls-1" d="M371.75,409.39l2.2-1.74c.12,5,0,9.69-.07,14.54-5,1.06-9.84,1.59-14.64,2.25-.79-2.2.84-4.11.05-6.2a54.93,54.93,0,0,1-1.57-6.19c-.24.7-.25,1.07-.43,1.18-2.59,1.68-2.14,4.57-2.84,7-.18.64-.31,1.3-.55,2.31-1.21-1.15-1.83-2.61-3.53-2.07-.3-1-.56-1.9-.81-2.76.53-.79,1-1.54,1.72-2.53-1.41-.37-2.11-1-2-2.35.16-1.72,0-3.48,0-5.19.53-.24.83-.5,1.09-.47,1.85.25,3.76-.76,5.61.39.54.33,1.47.05,2.45.05l-.68-1.81,3.42-.55a2.4,2.4,0,0,1,2.18.62c1.36,1.22,2.46,1.13,4-.08,2.82-2.27,2.82-2.27,6.4-2.3a3.16,3.16,0,0,1-.63,3.47,12.49,12.49,0,0,0-1.33,2.48c-1.92.75-2.63,2.42-3.43,4.22l1.39.52c.43-.94.89-1.86,1.28-2.8C371.33,410.74,371.52,410.06,371.75,409.39Zm-3.8,5-1.21,1.43.46.29.74-1.72-1.27-1.53C366.43,414.1,366.85,414.64,368,414.4Zm-.26-2a5,5,0,0,0,1.43-5.55c-.12-.28-.58-.4-.89-.6-.18.31-.48.61-.52.94-.07.5.25,1.31,0,1.49C366.21,409.88,367,411,367.69,412.39Zm-3.31,2,1-2.6c-1.2,0-2.41-.39-2.68,1C362.61,413.13,363.64,413.7,364.38,414.37Zm.37,6.6c-1.58-.15-1.58-.15-2.21,1.25C364.08,422.19,364.08,422.19,364.75,421Zm-3.35-6.26v2.55l1.84-1.59Zm-2.51-6.24-.57.19c0,1.09,0,1.09,1.17,1.82C359.22,409.59,359.05,409,358.89,408.47Zm-7.78,8.89a3.82,3.82,0,0,0-.41.88c0,.11.26.26.41.39a2.8,2.8,0,0,0,.45-.65C351.59,417.87,351.34,417.67,351.11,417.36Z" transform="translate(138.51 -313.92)"/><path class="cls-1" d="M73.52,465.48l-2.41,2c-.87-.82-2.08-1.25-3.61.56l1.7.72c-.09,2.21-2.16,3.12-1.71,4.89.36,1.42,1,2.77,1.53,4.42-3.42.26-6.63-.66-10-.88v-2.71l2.78,1.67a4.48,4.48,0,0,0-1.84-2.27c-.45-.39-1.07-.95-1.06-1.43,0-2.44.23-4.89.38-7.43l2.41.5c.6-1.57-1.05-2.08-1.3-3.29l2-2.5-1.08-1.51-1.63,2.44-.44-.08c.21-8.79.41-17.57.62-26.39,2,.57,3.84,3.88,3.42,6.34L61.51,439l-.43.27c.64,1.42-.55,3.13.94,4.42-.31,1.31-.57,2.64-1,3.92-.24.78-.37,1.38.77,1.8.22-.66.44-1.3.65-1.94.79-2.35,2-2.71,4.08-1.16.77-.58.53-1.08,0-1.78a8.84,8.84,0,0,1-.72-2.26L69,442l2.85-4.61-.27-.27-2.32,1.06v-2.74c2,.37,4,.68,5.94,1.08a19.87,19.87,0,0,0,4.63.89,2.1,2.1,0,0,1,2.4,2.15c0,5.19-.1,10.37-.16,15.63l-4.09.51c1-2.14,1-2.16-.41-3.87-.6-.73-.6-2-2.12-2.28l1.11,3.19c-1.38.56-1.15-.89-1.79-1.16-1.91,1.62-2,2.45-.29,6.34h6.75c-.61.62-.88.92-1.18,1.18s-.73.58-1.41,1.11l2.92.75v7.67c-2.33-1.62-4.79-3-5.6-6.09l-4.08.45,1.66,2.52Zm2.59-22.65-2.26-3.26,1.28.51c-.06-1-.09-1.65-.13-2.34-.8.53-1.7.86-1.13,1.85-.27.18-.8.42-.77.55.39,1.87.46,3.95,2.6,4.59L75,448.8c1.85-1.76,2-3.45,1.06-5.86,1,1,1.26,0,1.27-.64,0-1,.45-1.32,1.38-1.4l-.92-2.23C75.36,440.24,75.36,440.24,76.11,442.83Zm-7,21c.13-2.35.1-2.43-1.38-4C68.24,461.44,68.66,462.63,69.07,463.82Zm-5.49-.26L62.86,461c-.91.69-1.16,1.38-.64,2.16C62.36,463.41,62.86,463.38,63.58,463.56Zm.37,7.77c-1-1.74-1-1.74-2.15-1.57Zm-1-15.27-.82-.1a7.34,7.34,0,0,0-.1,1.32,3.38,3.38,0,0,0,.8.15Zm16.28-15.68c1.2-.49.93-1.07.31-2.06C79.45,439.19,79.38,439.7,79.28,440.38Zm-7.49.18.51-.17-.5-1-.37.16Z" transform="translate(138.51 -313.92)"/><path class="cls-1" d="M77.21,470.22a5.53,5.53,0,0,0-1.57,1,29.8,29.8,0,0,0-3.26,5l1.67-.67.23.28-1.81,2.57c-.53-1.36-.94-2.41-1.42-3.66l4.53-5.91-1.32-.49,1-1.3,1.85,3.23Z" transform="translate(138.51 -313.92)"/><path class="cls-1" d="M76.77,479.29,81.18,474v1.92c0,.86-.08,1.72,0,2.57s-.41,1.36-1.25,1.32S78.2,479.52,76.77,479.29Z" transform="translate(138.51 -313.92)"/><path class="cls-1" d="M77.16,470.27c.45,1.56.45,1.56-1.49,2.73.51-.92,1-1.85,1.54-2.77Z" transform="translate(138.51 -313.92)"/><path class="cls-1" d="M75.16,455.66l.67-1.72c.66,1.29.66,1.29-.67,1.7Z" transform="translate(138.51 -313.92)"/><path class="cls-1" d="M75.16,455.64l1.28,1.59H75c0-.57.1-1.06.13-1.57C75.16,455.66,75.16,455.64,75.16,455.64Z" transform="translate(138.51 -313.92)"/><path class="cls-1" d="M73.53,465.5c-.24-.67-.54-1.35.62-1.9-.26.73-.45,1.29-.63,1.87Z" transform="translate(138.51 -313.92)"/><path class="cls-1" d="M275.75,530.3a7.77,7.77,0,0,0-1.27,0c-.25,1.7-1.57,1.32-2.61,1.34-4.16.07-8.32.08-12.48.11-1.21,0-2.62.43-3-1.42a4.34,4.34,0,0,0-1,0V495c.2,0,1,0,1-.13.12-1.68,1.46-1.47,2.49-1.59,4.69-.55,9.37-1.05,14.06-1.58.72-.08,1.24,0,1.42.87,0,.14.68.14,1.35.25C276.5,505.1,276,517.68,275.75,530.3Zm-.66-14.9V495.64l-1.38.13c-.18-1-.36-1.88-.56-3a85.56,85.56,0,0,0-15.43,1.92c-.09,1.11-.16,2-.23,3l-1.58-.1c.14,5.19.38,10.21.4,15.24s-.33,10-.28,15.07l1.43-.53c.09,1.16.17,2.15.26,3.32a95.61,95.61,0,0,0,12.34-.1c3.15-.23,3.17-.32,3.37-3.55a1.29,1.29,0,0,1,.15-.3l1.43.52v-9.15h-7.43c.13-.58.23-1,.44-2l.65,1.64c.88-.36.83-1.66,2.19-1.57,1,.07,1.94-.16,2.24.89Z" transform="translate(138.51 -313.92)"/><path class="cls-1" d="M281.8,415c-.33,3.5,1.49,6.59,1.66,10.32l2.13-7.18,1.16,1,6.59-6v12c-6.59,1.48-13.28,2.31-19.92,3.32-.47-1.86-.47-1.86,4.27-3.54l-1.08-1.26c2.89-.83,3.09-.77,4,1.14.07,0,.17.07.22,0l1.39-.78c0-3.61-2.9-2.91-5.45-3.36l5.1-5.7Z" transform="translate(138.51 -313.92)"/><path class="cls-1" d="M281.85,415.05c1.76-1.82,3.52-3.63,5.24-5.48.11-.11-.11-.54-.2-.9l6.29-1,.18.47-9.05,9.28c-.61-1.32-1-2.57-2.51-2.41Z" transform="translate(138.51 -313.92)"/><path class="cls-1" d="M273.27,415.34c-.06-.13-.17-.25-.16-.35s.16-.23.24-.35c.07.11.21.23.19.32S273.37,415.2,273.27,415.34Z" transform="translate(138.51 -313.92)"/><path class="cls-1" d="M314.81,582.85c-.56.85-2.18-.23-2.19,1.37,2,.13,2.15.33,2.09,2.36,0,.85,0,1.71,0,2.72h-2.64c-.23-.49-.48-1-.87-1.84l-1.34,1.95-3.55-.74a5.92,5.92,0,0,0-1-3.68c-1-1.36.08-2.67,1.48-3.84l-3.61-3c2-.74,8.59-.83,11.6-.27Z" transform="translate(138.51 -313.92)"/><path class="cls-1" d="M301.36,589V582.6c2.38.78,2.52,1,2.12,2.92-.18.86-.31,1.72-.52,2.56C302.79,588.74,302.47,589.27,301.36,589Z" transform="translate(138.51 -313.92)"/><path class="cls-1" d="M-3.64,495.38c.12-.7.24-1.39.35-2.09l-.08.21c.3-.44.61-.88.91-1.33C-2.34,493.47-2.35,494.68-3.64,495.38Z" transform="translate(138.51 -313.92)"/><path class="cls-1" d="M-79.77,572l1-1.08.38.29-.9,1.2Z" transform="translate(138.51 -313.92)"/><path class="cls-1" d="M-80.06,568.52l-.34.35a1.92,1.92,0,0,1-.23-.51c0-.09.19-.2.29-.3Z" transform="translate(138.51 -313.92)"/><path class="cls-1" d="M1,497.66l.76,1.18-.31.23L.56,498Z" transform="translate(138.51 -313.92)"/><path class="cls-1" d="M265.46,505.88l2.53.61v-4.43c1,1.66,1,1.91.7,5.21H265c-.16-1.85-.31-3.62-.46-5.41,2.36-.4,2.36-.4,3.06,1.77a8.35,8.35,0,0,1-.87-.44c-.24-.16-.45-.36-1.07-.85C265.59,503.69,265.54,504.66,265.46,505.88Z" transform="translate(138.51 -313.92)"/><path class="cls-1" d="M274.34,523.63c-1.07,1.51-2-.17-3.11.48-.85.51-2.12.32-3.26.44-.29-1-.68-1.82.3-2.4.15-.09.72.51,1,.7.95-.29,1.91-.62,2.9-.82.17,0,.45.5.77.87l.79-1.27Z" transform="translate(138.51 -313.92)"/><path class="cls-1" d="M258.57,499.11c-.07-1-.14-1.9-.22-3l2.34-.56C261.57,499.3,261.4,499.58,258.57,499.11Z" transform="translate(138.51 -313.92)"/><path class="cls-1" d="M262.6,519.08l.48,1.71c-.19.15-.3.32-.42.33-1.26,0-2.51.12-3.77.08-.9,0-.9-.1-1-1.56C259.44,518.69,261.07,521.5,262.6,519.08Z" transform="translate(138.51 -313.92)"/><path class="cls-1" d="M267.14,519.57l5.4-.37c-.31,1.9-.48,2-2.29,1.81A4.52,4.52,0,0,1,267.14,519.57Z" transform="translate(138.51 -313.92)"/><path class="cls-1" d="M264.32,523.91c.31-.76.48-1.21.81-2,.37.8.57,1.25.94,2.06l-5.1.53c.37-.86.57-1.35.86-2l.83.62.88-.58C263.76,522.88,264,523.25,264.32,523.91Z" transform="translate(138.51 -313.92)"/><path class="cls-1" d="M261,518.31l-2.81.15c.12-.67.21-1.17.31-1.71C261,516.48,261,516.48,261,518.31Z" transform="translate(138.51 -313.92)"/><path class="cls-1" d="M269,508.38v3.29l-1.75-.22v-2.62Z" transform="translate(138.51 -313.92)"/><path class="cls-1" d="M273.18,514.54l-3,.64c0-.58-.13-1.15,0-1.25.86-.52,1.8-.93,3-1.51Z" transform="translate(138.51 -313.92)"/><path class="cls-1" d="M267.85,513.5c-1.3,2.32-3,.82-4.36,1.41C264.39,512.63,266,513.65,267.85,513.5Z" transform="translate(138.51 -313.92)"/><path class="cls-1" d="M257.67,514.5c.85.39,2.45-1.73,2.71.69C258.27,515.36,258.27,515.36,257.67,514.5Z" transform="translate(138.51 -313.92)"/><path class="cls-1" d="M263,507.21l-.56-5.35C263.43,502.86,263.43,502.86,263,507.21Z" transform="translate(138.51 -313.92)"/><path class="cls-1" d="M266.49,508.31v3.35C265.61,510.54,265.61,510.47,266.49,508.31Z" transform="translate(138.51 -313.92)"/><path class="cls-1" d="M258.67,509.86v2.21l-.38,0c-.05-.75-.1-1.51-.16-2.26Z" transform="translate(138.51 -313.92)"/><path class="cls-1" d="M264.86,509.07,263.7,512A2.58,2.58,0,0,1,264.86,509.07Z" transform="translate(138.51 -313.92)"/><path class="cls-1" d="M271,511.32V508.2C271.74,509.64,271.74,509.64,271,511.32Z" transform="translate(138.51 -313.92)"/><path class="cls-1" d="M258.67,524.39c.28-.58.52-1,.75-1.52.15.07.36.12.38.21C260,523.88,260,524.56,258.67,524.39Z" transform="translate(138.51 -313.92)"/><path class="cls-1" d="M265,497l1.45.2-.06.39-1.45-.18Z" transform="translate(138.51 -313.92)"/><path class="cls-1" d="M259.11,500.72l1.64-.25.06.39-1.65.18Z" transform="translate(138.51 -313.92)"/><path class="cls-1" d="M260.9,511.46v-2h.29v2Z" transform="translate(138.51 -313.92)"/><path class="cls-1" d="M262.24,514.79c-.21-.57-.8-1.18.36-1.88Z" transform="translate(138.51 -313.92)"/><path class="cls-1" d="M266,517.44c.2-.32.4-.64.62-.94a1.19,1.19,0,0,1,.34.16c-.13.36-.29.71-.45,1.06Z" transform="translate(138.51 -313.92)"/><path class="cls-1" d="M272.5,505.28c-.05.39-.09.78-.17,1.16a1.13,1.13,0,0,1-.41,0c0-.39,0-.78,0-1.17Z" transform="translate(138.51 -313.92)"/><path class="cls-1" d="M263.68,495.32l.79-.61.24.25c-.23.26-.46.52-.68.79Z" transform="translate(138.51 -313.92)"/><path class="cls-1" d="M262.27,518.21v-1.06l.34,0c.05.35.11.69.17,1Z" transform="translate(138.51 -313.92)"/></svg>