<svg id="house" xmlns="http://www.w3.org/2000/svg" viewBox="0 0 258.96 177.86"><defs><style>.cls-1{fill:#135374;}</style></defs><title>house</title><path class="cls-1" d="M451.36,416.69v1.91h-259v-5.27l1.31.5c.94-.7,1.92-1.53,3.29-1,.35-.23.67-.59,1-.66,1.11-.22,2.17.87,3.33.21.61,1,1.57.46,2.33.42a14.91,14.91,0,0,0,2.92-.72l2.22,1.41c.11-1.4.24-2.5.27-3.6q.63-24,1.24-48c.23-8.79.5-17.59.74-26.38.09-3,.12-6.08.23-9.12.05-1.1-.33-1.5-1.45-1.42-2.35.16-4.71.24-7.07.33-2.9.11-3.08.79-3.78-2.58,0-.2-.14-.38-.18-.57-.21-1-.65-1.71-1.92-1.5a3.19,3.19,0,0,1,.19-.66q18.54-34.44,37.1-68.88c0-.08.19-.12.29-.16s.08,0,.11,0l.1.06.1,1.39h.3l1.08-2.33c.77,1.39,1.82.69,2.79.64q7.83-.47,15.68-.91c7.5-.42,15-.85,22.51-1.24,4.63-.24,9.26-.39,13.89-.64,6.71-.37,13.41-.83,20.11-1.19,6.43-.35,12.86-.57,19.29-.92,9.81-.53,19.62-1.13,29.44-1.67a3.79,3.79,0,0,1,1.25.4c-.31,0-.63,0-.94,0-2.22.18-4.44.39-6.66.56-.83.06-1.67-.06-2.48.06-1.23.18-.79,1.35-1.1,2.09a3,3,0,0,1-.47.63c.65-.07,1.52-.31,1.58-.68.26-1.63,1.59-1,2.64-1.25l-.68,1.53a1.4,1.4,0,0,0,1.9.14c.8-.57,1.52-1.25,2.3-1.85.15-.11.45,0,.69,0-.36,1,.52.25.71.51a2.61,2.61,0,0,0,.47.41l-1,.43.09.26,1.48.2c-.29-1.12-.24-1.93,1-2.16.19,0,.29-.55.42-.84l1,.92c-.26.19-.44.34-.63.45-.59.35-1.46.72-.06,1.1,1,.27,2.05.37,3.08.54l.13-.57-1.64-.46c0-1.59.18-1.74,2.41-2l-1.14-.34,0-.28,17.62-1,0,.43-2.45.23,0,.22,2.37.26-1.72,2.21c3,.44,3.95.18,4.4-1.43l.39,1.3,2.09.7.73,1-1.61.76-1.62-2c-1,.79-1.78,1.62-2.76.23-.43.92.25,2.15-.91,2.47l-1.07-.29-.15,1.11-.3,0-.12-2.16c-1.07.35-.88.29-.73,3.09l1.26.34a6.22,6.22,0,0,0-.49,1.51,7,7,0,0,1-1.61,4.55c-.28.31-.18,1-.2,1.48,0,.84.1,1.74-1,2.08l1.15,1.24,2.57-4.68.46.53,1.11-2.13.35.06v2.13c.08-.92,1.68-.58,1.47-1.95-.1-.65.75-1.45,1.23-2.27l-2.42-.31c1-1.2,2.15-.8,3.42-1.22l-2.17-1.68c0-.45,0-1,.92-.37.27.2.79,0,1.29,0,.06,1.18,1,.26,1.61.3l.24.92,1.4-1.47c1,1.12,1.1-.57,1.94-.59-.24.59-.77,1.23-.62,1.63.58,1.65-.41,3-.64,4.49l-.86-2.67a1.71,1.71,0,0,0,0,2.52c.15.18.6.09.92.12-.19.79-.3,1.67-1.79,1,.37,1,.65,1.85.95,2.7l.59-.54.12,1.65,1.6-1.1-.44-.1a7.61,7.61,0,0,1-.3-1.8,6.1,6.1,0,0,1,.58-1.75,15.66,15.66,0,0,1,.76-1.39l.42.11a13,13,0,0,1,.44,2.11,14.7,14.7,0,0,1-.18,2.19c1.72.32,2,.14,2.34-1.46a9.94,9.94,0,0,1,.66-1.63c.15-.37.52-.8.43-1.08-.34-1,.58-1.73.54-2.66,0-.1.23-.2.34-.31.36-.35.87-.64,1-1.06a23.76,23.76,0,0,0,1.18-3.85c.18-.92.53-1.33,1.47-1.3a11.38,11.38,0,0,0,2.26-.09c.24,0,.42-.47.62-.72-1.88.48-1.88.48-2.95-2.15l-4.85.34c.81,1.37.42,2.19-.89,2.77l1.81.58-2.38,1.72-.14-1.18c.24-.87.47-1.75.73-2.61a12.3,12.3,0,0,1,.56-1.27l-11.74.54v-.52l28.69-1.43,0,.44-9.82.51,0,.41,2.62.29-.76,2.23,4.11-.29c-.15.4-.24,1.11-.46,1.15a11.77,11.77,0,0,1-2.45-.07l1.21,2.28-1.81-.19L403,252a29.25,29.25,0,0,1,1.16-4,2.39,2.39,0,0,0-.06-.87c-.28,0-.66,0-.82.12a3.79,3.79,0,0,0-1,1.37c-.49,1.51-.86,3.06-1.23,4.61a6.15,6.15,0,0,0,0,1.29l.94-1s.15,0,.6-.1c-.85,2.69-1.65,5.24-2.45,7.79l.44.15a5.88,5.88,0,0,0,.41-1c.42-2.14.68-2.38,2.28-2-.73,1.8-.73,1.8.09,2.75-1,1.07-1.17,1.75-.71,2.64a3.38,3.38,0,0,0,.7-4.22c1.21.66,1.47-.19,1.72-.88a9,9,0,0,0,.39-1.95c.14-1.22.25-2.43.35-3.65,0-.07-.16-.15-.38-.34a9,9,0,0,1-.44,1.1,2,2,0,0,1-.59.65c-.08.05-.47-.15-.47-.23,0-.34.05-.95.19-1,.91-.21.79-.91.92-1.55a5.16,5.16,0,0,1,.61-1.19l.3.12-.2,1.36,2.06.33-1.75,5.2.53.19c.54-1.05,1.1-2.09,1.61-3.16.31-.62.38-1.44.83-1.9a5.43,5.43,0,0,0,1.57-3.14c.06-.34.52-.85.43-.95-.4-.42.3-1.33-.68-1.42.18-.23.31-.58.54-.67a8.09,8.09,0,0,1,1.55-.25l-1.32-1,1.63-.46a14,14,0,0,0-.91-1.2,4.55,4.55,0,0,0-1-.72c-.05,0-.23.16-.35.25l.52.64-1.31,1.16,1.25.24.28.36-1.74,1-1-1.39a3.37,3.37,0,0,1,3.76-2.89c1.08.08,2.16.23,3.24.37.1,0,.18.14.27.21,0,1.76-2.08-.18-2.29,1.48l2.12.55.49,2,.85-1.14-.59-.75,1.36-.48c-.14-.39-.43-.89-.34-1,.92-.83,1.8-2,2.9-2.3a23.23,23.23,0,0,1,5-.42l-1.51,4.48-6.21,17,1.55-.61c-.13-.38-.38-.73-.3-1,.57-1.78,1.21-3.54,1.83-5.3s1.37-3.62,2-5.47c.47-1.52.78-3.1,1.16-4.66l1-1.39v2.55l1.61-2.45.32.21c-.52,1.5-1,3-1.57,4.51-.76,1.9-1.81,3.72-2.38,5.67a20.06,20.06,0,0,1-1.94,5.35c-.24.39.1,1.26-.18,1.51-.75.63-.6,1.42-.73,2.19a2.84,2.84,0,0,1-.16.57c-.63,1.71-1.28,3.42-1.9,5.14-.17.48-.08,1.21-.4,1.46-1.26,1-1.22,2.3-1.28,3.65a1.35,1.35,0,0,1-.18.46l-.44-.4c-.82,1.24-.81,1.24-.41,2.57a.92.92,0,0,1,0,.57c-.65,1.37-1.37,2.7-1.95,4.09-.5,1.17-.83,2.41-1.26,3.61s-.85,2.12-1.23,3.19-.66,2.14-1,3.19c-.69,1.95-1.43,3.89-2.11,5.84-.43,1.23-.73,2.5-1.18,3.72a26.43,26.43,0,0,0-1.49,3.59c-.19.91-.43.93-.83.76l.32-1.79c-.71.54-1.29.75-1.46,1.13-1,2.2-1.84,4.44-2.72,6.67-.2.5-.31,1-.46,1.54l.44.26c1-1.7,1.71-3.6,3.2-4.9a11.45,11.45,0,0,0,.42,10l14-40.82.42.09c-.46,8.66-.74,17.32-.52,25.94-.24.27-.54.61-.49.89a1.83,1.83,0,0,0,.65,1.05c2.43,1.87,4.89,3.7,7.34,5.55a.86.86,0,0,0,1.41-.16c.47-.62.13-1-.32-1.29a3.46,3.46,0,0,1-1.6-4,8.63,8.63,0,0,0,.07-1.44q.17-15.22.32-30.47c0-.89.09-1.78.13-2.67l.14,0q6.61,30.71,13.24,61.42l.57-.08a41.92,41.92,0,0,0-.4-5.74c-1.07-5.41-2.33-10.78-3.52-16.16-1.31-5.88-2.67-11.76-3.93-17.65-2.14-10-4.18-19.94-6.34-29.9-.55-2.51-.85-4.88.35-7.32a52,52,0,0,0,1.93-5.19c1.27,4.71,2.34,9.38,3.34,14.06,1.15,5.42,2.21,10.87,3.37,16.3s2.39,10.75,3.53,16.13c1.23,5.82,2.38,11.66,3.57,17.49,1,4.73,2,9.45,2.93,14.18s1.93,9.63,2.93,14.44a1.67,1.67,0,0,1-1.73,2.21c-2,.06-4,.16-6,.16-1,0-1.42.3-1.42,1.37,0,5.64,0,11.28,0,16.91,0,1.58,0,3.16,0,4.74h-.22l-.16-1.28-.2,0v6.41h.19v-2.83h.08v17.63h-.21v-13.7h-.28v22.91H437V393h.11v14.88h-.21V398.9c-.17.2-.26.25-.26.31-.08,3.9-.18,7.8-.2,11.7,0,1.64-.51,2.27-2.23,2.45a7.13,7.13,0,0,0-1.25.39l-.32-3.39c-1.1.78.09,2.36-1,3-1.1-.46-1.85-1.66-2.88-1.62l-1.23.45-.63-1.17-1.21.84-.3-.38.94-1.24c-1.52.49-3,2.18-3.89-.31-.33.25-.74.4-.83.66a2.35,2.35,0,0,0-.18,1.52.72.72,0,0,0,1.31.07c.42-.56,1-.53,1.43.17a11.09,11.09,0,0,0,.85,1.07l2.52-1.26.51,2.7c1.21-1,2.19-.67,3.19,0a7.73,7.73,0,0,0,1.61.78,1.19,1.19,0,0,0,1.58-1.29c1.54-.06,3,0,3.84-1.38a1.78,1.78,0,0,1,2.5-.3c.41-.71.38-.67,1-.21,1.07.81,1.54,2.48,3.31,2.15,0,3.13,2.14,1.24,3.32,1.67.14,1.28.94,1.09,1.81.76C450.53,416.89,451,416.8,451.36,416.69ZM252,314.16l.27,1.51.43.15,1.37-1.63h-2.1l.83-1.76-.55-.31-1.27,2.08-.65.2c0-.18-.18-.39-.13-.53.37-.95.72-1.9,1.17-2.8.78-1.56,1.65-3.06,2.42-4.62a4,4,0,0,0,0-1.4l1.06.17V303.6c-.81-.51-1.28-.08-1.54.64a3.29,3.29,0,0,0-.24,1.5,1.48,1.48,0,0,1-.92,1.77c-.41.22-.93,1-.81,1.31.32.81-.23,1.12-.63,1.46-.92.79-1.6,1.64-1.36,2.52L247.07,316l-.33-2.21-2.52,3.76V314.9c-.36.3-.78.48-.79.69-.1,1.66-.08,1.66-1.84,2.19a20.36,20.36,0,0,1,.61-2.56,23.54,23.54,0,0,1,1.32-2.54l-2.36.51,1.65-4.21-.37-.14L239,313.52l-.35-.18.85-2.34-.43-.22a17.17,17.17,0,0,0-1.34,1.83c-1,1.86-2,3.74-3,5.64a1,1,0,0,0-.09.85c.12.19.55.23.83.22,1.29-.05,2.56-.21,3.85-.21,1.64,0,3.42.55,4.48-1.37.08-.14.34-.18.52-.27-.1.34-.4.84-.28,1a1.75,1.75,0,0,0,1.11.52,14.65,14.65,0,0,0,2.73,0,27.48,27.48,0,0,0,3.62-.67,1.21,1.21,0,0,0,.5-1.07,30.82,30.82,0,0,0-1-3Zm21.83-58.25c1-.48,1.32-1.42.41-2.46-.13.83-.25,1.66-.38,2.49l-.47-.09-.74-1.54a1.47,1.47,0,0,0-1.54,1.32,12.59,12.59,0,0,1-1,2.1c-.58-.86-.57-1.49.17-2,.13-.09.18-.33.23-.51.15-.47.28-1,.46-1.58-.85-.53-.5-1.12.47-1.71l1.31,1.19-.15-1.33,2.27.8,2.73-1.07,1.7.8-.81,2-.35-1.25c-.72.54-1.64.86-1.91,1.48-1.12,2.52-2,5.14-3,7.71-.44,1.13-.89,2.25-1.38,3.36s-.9,1.92-1.35,2.89l.54.25,6.07-12.28.38.17L276,261a3.14,3.14,0,0,0-1.65,2.81,1.84,1.84,0,0,0,.61.81c.06,0,.46-.13.55-.28.58-1.12,1.11-2.28,1.69-3.4.5-.95.84-2.22,1.64-2.71a4.81,4.81,0,0,0,2-3.22c.27.09.55.29.79.24.72-.14,1.5,0,1.71.6a2.27,2.27,0,0,1-.46,1.77,11.67,11.67,0,0,0-2,5.69c1.16-.36,1.1-1.36,1.41-2.1v2.88c.3-1.2,1.94-1.92,1.38-3.64l-1.38.76a5.43,5.43,0,0,1-.23-.57c.77-.42,1.54-.86,2.48-.14-.59,2.31-1.17,4.61-1.76,6.91a1.64,1.64,0,0,0,1-.78c.84-1.72,1.63-3.45,2.4-5.2a1.43,1.43,0,0,0,.09-1.08c-.76-1.29-.73-1.56.65-2.46l.37.89.76-.5a9.24,9.24,0,0,0-.69,1.69,10.08,10.08,0,0,0,0,1.82l1.55-.85c.09-.06.17-.14.2-.16l.76,1.88,1.79-1-.21-.41-1,.23a3.43,3.43,0,0,1,1.6-3,2.71,2.71,0,0,0,.81-1.14c.4-.81.74-1.65,1.11-2.48a6,6,0,0,0,.45,3.22h.47l.31-4.07-1.25.9v-3.28l-.38,0c-.3.64-1.35.89-.65,2,.44.73-.45,1.59-1.25,1.37v-1.68l-.14-.4c-1.23,1.9-1.33-.89-2.29-.12.28-2,.72-2.23,2.73-1.63a3.77,3.77,0,0,0,.95,0c1.68.07,3.33-1,5.17,0-.17.34-.36,1.05-.59,1.07a6.45,6.45,0,0,1-1.81-.41,12.51,12.51,0,0,1,0,1.93,1.31,1.31,0,0,0,.93,1.67l1.5,1c-.67.44-.53,1,.07,1.7a11.23,11.23,0,0,1,.7,1.23,1.8,1.8,0,0,0,.69.56c.08.05.43-.18.42-.27a1.76,1.76,0,0,0-.24-1c-.91-1-.93-.95.3-1.38a9.32,9.32,0,0,0,.68,1.08,2.31,2.31,0,0,1-.12,2.85c-1.53,1.14-1.75,2.54-.24,3.68,1.44-1.35,2.38-4.35,1.47-5.25l1.32-.77a3.1,3.1,0,0,1,.58-1.48,8.9,8.9,0,0,0,.83-1.33,19.05,19.05,0,0,0,.52-2.22l.77,1c.45-.92.95-1.72.14-2.58a.83.83,0,0,0-.25.06c-.1.06-.17.2-.27.21-2.28.25-3.42,1.74-4.24,3.7-.18.44-.8.71-1.23,1.06l.81-3.79L300,253,298.87,255c-.27-.86.88-1.68-.41-2l-.24-1.28,1.27.66c-1.07-1.26-1.07-1.26.3-2-1.62-.06-1.21-1.17-1.12-2.14-2.2,0-4.27-.06-6.2,1a25.73,25.73,0,0,1-2.46,1.07,1.07,1.07,0,0,1-1.67-.87c-.22-1-1.08-.6-1.66-.66-.25,0-.67.43-.82.75a2.1,2.1,0,0,1-2.56,1.35l.59-1.95-5.68.53c-1.25.11-2.51.31-3.77.34-1.75,0-3.5-.09-5.25-.07-.71,0-1.48.12-1.34,1.23,0,.21-.4.48-.62.72l-.24-.16.2-1.4c-1.6,0-3.14-.06-4.67,0-3.78.19-7.55.47-11.33.67-1.52.08-3.23-.33-3.34,2.24l-.4-.3.13-1.85-4.07,1-.51-.48-2.57,1.18.41,1.3,3.85-.37-2.13,4.15c-1.12,2.19-2.15,4.42-3.39,6.54-.63,1.1-.94,2.63-2.61,2.84,1.19-2.37,2.45-4.71,3.53-7.13.55-1.23,2-2.05,1.69-3.68a11.26,11.26,0,0,0-1.29,0,5.9,5.9,0,0,0-1,.23l.65.67c-.15.35-.25,1-.46,1a17.43,17.43,0,0,1-2.58.05l.9-1-.66-1.14h-.44l-.93,3c-.14-.79-.22-1.36-.34-1.92a6.13,6.13,0,0,0-.25-.72c-.24.09-.59.11-.7.28a12.45,12.45,0,0,0-.73,1.57l1.3.48c-1,2.16-2,4.35-3.1,6.53-.27.56-.74,1-1,1.62-.11.25.11.64.19,1,.36-.2.9-.31,1.06-.62.78-1.46,1.46-3,2.19-4.46,0-.08.2-.09.52-.22.54,2-1.83,3.18-1.35,5.31.53-.65,1.24-1.11,1.24-1.59,0-1.64,1.05-2.72,1.84-3.94.34-.52.7-1,1.05-1.53l.39.25c-.92,1.91-1.83,3.83-2.77,5.73-.61,1.22-1.3,2.38-1.9,3.6-.12.25,0,.62,0,.94l.39.08,2.59-4.38c.57.39.56.81.25,1.41-.82,1.59-1.57,3.21-2.3,4.83a1.6,1.6,0,0,0,.71,2.37l1.21-1.78-1-.64c.37-.77.7-1.53,1.1-2.25,1-1.7,1.95-3.4,3-5.07a3.62,3.62,0,0,1,.95-.78,18.59,18.59,0,0,0-.46,2.48c0,.25.5.52.75.78.28-.74.31-1.41.64-1.63a3.87,3.87,0,0,0,1.81-3.45c0-.23.31-.46.58-.83.19.41.28.62.37.82l.45,1a3.39,3.39,0,0,0,.75-.82c.28-.66.44-1.36.68-2,.34-1,.8-1.15,1.71-.7l-1.95,4.34v2.56l.31.16c1.44-3.56,3.84-6.57,5.16-10.19l.34.15-.08.88,1.47.17-1.22,3.8c1.56.93,1.74-.74,2.63-1-.39.94-.92,1.76-1.34,2.65a22.38,22.38,0,0,0-.75,2.18c-.38.59-.74,1.21-1.16,1.77a9.75,9.75,0,0,1-1.12,1.11l.26.75a4.65,4.65,0,0,0,2-3.66c.2-.11.47-.18.57-.35.75-1.26,1.49-2.52,2.17-3.82.59-1.14,1.1-2.32,1.65-3.48a4.83,4.83,0,0,1,.24,2.32,12.37,12.37,0,0,1-.69,2.08l.24.11,1.34-.87c-1.37-1.2.46-1.74.45-2.68a.83.83,0,0,1,1.32-.7l1.19-5.22c-.5.55-.08,2-1.62,1-.19-.13-.65.13-1,.22l.06-.29-2.15-.68-2.63,3.61c-.56-1.16,1.12-2.18-.4-3.17l-.45.76a6.77,6.77,0,0,0-1.19-.62,39.72,39.72,0,0,0-2.36,3.26,9.83,9.83,0,0,0-.71,1.7h-.35c-.07-.28-.29-.63-.19-.82a30.29,30.29,0,0,1,1.83-3.17c.72-1.05.73-1.2-.33-1.88l-2.94,5.59c-1.07-1.33.77-2,.6-3.2-.45.34-.78.78-1.19.87-1.48.29-1.79,1.5-2.24,2.62l-.06.11-.89.28c.7-1.28,1.2-2.31,1.82-3.26s1.74-1.77.27-2.89c0,0,0-.15-.06-.23s.16-.45.16-.45c.58.18,1.16.38,1.8.6l.07,1c.22-1.71,2-1.06,2.63-1.86l2.39,1a3,3,0,0,1,.6-.53,8.5,8.5,0,0,1,1.35-.59,1.47,1.47,0,0,1,.69-.05c.85.09,1.7.23,2.55.31a11.29,11.29,0,0,0,1.29,0c.29-.22.74-.63.8-.58,1.25,1.06,2.56,0,3.81.32l.11-.47-2.13-.61,1.7-1c.3.23.9.48.91.75,0,1.14.78,1.31,1.65,1.3-.11,2-.72,2.53-2.31,2-2.06,2.16-2.2,2.44-1.74,3.58,1.07-1.56,1.07-1.56,1.66-.58L261,259.21l1.22.3c-.25.62-.45,1.15-.66,1.67l-.87-.78c-.76.7-1,1.42-.16,2.22,1.09-.83,1.09-.83,1-1.47a7.33,7.33,0,0,0,1.3-1.38c1-1.82,1.87-3.7,2.77-5.56.22-.46.35-1,.55-1.5l2.39-.6,1.64.66L269,255l-1.28-.87-4.37,9,1.24.13-2,5.26.41.17,2.61-4.68.55.75c1-1.71,1.17-3.7,2.48-5.09a6,6,0,0,1-.24,1.68c-.44,1.76-.34,2.73.3,2.4v-.89l.27.14a10.11,10.11,0,0,0,.94-1.34c.3-.6.45-1.29.76-1.9a12.52,12.52,0,0,1,1-1.52l1.72-2.4c-.88,1.19-1.09,2-.56,2.68ZM376.27,270.3c.36-.12.89-.12,1-.36a21.47,21.47,0,0,0,1.4-2.64,1.87,1.87,0,0,0,0-.78c-.74,1.11-1.49,2.22-2.24,3.32a6.72,6.72,0,0,0,.45-1.28,9.59,9.59,0,0,0,0-1.53l-.88.7.1-2.07H376l-2.33,3.53.14.09.78-1,.68.95.6-.63.7,1.17c-.08.18-.15.35-.23.52a8.07,8.07,0,0,0-1.22.94,7.53,7.53,0,0,0-.76,1.33l-1.61-1.13c-1,1-.32,2-.08,3.1l1.69-2,.55.2Zm-81.81.51a4.74,4.74,0,0,0-.93,3.33c1.45-1.5,1.63-2.29.89-3.36l1.41-.7-1.12-.82Zm90.67-4.1c-2-1.13-1.95,1.21-3,1.61l.19.29,1.62-1.17v1.17l.2,0c.33-.65.67-1.3,1-2,1,.07.39.69.31,1a14.54,14.54,0,0,1-.64,1.82l.26.09,1.68-3.44C386.14,265.51,385.63,265.63,385.13,266.71Zm19.26,33a3.94,3.94,0,0,0,.81-.94c.49-1.16.92-2.35,1.33-3.55.25-.71.42-1.44.63-2.17l-.52-.15q-1.11,3.41-2.21,6.83l-.51,1.84C405.15,301.08,405.25,300.44,404.39,299.71Zm-14.88,12.12-1,.27.24.25-.85,1.22c1,1.34,2,1.52,2.53.74l-.52-1.57c-.64,0-.84-.29-.43-.94.35-.11.84-.11,1-.35a1.44,1.44,0,0,0-.18-2c-.5.69.12,2.05-1.53,1.86ZM269.12,297.3c-.09.3-.16.61-.27.91-.3.84-.61,1.66-.91,2.49l.32.11,2-4.08-.4-.23-.72.84c-1.5-1-.17-2.34-.32-3.52l-1.34-.26-.06.18.81.63-1.68,3.42,1.13.69.12-.19-.37-.52ZM224.22,293l.7.77,1.09-.89-.22-.09.38-2.18-.17-.11L224.2,293l.39-3.51-.61-.16c-.44.95-1.28,1.93-1.22,2.84a7.12,7.12,0,0,1-1,3.77s.07.13.27.44c.33-.45.61-.81.85-1.19C223.31,294.46,223.76,293.71,224.22,293Zm44.59,16.76c-.44,0-1.15-.19-1.27,0a29.8,29.8,0,0,0-1.59,3.14c0,.08.13.24.13.37a6.1,6.1,0,0,1-.05,1.21c0,.05-.53,0-.8,0s-.3.2-.45.3a3.29,3.29,0,0,1-.27-1,18.08,18.08,0,0,1,.35-2c.78-.25,2.14-3,1.77-4.17-.64.9-1.2,1.6-1.66,2.36-1.09,1.8-2.14,3.62-3.21,5.43l0,0v-2.3l-1.16.1-.44-1.64-.41-.11c-.61.93-1.22,1.87-1.82,2.81-.81,1.27-1.43,2.74-3.35,2.63a.85.85,0,0,0-.94,1.14c.13.35.85.62,1.33.66a4.45,4.45,0,0,0,2.09-.21c1.15-.46,2.89.9,3.38-1.05.32.18.57.43.84.45,1.2.12,2.4.18,3.62.26l.71-2.16-2.2.73a3,3,0,0,1,.77-1.23c.2-.24.37-.5.56-.75l1.25,1.1a33.67,33.67,0,0,0,1.21-3.29,1.87,1.87,0,0,1,1.34-1.43c.41-.14.81-.3,1.42-.52l-1.21-.92a7,7,0,0,1,.84-.62,1.63,1.63,0,0,0,.86-1.85C268,307.51,267.77,307.91,268.81,309.73Zm25.26-44-.41,2.58c1.11-1.18,1.12-1.67.41-2.61a2.42,2.42,0,0,0,2-2.78c0-.45.49-1,.84-1.39s2.21-.33.61-1.57c-.05,0,.06-.23,0-.34-.08-.31-.19-.62-.28-.92a6.68,6.68,0,0,0-.89.67,2.18,2.18,0,0,0-.23.68c-.56,1.71-1,3.49-2.23,4.9C293.81,265.08,294,265.47,294.07,265.74Zm-11.52,8.57h-.05l.17,1.46c.34-.42.54-.93.87-1,.85-.29,1.83-.36.84-1.59-.06-.07.1-.36.2-.52.51-.87.3-1.44-.69-1.64l.56-1.36-.28-.29c-.43.28-1,.47-1.27.87-.49.79-1.77.9-1.72,2.15a23.71,23.71,0,0,1-.19,2.95C281.71,275.73,282,274.78,282.55,274.31ZM349.1,252a3.64,3.64,0,0,1-.39.92c-.45.52-1,1.38-1.45,1.38a18.58,18.58,0,0,1-3.56-.72c-1.3,1.63-1.37,2-.4,3.24l1.08-1.61.28.1-.38,1.46.28.15,1.13-2.11,1.54,1.25-.19-.29c.39-.26.76-.56,1.16-.8a2.85,2.85,0,0,0,.87-3c1.55-.3,1.82-.87,1.42-3.06l-.51,1.5-.36-.11-.29-1.28Zm26.6,56.36a.79.79,0,0,0-1.36.3c-.28.57-.5,1.17-.76,1.75,0,.08-.18.12-.37.26l.17-.94c-1.13-.25-1.76.47-1.57,1.56s.25,2.08.37,3.2c.44,0,1.33.08,1.54-.24a11.85,11.85,0,0,0,1.13-2.77c.34-1-.39-2.34.84-3.13l.13-2.62A1.59,1.59,0,0,0,375.7,308.39Zm-140,4.58c-.87,1.14-2.59,1.89-1.75,3.77l-2.21,1.46v-2.28l-.47-.12-1.15,2.66c1,.51,1.8,1,2.64,1.31.65.27,1.4-.31,1.1-.85-.53-.95.2-1.06.58-1.47a6.17,6.17,0,0,1,.92-1.83c.43-.6.92-1.16,1.46-1.85l-1.21-.76c2.2-1.1,3-3.12,1.78-4.2-.46.73-.94,1.48-1.4,2.23a8.1,8.1,0,0,0-.73,1.36C235.19,312.51,235.52,312.77,235.68,313Zm101.66-59.65-1.22-1.43a26,26,0,0,0-1.55,2.76c-.28.64-.84,1.47.36,2l-.94,1c-.34-.59-.58-1.05-.87-1.47a2.37,2.37,0,0,0-.53-.46,2.46,2.46,0,0,0-.32.65,1.24,1.24,0,0,0,.15.67c.21.4.38,1,.72,1.12a2,2,0,0,0,1.44-.06c.74-.34,1-1.23,2.06-1.42,1.31-.22,2.67-3.9,2.38-5.65-.32.5-.54.9-.82,1.26s-.6.63-.9,1ZM230.47,280.41l.62,1,.48-.72c1-.19,2.09-.08,2.51-.54a19.05,19.05,0,0,0,2-3.34l-.6-.45c-.4.53-.84,1-1.19,1.59-.75,1.18-.74,1.19-1.56,1l1.76-2.2-2,.22.14-1.29-1.6.59c.4,1.06.59,1.15,1.5.66a1.94,1.94,0,0,1-2.37.95l-1.47,1.06-.75,3,1.6-.46-.13-1,.77-.09ZM302.4,274c-.18.35-.57.73-.51,1,.22,1.15-.07,1.91-1.26,2.26a1.13,1.13,0,0,0-.57.64c-.21.6-.34,1.22-.53,1.95,1.83.74,1,2.22.83,3.58,1.16-2,2.13-4.1,3.17-6.13a11.12,11.12,0,0,1,1.13-1.5c-1.45-.46.37-1.32.1-2.14l-2.39.28c1.19-1.4,1.26-1.6.53-2.46ZM373,254.88a2.9,2.9,0,0,0,0,.83,7.46,7.46,0,0,0,.47,1.09c.23-.3.47-.6.69-.91s.33-.51.5-.77l.23.12-.12,1a5.33,5.33,0,0,0,1.64-4.57,6.75,6.75,0,0,0,1-1.41c.09-.25-.34-.95-.38-.94a12.29,12.29,0,0,0-1.63.65l.34-1.23c-.44-.83-.6-1.66-1.08-1.92a4.13,4.13,0,0,0-2.25-.24c-.64.06-1.44-.39-2.1.43,1.32,0,2.46,0,3.6,0a1.27,1.27,0,0,1,.72.48c-.52,1.26.77,2.8-.58,3.92a4.26,4.26,0,0,0,0-1.13c-.18-.67-.46-1.32-.76-2.16l-.81-.46-2.28,1.49c-.74-.47-1.79-1.71-3,0,0,0-.15.05-.22.05-1.18-.07-1.42.9-1.28,1.6.31,1.59-.51,2.63-1.33,3.75a13.36,13.36,0,0,0-.77,1.32l.25.15,2.11-2.29c-.51,1.46-1,2.93-1.52,4.39.51,0,.91-.14,1-.4.46-1,.83-2,1.23-3.07.3-.78-.15-.91-.77-.89l1.36-1.37.47,3.8h.45a18.13,18.13,0,0,0,.34-1.93c.09-1.06.36-1.47.87-1.46V255h.25l.68-1.22.89.94a3.58,3.58,0,0,0-.16,3.16C371.75,256.77,371.85,255.48,373,254.88ZM417.28,253l.44-4.15,2.37-.49c-1-1.55.85-2.41,1.07-3.88,2.38.53,2.4-1.3,2.77-2.88l-2.93.31-.49,1.84-1.55.46.09.33,1.64.16c-1,1.27-1.49,1.25-2.17.2l-4.3,4.22-.08,0c-1.12,2.8-2.2,5.53-3.32,8.33,1.33,0,1.33-.22,1.51-2,.15-1.51.68-2.34,1.94-2.71l-.47-.38,1.59-1.87.19.05-1.53,5.42.41.13,1.12-3,.89.75.85-.9-.62,2.31.29.13c.51-.9,1-1.81,1.68-3,.13-.86.32-2.09.51-3.32l-.38-.1ZM232,306.79c-.83,0-1.38.09-1.39,1.2a4.63,4.63,0,0,1-.8,2.44,20.71,20.71,0,0,1-2.44,2.52,13.89,13.89,0,0,1,.76-2.34,5.44,5.44,0,0,0,.11-1.35l-.45-.06a8.22,8.22,0,0,0-1.86,3.87,3.3,3.3,0,0,1-1.46,2.21c-.29.22-.35.86-.36,1.32,0,.31.25.63.41,1l-1,.31a3.11,3.11,0,0,1,1.67-4.24l-1.31-.73c-.67.92-1.29,1.73-1.87,2.56-1.06,1.53-1.34,1.55-2.52.15-1.41.89.55,1.14.33,1.79a1.77,1.77,0,0,1-2.38-1.05c0-.13-.27-.19-.36-.32-.85-1.11-2.07-.48-3.16-.86l.61,2.3-.78.74c-.28-.92-.64-.39-1,0a3.06,3.06,0,0,0-.7-3.46c.44,1.37-.26,1.28-1.15,1.21a4.45,4.45,0,0,0-1.51.44l.52,1.13,1.3-1.06.37.28-1.88,3.47a5.63,5.63,0,0,0,1,.31c1.08.11,2.14-.95,3.24,0,0,0,.29-.12.39-.24.47-.54.95-.42,1.59-.24a5.94,5.94,0,0,0,2.86.33,2.69,2.69,0,0,1,2.1,0c.14.08.38,0,.58,0a37.19,37.19,0,0,1,3.93-.33c2,0,2.92-.88,2.68-2.85a5.33,5.33,0,0,1,.24-1.39c.8.7,1.65.27,2.14-.66.74-1.39.88-3,1.9-4.3a26.75,26.75,0,0,0,2.16-3.52,1.5,1.5,0,0,0,.08-.87.8.8,0,0,0-.62-.09,2,2,0,0,0-.35.79,2.53,2.53,0,0,0-.06.56l-.39-.25c-1.29,1.23-1.39,3.36-3.08,4.71.73-1.54,1.35-2.76,1.88-4a4.14,4.14,0,0,0,.05-1.37c.34-.25.82-.42,1-.74.89-1.73,1.7-3.5,2.54-5.26a.58.58,0,0,0-.53.23c-.81,1.21-1.55,2.48-2.43,3.63A2.18,2.18,0,0,0,232,306.79ZM317.59,252h0l-1.83,1.22-.2-.87-.8.58-2.39-1.81a3.71,3.71,0,0,0,0,.78,6.74,6.74,0,0,0,.3.86l-.61-.05-2.37,1,.57-2.22a3.13,3.13,0,0,1-3.51,1.57c.07.75.15,1.43.2,2.11.07.93,1.12,2.1-.65,2.59-.12,0-.12.54-.17.82a2.42,2.42,0,0,0,.87.09c.2-.06.34-.36.51-.56l.66.7.37-1.11-.87-.2c.92-.9,1.7-1.71,2.54-2.45a.72.72,0,0,1,.71.06,1,1,0,0,1,.12.85c-.6,1-1.28,1.89-1.93,2.82l1,.58,1.13-.85-.28,2,0,0a5.33,5.33,0,0,0-1,1,2.93,2.93,0,0,0-.56,1.67.89.89,0,0,1-.73,1.22,8.57,8.57,0,0,1-1.36.19c.45,1.25.33,1.85-1.11,2.38,1.2.57,2.13,0,3.21-.81-.25.74-.39,1.11-.49,1.49a7.06,7.06,0,0,0-.25,1.28c-.1,1.33-.6,1.86-1.93,2-.88-.58-1.44-.18-1.82.62a6.22,6.22,0,0,0-.43,1.28s.42.26.47.21a10.57,10.57,0,0,0,1-1.05c.29-.36.56-.73.83-1.1l.7,1.94-.31.12-.47-.72-.86,2.68,1.16,2,2.26-4.83-1-.09a9.68,9.68,0,0,1,.94-1.4c.41-.42,1.12-.62,1.37-1.09.53-1,.82-2.07,2.15-2.26a1.73,1.73,0,0,0,0-.24l-1.65-.57c.66-.84,1.3-1.56,1-2.66-.07-.25.4-.64.6-1a5.85,5.85,0,0,0,1-1.72c.24-1.2.45-1.45,1.65-1.21.47-1.08.65-2.64,1.48-3.16a3.6,3.6,0,0,0,1.74-3.68,2.9,2.9,0,0,1,.14-.66c1.49.9,1.4,2.15.71,3.55l.55.12,1.79-2.9,1,2.31-.26.31,1.71.08,0-.26-.63-.41c.8-1.36,1.56-2.64,2.26-3.84l-1.23-.45c.17-.37.28-1,.54-1.09a17.8,17.8,0,0,1,3.17-.45c.74,0,.85.41.53,1s-.7,1.43-1.06,2.14c0,.08-.17.11-.28.18l-.16-1.27-1.95,3.1-.4-.07,1.51,2-.51,1.32.38.18,1.14-2.28c-.92-.7-.8-.8-.19-1.52.92-1.09,2.3-1.92,2.27-3.64,0-.38.3-1,.59-1.09a4.79,4.79,0,0,1,1.73.19,1.28,1.28,0,0,1,2.19.24l-.51-1.59c-1.76,1.52-3.11.4-4.67-.32l1-1.34-3.81.21.76,1.25c-.1.14-.17.32-.3.38-.79.36-1.59.7-2.39,1l-.06-1.84a1,1,0,0,0-.09-.28H317l0,.28.84.53-1.78.56,1,1.81-.07,0Zm106.35,93.71,1.32-.51c-.25-.39-.41-.92-.77-1.15-1.43-.93-2.93-1.77-4.41-2.64l-3.34-2-.41.22c1.62.44,1.35,1.48,1.14,2.47a16.88,16.88,0,0,0-.62,3.07c-.15,11.92-.23,23.83-.34,35.74a2.69,2.69,0,0,1-.07,1.07c-.9,2-.25,2.7,1.48,3.77a66.32,66.32,0,0,0,5.95,3c1.23.59,1.6.44,2.24-.87a20.35,20.35,0,0,1-1.71-1.64,2.34,2.34,0,0,1-.59-1.31q0-5.2,0-10.43.18-13.72.38-27.46a7.39,7.39,0,0,0-.24-1.38ZM293.09,408.58c2,0,3.81,0,5.6,0,4.71-.09,9.42-.25,14.13-.31,1.67,0,3.34.21,5,.31.88.06,1.23-.26,1.25-1.25.11-8,.31-16.07.45-24.1q.39-22.31.72-44.61c0-.83,0-1.65,0-2.58-.83,0-1.43,0-2,0-.87,0-1.17.32-1.13,1.22a29.28,29.28,0,0,1-.15,3.24,7.08,7.08,0,0,1-.23-2.41c.05-.73-.27-1-1-1s-1.68,0-2.52,0l-21.63.95c-.14,0-.38-.05-.43-.15-.76-1.57-2.06-.6-3.18-.85-.05.46-.12.77-.13,1.09-.12,3.95-.25,7.91-.34,11.86-.25,10.87-.47,21.75-.72,32.62q-.21,9-.45,18.1c-.07,2.44-.12,4.88-.2,7.31,0,1,.37,1.28,1.3,1.2,1.24-.11,2.34-.34,2.49-2.11l.55,1.18c.43-.61.73-1.47,1.27-1.66s1.28.32,1.93.53Zm57.65-54.12c0-.41-.08-.68-.08-.95,0-5.44,0-10.88,0-16.31,0-.84.35-1,1.08-1,4-.12,8-.29,12-.44.77,0,1.55,0,2.32,0v-.33c-.42,0-.84,0-1.26,0-3.31.11-6.62.22-9.93.35-1,0-2,.18-3,.24-.63,0-1.65.28-1.84,0-.81-1.23-1.84-.49-3-.67-.3,13.86-.59,27.59-.88,41.3a2.3,2.3,0,0,0-1.73,2.63h1.18c7.95-.22,15.9-.46,23.85-.65a6.67,6.67,0,0,1,1.73.51c.16-.84.34-1.86.54-2.9l-1.05-.29c.18-13.83.37-27.57.55-41.31-3.06-.16-2.63-.3-3,2.09a9.86,9.86,0,0,0-.1,1.44q-.17,7.43-.31,14.85c0,.72-.28,1-1,1-1.44,0-2.88,0-4.31.08C358.63,354.18,354.75,354.32,350.74,354.46ZM258.85,378.2v-.29a5.63,5.63,0,0,1,1.29-.08c1.09.14,1.4-.39,1.39-1.38,0-1.31,0-2.63.06-3.95.19-6.91.39-13.82.56-20.73q.17-6.48.23-12.95a1.22,1.22,0,0,0-.55-1c-1.44-.45-2.12.06-2.17,1.57-.17,5.35-.35,10.7-.5,16,0,.83-.2,1.19-1.14,1.2-4.36,0-8.71.16-13.07.24-2.3,0-2.31,0-2.28-2.31.05-4.72.12-9.43.15-14.15a2,2,0,0,0-.3-1.33,3.08,3.08,0,0,0-3.33-.65c-.36,13.25-.73,26.53-1.09,40l3.27-.28v.38a22.94,22.94,0,0,1-3.1,0c-.92-.11-1.26.46-1.5,1.05a3.39,3.39,0,0,0-.23,1.85c0,.24.88.31,1.35.46l0-.15-1.21-.47a1.86,1.86,0,0,1,1.18-.37c7.47-.16,15-.33,22.42-.44a5.3,5.3,0,0,1,1.59.62l.62-2.91Zm143.17-59c-.09.12-.14.15-.14.18q-.3,15.65-.58,31.28c-.12,6.63-.17,13.26-.25,19.89q-.19,15.64-.41,31.29c-.05,3.35-.18,6.7-.26,10.05,0,.76,0,1.5,1.21,1.67,0-1.28,0-2.47,0-3.66a20.17,20.17,0,0,1-.07-3.21c.18-1.57,0-3.19,0-4.78.23-7.52.15-15,.31-22.56.12-5.79.13-11.59.21-17.38,0-2.39.11-4.79.2-7.18,0-.63-.65-1.56.41-1.61a13.25,13.25,0,0,1-.47-2.17c-.06-1.22.05-2.46.06-3.69.07-6.91.15-13.83.19-20.74a12.83,12.83,0,0,0-.38-2.15C402.62,323.85,402.68,320,402,319.16Zm-33.41-4.47c.17-.31.34-1,.58-1,1-.12.92-.9,1.1-1.49.65-2.19,1.22-4.41,1.88-6.6,1-3.41,2.07-6.79,3.1-10.19a3.46,3.46,0,0,0,0-.91c-.81,1.17-1.77,2.35-1.79,3.55a5.52,5.52,0,0,1-1.58,4c-.73.79-.78,2.2-1.19,3.31s-.86,2.06-1.3,3.09l-.25-.07c.1-1,.21-2.05.31-3.07a3.36,3.36,0,0,0-1.07,1.33c-1.1,2.24-1.6,4.73-2.94,6.87a1.26,1.26,0,0,0-.08,1.11,1.78,1.78,0,0,0,1.19.31A18.86,18.86,0,0,0,368.61,314.69Zm-11.42,0a6.58,6.58,0,0,0,1.85.67c1.46,0,2.92-.14,4.37-.28a1,1,0,0,0,.61-.57c.47-1.31.92-2.63,1.3-4a5.31,5.31,0,0,0-.11-1.49l-2.37,2.69a4,4,0,0,0-1.38-.77c-.31,0-.78.45-1,.81a26.76,26.76,0,0,0-1.21,2.39,2.11,2.11,0,0,1,.09-1.18c.32-1.16.14-2.45,1.21-3.43.42-.39.34-1.33.48-2l-.39-.1-4,6.85-.85-.7-.38.08c0,.33-.14.76,0,1A1,1,0,0,0,357.19,314.71Zm-68.93-16.48.39.29c.56-.5,1.31-.89,1.65-1.52a47.93,47.93,0,0,0,2.43-5.12c.65-1.6,1-3.29,1.68-4.89s1.58-3.41,2.35-5.12,1.6-3.34,2.23-5.08a6.16,6.16,0,0,1,2.16-3.1c.25-.18.49-.86.37-1-.63-.71-.07-1.27.13-1.87a11.91,11.91,0,0,1,.49-1.1l-.32-.2a4.13,4.13,0,0,0-.67.8c-.7,1.51-1.35,3-2,4.55a7.91,7.91,0,0,1-1.17,2.54c-1.31,1.26-1.47,3-2.16,4.46-.44,1-1,1.88-1.47,2.81-.18.4-.07,1-.25,1.45a25.41,25.41,0,0,1-2.55,5.34,11.69,11.69,0,0,0-.85,2,12.14,12.14,0,0,1-.53,1.16C289.53,295.83,288.89,297,288.26,298.23Zm11.36-50.13.66,1.65a4.1,4.1,0,0,0,4.1.73l1.27-1.87c-.3,1.43-.08,1.75,1.25,1.66l2.57-.17a9,9,0,0,1,.08-1.14c.18-.77,0-1.26-.89-1.22Zm46.67-2.35a2.88,2.88,0,0,0-.75-.14c-2.4.13-4.8.3-7.21.42-.9,0-1,.61-1,1.31s-.15,1.19-1.06,1.07a5.9,5.9,0,0,0-1.54.22l0,.16h3.78l-.83-1.22.22-.23a4.17,4.17,0,0,1,1,.65,3.67,3.67,0,0,0,4.15.32,2.61,2.61,0,0,1,1.3-.66C345.57,247.54,345.89,246.76,346.29,245.75Zm6.22,4.18-.29-.22c-.88,2.75-.24,5.92-2.08,8.4-.08.1,0,.35.07.53l.38.16,1-1.87.67.3c.31-.88-.32-2.25,1.54-2.09-.71-1.58-1-3,.56-4.26l.89,1.67c.29-.34.69-.63.81-1a1.2,1.2,0,0,0-.26-1,11.92,11.92,0,0,0-1.7-1.09Zm-64.44,50-.45-.2a33,33,0,0,0-1.82,3.8c-.46,1.34-.85,2.61-2.25,3a7.18,7.18,0,0,1-.17,1.68c-1,2.66-2,5.32-3.12,7.91-.23.52-1.08.76-1.64,1.12-.17.11-.35.2-.59.34,1.94.82,1.76.94,2.57-.61.57-1.11,1-2.27,1.57-3.41a15.86,15.86,0,0,1,1.69-3.4c.81-1,.55-2.24,1.31-3.25a15.93,15.93,0,0,0,1.68-3.78C287.28,302.11,287.66,301,288.07,300Zm-48.41,4,.42.21c.63-1.1,1.25-2.19,1.9-3.27a4.19,4.19,0,0,1,.61-.66,11.06,11.06,0,0,0,1.56-1.66,28.08,28.08,0,0,0,1.35-2.82c.94-2,1.92-3.93,2.84-5.92a7.51,7.51,0,0,0,.37-1.45l-.31-.1c-.17.2-.5.43-.47.6.23,1.35-1.33,1.63-1.58,2.85-.33,1.54-1.39,2.93-2.11,4.39-.22.46-.26,1.26-.58,1.38-1.53.6-1.67,2.12-2.36,3.26S240.2,302.93,239.66,304Zm38.79,3.36-.28-.19a6.32,6.32,0,0,0-.81,1.48,3.06,3.06,0,0,1-2,2.19c-.39.16-.91.54-1,.91-.34,1.64-2,2.59-2.18,4.37,0,.46-1.35.78-2.08,1.16-.41.47-.27.84.58.73a4.32,4.32,0,0,1,1.19.05,1.87,1.87,0,0,0,2.24-1.41,1.67,1.67,0,0,0-1-2.48c1.82-.33,1.17-2.62,3-2.84l-.23,1.2a2.78,2.78,0,0,0,2.27-2.56l-.36-.34-.19,1.07-.45-.35Zm-31.89-5.26,2.05-4.86-.34-.17c-.64,1.05-1.33,2.07-1.92,3.15-1.26,2.32-2.47,4.67-3.66,7-.13.25,0,.63,0,.95.31-.09.77-.07.88-.27.51-.91.9-1.89,1.4-2.81.14-.26.49-.42.74-.62a8.07,8.07,0,0,1,.55.88,5.23,5.23,0,0,1,.24.84c.42-.66.7-1.12,1-1.58C248.54,303.14,248.47,302.89,246.56,302.1ZM254.84,277l-.46-.23a6.26,6.26,0,0,1-3.32,3.83l1.7-3.46-.33-.16-3.76,7H250a10.51,10.51,0,0,0-.84,1.81,7.56,7.56,0,0,0-.11,1.66l.29,0Zm45.24-11-.34-.17-1.21,1.46c-.31-.68-.74-1.18-.68-1.59a6.77,6.77,0,0,1,.9-2.87c.65-.93.36-1.67.1-2.82L296,265.94c0,.54-.06,1.05-.1,1.55s-.1,1-.15,1.46l.46.09a13,13,0,0,1,.91-1.48c.19-.23.57-.31.87-.46a3.41,3.41,0,0,1,.07.89c-.11.62-.29,1.23-.44,1.84l.54.19ZM410.71,255.6c.84-2.29,1.69-4.64,2.48-6.78l-.59-2.1-.31,0c-.05.51-.09,1-.16,1.53a4.74,4.74,0,0,1-.27,1.48c-.24.47-.74.8-1,1.25s-.36,1.09-.73,1.34c-1.28.86-.71,1.61,0,2.3l-.84,1.34Zm-16.88,57.89,1.16-3.83a4,4,0,0,1-1.83.7l-1.3,2-.6-.65a8.64,8.64,0,0,1-.5.79c-.66.83.19,1.25.55,1.67a1.39,1.39,0,0,0,1.29.4,2.06,2.06,0,0,1,1.91-.19,2.48,2.48,0,0,0,1-.07V314ZM390,266.43l.25.11c-.3,1.07-.59,2.14-.89,3.21l.56.19c.26-.52.53-1,.78-1.55a14.59,14.59,0,0,1,.94-1.85c.78-1.14.83-2.06,0-2.93-.65,1.44-1.66,1.68-3.41.78,1.56,1.12-.18,2.56.57,3.93Zm10.42-18.09-.35-.15c-.36.72-.74,1.44-1.08,2.17s-.72,1.64-1.09,2.5l.65.94c-1.39,1-1.73,1.7-1.31,2.65.53-.66,1.08-1.33,1.59-2a6.84,6.84,0,0,0,.94-1.54c.39-1.06.65-2.16,1-3.24l.29.07ZM386,305.51a9.9,9.9,0,0,1-.28,1.74c-.62,1.71-1.32,3.38-2,5.07a7,7,0,0,0-.38,1.26c-.19,1,.28,1.45,1.27,1.23a14.59,14.59,0,0,0,1.58-.52l0-.13-1.79.19c.06-.26.09-.44.14-.62a19.89,19.89,0,0,1,1.05-3.57c.47-.94.09-2.1,1-2.94C387.09,306.86,387.1,305.86,386,305.51ZM284.66,269.34c.31-.68.51-1.14.73-1.6.64-1.39,1.31-2.77,1.9-4.18a1.87,1.87,0,0,0,0-1.17c0-.13-.67-.27-.72-.19a4.24,4.24,0,0,0-.48,1.11c-.06.17,0,.42-.07.55-.92,1.39-1.87,2.76-2.85,4.19Zm-62.2,41.6.37,0,1.24-2.8c-.69-.27-1.19-.53-1.71-.67s-1.15-.27-1.38.62-.69,1.65-.94,2.5a3.69,3.69,0,0,0,.07,1.27c.39-.21.9-.33,1.14-.65a7,7,0,0,0,.65-1.64Zm54.45-38.57c-.39.64-.73,1.27-1.14,1.85s-1,1.11-.58,2.13l.91-1.36c0,.59-.44,1.33.57,1.19l1.06-2.31.27.11.08,1.17c1,0,1.85-.17,2.15-1.31l-1-.22.7-1.12-.25-.34-1.75,1Zm-4.75,40.45.49.07a38.25,38.25,0,0,1,1.73-3.59,13.72,13.72,0,0,1,2-2.25,3.25,3.25,0,0,1,.56.36c.14-1-.39-1.21-1.06-1.38s-1.06-.12-1.36.54c-.78,1.71-1.64,3.38-2.4,5.1C272,312,272.14,312.43,272.16,312.82Zm100.62-68.41-.08-.29c-2.2.47-4.52-.39-6.69.42v.37l.92.19-.22.9.48.42a5.29,5.29,0,0,1,.6-1.13,2.17,2.17,0,0,1,.78-.39c1.21,1.66-1.12,1.53-1.16,2.61l2.06-.38.23-2.22,2.14,1,0-.44Zm-24.09,22.11c-.62,1.36-1.11,2.38-1.55,3.42-.33.77-.32,1.76-1.44,2-.13,0-.25.36-.3.57-.2.87-.33,1.76-.57,2.62a21.19,21.19,0,0,1-.73,2l.53.21c1.47-3.24,2.94-6.47,4.38-9.72C349.09,267.44,348.88,267.15,348.69,266.52Zm11.62-18.4c-.46.94-.94,1.47-2,1.34-.7-.07-.88.42-.84,1.12a3.59,3.59,0,0,1-.38,1.52,2.51,2.51,0,0,0-.26,2.27l2.55-4.3,1.54,1.15c.25-.85.46-1.57.72-2.42l-1.19.26Zm-45.56.3c-.7-.08-1.31-.11-1.91-.23a7.53,7.53,0,0,1-.88-.38c-.31-.1-.87-.28-.93-.19a6.06,6.06,0,0,0-.76,1.8c0,.19.47.7.75.72,1.14.08,2.28,0,3.39,0ZM209.08,320.79l-.2-3.71-1.73,2.61-.12-2.24-.48-.11-1.73,3Zm52.56-49.47c-1.31.37-2.35,2.73-1.85,3.75.38.79.75,1.58,1.17,2.47l1.45-2.81-.51.07c-.28-.48-.75-.95-.78-1.45A7.05,7.05,0,0,1,261.64,271.32ZM264,285.74l-.47-.29-5.79,11.45.39.3c.3-.34.78-.63.86-1,.49-2.26,1.85-4.1,2.85-6.11C262.57,288.64,263.3,287.19,264,285.74Zm-7.34-14.51.61.19c.42-1,.86-2.08,1.26-3.13.2-.55.17-1.27.52-1.64a2.72,2.72,0,0,0,.3-3.82c-.58,1.07.36,2.81-1.65,3a2.2,2.2,0,0,1-.17,2.93A7.48,7.48,0,0,0,256.68,271.23Zm108.26,31.65c-1.05,2.47-2.07,4.85-3.07,7.19.81,0,1.14-.23,1.38-1.08a2.7,2.7,0,0,1,.36-1.08,4.54,4.54,0,0,0,1.44-3.59c0-.34.26-.7.4-1.06,0-.1.05-.21.1-.38Zm-73-25.47c-1.45.28-3.06,4.08-2.45,5.79C290.48,282.43,292.22,278.33,291.92,277.41Zm-26.16-6.13.37.13,3.37-6.62-.27-.18-.83.61c-.16-.8-.46-1.34-1.46-1,.72.68,1.09,1.28.68,2.22C266.94,268,266.38,269.66,265.76,271.28Zm113.49,43.84c.46-1.72.88-3.16,1.19-4.63.08-.34-.19-.75-.3-1.13l-.34.1-1.72,4.9ZM332,306a54.36,54.36,0,0,0,2.73-7C333.29,299.73,331.55,304.51,332,306Zm27-51.33c-1.14.77-1.15,1.4-.06,2.11.26.17.43.48.69.66a4.65,4.65,0,0,0,.85.37,5.2,5.2,0,0,0-.18-.89c-.06-.16-.26-.27-.69-.67h1.58l.91-2C360.35,255.5,359.72,255.54,359,254.71Zm48.7,11.86.49.16c.6-2.52,2.51-4.62,2.49-7.34l-.62-.2C409.27,261.65,408.49,264.11,407.7,266.57Zm29.47,99.11h.17V347.27h-.17ZM215.29,309.61c-.19-.11-.38-.24-.58-.34s-.75-.46-.86-.37A3.86,3.86,0,0,0,213,310a.4.4,0,0,0,.15.38c.16.06.48.06.52,0,.39-.86.88-.54,1.44-.21a.81.81,0,0,0,.76,0,16.43,16.43,0,0,0,1.66-2.15c.17-.29,0-.77,0-1.17l-.4-.07Zm112.46,7.06,2.9-7.09-.46-.21c-.57,1.18-1.16,2.34-1.72,3.52s-1,2.16-1.55,3.36Zm44.91-59.36-1,2.46,1.73,1.22c-.37-1.47.88-2.35,1.26-3.61,0-.09-.12-.24-.25-.45l-.72,1Zm-8.84-5.48a13.07,13.07,0,0,0,1.07-1.55c.56-1.1.28-1.51-.95-1.64-.31,0-.59-.34-.91-.47a2,2,0,0,0-.6,0,1.33,1.33,0,0,0,0,.53C362.86,249.66,363.29,250.63,363.82,251.83Zm-13.15,63.81.28-.37-1.2-.72,1.08-2.73.37.16-.35,1.36c1.43-1.17,0-2.46.53-3.62l-.32-.05-2.44,5.6Zm16.27-52.81c.82,1,1.34.92,1.94-.15a6.64,6.64,0,0,1,1.31-2.08c1-.82.46-1.18-.3-1.81a24.37,24.37,0,0,0-1.17,2.54C368.44,262.16,368.13,262.85,366.94,262.83ZM298.5,288.67l-1.19.69c.65.54.16,1.11.09,1.69,0,.16.27.35.52.66.38-1.06.45-2.25,2-1.65l-.36-2.6-.37-.07Zm76.82,1v2c1.47-1.21,1.77-2.87,2.5-4.36l-.46-.62Zm21.88-15.54.42.15c1-1.58,2.63-2.92,1.55-5.3Zm-132.37,33c-2.14,1.08-1.95,3.37-3.18,5l1.49-.18-.43-.47C263.26,310,265,309.16,264.83,307.17ZM222.66,276.1c-1.48.84-4,5.87-3.49,6.81Zm174.55-18.46a7.42,7.42,0,0,0-2.23,5.07C396.46,261.34,396.63,259.4,397.21,257.64Zm-151.75,18c-1.56,1.11-3,5.23-2.47,6.47Zm161.48,16.66.45.15c.94-2.67,1.88-5.35,2.83-8l-.47-.17Q408.34,288.25,406.94,292.27Zm-7.64-16.92.45.19c.58-2.12,2.08-3.89,2.37-6.12l-.43-.16Q400.51,272.31,399.3,275.35ZM241.15,293.27l-.38-.14c-.89.94-1.4.91-1.9-.28l-1.21,2.22c2.05-.53,2.05-.53,2.55.52Zm-13.81,3.33c1.23-.28,2.93-3.5,2.56-4.88Zm-25.21,18.1-.33-.17-3.05,5,.28.31c.38-.29.89-.5,1.1-.88.71-1.25,1.3-2.57,1.93-3.86A1.55,1.55,0,0,0,202.13,314.7Zm55-38.2a3.76,3.76,0,0,0,2.09-3.92c-.42.66-.67,1.53-1.14,1.67C256.6,274.69,257.62,275.83,257.14,276.5Zm-21.52,19.82,1.75-4.31A3.44,3.44,0,0,0,235.62,296.32Zm54.07,20.2c-.85.82-1.63.74-2.25,0l-1.63,1.08c1.05.22,2.07.11,3.06.25C290.06,318.05,289.87,317.46,289.69,316.52Zm96.36-26.19c-1.68,1.14-2.11,2.81-2.24,4.6l.35.14Zm-87.68,4.46c1-1.1,2.08-2.15,1.79-3.78l-1.24.58Zm-23.51-17.38H276l0-.26-1.72-.35-1.46,3.6,2-1.52ZM288.56,313l.48.23,1.69-3.57-.42-.21A4.54,4.54,0,0,0,288.56,313Zm-20-24.09.51.18,1.66-3.62-.81-.53C269.4,286.32,269,287.59,268.52,288.87Zm-20.72,7,1.31-3.86-.2-.08-2.46,3.81ZM235,281.89l.48.26,2.21-4.49-.39-.19C236,278.66,235.77,280.4,235,281.89Zm-18,33a5.56,5.56,0,0,0,.78-1.6,5,5,0,0,0-.58-1.68C215.83,313.88,215.85,314.66,217,314.89Zm162-7.38c-1.1-.7-1.41.78-1.75,1.25-.46.66-.32,1.74-.44,2.64h.26ZM218.81,296.15c-1.35,1.18-2.1,2.82-1.65,3.67C217.74,298.61,219.5,298.05,218.81,296.15Zm-3.5,4c1.46-1.18.55-2.92,1.23-4.29C214.58,297,216,298.81,215.31,300.19ZM308.4,316.8a9.66,9.66,0,0,1,1.4-.25,1.27,1.27,0,0,0,1.09-1.73.72.72,0,0,0-.52-.39,1,1,0,0,0-.65.36C309.21,315.52,308.74,316.29,308.4,316.8Zm-80.68-29.67-.5-.18-1.37,3.29c.73,0,1.32.24,1.65,0s.41-.83.6-1.28l-.23-.05-.76.81-.24-.17Zm186,119.53c.53-1.53,0-2.7-.85-4.07A4.29,4.29,0,0,0,413.69,406.66ZM382.86,270.22c-.24.95-.46,1.79-.68,2.64l.35.11,1.5-3.7c-1-.31-1.51.32-2.1,1.25ZM281,317.51l0,.24h2.67l-.39-1.55-2.15.52.54.51Zm-53.35-25.25-.29-.2-2.12,4.28C226.29,296.3,227.62,293.73,227.69,292.26Zm128.45-35.73-.48-.24c-.55.66-1.69.78-1.72,1.75l1.48.85ZM242.42,285.78c.55-.34.82-.64,1.06-.62,1.19.08,1-1.05,1.44-1.6.05-.05-.1-.39-.22-.44a.68.68,0,0,0-.52.11c-.39.24-.75.52-1.18.82Zm45-.23c-.59,1-1,1.56-1.29,2.17a1.37,1.37,0,0,0-.12.78c0,.09.44.24.48.2a7.71,7.71,0,0,0,1.22-1.66C287.89,286.72,287.61,286.2,287.46,285.55Zm-31.69-22.1-2.41,3.09c.51,0,.88.07,1.07-.07C255.63,265.58,256.26,264.2,255.77,263.45Zm80.68,49-.47-.22c-.43,1.27-1.78,2.16-1.48,3.72l.43.19Zm71.69-39.28a7,7,0,0,0-2.21.82c-.47.42-.58,1.23-.87,1.92,1.48.29.66-2.5,2.41-1.31Zm-165.27,16.1,2.33-.25-1.28-2.14Zm95.42,1.88,2.31-4.19C339.23,287.57,337.9,290.15,338.29,291.13ZM254,275.92l.3.42c.47-.18,1.19-.23,1.36-.56a6.26,6.26,0,0,0,.36-2l-.28-.16Zm103.34,33.82-.44-.09c-1.21.78-1.2,1.8.24,2.69C357.18,311.39,357.25,310.57,357.31,309.74Zm47.14-48.21.35.16c.57-.74,1.18-1.46,1.7-2.23.11-.17-.09-.56-.15-.84-.24.08-.62.09-.7.26C405.21,259.74,404.84,260.64,404.45,261.53ZM413.17,415c.84-.7,1.75-1.44,2.62-2.23.14-.12.08-.46.11-.7-.21,0-.51-.08-.62,0a25.69,25.69,0,0,0-1.91,2.13A1.62,1.62,0,0,0,413.17,415ZM374.1,331.16c-.18-1.08-.32-2-.52-3.29C372.66,330.18,372.76,331,374.1,331.16Zm-129.4-50.1.51.23,2-4.23-.48-.22Zm71.49,35.45c-.05-.12,0,0,0,0,.48.1,1.29.4,1.38.25a8.61,8.61,0,0,0,.7-2l-.44-.19ZM373,308.24l.56.18c.4-1.25.8-2.5,1.21-3.76l-.49-.15C373.8,305.75,373.38,307,373,308.24Zm-109.19-4.49c.76.23.78.24,1.8-1.75.12-.25,0-.63-.07-.95h-.37Zm135.9-14.29-.39-.11-1.34,2.11.29,1.2.33,0Zm-62-30.74c.32,0,.69,0,.77-.1.57-.9,1.36-1.8.28-3ZM377,248.35h.32v-1.72l2.31.26c-.54-.76-2.78-.79-4.26,0l1.51-.09ZM227.09,283.47a2.88,2.88,0,0,0-1.27,2.52l1.21.39C225.56,285.31,227.85,284.56,227.09,283.47Zm100.09-12.35c-.36.17-.69.3-1,.48s-.61.4-.91.6a3.62,3.62,0,0,0,1,.46,4.07,4.07,0,0,0,1.08-.1ZM377,315.4l.45-2.41-.41-.12-.76,1.25-1.05-.05-.08.28ZM223.68,281.61l.43.27,1.86-3.33C224.58,279.16,224.14,280.39,223.68,281.61Zm-9.74,14.51-2,2.73C213.14,298.82,213.85,298,213.94,296.12Zm76.47-22.28c.79-.39,1.92-.11,1.31-1.49a3.27,3.27,0,0,1-.11-.9,3.94,3.94,0,0,0-.76.83A9.07,9.07,0,0,0,290.41,273.84Zm104.35,14c1-.58,1.92-3.23,1.64-4.46ZM225.51,302.1l-.45-.22c-.59,1.07-1.93,1.76-1.59,3.52Zm53.31.75a4.88,4.88,0,0,0,1.63-.47c.34-.28.44-.87.68-1.38C279.51,300.84,279.37,302,278.82,302.85Zm10.3-26.12-1.05,2.87C289.45,279,289.9,277.49,289.12,276.73Zm-58.1,10,1.28-3C230.74,284.63,230.45,285.42,231,286.77Zm179.57-4.72.36.13,1.62-4.33-.46-.17ZM322.67,411l.31-.18-.84-2.28-1.17.09C320.6,410.23,322.79,409.67,322.67,411Zm-36-142.92.38.1c.32-.89.66-1.78.93-2.68,0-.16-.22-.4-.33-.61-.16.19-.4.35-.46.57-.19.62-.31,1.26-.45,1.9C286.7,267.57,286.7,267.82,286.67,268.06Zm86,29.59-.3-.11c-.34.85-.7,1.7-1,2.57-.07.22.07.52.11.78.23-.17.6-.3.65-.52C372.34,299.48,372.48,298.56,372.65,297.65Zm41.64-24.71a4.26,4.26,0,0,0-1.48,4Zm-165.16,4.23-.41-.24c-.45.72-.92,1.43-1.32,2.17,0,.07.4.38.67.63Zm-9.87,29.21-.47-.29a9,9,0,0,0-1.09,1.47c-.08.17.28.57.58,1.14Zm144,1.58c-.49,1.05-1,2-1.42,3l.28.13C383.77,309.07,383.84,308.87,383.25,308Zm-124.57-8.3a2.71,2.71,0,0,0,1.58-3.18ZM352.83,273l.24,0,1-2.68-.25-.11L352,272.33l.19.18.56-.32ZM230.47,306.84c-1.34-.41-1.81.14-1.89,2.11Zm8.68-51.15-.46,0-1.11-1.33a3,3,0,0,0,.26,1.28C238,255.86,238.69,255.69,239.15,255.69Zm115.41,7.53-.31-.29-1.69.78.07.44c.45.12,1,.44,1.34.29S354.37,263.65,354.56,263.22Zm-52.29,54.29.31-.26-1.28-1.63-.95,1.58Zm4.89-56.94-.3-.11-1.26,2.68.8.67Zm-31.74,49.67c1.43-1,1.46-1.1,1-2.12C275.08,309.42,275.08,309.42,275.42,310.24Zm-11.68-12,.44.19c.42-.76,1.46-1.28.63-2.53ZM388.1,285.08l-.38-.16L386,288.5l.39.16C387,287.47,387.52,286.27,388.1,285.08Zm-167,11.42-.26-.14c-.51.59-1,1.16-1.51,1.78a.67.67,0,0,0,.13.63c.21.08.65,0,.72-.09C220.48,298,220.75,297.23,221.05,296.5Zm141.15,8.69.78-2.74-.5-.13C362.44,303.19,361,303.69,362.2,305.19Zm-44.13,8.64.31.18a3.66,3.66,0,0,0,1.38-3.25Zm-13.81-47.24c.8-1,.8-1,.34-3.31l-.85,1.68C305.19,265.11,304.14,265.9,304.26,266.59Zm93.35,34.58.48.14,1.05-3.16-.44-.15ZM254.32,281.54l-.42-.17-1.47,3.08.53.25Zm-3.19,6.4-.45-.17a5,5,0,0,0-1,2.77l.36.12Zm161.64-29-.71,2.11.34.11.61-1.31.89.67.17-.94ZM306,278.91c.16-.58.33-1.1.42-1.63,0-.11-.4-.41-.49-.37a10.39,10.39,0,0,0-1.29.76l.47.24Zm58.52,14.2.91-2.81C363.93,291.88,363.78,292.46,364.54,293.11ZM391,271.32l-.43,2.36.9-.29.27-2Zm-55.14,24.51.35.14,1.38-2.46-1.11.17Zm-104.06-2.15h-.35l-1,1.49.25.35a3.57,3.57,0,0,0,1.19-.7C232,294.58,231.81,294.07,231.76,293.68Zm18.69-.34c-1.35.61-1.54,1.69-.63,2.53Zm5.08,45.51v-.17h-6v.17Zm-42.62-27.27-.37-.35-1.37,1.63.33.29C212.14,312.79,213.1,312.72,212.91,311.58ZM331.75,307l-.4-.28-1.15,1.79C331.73,308.67,331.74,307.85,331.75,307Zm62.84-25.22c1.42-.73,1.63-1.47,1-2.36Zm-69.71-26.66-1.29,2.68.28.13C324.5,257.17,325.61,256.6,324.88,255.15ZM358.21,258c.15-.62.26-1.34-.58-1.42-.34,0-.74.56-1.11.86l.14.58C357.39,257.08,357.76,257.52,358.21,258ZM234.9,283.31l-.6-.24-.93,2.28.5.21Zm182.28-20.37-.71,2.52c.41-.23.56-.66.83-.77C418.63,264.19,417.77,263.72,417.18,262.94ZM236.3,285l-.45-.27-1.38,2.69.32.17Zm34.79,4.35-.31-.14-1.21,2.4C271,291.34,270.52,290,271.09,289.33Zm96.19-28.15L367,261c-1.06.33-1.27.82-.77,2.07Zm-101,19.19.39.15,1.24-3.23-.36-.14ZM289,283.6l-.73-.09-.24,1.86c.21,0,.59,0,.61-.05C288.81,284.76,288.9,284.18,289,283.6Zm-.86,6.37.38.22,1.39-3-.38-.18Zm-38,17.93.35.11c1.17-1.55,1.17-1.55.39-2.35Zm77.7-45.37.49.27,1.12-2-.45-.24Zm18.32,38.91-.27-.23-1.18,2,.4.26C345.92,303.11,345.7,302,346.17,301.44Zm33.41-19.06.44.19,1.2-2.8-.41-.18Zm-69,12.33.34.13,1.53-1.63-.9-.52ZM228,285.85l.47.26c.91-.5.48-1.73,1.16-2.36l-.37-.2Zm4.06,2.87-.38-.22-1.37,2.66.42.22Zm107.78,27,.31.17c.24-.18.67-.36.67-.54a10.66,10.66,0,0,0-.24-1.75l-.27-.09ZM397.31,264c.7,0,1-1,.55-2.18Zm-93.8,50.38.68-1.8-1.92.88Zm131.6,97.45h.36v-3.56h-.36ZM361.45,274.3c-.12-1.11.17-1.57,1.18-1.23l-.1-.46-2-.32Zm-37.75-1.9.6.23c.24-.75.47-1.5.7-2.25l-.33-.12C324.35,271,324,271.69,323.7,272.4Zm-35.77,35.37.38.26,1.26-1.94-.49-.31Zm51.89-54.86.52.17.73-2.36-.39-.14Zm-52.68,28.88.56,0v-1.76l-.47,0Zm-22.48-4.52,1.88-.32-.05-.3-1-.32.54-.87-.29-.16Zm114.49,26.05c1.3-1.23,1.37-1.51.67-2.23Zm-11.06-46.5.38,2,.4,0a8,8,0,0,0,.19-1.45C369.05,257.23,368.6,257.1,368.09,256.82Zm-62,3.71a1.78,1.78,0,0,0-1.28,2l.41.17Zm-10.23,12.85.52.23,1.09-2.3-.46-.23Zm114.75-4.29-.76-1.85-.39.07a5.07,5.07,0,0,0,0,1.4C409.51,268.88,410.06,268.92,410.63,269.09ZM231.87,304.86l0-.7c-.35,0-.77-.11-1,0s-.15.57-.22.88Zm133-43.64a6.37,6.37,0,0,0-1.25.76c-.17.18-.17.54-.26.88h1Zm-79,29.48.73-1.26-1.94-.2Zm-34.64,2.79-.21.42.8.54-.29,1.12.52.07a6.41,6.41,0,0,0,0-1.58C252,293.82,251.54,293.68,251.26,293.49Zm3.62,19.78-.94-.81a6.71,6.71,0,0,0-.67.94c0,.07.35.5.45.47A5.62,5.62,0,0,0,254.88,313.27ZM208,303.72l-.54-.22-.77,2.09.41.16Zm62-34.19-1.09,2.58C270.12,271.3,270.44,270.58,270,269.53Zm-52.4,40.72.24.26a9.44,9.44,0,0,0,1-1c.11-.15,0-.46,0-.69-.24.09-.57.12-.7.29A7.49,7.49,0,0,0,217.57,310.25Zm68.09-36.57L285,275h1.58Zm-23.48.49c1.16-.55,1.38-1.23.83-2.13Zm8.33,2,.36.16,1.09-2.22-.45-.21Zm110,7.11a10.79,10.79,0,0,1,1-.77,4.38,4.38,0,0,1,.81-.31C380.94,281.71,380.39,282.17,380.47,283.26Zm-37.74,31.43.34.2c.73-.33,1.07-.88.75-2.09ZM255.2,293.63l-.51-.24-.81,1.72.49.23Zm6-26.23-.42-.12-.84,2.13.46.16Zm9.06,6,.59-1.86A5.35,5.35,0,0,0,269.5,273s0,.07,0,.16Zm33.35-6.78-.35-.18-1.2,2.29.45.23Zm-35.95,49.82c-1.32.81-1.36,1-.36,1.92ZM344.4,248l0,.46,3.12-.3V248Zm42.16,36.06.65.14.22-1.94-.37-.06Z" transform="translate(-192.4 -240.74)"/><path class="cls-1" d="M282.55,274.31c-.19-.22-.6-.53-.55-.65.29-.72.55-1.83,1.08-2,1.11-.36.23,1,.83,1.37.1.06.06.37.09.55l-1.5.74Z" transform="translate(-192.4 -240.74)"/><path class="cls-1" d="M243.59,259.58a.88.88,0,0,1,1.56,0c.32.6.84,1.56-.16,2-.57-.44-1.08-.79-1.52-1.2-.1-.09,0-.42.06-.64Z" transform="translate(-192.4 -240.74)"/><path class="cls-1" d="M337.3,253.27l-.76,2.7-.27,0,0-.59-1.06.19a15.62,15.62,0,0,1,1.17-1.9c.18-.23.65-.22,1-.31Z" transform="translate(-192.4 -240.74)"/><path class="cls-1" d="M230.18,280.4,230.1,279l1.28.51c.12.68-.16,1-.9.92Z" transform="translate(-192.4 -240.74)"/><path class="cls-1" d="M421.82,265.48c1.14.79,2.2,1.49,3.22,2.24a3,3,0,0,1,.55.78l-1-.21-.27-.06-.47,1.2-.38-.58-.34,0c-1.22,5.29-1.13,10.7-1.17,16.19a3.58,3.58,0,0,1-2-2.19,21.38,21.38,0,0,1-.7-9.49c.22-2,1.19-3.87,1.83-5.8C421.31,266.86,421.56,266.2,421.82,265.48Z" transform="translate(-192.4 -240.74)"/><path class="cls-1" d="M427.81,241c.5,2.45,1,4.89,1.51,7.34q1.79,8.76,3.56,17.51,2.64,13.1,5.27,26.19,3,14.67,6,29.35c1.34,6.57,2.7,13.14,4,19.71.09.48.7,1.28-.18,1.54q-10.26-50.87-20.49-101.57Z" transform="translate(-192.4 -240.74)"/><path class="cls-1" d="M419.29,286.73c1,.68,1.94,1.34,2.86,2.07.18.14.2.55.19.82-.17,2.62-.4,5.23-.53,7.85-.08,1.66,0,3.34,0,5l-.29.1a3.75,3.75,0,0,1-.38-1.11c0-3.27,0-6.55.05-9.82,0-1.53.11-3-1.61-3.75-.28-.12-.41-.57-.6-.87Z" transform="translate(-192.4 -240.74)"/><path class="cls-1" d="M394,246.78c-.78.65-1.6,1-2.57.1l-.16,1.62-.34,0a4.22,4.22,0,0,0-.26-.67c-.08-.14-.25-.33-.38-.33s-.27.2-.39.33l-1.23,1.23-.39-.28.38-1.35L387,247c.47-.92,1.26-1,2.09-.36l.34-1.33.83.68a23.63,23.63,0,0,1,2.78,0C393.4,246.08,393.7,246.52,394,246.78Z" transform="translate(-192.4 -240.74)"/><path class="cls-1" d="M423.37,261.38c.31,1.48.59,2.89.89,4.37C421.82,264.69,421.79,264.37,423.37,261.38Z" transform="translate(-192.4 -240.74)"/><path class="cls-1" d="M392.67,243.84l1.26.32a10.53,10.53,0,0,1-.84,1.23.64.64,0,0,1-.61.11.69.69,0,0,1-.3-.56A5.12,5.12,0,0,1,392.67,243.84Z" transform="translate(-192.4 -240.74)"/><path class="cls-1" d="M391.38,244.22c-.3.23-.56.57-.89.66a2.67,2.67,0,0,1-1.22-.06c-.18,0-.33-.26-.5-.39.17-.14.32-.38.5-.39.6,0,1.21,0,1.82,0Z" transform="translate(-192.4 -240.74)"/><path class="cls-1" d="M388,245.68l-1.27-1.08,1.28-.69.34,1.68Z" transform="translate(-192.4 -240.74)"/><path class="cls-1" d="M295.34,360.59c0-2.82,0-5.53,0-8.24,0-3.14.06-6.29,0-9.43,0-1,.29-1.3,1.28-1.32q7.61-.15,15.21-.42c.93,0,1.15.33,1.13,1.19-.14,5.47-.24,10.94-.36,16.41,0,1.34-.16,1.26-1.5,1.12a60.48,60.48,0,0,0-6.32-.19c-1.83,0-3.67.08-5.5.24a25.26,25.26,0,0,0-2.81.63A6,6,0,0,1,295.34,360.59Zm5.3-8.64c-1.35.48-1.36.69,0,2.05a1.1,1.1,0,0,1,0,.93c-.22.58-.65,1.08-.82,1.66s.36,1,.91.82a17.74,17.74,0,0,0,2.32-1.21c.22.81.93,1.13,1.87,1,1.1-.18,2.2-.4,3.44-.62l-.84-2.45.35-.12,1.1,3c1-1,.22-2.13.47-2.76l-2.32-1.1.12-.28,1.7.64.14-.21L306.59,350c.77.41,1.36.95,2,1.38a1.08,1.08,0,0,0,1,0c.17-.1.18-.55.18-.83,0-.45-.11-.89-.19-1.48-1.45-.71-.48-1.7.14-2.77a3.11,3.11,0,0,0-2.91.45c-.52.43-1,.76-1.57-.31l.17,2-.33.28a10.53,10.53,0,0,0-.52-.93c-1.07-1.6-1.08-1.59-2.57-.33a1.73,1.73,0,0,0-.23.24c.33.35.9.67.93,1a5.14,5.14,0,0,0,2.56,4.18h-2.48a6.51,6.51,0,0,0,0-1.35,13,13,0,0,0-.53-1.6l-1.25.63c-.22-1.43-.85-3,1.33-4.09l-2.1.38Z" transform="translate(-192.4 -240.74)"/><path class="cls-1" d="M312.26,381.07c-1.69-.2-3.09-.35-4.48-.55-1.1-.15-2.19-.43-3.3-.54-.32,0-.66.42-1,.45-1.26.1-2.53.12-3.8.16l-2.25.07c0-.75.07-1.51.08-2.26,0-2.66,0-5.31,0-8h-.44c0,3,.06,6,0,9,0,.77.37,2.07-1.25,2-.66,0-.93-.18-.92-.88.09-4.47.14-8.94.2-13.42,0-1.39,0-2.79,0-4.34l17.33-.47v8.16a14.7,14.7,0,0,1,1.82-.37c.34,0,.92.07,1,.27a1.3,1.3,0,0,1-.13,1.15c-.22.2-.79.13-1.17,0a6.25,6.25,0,0,1-1.24-.62l-.4.2Zm-13.4-3.17a5.43,5.43,0,0,0,1.5.64c1.24.12,2.51.1,3.77.11a3.11,3.11,0,0,0,1.41-.11,2.85,2.85,0,0,1,2.53-.11,1.08,1.08,0,0,0,1.41-1.33,10.27,10.27,0,0,0-.93-1.92c1.63-.87,1.66-1.23.39-2.64.15-2,.3-3.8.42-5.35L307,366.9c.81,1.18,2.23,2.24,1,3.82l-1.27-.34c.1-.17.2-.32.29-.49.26-.48.85-1.24.71-1.41-.5-.63-.85-1.52-2-1.42-1.55.12-3.12,0-4.68,0-1.18,0-1.4.26-.88,1.29.29.57.57,1.14-.18,1.53-1.17.59-.65,1.66-.64,2.49,0,.3.94.58,1.53.91C299.06,374.07,299.4,376.06,298.86,377.9Z" transform="translate(-192.4 -240.74)"/><path class="cls-1" d="M294.75,383.58h17.09v.25h-17.1Z" transform="translate(-192.4 -240.74)"/><path class="cls-1" d="M301.39,407.15l14-.36v.36Z" transform="translate(-192.4 -240.74)"/><path class="cls-1" d="M291.31,346.16c-.68-.66-.72-3.68,0-4.6Z" transform="translate(-192.4 -240.74)"/><path class="cls-1" d="M315.89,366.93c-.6.42-.92.81-1.14.76a1.26,1.26,0,0,1-.81-.73c-.06-.19.39-.77.58-.76C314.89,366.24,315.23,366.56,315.89,366.93Z" transform="translate(-192.4 -240.74)"/><path class="cls-1" d="M351.38,358.55c.28-.35.47-.82.68-.82,4.66,0,9.32,0,14,0v14.91H356c0-.37.28-1,.08-1.35a1.5,1.5,0,0,0-1.25-.59c-.26,0-.66.67-.66,1,0,.92-.28,1.36-1.28,1.18v-1.73c1-.22,1.08-1,1.08-1.88,0-3.2,0-6.39,0-9.59a7.85,7.85,0,0,0-.44-1.73Z" transform="translate(-192.4 -240.74)"/><path class="cls-1" d="M257.09,374.72H243.72V360h13.84C257.41,364.75,257.25,369.63,257.09,374.72Z" transform="translate(-192.4 -240.74)"/><path class="cls-1" d="M284,252.62l-1.07,1.8-.32-.08-.66-2.24-.78,1.82-1.55-.8a1.09,1.09,0,0,1,1-1.34,6.94,6.94,0,0,0,1.56-.79c.23.9,1.81.37,1.81,1.66Z" transform="translate(-192.4 -240.74)"/><path class="cls-1" d="M284,252.65c.29-1.24,1.66-.73,2.22-1.34,1.07-1.16,1.42,1,2.31.15l.16.46-2.12,1.63-.33-.5-1.05,1.12-.15-1-1.06-.55Z" transform="translate(-192.4 -240.74)"/><path class="cls-1" d="M298.5,253l-2,2.43a14.46,14.46,0,0,1,.9-2.05C297.6,253.13,298.13,253.12,298.5,253Z" transform="translate(-192.4 -240.74)"/><path class="cls-1" d="M250.43,252.36l.94-1.09c.15.2.44.55.4.59a8,8,0,0,1-1,.88Z" transform="translate(-192.4 -240.74)"/><path class="cls-1" d="M421,362.87a2,2,0,0,1-.23-.62c-.09-3.17-.08-6.35-.27-9.51a58.21,58.21,0,0,0-.83-6.15c-.05-.36-.51-.65-.76-1s-.42-.63-.62-.94l.28-.29c1,.54,2,1.06,3,1.66a1,1,0,0,1,.28.79c-.14,2.33-.39,4.67-.45,7-.09,3,0,6,0,9Z" transform="translate(-192.4 -240.74)"/><path class="cls-1" d="M418.39,363.94l3.13,1.67-.68,3.57-.39,0c-.12-.59-.23-1.17-.34-1.76-.19-1-.31-2-1.43-2.44-.25-.11-.34-.58-.51-.88Z" transform="translate(-192.4 -240.74)"/><path class="cls-1" d="M424,345.69c-2.1.33-3.4-1.34-5.06-2.1-.34-.16-.53-.66-.79-1l.24-.27c1.81,1,3.63,2,5.44,3,.09.05.1.27.14.41Z" transform="translate(-192.4 -240.74)"/><path class="cls-1" d="M398.62,245.87l-.27.93c-.53.25-.9.39-1.24.59s-.57.47-.9.62c-.15.07-.39-.06-.59-.1a2.13,2.13,0,0,1,.32-.64c.2-.2.67-.29.69-.46C396.8,245.5,397.68,245.8,398.62,245.87Z" transform="translate(-192.4 -240.74)"/><path class="cls-1" d="M319.05,248.74c1-.12,1.8-1.22,2.82-.21l-1.74,1,.12.29,1.66.16-.81,2.61-.3-.05a4.07,4.07,0,0,1,0-.5,3.83,3.83,0,0,1,.07-.58C319.29,251.18,320.08,249.41,319.05,248.74Z" transform="translate(-192.4 -240.74)"/><path class="cls-1" d="M310.94,260.48l1.28-.31C311,265,311,265,309.86,265.27c.39-1.71.75-3.27,1.11-4.83Z" transform="translate(-192.4 -240.74)"/><path class="cls-1" d="M322.08,252.55a15,15,0,0,1,.42-2.51c.07-.24.75-.36,1.16-.39.14,0,.51.51.45.6-.5.88-1.07,1.71-1.62,2.56Z" transform="translate(-192.4 -240.74)"/><path class="cls-1" d="M313.5,255.71c0,2.29,0,2.29-.85,2.64Z" transform="translate(-192.4 -240.74)"/><path class="cls-1" d="M317.59,252c-.28-1.8.06-2.17,2-1.82-.37.33-.62.73-.82.71-.89-.12-1.12.38-1.22,1.09Z" transform="translate(-192.4 -240.74)"/><path class="cls-1" d="M261.76,315.39a18.31,18.31,0,0,1-1.73,1.19c-.1.06-.65-.32-.66-.52a10,10,0,0,1,.2-1.7l.42.08-.18.79,2,.2Z" transform="translate(-192.4 -240.74)"/><path class="cls-1" d="M238.84,316.62c-.88.61-1.17,2.07-3,1.71a14,14,0,0,1,1.56-2.32c.2-.21,1,.12,1.46.2Z" transform="translate(-192.4 -240.74)"/><path class="cls-1" d="M371.41,250.53c.88,1.09.88,1.09-.77,2.08Z" transform="translate(-192.4 -240.74)"/><path class="cls-1" d="M372.77,254.7h-1.58c-.22-1,.68-1.32,1.22-1.85Z" transform="translate(-192.4 -240.74)"/><path class="cls-1" d="M340,248.13c.21-.45.4-.87.62-1.28,0-.09.18-.12.28-.18C341.46,247.62,341.24,248,340,248.13Z" transform="translate(-192.4 -240.74)"/><path class="cls-1" d="M306.36,356.19l-1.47-2.84,1.31.29Z" transform="translate(-192.4 -240.74)"/></svg>