<svg id="Layer_1" data-name="Layer 1" xmlns="http://www.w3.org/2000/svg" xmlns:xlink="http://www.w3.org/1999/xlink" viewBox="0 0 225.93 134.08"><defs><style>.cls-1{fill:none;}.cls-2{clip-path:url(#clip-path);}.cls-3{fill:#145374;}</style><clipPath id="clip-path" transform="translate(0 0)"><rect class="cls-1" width="225.93" height="134.08"/></clipPath></defs><title>paperplane</title><g class="cls-2"><path class="cls-3" d="M76.66,101.88c4.91.68,9.89,1.07,14.72,2.11q43,9.24,86,18.73c5.67,1.24,11.32,2.53,17,3.79.32.07.65.1,1,.17,2.61.55,5.2-.9,8,.77,2.28,1.36,5.43,1.26,8.2,1.76a9.15,9.15,0,0,0,2.13-.43c-4.32-2.39-8-4.5-11.73-6.42-.56-.28-1.55.31-2.35.5-.8-.58-.21-3.2-2.53-1.68-.26.17-1.17-.64-1.78-1,1.18-1.47-.41-1.56-1.06-1.91-3.92-2.18-7.86-4.33-11.85-6.39Q148.06,94.12,113.7,76.39c-11.36-5.89-22.64-11.94-34-17.9-6.58-3.45-13.11-7-19.78-10.24a60.36,60.36,0,0,1-7.22-3.66c-2.33-1.56-5.29-2.22-7.48-3.92-1.94-1.5-5-.37-6.31-3.12a3.3,3.3,0,0,0-2.13.43,13.78,13.78,0,0,1-3.66,2.42l2.32-4.57-.52-.53a13.11,13.11,0,0,0-2.06,1.4C29.17,40.29,25.17,43.63,22,47.63c-2.07,2.61-5.72,4.2-6,8.17,0,.24-1.19.28-1.66.63-.75.56-2,1.32-1.94,2,.14,3.18-1.71,5.67-2.5,8.51-.48,1.72.77,1.34,1.75,1-.23,2.47,2.83,4.06,1.81,6.86-.13.36,1.26,1.38,2,2Q26.67,85,37.87,93.2l-3.46,1.38c-5.74-4.39-11.65-8.9-17.54-13.44C11.25,76.81,5.65,72.45,0,68.07c7.07-7.49,14.4-14.7,21-22.5,4-4.64,9.07-8.31,12-13.91.57-1.1,2.46-1.51,3.83-2.29.47,1.1.61,2.6,1.39,3.09,5.47,3.41,11.06,6.62,17.21,10.25,0-7.79-.07-14.9,0-22,.11-9.08-1.63-7.24,7.36-10.28C74.07,6.62,85.66,3.72,97.1.36c1.32-.39,2.27-.69,3.62.33,3.71,2.78,7.61,5.32,11.51,7.85,8.43,5.44,16.86,10.7,25.2,16.16a14.24,14.24,0,0,1,3.82,3.76C151,42.75,162.58,55.57,173.39,69Q187.93,87,202.56,105c2.1,2.58,4.41,5,6.39,7.66a33,33,0,0,1,2.67,5.14,39,39,0,0,1-4.33-4c-9.79-12-19.49-24-29.24-36q-13.86-17-27.76-34c-1.26-1.54-2.1-4-3.68-4.59-2.62-1-3.15-2.91-4.28-5-1.52-2.84-4-5.18-6.08-7.78l-1.09,1.74c-3.1-1.26-4.56-3.73-5.27-6.65-3.29.71-3.61,1-5.84-1.21-3.68-3.69-9.68-4-12.44-8.83a.65.65,0,0,0-.42-.26c-5.28-1.25-8.66-5.09-11.72-8.56-2.57.89-4.85,1.86-7.22,2.47-9.3,2.4-18.64,4.68-28,7.07a7.32,7.32,0,0,0-2,1.3l.35.65,2.57-.67c-.74,5.08-.3,5.85,4.35,8.66,1.69,1,3.25,2.29,4.88,3.43l27.37,19.16Q114.93,54,128.08,63c5.71,3.94,11.49,7.78,17.17,11.75,8.7,6.09,17.68,11.75,25.91,18.54,5.48,4.53,11.67,8.21,17.6,12.19,3.44,2.3,7,4.48,10.51,6.65,3.94,2.43,7.93,4.79,12,7.24l.42-1.48a22.69,22.69,0,0,1,3.41,2.77c3.49,4.15,6.86,8.42,10.83,13.34a32.1,32.1,0,0,1-5,0c-6.32-1.16-12.64-2.34-18.91-3.71-17-3.69-33.87-7.59-50.84-11.23-16.52-3.54-33.08-6.83-49.62-10.28-7.27-1.52-14.54-3.1-21.78-4.81-1.12-.26-2-1.36-3.07-2.08Zm-6-60.1L71.81,44c.3,2.62,1.6,1.3,2.72.7l1.3,1.3c1.23.64,2.51,1.2,3.69,1.93,1.44.88,2.79,1.91,4.17,2.87l-1,1.06V52l-3.32-1.84-.51,1.14,3.81,1.49c.45.8.77,2.18,1.36,2.31a11.42,11.42,0,0,0,4.73,0c3.66-.77,3.66-.89,5.16,2.52.39.89.56,1.87.88,2.79.06.19.39.28.7.48l1.8-3.77,3.64,5.71L97.1,61.55a20.27,20.27,0,0,0,9.59,5.29c1.12,1.68,2.08,2.89,4.74,2.38a8.2,8.2,0,0,1,3.34.26,8.32,8.32,0,0,1,3,1.55c2.27,2.1,5.49-.69,7.27,2.06a2,2,0,0,0,.79-.4c1.45-1.53,2.84-.49,4,.26a10.94,10.94,0,0,1,3.57,3.16c1.54,2.49,6,6.7,8.83,6.84s4.57,1.38,6.48,2.89c.87.9,1.7,1.82,2.61,2.68.53.5,1.61.83,1.69,1.35.48,3.25,2.91,3.6,5.41,3.8,1.89.16,3.66.29,4.34,2.55a2.16,2.16,0,0,0,.48.83,2.18,2.18,0,0,0,.8.54c2.85.57,3.88,5.14,7.75,3.53.21-.09.79,1,1.31,1.34a26.82,26.82,0,0,0,2.53,1.37l2.31-.1c1.93,2.73,4,5.11,8.75,3.8-3.7-2.15-6.16-4.9-9.88-5.62l-1.1-1.07c-3.45-2.61-6.33-6.19-11.21-6.36-.58,0-1.37-.94-1.64-1.61A14.68,14.68,0,0,0,155.56,85c-4.28-2.14-7.83-5.12-11.6-8-9.78-7.42-20-14.22-30.1-21.28-9.11-6.39-18.18-12.82-27.31-19.18-5.39-3.74-10.85-7.4-16.44-11.21l-.35,2.58c-1.75-1.26-.68-4.55-3.56-4.26-.85,1.94,2.66,3.34.6,5.39l-1.23-1.23a16.09,16.09,0,0,0-1.72-3.32c-.48-.58-1.56-.64-2.37-.94L60.68,26c-.81-.25-1.94-1.09-1.75.74s1.34,1.86,2.7,1.13l2,2c.11,1.25.69,2,2,2a33.79,33.79,0,0,1-.19,4.61c-.22,1.22.33,1.32,1.2,1.37.79,1.88,2.42,2,4.12,2ZM60,32.85l-1.34-1.47c-.26.34-.72.67-.73,1a1.2,1.2,0,0,0,.23.6,1.31,1.31,0,0,0,.5.4A5.12,5.12,0,0,0,60,32.85Zm83.25,54.69.93-.43c-.24-.33-.42-.85-.73-1s-.71.27-1.08.43Z" transform="translate(0 0)"/><path class="cls-3" d="M72.66,100.88c-2.71,1.41-5.55.5-8.17,0C57.36,99.52,50.32,97.7,43.24,96a10.77,10.77,0,0,1-1.93-1.21c3.5,0,6.25-.6,8.59.11a182.87,182.87,0,0,0,21.16,4.93c.58.1,1.09.65,1.63,1Z" transform="translate(0 0)"/><path class="cls-3" d="M11.66,67.89c.2-.44.39-.89.6-1.32s.33-.55.73-1.24l2.38,3.74-.45.69-3.26-1.91Z" transform="translate(0 0)"/><path class="cls-3" d="M124.34,84.7l4.47,2.6C125.11,87.35,125.11,87.35,124.34,84.7Z" transform="translate(0 0)"/><path class="cls-3" d="M20.71,59.81,17.79,58l.53-1,3.23,1.61Z" transform="translate(0 0)"/><path class="cls-3" d="M15.17,73.6V71.15h.7v2.46Z" transform="translate(0 0)"/><path class="cls-3" d="M72.66,100.85l4,1Z" transform="translate(0 0)"/><path class="cls-3" d="M33.66,42.19l.56.61-.93.63c-.11-.27-.34-.57-.3-.81S33.4,42.33,33.66,42.19Z" transform="translate(0 0)"/><path class="cls-3" d="M175.78,120.82l-2.16-.19c.06-.23.11-.65.17-.65.69,0,1.39.07,2.08.12Z" transform="translate(0 0)"/><path class="cls-3" d="M199.66,122.86c-.92,1.31-2,1.35-4.38,0Z" transform="translate(0 0)"/><path class="cls-3" d="M63.66,29.89c.21-1.09-.8-3.31,1.92-2.07l1.23,1.23c.65,1.37,1.2,2.7-1.17,2.82l-2-2Z" transform="translate(0 0)"/><path class="cls-3" d="M83.73,50.82c.46-.19,1-.64,1.34-.5a6.08,6.08,0,0,1,1.43,1.34c-.49.27-1,.77-1.46.76a10.8,10.8,0,0,1-2.38-.54Z" transform="translate(0 0)"/><path class="cls-3" d="M176.75,101.92l1.13,1.82-2.31.1c-.42-1-1.5-2,.08-3Z" transform="translate(0 0)"/><path class="cls-3" d="M70.66,41.78h1.9L73.69,43l-1.88,1.1Z" transform="translate(0 0)"/><path class="cls-3" d="M74.57,44.71c.86-1,1.68-.8,2.32.18.07.11-.66.74-1,1.13Z" transform="translate(0 0)"/><path class="cls-3" d="M131,27.83l-2.09.22V26.71l2.1.17Z" transform="translate(0 0)"/><path class="cls-3" d="M73.73,42.91,72.6,41.75c1-1.37.41-2.22-1-2.8-.11-2.63-2.81-1.83-4-3l3.81-1.43c1.3,2.25,2.6,4.35,3.72,6.55C75.85,42.39,74.79,42.73,73.73,42.91Z" transform="translate(0 0)"/><path class="cls-3" d="M76.66,35.89a3.72,3.72,0,0,1,.21-.92,4.15,4.15,0,0,1,.73-.78c1.81,1.41,3.14,3.06,3.27,5.47l-.48.43-3.73-4.24Z" transform="translate(0 0)"/><path class="cls-3" d="M142.07,76.53l3.29,5C141.89,81.32,141.89,81.32,142.07,76.53Z" transform="translate(0 0)"/><path class="cls-3" d="M148.66,85.86c.19-1,.39-2.18,1.8-1.47a26.31,26.31,0,0,1,3.2,2.25l-.81,1.13-4.19-1.88Z" transform="translate(0 0)"/><path class="cls-3" d="M84.83,40.71c1.41,1.16,3.1,2.12,3.31,5C86,44.24,84.91,42.85,84.51,41Z" transform="translate(0 0)"/><path class="cls-3" d="M76.66,35.85c-1.08,2-1.08,2-2.89-1l2.93,1Z" transform="translate(0 0)"/><path class="cls-3" d="M106.66,66.88l.17-2,1.44.85-1.61,1.13Z" transform="translate(0 0)"/><path class="cls-3" d="M90,48.36c-.37-.29-.82-.51-1-.87-.1-.2.27-.62.43-1a5.13,5.13,0,0,1,.92,1C90.45,47.63,90.18,48,90,48.36Z" transform="translate(0 0)"/><path class="cls-3" d="M80.89,39.66l1.77,2.19-.64.59L80.4,40.09Z" transform="translate(0 0)"/><path class="cls-3" d="M84.51,41l-1.76-2,.76-.58,1.32,2.32Z" transform="translate(0 0)"/></g></svg>