<?xml version="1.0" encoding="UTF-8"?>
<svg viewBox="0 0 595.28 841.89" xmlns="http://www.w3.org/2000/svg">
<style>.st0{fill:#145374}</style>
<path class="st0" d="M451.64 216.13c-.37-1.59-1.55-2.85-1.53-4.64.01-1.03-1.28-2.89-2.08-2.94-2.59-.16-2.08-1.54-2.01-3 1.84-.39 2.51 1.56 3.96 1.47 2.36-3.96 2.59-7.73-.68-11.25-1.53-1.64-3.14-3.15-5.72-1.77.39 1.82 1.95 3.04 1.75 4.82-1.31 1.45-3.12.69-5.2.93 2.26 1.9 1.17 4.43 2.5 6.32.5.72-.74 1.76-1.66 2.15-1.24.53-1.29-.54-1.54-1.34-.17-.53-.49-1.02-1.4-.94.26 2.77 1.56 5.1 3.05 7.52-1.43-.55-2.45-1.46-4.07-1.11-1.49.33-2.15-1.63-3.51-2.06-1.02-.33-1.9-.5-2.61.58-.43.65-.98.38-1.45 0-.49-.4-.75-1.02-.41-1.5.84-1.17 1.26-2.44 1.62-3.82 1.21-4.66-.1-6.79-4.87-7.65.32-2.08.04-4.56 3.03-4.8-.7-2.68.67-5.45-.28-8.13-.23-.64.02-1.01.76-1.18.98-.22 1.86-.68 1.86-2.18-2.71-.6-3.53-3.33-5.4-4.99-1.37-1.22-3.41-2.13-2.47-4.37.83-1.99 2.87-1 4.41-1.23-1.58-2.88-3.21-5.75-3.32-9.17 2.77-.96 4.72 1.69 8.22 2.17-3.42-3.97-5.52-7.71-8.67-10.63-.4-.38-.92-.77-1.43-.87-2.85-.54-4.62-2.65-6.43-4.56-1.19-1.26-2.54-2.14-3.94-3.08-2.49-1.67-5.22-3.15-6.67-6 1.82-.42 3.86-2.63 5.22.74.16.4 1.08.33 1.43-.24.34-.56.01-1.09-.4-1.48-3.48-3.29-7.11-6.4-11.65-8.17-1.53-.59-3.02-1.19-4.15-2.42-2.64-.11-5.25-.76-7.93-.47-1.15.12-2.9-.87-2.17-1.64 1.55-1.65.02-1.46-.66-1.7-1.86-.64-4.04-.54-5.64-2.18 3.69-2.69 7.28-.62 10.82-.26.14-1.89-.65-3.16-1.85-3.85-3.6-2.08-7.12-4.57-11.72-3.29-2.25.63-4.51.47-6.57-.86-.69-.44-1.29-.93-2.26-.26-1.18.81-1.11 1.9-.93 3.2-4.09-2.7-7.12-3.07-11.47-1.51 2.3 2.52 6.83 1.37 8.97 5.6-3.53-1.21-6.51-1.64-9.33-3-2.81-1.36-6.03-1.53-9.08-2.22-3.06-.7-6.14-1.14-9.27-1.2-2.98-.05-5.96-.01-8.93-.01 2.09 1.02 4.15 1.59 6.24 1.89 2.24.32 4.52.45 6.79.56 3.85.18 3.85.15 5.65 1.33-1.74.21-3.41.33-5.12.02-1.83-.33-3.66-.22-5.5.13-5.73 1.1-11.63 1.79-17.29.83-4.39-.74-8.05.23-11.89 1.62-3.12 1.13-6.3 2.11-9.28-.19-.9-.69-1.98-.68-2.94-1.19.96-1.24 2.29-.37 3.28-.89.64-.34 1.32-.75 1.04-1.59-.3-.89-.99-1.46-1.98-1.04-1.43.6-2.68 1.56-4.22 2.01-1.07.31-3.71-.38-1.92 2.37.05.08-.27.58-.46.6-2.93.35-5.62 2.55-9.37 1.26 4.83-4.29 9.26-8.22 15.66-8.5 2.5-.11 4.77-.53 6.67-2.28 1.36-1.25 2.98-1.33 4.83-.91-.6.9-2.22.05-2.26 1.94 9.43.08 18.86.17 28.28.24.56 0 1.14-.08 1.28-.8-.07-.49-.44-.68-.85-.77-8.46-1.85-17.22-.39-25.68-2.38-.64-.15-1.39.23-2.1.26-4.96.22-10.05 1.22-14.84.42-6.29-1.05-11.78.41-17.23 2.87-3.62 1.64-3.56 1.79-3.06 5.97 5.44-2.36 11.89-3.65 15.26-2.81-3.75 1.53-7.09 2.95-10.48 4.27-2.89 1.13-5.33 3.14-8.48 3.87-2.55.58-1.41-1.51-2.17-2.49-3.02 3.98-8.32 3.77-11.61 7.04-.09.09-.27.17-.39.15-.4-.06-.87-.07-1.16-.3-.51-.39-.51-.97-.18-1.52.45-.76 1.09-1.36 1.91-1.62 2.06-.66 3.64-2.17 5.58-3.03.54-.24 1.19-.39.85-1.1-.4-.82-1.12-.63-1.81-.29-.87.43-1.66 2.07-2.35 1.44-1.73-1.57-2-.08-2.72.85-.59.75-1.28 1.42-1.94 2.13-.45-1.28.21-2.28.79-3.4 1.03-1.99.23-2.96-2.02-3.14-1.47-.12-2.77.87-4.28.75.07-.48.06-.62.11-.75.56-1.68 4.08-1.31 3.08-3.75-.83-2.03-3.11-.69-4.75-.99.89 4.89-1.24 8.31-5.5 11.21.23-1.93 1.69-2.8 1.66-4.32-1.13-.58-2 1.03-3.16.38-1.35-.76.39-2.07-.62-3.06-1.44 1.18-2.97 2.16-4.02 3.73.63 1.11 2.14-.71 2.48 1.14-1.92 2.61-5.21 4.11-6.99 7.08-.48.79-1.71.87-2.29.27-2.13-2.19-3.39-.41-4.38 1.02-1.59 2.3-3.33 4.51-3.82 7.49-.69 4.19-3.82 7.14-6.09 10.51-.45.67-1.15 1.36-2.37.38 1.85-3.06 3.05-6.45 3.67-10.04.11-.61.43-1.05 1.11-1.04 3.05.05 1.75-2.4 1.37-3.26-.53-1.18-2.13-2.03-3.54-.83-1.54 1.31-3.79 1.88-4.18 4.49-.19 1.27-1.09 2.82-2.15 3.49-1.35.86-3.19.86-2.4 3.29.23.71-.75 1.21-1.46 1.22-4.15.04-6.47 2.92-8.92 5.6-3.59 3.15-7.11 6.31-5.36 11.87.13.42-.15.96-.58.97-2.62 0-2.63 2.17-3.08 3.82-.24.88-.46 1.48-1.29 1.97-2.42 1.45-3.73 3.85-4.79 6.32-.91 2.11-1.91 4.08-3.55 5.75-1.26 1.28-2.13 2.85-2.13 4.69 1.56.51 1.38-1.57 2.61-1.24.61.77.11 1.67.33 2.47.24.88.76 1.82 1.76 1.2 2.07-1.3 1.73.46 1.84 1.38.43 3.58-.64 7.06-.78 10.6-.13 3.13-1.7 5.64-3.51 8.04-.51.68-.96 1.32-2.07 1.08-2.48-.55-3.06 1.46-3.89 3.09-2.18 4.23-.85 9.29-3.15 13.51-.23.42-.08 1.16.11 1.66.63 1.68.08 3.02-.97 4.32-1.05 1.32-1.57 2.71-.11 4.16 1.12 1.11.92 2.3-.01 3.42-1.49 1.77-2.02 3.62-1.09 5.9 1.03 2.53-1.61 5.66 1.19 7.98.05.04-.01.32-.1.38-2.52 1.81-1.23 3.07.49 4.52.82.69.21 1.86 0 2.83-.26 1.22-1.11 2.42-.54 3.69 1.47 3.29.82 6.64.31 9.96-.17 1.13-.35 2.21-.31 3.36.13 3.55.2 7.1.25 10.65.04 2.59.01 5.19.01 7.61 1.46.44 1.66-1.69 2.9-.63.39 1.67-.19 3.49.73 5.02 1.1 1.8 1.03 3.41-.21 5.13-.92 1.28-1.56 2.69 1.01 2.86 1.46.09 1.33 1.2 1.34 2.19.03 2.26 1.26 6.71 2.41 8.72.14.24.18.54.31.79 1.54 2.82 2.1 2.84 4.25.68 2.83-2.85 4.5-6.54 7.06-9.58.96-1.14.98-2.34-.77-2.99-1.24-.46-1.34-1.39-.6-2.37.72-.94 1.71-1.06 2.63-.37.78.59 1.48 1.33 2.09 2.1 2.34 2.94 3.8 6.32 4.63 9.96 1.52 6.66 3.84 13.07 6.05 19.52 1.34 3.93 3.35 7.52 6.27 10.54.47.49 1.02 1.23 1.76.81.84-.47.91-1.48.59-2.28-.42-1.04-1.02-2.03-1.63-2.98-6.6-10.29-8.81-21.68-8.62-33.72.13-8.44 4.29-13.94 12.04-16.77 8.8-3.2 17.98-3.58 27.29-3.62-.13.91-.46 1.46-.97 1.79.7.15 1.31.55 1.71 1.15h.01c2.94 0 5.56 1.03 8.39 1.65 2.63.58 2.43 3.75.68 4.95.02.09.03.18.03.26-.01 1.86-1.48 2.21-2.89 2.56l-.42.09c-4.96 1.24-9.92 2.47-14.88 3.71-2.89.72-5.74 1.84-8.32 3.1-2.52 1.24-4.32 4-6.35 6.17-1.75 1.87-1.81 3.13-.46 4.84 2.56 3.27 3.5 3.52 6.23 2.21 3.26-1.56 6.35-3.77 10.4-2.45 1.2.39 2.7-.19 2.3-2.08-.4-1.93 1.21-2.01 2.24-2.53 1.33-.67 2.32.23 2.72 1.3 1.73 4.59 5.25 5.04 9.38 4.35.98-.17 1.98-.32 2.96-.31 3.32.02 6.25-.55 7.52-4.21.25-.72.92-1.11 1.71-.83.73.26 1.36 1.05 1.1 1.63-.99 2.25.49 3.44 1.77 4.77.4.42.76.95.55 1.52-.69 1.82-2.52 2.19-4.03 2.84-1.24.53-2.6.68-2.74-1.34-.03-.5-.38-.87-.8-.59-2.93 1.98-6.71 1-9.69 2.85-1.98 1.23-4.21 1.57-6.53 1.65-1.98.06-3.95.42-5.94.58-1.96.16-3.92.23-6.65.39 2.4 1.17 4.13 1.24 5.79 1.62.81.19 2.01.4 1.65 1.45-.51 1.5.02 1.66 1.28 1.66 10.54-.04 20.54-2.4 30-7.02 1.03-.5 1.99-1.12 2.7-2.04 1.08-1.41 1.6-3.38 3.99-3.36.84.01.83-.95.7-1.71-.14-.81-.79-1.51-.44-2.72 1.51 1.14 3.15 2.31 4.82.73 1.54-1.46 1.27-3.33.65-5.17-.32-.93-.72-1.81-.66-2.87.13-2.23-.27-4.18-1.07-5.92-.92 1.64-3.61 2.33-4.87.21-2.05-3.43-6.79-3.78-10.39-3.93-2.98-.12-3.93-4.92-.74-5.43 2.4-.39 4.67-.49 7.08-.16.46.06.82.21 1.12.42 1.98-.3 3.38.76 4.74 1.75 5.39 3.91 8.33 9.24 8.68 15.88.53 10.39-2.83 19.56-9.14 27.7-2.52 3.25-5.17 6.43-8.38 9.05-.78.64-1.78 1.37-1.01 2.41.79 1.07 1.78.12 2.66-.23.98-.39 2.04-1.84 2.99-.7 2 2.39 2.96.53 3.84-.81 4.35-6.67 8.55-13.47 10.8-21.17 1.53-5.23 3.92-10.07 6.29-14.88 3.92-7.96 14.49-7.33 18.46-.59 1.99 3.38 4.16 6.84 5.34 10.62 2.11 6.73 5.46 12.73 9.51 18.45 3.02 4.26 3.94 4.77 9.38 3.5l-.01-.01c-1.71-.64-2.93-1.48-1.42-3.46.38-.5.14-1.01-.13-1.48l.22.3c-.3-1.35-2.54-1.57-2.25-2.86.52-2.35-1.2-3.28-2.23-4.7-3.63-4.98-6.25-10.48-8.3-16.26-.39-1.1-1.19-2.43.36-3.46-.41-.65-.57-1.48-.39-2.25.38-1.58.66-3.21 1.05-4.78-.19.14-.39.28-.6.4-1.26.74-1.91 0-1.72-1.28.41-2.7 1.68-5.04 3.4-7.13.48-.58 1.13-.85 1.87-.56.66.26.92.79 1 1.68 2.63-2.04 6.78-2.96 8.75.46 1.93 3.34.16 7.31-1.89 10.08-1.81 2.45-5.2 5.3-2.27 8.02 1.16 1.08 1.03 2.44.31 3.42 1.36 1.43 3.03 2.56 5.01 3.35.21.08.4.19.58.3.02 0 .03 0 .05.01 10.7 2.73 21.69 6.34 32.83 4.95-.02-.07-.05-.15-.06-.24 2.84-1.76 6.48-1.29 9.56-2.79-.75-1.58-2.09-1.93-3.27-1.8-3.4.37-6.8-.42-10.2.14-2.63.44-5.14.03-7.09-1.13-.21-1.74 1.98-.94 1.54-2.63-.32-.11-.71-.34-1.09-.34-4.09.03-8.19.25-12.08-1.41-.42-.18-.81-.23-1.14.16-1.83 2.16-2.23-.26-2.42-1.02-.44-1.75-.45-3.61-.54-5.43-.07-1.47.76-2.54 2.09-2.87 1.67-.43 1.67 1.16 1.99 2.15 1.03 3.2 3.1 4.99 6.52 5.1 2.55.08 5.11.25 7.66.23 2.23-.02 4.11-.65 5.14-3.02.44-1.02 1-2.78 2.55-2.37 1.72.45.04 2.02.46 2.87.57 1.16 1.74 2.16-.55 2.64-.73.15-1.5.46-1 1.4.37.7 1.25.88 1.87.56 1.12-.58 2.1-1.43 3.17-2.11 4.46-2.81 5.75-2.61 9.09 1.46.46.56.87 1.36 1.63 1 1.9-.89 3.59-.07 5.37.3 1.69.35 5.09-1.13 4.77-1.86-.38-.85-.35-1.7-.21-2.54-1.81-1.54-2.46-3.51-3.55-5.75-1.04-2.13-2.98-2.39-4.48-3.95-1.6-1.66-1.18-3.8-1.56-5.86-.18-.98-1.03-4.41-2.44-4.03-.69.19-1.38.08-1.97-.23-.88-.12-1.75-.61-2.08-1.35-.34-.75-.58-1.43-.68-2.12-1.32-.73-2.55-1.68-2.87-3.21-.05-.23-.09-.61-.09-.98-.75.25-2.06.4-2.58.57-2.83.95-4.3-2.62-2.75-4.48-.5-.26-.78-.76-.73-1.48.06-.91.8-1.08 1.52-1.13 7.82-.55 15.64-.96 23.18 1.84 6.12 2.27 9.63 6.72 10.88 13.12 1.07 5.5.7 10.99.59 16.53-.16 8.23-2.5 15.64-6.68 22.55-1.61 2.65-2.64 5.59-4.49 8.11 4.15-2.76 7.39-6.18 9.35-10.8 2.41-5.67 3.64-11.62 4.81-17.61.89-4.59.98-9.33 2.48-13.81 1.14-3.41 2.44-6.7 6.21-8.15 1.49-.58 2.08-1.8 1.89-3.43-.18-1.55-.33-3.12-.31-4.68.03-2.11-.93-2.94-2.98-3.26-6.03-.95-12.04-2.08-18.05-3.15-7.72-1.38-15.42-1.94-23.31-1.4-6.26.42-12.47 1.84-18.89 1.03.92 1.8.8 2.31-.5 2.13-2.12-.28-4.25-.65-6.33-.06-2.11.6-4.12.51-6.28.24-4.47-.55-8.78.24-12.55 2.9-1.33.94-2.65 1.63-4.3 1.57-1.34-.05-2.09.53-2.33 1.91-.81 4.74-4.09 6.52-8.48 6.83-3.66.26-7.28.54-10.93 1.25-4.9.95-9.88-1.3-14.93-.99-1.55.09-3.37-.43-4.1-1.86-1.75-3.45-4.81-4.88-8.16-6.03-2.02-.69-4.19-1.37-5.88-2.44-3.46-2.2-6.24-5.66-11.07-3.99-.48.17-1.12-.09-1.68-.18-2.57-.41-5.06-.05-7.6.44-3.03.59-5.5 2.96-8.78 3.06h13.92c-3.27.61-6.53.59-9.79.61-11.81.07-23.52.94-35 3.92-5.63 1.46-11.25 3.04-16.96 4.13-5.6 1.07-5.65.83-5.49 6.43.02.57-.05 1.16.08 1.7.67 2.66-.39 4.66-2.27 6.42-.62.58-1.15 1.25-1.73 1.86-.62.65-.95 2.13-2.19 1.27-.82-.57-.26-1.66.23-2.3 2.05-2.69 1.99-6.21 3.66-9.04.35-.6.68-1.58.06-1.96-1.61-.99-.71-1.85-.05-2.74 1.2-1.61 2.22-3.33 2.87-5.21 2.11-6.14 4.65-12.16 5.82-18.6.38-2.09 2.04-3.76 1.99-6.01-.06-2.73.57-5.35 1.3-7.96.2-.72.76-1.64-.38-2.17-1.56.69-2.31 2.47-3.96 2.96-1.32-.89-.76-2.06-.74-3.15.06-3.01 1.52-5.74 1.76-8.69.42-5.16 1.74-10.03 4.38-14.49.7-1.18 1.14-1.96-.7-2.42-1.36-.34-1.16-1.37-.56-2.35.76-1.25 1.68-2.34 3.19-2.63 2.02-.39 3.35-1.39 3.71-3.53.16-.94.83-1.55 1.79-1.51 1.57.07 1.98-1.31 2.94-2.05 3.15-2.46 6.11-5.6 10.77-4.65 1.48.3 2.98.13 3.88-1.13 1.33-1.86 2.74-1.41 4.46-.74 2.28.88 4.58 2.78 7.02.02.56-.63 2.06-.49 2.85.04 1.94 1.32 4.28-.11 6.17 1.11.42.28.91.19.88-.39-.2-3.09 1.74-2.22 3.39-1.85.84.19 1.65.29 2.52.06 4.65-1.25 9.34-.15 14-.12 1.95.01 3.89.85 5.78-.34.61-.38 1.4-.51 2.05-.17 1.89.99 3.58.02 5.35-.39 1.47-.34 3.02-.55 4.47-.81 3.88-.7 7.64-1.52 11.54-.35.12.04.28-.03.42-.08 3.95-1.37 7.81-.76 11.61.6 1.52.54 3.15.81 4.61.39 2.79-.8 5.62-.6 8.42-.83 2.11-.18 4.2-.17 6.28-.86 5.31-1.78 10.61-1.31 15.81.62 1.35.5 2.76.91 4.17.55 2.52-.63 4.51.37 6.16 2.02 2.07 2.06 4.4 2.35 7.06 1.66 1.67-.43 3.49-.74 5.02.08 3.14 1.67 6.6 2.47 9.83 3.87 4.73 2.04 9.52 3.72 14.79 1.89.87-.3 1.98-.05 2.95.11 1.6.27 3.16.3 4.53-.63 1.58-1.07 2.66-.34 3.67.81 1.12 1.27 1.97 3.07 3.37 3.76 3.87 1.9 5.05 5.7 6.52 9.04 1.28 2.91 2.07 5.84 5.42 6.91-.77 1.79-2.42.1-3.14 1.58 1.39 1.32 2.47 2.98 3.56 4.62.07.14.14.27.2.41 1.12 2.18 3.87 3.37 3.91 6.33-1.64-.16-3.17-.32-5.62-.56 4 3.25 3.41 7.93 6.27 10.88 1.33 1.37-.82 3.98.79 4.68 1.53.66 3.47.48 4.8 1.87-.48 1.02-1.42 1.29-2.4 1.49-.7.15-1.18.34-1.34 1.28-.38 2.22-.82 4.37.32 6.5.54 1 1.17 2.03 1.12 3.19-.15 3.52 1.57 6.23 3.61 8.84.01.01.09.1.25.26 3.27 2.03 3.37 2.31 2.18 5.68v.06c-1.43 2.98 1.54 4.6 2.19 6.94.05.19.44.28.67.42.53-.11.55-.55.62-.96.07-.44.21-.82 1.18-.71 1.06 2.42 1.02 5.16 1.43 8.29-2.82-1.01-4.13-3.18-6.03-4.53-2.36-1.68-4.57-1.05-6.94-.66.12 1.33.82 1.87 1.48 2.37 3.87 2.95 6.78 6.7 9.11 10.91.96 1.74 1.82 3.53 2.74 5.29 1.81 3.46 3.05 3.58 5.51.51.43-.54.96-1.18 1.02-1.81.18-2.07 1.67-3.22 2.9-4.57.96-1.05 1.96-2.06 2.9-3.12.93-1.05 1.43-2.19.27-3.39-1.49-1.54-1.47-3.56-.94-5.21.71-2.21.86-4.28.1-6.46 1.59-.23 1.78 1.76 3.27 1.32 1.38-4.05 1.47-8-1.34-11.66-1.07-1.39-.5-2.73.38-3.91.67-.9 1.62-1.57 2.35-2.44 1.48-1.76 1.95-3.47.58-5.76-2.1-3.52-3.74-7.32-5.56-11-.25-.51-.42-1.06.64-1.38 1.76 2.83 3.56 5.72 5.47 8.78.74-1.35-.07-2.24-.06-3.2.03-2.52-1.12-5.11.06-7.55.82-1.7.33-2.96-.58-4.33-.96-1.45-1.4-2.99-1.25-4.82.43-5.22-.89-10.07-3.91-14.33-1.5-2.12-1.73-4.28-1.41-6.69 2.39.45 1.37 3.2 2.81 4.19.28-.14.43-.18.52-.27.33-.36.21-.75.1-1.17-1.36-5.28-4.86-9.83-4.94-15.6-.02-1.68-.23-3.29-.04-5.16 2.37 1.51 3.01 3.67 3.27 5.7.26 2 1.1 3.79 1.42 5.73.3 1.85 1.41 2.68 3.21 2.73-.04.13.03.25.2.36 1.69.36 2.06 1.68 2.24 3.12l.06.19c.17-.67.64-1.43.47-2.01-1.12-3.89.03-7.93-.77-11.78-.52-2.43 1.2-1.71 2.41-2.13zM294.46 110.92c.04-.1.46-.17.65-.1.2.07.34.32.51.49-.19.11-.38.21-.56.32-.36-.11-.77-.22-.6-.71zm-10.6.67c-.65.11-1.55.15-1.56-.83 0-.81.76-1.04 1.47-1.14 1.55-.2 2.98.25 4.92.91-1.96.44-3.38.81-4.83 1.06zM169.65 267.75c-.46-1.67-.32-3.24.77-5.28 1.09 2.34.45 3.85-.77 5.28zm206.93 44.8c-.92-.12-1.41-.68-1.83-1.97 1.18.65 1.98.92 1.83 1.97zm-14.34-15.96c.64-.27 1.39-.31 1.89.35.36.48.24 1.03.06 1.58-.79 2.38-1.76 2.69-5.93 1.48 1.29-1.58 2.43-2.74 3.98-3.41zm-8.74 5.52c5.85.29 11.39 1.64 16.89 5.5-1.19 0-1.49.07-1.73-.01-2.62-.88-5.05-1.37-8.06-.98-3.73.49-7.79-.37-11.74-1.5.68-2.84 2.62-3.11 4.64-3.01zm-56.69 3.73c.26-.01.52.11.83.19-.61.49-1.3.53-1.77.06-.15-.15.59-.23.94-.25zm-39.52-18.07c.41.13.78.37.76.81-.02.48-.48.63-.84.47-.32-.15-.71-.5-.75-.8-.04-.46.42-.53.83-.48zm-9.18 19.15c-.12.65-.73.85-1.3.88-4.57.25-8.84 2.02-13.3 2.63-3.2.43-5.84 2-8.94 2.84 2.83-3.55 6.86-5.22 10.91-6.79 2.77-1.07 5.68-1.82 8.7-1.71.97.03 1.97.22 2.9.52.67.22 1.18.82 1.03 1.63zm-65.38-130.86c.06-.13.46-.24.62-.16.17.08.24.38.36.59-.18.14-.38.41-.54.39-.45-.07-.62-.43-.44-.82zm-3.44 110.75c-.07.2-.35.34-.53.5-.06-.23-.22-.5-.16-.69.07-.2.34-.33.53-.49.06.23.22.5.16.68zm-.59-73.38c-.6-.08-1.03-.43-1.04-1.07-.01-.49.3-.73.8-.7.58.13 1.03.43 1.04 1.08.01.49-.33.76-.8.69zm1.05-31.91c-.12-.58.22-1.06.8-1.33.86-.05 1.16.6 1.39 1.24.19.54.19 1.22-.44 1.39-1 .26-1.56-.41-1.75-1.3zm1.32 24.55c.27.28.56.61.64.97.07.29-.3.4-.56.15-.28-.27-.49-.6-.69-.86.12-.42.36-.52.61-.26zm4.65 30.81c-1 .3-1.46 3.15-1.47 5.05-.01 1.82-.04 3.7-1.88 5.8-1.2-3.42-1.19-6.41 0-9.09.89-2.01.62-3.65.36-5.66-.56-4.35-1.93-8.57-2.03-13.01-.08-3.5.95-6.61 2.22-9.68 1.35.12 1.4.96 1.68 1.79 1.47 4.33 1.01 8.49-.7 12.66-.73 1.77-.29 3.62 1.34 6.06.06-2.45.1-4.14.15-5.82.02-.61.21-1.18.92-1.17.66.01.94.57 1.02 1.15.3 2.24.91 4.53.72 6.73-.16 1.77.86 4.22-2.33 5.19zm7.57-85.35c1.31-.74 2.61-1.36 3.68.37a8.51 8.51 0 0 1-3.68-.37zm5.89 2.5c-.03.24-.69.66-.96.59-1.46-.35-1.01-1.52-1.05-2.48.7.62 2.18.44 2.01 1.89zm2.12-5.36c-.41.35-.87.63-1.42.45-.31-.1-.33-.4-.09-.64.4-.41.91-.52 1.44-.39.35.08.36.33.07.58zm8.36 55.5c-.17.45-.74.45-1.07.21-1.49-1.09-2.94-2.24-4.41-3.37 2.17-.06 3.78.94 5.31 2.05.22.16.29.8.17 1.11zm3.4 1.96c1.96 0 2.88.5 3.45 1.75-1.01-.46-2.33-.13-3.45-1.75zm7.11-63.68c-.21-3.1 1.28-5.5 2.86-7.77.54-.78 1.77-.29 2.72-.09-1.84 2.64-3.71 5.25-5.58 7.86zm5.58-7.93c-.16-.16-.32-.31-.46-.48-.66-.81-.94-1.66-.13-2.53.15-.16.59-.3.71-.2 1.17.88-.19 1.64-.16 2.48.02.24.03.48.04.73zm2.04 66.77c-.44-.03-.51-.24-.18-.36.24-.09.54-.02.81.01.06.01.11.15.16.24-.26.04-.53.13-.79.11zm3.85-72.26c-.24.03-.7-.08-.72-.19-.1-.48.27-.71.68-.83.25.1.66.14.71.3.19.55-.28.68-.67.72zm5.09-.79c-.6.11-.57-.41-.45-.81.12-.41.39-.78.87-.72.14.02.23.41.38.71-.25.27-.49.76-.8.82zm12.36-2.58c.47-1.4 1.46-1.6 2.61-1.54-.97.26-1.32 1.57-2.61 1.54zm10.22 4.06c-.4-.07-.57-.3-.4-.6.55-.97 1.08-1.99 2.88-1.9-.64 1.41-1.5 2.05-2.48 2.5zm26.89 24.26c.23.02.44.17.66.26-.23.08-.47.24-.7.23-.27-.01-.77.22-.68-.38.02-.08.48-.14.72-.11zm-1.76-25.71c.08-.45.38-.72.83-.55.4.16.56.56.42.97-.13.37-.37.71-.97.53-.32-.17-.35-.56-.28-.95zM274.6 122c-.53 1.5-1.59 1.09-2.38 1.33.34-1.3 1.23-1.3 2.38-1.33zm-6.4 58.69c6.08-1.9 11.59-3.06 17.29-.91-5.57.05-11.05 1.82-17.29.91zm12.08 2.39c-.55.16-1.23.09-1.38-.55-.21-.93.6-1.34 1.26-1.29 2.61.21 5.2.56 7.81.86-2.69.62-5.2.27-7.69.98zm11.27-57.53c-.39.05-.94.1-.97-.41-.01-.21.58-.45.85-.64.35.12.75.15.81.3.19.57-.29.69-.69.75zm1.25 28.48c-.34-.09-.46-.48-.19-.64.62-.36 1.31-.46 1.97.01-.4.8-1.07.82-1.78.63zm3.56 37.68c1.31-.38 2.25-.65 3.2-.93-.6 1.18-1.54 1.46-3.2.93zm3.21-.93s.01 0 0 0l3.19-.3c-1.03 1.01-2.11.73-3.19.3zm.52-33.27c.95-.35 1.8-.59 2.74 0-.95.44-1.8.42-2.74 0zm3.8-3.03c-.22-.1-.44-.19-.65-.29.24-.08.49-.23.73-.23.22.01.44.18.66.28-.25.08-.49.16-.74.24zm9.19-32.36c2.23-.26 4.5-.16 6.68-.96 1.16-.42 2.49-.4 3.59.83-5.71 2.45-11.78 2.52-17.39 5.36 1.21-3.96 3.97-4.86 7.12-5.23zm10.74 31.35h-2.59c.97-.62 1.77-.45 2.59 0zm-7.5-23.27c-.15.38-.47.61-.88.56-.2-.18-.37-.35-.54-.51.29-.23.55-.57.88-.68.49-.15.73.16.54.63zm-2.8 28.28c.66-.5 1.3-.15 1.98-.03-.67.32-1.31.45-1.98.03zm1.84 17.61h9.69c-3.04 1.78-5.85 3.5-9.69 0zm37.29-53.59c-4.02.99-7.35 1.88-10.85 1.65 3.26-1.45 6.54-2.56 10.85-1.65zm-10.47 3.17c.25.03.6.05.71.21.13.19-.12.38-.48.35-.24-.06-.61-.04-.7-.19-.13-.22.12-.42.47-.37zm-.62 2.01l.5.47c-.17.15-.34.43-.51.43-.17 0-.33-.28-.5-.44l.51-.46zm-1.05 5.66c2.23-1.16 4.59-1.83 7.11-1.84-.72.85-1.7 1.32-2.69 1.75-1.99.86-4.48.7-5.69 3.32-.65-1.85.13-2.64 1.27-3.23zm-2.32-6.6c-1.57 4.24-4.34.33-6.39.67 2.07-.22 4.15-.44 6.39-.67zm-2.02 9.41c-.09.64-.57.89-1.2.87-.44-.1-.85-.35-.79-.8.08-.64.62-.87 1.22-.84.46.02.84.29.77.77zm-5.95 5.92c3.47-3.84 7.43-4.26 12.32-4.5-4.12 2.4-7.78 3.65-12.32 4.5zm12.35 1.89c1.34-.44 2.4-.43 3.97-.06-1.55.33-2.61.44-3.97.06zm3.89 15.28c1.15-.58 1.82-1.17 2.94-.55-.73.89-1.55.98-2.94.55zm1.4-27.83c.04-.1.09-.2.13-.3 1.57-3.59 1.57-3.59 4.86-.78-1.69.77-3.23 1.37-4.99 1.08zm4.84 2.55c-.19.07-.47-.11-.74-.19.5-.65 1.16-.25 1.74-.3-.01.79-.66.37-1 .49zm14.69-13.83c1.98.42 3.95.3 5.95.19-2.03 1.16-4.04 1.26-5.95-.19zm2.74 74.25c1.78-.41 2.58.06 3.31 1.13-1.31.33-1.91-.6-3.31-1.13zm7.15-70.83c-.12.03-.28.03-.37-.03-.24-.16-.14-.3.25-.3.24 0 .48.07.78.12-.25.08-.45.16-.66.21zm6.49 21.53c-.34.01-.85.16-.88-.38 0-.12.66-.26.93-.36.35.12.81.22.8.29-.03.55-.52.43-.85.45zm10.14-8.6c-.26.56-.78.91-1.37.77-3.1-.73-6.26-1.27-9.85-2.69 3.21-1.78 4.96 1.08 7.29.9.24-1.07-1.14-.91-1.33-1.93 1.88-.43 3.43.2 4.81 1.45.44.39.73.9.45 1.5zm7.39 6.58c-.48-.19-1.05-.33-1.39-.68-.35-.36-.04-.74.43-.74.56.01 1.02.29 1.26.84-.1.21-.28.59-.3.58zm-3.48-4.52c-1.1-1.26-1.53 1.76-2.11.15-.31-.86-.03-2.19.99-2.54 2.09-.73 4.15-1.41 6.53-.79 2.13.56 1.42 2.32 2.05 3.49-2.54 1.38-5.18 2.29-7.46-.31zm20.06 47.05c.45-.16.8.05.73.56-.03.19-.35.45-.55.47-.19.01-.39-.27-.59-.42.13-.21.22-.54.41-.61zm-2.64-27.5c.41-.09.77.08.95.51-.14.18-.34.53-.42.5-.35-.12-.66-.34-.98-.53.15-.17.27-.44.45-.48zm2.11 10.34c-1.76-.22-2.77-.9-4.25-2.7 2.3.49 3.53.83 4.25 2.7zm-1.92 22.8c-.16.37-.42.69-.49.81-.74-.04-.95-.27-.78-.55.2-.32.54-.63.88-.76.28-.11.52.2.39.5zm-8.17-28.32c1.43-.86 1.96.34 3.35 1.29-1.87.15-2.64-.48-3.35-1.29zm3.06 42.99c-.38.17-.77.12-.78-.39 0-.1.39-.22.6-.33.23.07.46.14.69.22-.17.16-.31.41-.51.5zm1.9-6.39c-.11-.03-.23-.54-.13-.68.66-.95 1.57-.79 2.49-.55-.67.64-1.2 1.56-2.36 1.23zm.51 2.4c1.08-.56 1.08-.56 2.78.03-1.33.56-2.07.46-2.78-.03zm4.1-2.89c-.65-.67-1.31-.87-2.13-.79-.35-1.63 1.31-1.86 2.07-2.64.75-.76 1.07.43 1.56.77.85.59.89 1.36.19 2.08-.45.44-1.03 1.25-1.69.58zm1.06 59.07c.85.78.69 1.65.5 2.53.05-.85-.95-1.53-.5-2.53zm.5 2.74c1.66.68 2 2.1 1.97 3.66-.03 1.36-.18 2.71-.26 4.08-1.48-2.38-1.35-5.11-1.71-7.74zm1.77 16.43c-.2-.14-.32-.42-.41-.66-.11-.33.11-.67.33-.54.31.17.5.56.69.8-.11.44-.34.59-.61.4zm.68-113.09c-.11-.05-.25-.14-.28-.24-.09-.3.05-.47.4-.51.14.15.42.31.43.48.02.29-.25.4-.55.27zm.16-3.33c1.43.46 2.33.74 3.24 1.01-.98.34-1.97.54-3.24-1.01zm.65 120.62c1.87.89 2.28 2.04 2.75 3.74-1.74-.69-2.21-1.85-2.75-3.74zm3.62.76c-.09-.29-.29-.63-.28-.97.01-.34.31-.39.54-.1.15.2.28.44.32.68.04.32-.16.46-.58.39zm5.49-9.99c.83 1.67 1.1 2.81.01 4.31-1.14-1.52-.91-2.66-.01-4.31zm1.77 30.45c-1.46-1.8-.87-3.47 0-5.14v5.14zm.16-8.8c-1.67-.43-3.02-.35-3.32-2.31-.23-1.47-1.22-2.83-1.94-4.2-.4-.76-.94-1.5-.7-2.37.25-.88.15-2.19 1.38-2.35.98-.12 1.45.86 1.63 1.67.71 3.14 3.11 5.75 2.95 9.56zm2.82-19.62c.44-.21.69.08.82.5-.07.23-.07.59-.22.66-.43.21-.74-.06-.8-.49-.03-.22.05-.6.2-.67zm-1.72-9.42c1.18.73 1.67 1.49.9 2.89-.75-.88-1.23-1.65-.9-2.89zm1.75 27.75c-1.43-2.93-1.42-5.86-2.01-9.14 3.98 4.91 3.98 4.91 2.01 9.14zm2.11-9.81c-1.7-2.01-4.05-3.16-4.26-6.16 4.59 1.99 4.59 1.99 4.26 6.16zm4.04-23.11c.88-.12 1.14.58 1.44 1.19-.12.25-.2.66-.34.68-.86.11-1.21-.49-1.38-1.2-.04-.21.15-.66.28-.67zm-2.33 48.09c.8.04 1.1.7 1.23 1.34-.06.81-.54.95-1.15.89-.65-.06-.99-.46-.99-1.09 0-.59.22-1.17.91-1.14zM306.21 568.35c1.3-1.49 3.48-2.31 2.56-4.88-.29-.8.86-.81 1.55-.94 3.85-.77 4.89-2.24 4.69-6.54-.07-1.61 1.31-1.79 2.28-1.94 2.21-.34 4.04-1.18 5.51-2.89 2.39-2.78 2.04-6.02-1.06-8.07-1.31-.87-1.88-1.62-.63-3 1.56-1.72 1.25-3.84.24-5.51-.99-1.63-3.07-1.46-4.7-1.01-4.9 1.36-9.93.8-14.88 1.21-.81.07-1.73-.15-2.46-.51-2.29-1.11-4.68-1.03-7.1-.89-.85.05-2.03.52-2.48.13-3.15-2.69-7.75-2.5-10.67-5.5-1.1-1.13-2.19-2.37-3.7-2.79-5.04-1.41-7.85-5.77-12.29-8.7 2.99-2.15 6.12-1.94 9.01-1.76 3.15.19 6.07.68 8.6-1.96.78-.82 2.33-1.14 3.56-1.24 4.48-.36 8.9-1.92 13.48-.66 2 .55 3.98.13 5.72-1.01 1.71-1.11 3.45-1.26 5.25-.4 2.04.97 4.29 1.07 6.26.5 5.18-1.51 10.25-1.34 15.16.22 1.05-.71.74-1.7 1.06-2.46.17-.4.37-.8.85-.8.66 0 .95.48 1.15 1.05.5 1.43-.3 3.15 1.13 4.65 1.39-1.46-.71-3.33.84-4.81 2.77 1.44 3.61 3.83 3.06 6.78 1.71.36 2.8-.42 3.84-1.08 3.02-1.91 6.31-2.87 9.84-3.33 2-.26 4.23-.19 5.61-2.42.71-1.15 2.9-.39 2.66.89-.4 2.1.15 3.81.95 5.62.36.82-.25 1.63-.74 2.34-1.5 2.21-.07 3.69 1.27 5.22 1.33 1.52 2.8 1.55 4.6.88 4.71-1.75 8.62-4.81 13.24-8.03-.49 2.11-1.59 3.1-2.61 4.08-14.31 13.8-27.59 28.64-42.27 42.08-1.46 1.33-2.03 3.74-4.68 3.76 4.35-6.18 10.33-10.92 15.14-16.85-1.47-.75-2.09.3-2.78.84-7.07 5.48-13.98 11.19-20.44 17.36-3.02 2.88-6.23 3.56-9.98 2.98-1.84-.27-3.6-.8-5.64-.61zM336.82 442c-2.28-1.07-5.73.38-9.15-1.22-3.17-1.48-7.27.02-10.82.98-5.46 1.47-10.96 2.9-16.56 3.21-3.6.2-7.36-.64-10.89-1.59-9.1-2.44-18.44-3.07-27.73-4.07-.14-.01-.32-.19-.39-.14-3.89 2.36-7.43 1.01-11.06-.8-.86-.43-2.22.12-3.34.25-.85.09-1.7.38-2.53.31-1.73-.15-3.62-.63-4.09-2.43-.41-1.58 1.16-2.33 2.44-3.06 1.34-.77 2.57-1.76 3.81-2.7 1.57-1.19 3.01-1.34 4.57.1 2.65 2.45 5.7 2.66 9.12 1.75 4.79-1.28 9.57-2.73 14.63-2.54.7.03 1.52.07 2.1-.24 7.1-3.8 14.24-1.18 21.36-.19 1.27.18 2.59.72 3.75.13 2.94-1.51 6.32-1.52 9.3-2.97 2.73-1.33 5.8-1.19 8.8-.92 5.82.51 11.49 1.86 17.13 3.27 4.86 1.21 9.56.98 14.08-1.19 1.26-.6 2.46-.53 3.73-.43 1.76.15 3.5.38 3.87 2.56.26 1.53-1.53 3.94-3.29 4.47-.94.28-1.91.51-2.88.65-4.71.7-8.14 3.85-11.97 6.22-1.01.61-1.89 1.25-3.99.59zm-54.55-7.97c.21-.16.53-.28.59-.49.1-.32-.17-.51-.52-.37-.24.1-.54.27-.61.48-.09.3.18.45.54.38zM295.58 417.23c-2.93-2.52-2.93-2.52-1.52-5.05 1.39-2.49 1.12-4.27-1.38-5.73-2.47-1.44-4.67-3.1-6.77-5.04-1.98-1.82-4.2-2.81-7.34-1.59-3.69 1.44-8.11-1.51-9.34-5.4-.32-1.01-.32-1.93.34-2.82 1.2-1.62 6.2-3.31 8.15-2.49 2.99 1.26 5.97 3.95 8.81 3.78 2.91-.18 5.99-1.14 9.09-1.26 2.4-.09 4.78-.31 7.21-.07 2.25.22 4.49-.22 6.49-1.56 6.2-4.14 12.43-2.85 18.54.19 3.69 1.83 4.17 4.85 1.34 7.89-1.28 1.37-2.27 2.86-3.23 4.45-.93 1.53-1.9 3.28-4.32 2.57-.9-.26-1.59.44-2.22 1.02-.92.83-1.84 1.38-2.96.32-.43-.41-1.26-.76-1.51-.34-1.64 2.8-4 1.01-6.08 1.11-2.81.14-5.35 1.77-8.26 1.63-.72-.03-1.14.88-1.18 1.59-.2 2.92-2.47 4.58-3.86 6.8zM264.15 636.31c-.34-1.35-.07-3.9-1.04-3.85-3.85.17-2.05-1.57-1.42-3.13.63-1.55.03-3.03-.34-4.56-.6-2.46-1.68.2-2.6-.44 1.36-3.43.83-6.78-1-9.99-.49-.86-.92-1.77-.86-2.81.27-4.78-1.65-9.02-4.15-12.75-3.13-4.67-3.66-10.02-5.18-15.12-.3-1.01.02-2.06.96-2.62.89-.54 1.59.2 2.24.72.77.63 1.86 1.27 1.87 2.23.05 3.65 2.89 5.68 4.55 8.4 1.84 2.99 4.5 5.54 5.07 9.24.09.59.57 1.16 1.13 1.12 2.24-.18 3.15 1.61 4.5 2.8 2.17 1.9 3.68 3.95 2.5 7.04-.1.26.3.71.7 1.56 3.54-3.24 8.41-3.36 12.07-6.13.33-.25.73-.45 1.13-.58.59-.18 1.11.01 1.44.56.33.56.3 1.12-.2 1.52-1.8 1.43-3.78 2.67-6.05 3-3.11.46-5.71 2.38-8.82 2.8-1.54.21-1.79 1.72-1.9 2.99-.41 4.65-.44 9.26.79 13.87 1.24 4.63 2.01 9.38 3.15 14.86-2.24-1.34-3.88-2.29-5.48-3.31-.3-.19-.56-.66-.58-1.01-.13-3.81-.12-3.81-2.58-6.51l.1.1zM290.84 473.89c3.18-3.82 3.35-5.02 1.6-7.57-.85-1.25-1.96-1.99-3.49-2.16-1.36-.15-2.86.01-3.83-1.14 0-.67.28-1.04.7-1.05 4.82-.11 9.58-1.2 14.44-.86 1.11.08 2.31.04 3.36-.29 2.66-.82 5.23-1.27 7.8.27 1.42.86 3.05-.5 4.86.33-1.48 1.78-3.55 1.96-5.27 2.75-.66.31-1.4.61-1.38 1.42.03.97.8 1.49 1.66 1.71 1.82.47 3.66.53 5.41-.32 1.52-.74 3.02-1.53 4.52-2.31 2.07-1.07 3.1-.48 3.17 1.82.04 1.18-.55 2.17-.95 3.23-1.12 2.93-.44 3.9 2.66 3.77.48-.02 1-.7 1.34.13.29.71.15 1.44-.52 1.89-1.19.79-2.46.47-3.69.09-5.34-1.68-10.56-2.23-16.25-.85-5.01 1.21-10.32.03-16.14-.86zm23.32-2.87c-.28.16-.47.27-.66.38.22.29.43.6.69.84.05.04.35-.2.54-.31-.18-.3-.38-.6-.57-.91zM298.86 93.37c-.16.71-.96.44-1.51 1.18 2.26.5 4.49.19 6.6.8 2.79.8 5.85.4 8.36 2.49 1.02.85 2.77.48 4.16.24 3.19-.54 6.17.04 9.45 1.5-2.14.38-3.86.39-5.57-.23-.4-.14-.87-.34-1.24-.24-4.16 1.06-8.4.29-12.59.64-4.73.39-9.29 1.76-14.06 2.18-4.3.38-8.46 2.23-12.83 2.82-3.59.48-7.28-.52-10.8.86-2.11.83-4.23 1.69-6.52 1.83-.93.06-2.32.5-2.48-.81-.14-1.1-.16-2.56 1.55-3.07 5.93-1.76 11.07-5.39 17.14-7.03 3.35-.9 6.68-2.01 10.07-2.93 3.51-.97 6.82-1.1 10.27-.23zM448.84 354.06c-1.44-4.99-3.96-9.47-4.63-14.61-.33-2.53-.85-5.04-1.44-7.52-.91-3.83 3.16-8.63 7.14-8.29 1.5.13 2.69.84 3.55 2.08.16.23.29.49.42.74 2.84 5.38 1.37 21.14-2.42 25.91-.52.65-1.06 1.34-2.62 1.69z"/>
<path class="st0" d="M314.71 587.38c-9.7 2.15-18.87 5.7-27.99 9.46 8.04-5.42 16.99-9.01 25.72-12.97-.61-1.41-3.74-.48-1.88-2.93.08-.1.12-.3.07-.41-1.97-4.76 1.93-6.56 4.85-8.73-1.14 1.12-2.36 2.17-3.41 3.37-1.72 1.97-.85 4.92 1.68 5.77.65.22.87-.6 1.32-1.03 1.3.82.45 2.38 1.14 3.44.52.79.28 2.2 1.28 2.58 3.18 1.19 2.84 4.54 4.33 6.74.85 1.26.14 2.18-1.08 2.67-2.11.85-4.24 1.65-6.38 2.38-1.19.41-2.36.16-2.93-1.04-.72-1.52.65-1.89 1.61-2.44 1.94-1.11 4.14-1.77 5.7-3.6-14.75 5.34-29.04 11.85-44.2 17.75.28-2.68 1.65-3.4 3.1-3.78 4.84-1.27 9.24-3.67 13.72-5.73 6.07-2.79 12.22-5.27 18.52-7.44 2.06-.69 3.67-2.07 4.83-4.06zM440.07 357.76c.83 4.92-2.69 8.47-4.89 12.5-.3.55-1.08.91-1.7 1.22-2.68 1.35-3.89.68-3.45-2.19.35-2.25-.03-4.01-1.2-5.99-1.33-2.26-.79-5.16-.16-7.41.64-2.3 1.02-4.66 1.65-6.96 1.18-4.31 2.63-4.71 6.16-1.85 3.43 2.78 3.6 6.53 3.59 10.68zM227.15 555.27c-2.64-9.38-5.3-18.7-6.91-28.31 1.98 1.86 2.51 4.41 3.73 6.58 2.29 4.09 5.03 8.02 6.65 12.36 2 5.4 4.88 10.14 8.22 14.72.57.78.9 1.78 1.15 2.73.79 2.97 2.3 5.5 4.5 7.6 1.41 1.34 1.92 3.12 2.61 4.82.5 1.24-.24 1.74-1.24 2.25-1.13.57-1.56-.08-2-.85-.84-1.48-1.79-2.92-2.44-4.49-1.64-3.98-5.58-6.33-7.11-10.42-1.49-3.99-3.28-7.86-5.02-11.75-.38-.84-.55-1.95-1.69-2.29-.88 2.3.99 4.72-.45 7.05zM394.36 496.79c.71 2.29-.22 3.77-.89 5.31-4.95 11.45-12.04 21.49-20.33 30.72-9.38 10.45-19.18 20.5-28.94 30.59-1.22 1.27-2.36 2.76-5.38 2.84 3.43-3.78 6.27-7.03 9.24-10.15 10.06-10.58 20.38-20.92 29.57-32.3 3.12-3.87 6.01-7.9 8.63-12.12.6-.96 1.35-1.94 1.55-3.01.89-4.5 3.69-7.88 6.55-11.88zM270.66 621.66c.31-.05-.18-.31-.3-.94-.13-.64.27-1.09.88-1.23 6.27-1.39 11.91-4.45 17.9-6.59 6.84-2.44 13.48-5.22 19.77-8.83 4.19-2.41 8.94-3.64 13.02-6.28.86-.56 1.89-1.15 2.48.17.5 1.11 1.08 2.41-.01 3.57-.28.29-.71.49-1.11.61-10.38 3.08-19.65 8.89-29.94 12.16-3.8 1.2-7.52 2.54-11.08 4.34-3.35 1.68-7.06 2.05-11.61 3.02zM328.27 601.27c-.3 2.32-1.95 4.22-1.98 6.69-.01 1.01-1.46 1.15-2.38 1.48-10.13 3.63-20.02 7.96-30.49 10.63-2.19.56-4.31 1.37-6.45 2.12-2.48.87-2.43.9-2.9 3.97-.1.65-.65 1.24-.95 1.75-.43.23-.6.11-.75-.24-1.72-3.95-2.87-4.1-5.63-.7-.55.68-.98 1.47-2.01 1.13-.93-.31-1.14-1.23-1.36-2.02-.29-1.08.62-1.56 1.37-1.83 4.39-1.59 8.74-3.4 13.24-4.59 11.59-3.05 22.39-8.04 33.19-13.07 1.94-.9 3.82-1.94 4.82-3.99.52-1.08 1.35-1.36 2.45-1.16-.01.01-.17-.17-.17-.17zM307.22 643.7c5.38-6.11 6.74-13.23 5.32-21.06-.15-.84-.33-1.67-.47-2.51-.37-2.21-.36-2.21 2.34-3.32 2.31 8.23 1.79 16.04-2.97 23.44-2.39 3.72-3.46 8.06-4.55 12.33-2.11 8.22-3.46 16.68-7.59 24.28-.97-.9-.05-1.71.19-2.44 1.4-4.21 1.74-8.61 2.4-12.95.88-5.78 2.36-11.39 4.59-16.79.24-.31.49-.64.74-.98zM256.76 670.56c-.52-.32-.93-.43-.95-.6-1.07-6.82-4-13.26-3.46-20.45.72-9.66.18-19.32-1.97-28.83-.09-.41-.18-.85.46-1.38 1.29 1.42.96 3.45 1.77 4.95 3.86 7.16 3.3 14.87 2.73 22.51-.51 6.87-.41 13.62 1.55 20.28.24.8.27 1.67.32 2.51.01.24-.22.5-.45 1.01zM383.01 539.47c-4.27 6.9-9.13 13.39-14.47 19.46-8.53 9.71-17.33 19.18-26.05 28.71-1.31 1.43-2.38 3.28-4.67 3.42l.18.17c-.28-1.82 1.03-2.83 2.06-3.95 8.13-8.83 16.27-17.66 24.42-26.47 5.38-5.81 10.49-11.84 15.31-18.13.92-1.2 1.55-2.76 3.3-3.1l-.08-.11zM331.37 347.19l-.17.07-.04-.04c-.18-.37-.5-.73-.51-1.1-.01-.54.53-.75.86-.41 3.33 3.39 8.19 3.56 12.13 5.75 4.08 2.28 8.9 2.82 13.62 2.79 7.72-.06 15.21-1.45 22.47-4.11 1.04-.38 1.99-1.13 3.29-.86.36.98-.51 1.11-1.04 1.34-12.15 5.19-24.63 7.39-37.72 4.2-3.75-.91-7.18-2.6-10.55-4.42-1.26-.67-2.49-1.47-2.34-3.21zM286.23 649.43c1.99 1.1 1.67 2.5 1.6 3.71-.18 2.98-.43 5.98-1.49 8.79-3.22 8.54-6.95 16.78-13.57 23.39-2.85 2.84-4.74 6.36-6.04 10.18-.24.7-.61 1.46-1.42 1.29-1.19-.25-.85-1.33-.7-2.09.38-1.87 1.59-3.3 2.75-4.74 6-7.42 11.46-15.17 15.05-24.11 1.06-2.63 2.24-5.17 2.78-8.01.51-2.64.63-5.32 1.04-8.41z"/>
<path class="st0" d="M255.38 704.14c.2-.67.5-1.34.6-2.03 1.08-7.42 4.29-13.87 9.51-19.14 5.12-5.16 8.39-11.39 11.5-17.77 1.13-2.31 1.73-4.8 1.97-7.37.07-.79-.07-1.67.99-2.59 1.31 4.01.25 7.37-1.28 10.68-2.93 6.35-6.67 12.18-11.06 17.62-4.31 5.34-7.92 11.08-9.97 17.7-.37 1.21-.82 2.47-2.27 2.87l.01.03zM348.35 567.18c3.7-2.87 6.37-6.74 9.63-10.05 6.83-6.93 13.36-14.15 19.62-21.6.88-1.04 2.15-1.9 2.13-3.51l-.06-.03c1.47 2.49-.48 3.99-1.75 5.54-6.99 8.52-14.08 16.95-21.81 24.82-2.07 2.1-4.36 4.03-5.82 6.67-.29-1-.9-1.65-1.94-1.84zM297.69 655.91c.08-.62.38-1.09 1.04-1.1 1.21 0 .85.84.65 1.46-.8 2.57-1.78 5.08-2.46 7.68-1.83 6.98-3.13 14.09-5.72 20.86-.82 2.13-.97 4.4-.88 6.69.04 1.17.49 2.5-.64 3.69-1.72-1.34-1.35-3.2-1.06-4.69 2.27-11.64 3.74-23.49 8.96-34.36.04-.07.08-.15.11-.23zM160.34 334.11c0-1.53-.02-2.1.01-2.66.05-1.01.15-2.09 1.19-2.54 1.06-.47 1.93.2 2.61.94 1.05 1.14 2.09 2.3 3.02 3.54.7.94 1.07 2.18.56 3.22a70.272 70.272 0 0 1-3.93 6.97c-.68 1.05-1.94.47-2.24-1.19-.56-3.07-.92-6.16-1.22-8.28zM262.85 679.12c-2.82-11.24-2.96-22.39-2.62-33.54 1.31-.56 1.75.31 1.97 1.06.32 1.08.55 2.23.53 3.35-.13 9.1.18 18.18 1.21 27.24.06.56-.07 1.12-1.09 1.89zM334.22 385.32c-1.22-6.87-2.68-13.66-.99-20.69 1.08 2.74 4.9 3.8 4.28 7.49-.04.27.21.66.09.83-2.59 3.71-1.44 8.39-3.38 12.37zM283.84 675.43c5.1-10.82 9.91-21.66 8.81-34.92 2.03 3.64 2.43 6.06 1.94 10-.64 5.13-2.52 9.88-4.66 14.53-1.69 3.66-3.59 7.19-6.09 10.39zM307.22 643.7c-.25.33-.5.67-.75 1-.47.51-.94 1.02-1.34 1.45-.75-.07-.82-.5-.68-.87 2.53-6.6 2.44-13.33 1.05-20.13-.14-.7-.25-1.4-.37-2.1-.18-1.09-.76-2.46.96-2.71 1.94-.28 1.3 1.4 1.47 2.36.27 1.53.39 3.1.67 4.63 1 5.55 1.04 11.02-1.01 16.37zM172.17 195.63c1.37.81 1.61 1.63 1.67 2.5.14 1.96-.01 3.91 1.12 5.75.69 1.12.07 2.45-1.32 2.5-1.67.05-2.81 1.08-4.72 2.19.77-2.72.76-4.97 2.83-6.29-.92-1.35-2.29-.57-3.42-1.25.5-2.39 2.9-3.28 3.84-5.4zM268.83 671.58c-1.08-4.83-.95-9.41-.94-13.89 1.25-.48 2.07-.1 2.5.67 1.33 2.35.46 10.26-1.56 13.22z"/>
<path class="st0" d="M297.69 655.91c-.03.08-.07.16-.11.23-.26.36-.66.66-.99.31-.63-.65 0-1.32.22-1.93 1.62-4.54 2.82-9.16 2.78-14.03 0-.42.03-.85.08-1.27.07-.6.35-1.09 1.02-1.09.73 0 .92.58.97 1.15.32 3.42-.05 6.76-1.29 9.98-.84 2.25-1.78 4.44-2.68 6.65zM271.75 698.15c.91-6.97 2.33-12.97 7.74-17.1-1.02 4.24-5.19 13.69-7.74 17.1zM221.25 357.94c6.16-1.07 11.41.85 16.97 1.7-3.22 1.62-10.8.88-16.97-1.7zM288.95 671.31c-1.63 5.22-2.97 9.54-4.34 13.84-.21.67-.48 1.34-.83 1.94-.4.68-1.11.94-1.8.58-.62-.32-.39-1.01-.23-1.53.94-3.13 2.19-6.13 3.69-9.02.91-1.75 1.54-3.65 3.51-5.81zM447.02 228.36c-.04.13.03.25.2.36.75 1.04 1.5 2.08 2.24 3.12l.06.19c1.07-.19 2 .48 1.52 1.31-1.71 2.94-1.53 5.82-.02 8.75-1.56.33-1.72-.69-1.9-1.41-.92-3.57-1.78-7.16-2.57-10.77-.1-.45.3-1.02.47-1.55zM256 356.17c-4.79 3.24-9.56 4.19-13.38 2.55 4.96-.58 9.09-1.96 13.38-2.55zM338.78 660.77c.12 1.94-2.83 6.07-5.19 6.82-.57.18-1.18.18-1.44-.41-.13-.3-.02-.94.21-1.13 2.12-1.71 3.83-3.72 4.96-6.21.09-.19.46-.38.69-.36.49.04.68.44.77 1.29zM280.9 702.89c-.11 1.31-1.1 2.47-.64 4.59-1.61-1.46-3.07-1.47-4.58-1.34 1.07-3.89.38-4.99 5.22-3.25zM273.26 652.31c-3.32-1.62-5.37-4.38-8.23-6.73 4.02-.07 7.59 2.91 8.23 6.73zM378.77 553.96c0-.28-.11-.62.02-.82 3.02-4.84 6-9.71 10.19-13.67l-.1-.1c-2.89 5.19-6.27 10.04-10.21 14.5 0-.01.1.09.1.09zM273.06 655.86c-2.67-2.11-6.57-2.87-7.22-7.01 3.21 1.36 6.87 4.89 7.22 7.01zM363.22 110.17l-13.37-1.35.12-.92c4.57-.61 8.97.04 13.14 2.37l.11-.1zM328.27 601.27l.17.19c1.04-2.68 3.38-4.32 5.11-7.24.08 4.24-1.6 6.22-5.28 7.05zM177.15 355.9c-.06 1.07.25 2.47-1.22 2.75-1.25.24-1.68-.87-1.72-1.91-.04-1.21-.35-2.82 1.37-3.02 1.17-.13 1.39 1.16 1.57 2.18zM312.68 682.83c-.11-2.34-1.23-4.94 1.49-7.19.93 2.98.62 5.23-1.49 7.19zM244.81 112.59c-1.45.79-2.42 2.36-4.33 2.56 1.99-1.54.59-5.65 4.41-5.9.8 1.4-.14 2.4-.2 3.47l.12-.13zM421.39 289.89c.01.01.09.1.25.26 1.07 1.76 2.35 3.44 2.18 5.68v.06c-2.69-.7-3.42-3.2-4.26-5.26-.57-1.39.82-1.36 1.83-.74zM335.63 653c-.99 5.75-1.91 6.8-5.82 6.86 1.8-2.34 4.19-3.8 5.82-6.86zM344.09 653.14c1.78.59 2.36 1.63 2.53 2.94.1.72-.11 1.38-.75 1.8-.66.43-1.35.28-1.96-.08-.66-.38-.92-.95-.65-1.75.31-.9.53-1.83.83-2.91zM326.62 631.02c2.65-1.31 4.92-2.67 7.19-4.66-1.76 4.73-3.28 5.73-7.19 4.66zM270.01 713.29c-.37-2.47-.74-4.93-1.18-7.79 1.89 4.72 1.89 4.72 1.18 7.79zM292.1 626.54c-.04.74-.06 1.73-.97 1.47-1.58-.45-.8-2.1-1.17-3.17-.22-.62.34-1.08.96-.94 1.54.35.95 1.71 1.18 2.64zM321.01 674.74c-1.01-3.7-1.01-3.7-.51-6.52 1.01 2.3 1.01 2.3.51 6.52zM263.94 711.25c.09 1.69.39 3.14-.87 4.41-1.09-2.21-1.09-2.21.87-4.41zM255.38 704.13c.42 3.14 1.21 6.32-.93 10.05-.33-3.95 1.3-6.9.93-10.03v-.02zM304.04 682.9c.08 2.09 1.58 4.08.47 6.26-1.3-2.01-.24-4.18-.47-6.26zM169.9 193.04c.65-1.82 1.95-2.69 3.28-3.96-.15 2.87-.15 2.87-3.28 3.96zM424.44 172.9c1.8-.1 2.92.46 4.12.83-1.71 1.74-1.71 1.74-4.12-.83zM260.48 110.22c-1.31 2.44-2.72 3.01-4.91 3.65.95-2.32 2.32-3 4.91-3.65zM437.89 335.41c-.46 1.23-.98 2.66-1.51 4.09-.57-1.72-.79-3.35.73-4.61.26-.22.54-.07.78.52zM337.51 651.13c.45-1.92.45-1.92 2.12-3.19-.55 2.03-.55 2.03-2.12 3.19zM376.04 112.1c-1.95 1.06-3.33 1.01-5.03-.46 1.87-.77 3.24-.59 5.03.46zM303.52 115.13c.32-.68.38-1.07.53-1.11 1.45-.38 2.92-.69 4.45-.77-1.38 1.14-2.93 1.75-4.98 1.88zM429.11 193.07l-.22.32c.47-.6.93-1.2 1.4-1.81l-.04-.09c.25.93.55 1.86.73 2.81.14.75-.19 1.53-.93 1.62-1.1.13-1.3-.83-1.32-1.68 0-.38.25-.78.38-1.17zM379.72 532.02c2.46-.51 2.72-3.38 4.71-4.39-1.72 3.86-1.72 3.86-4.75 4.37l.04.02zM329.61 342.28l.22.3c-.23-.69-.42-1.6.65-1.39 1.24.25 2.06 1.29 2.81 2.79-1.61-.18-2.75-.69-3.68-1.7zM254.17 106.94c-.92 1.75-2.34 1.64-3.98 1.6 1.49-1.79 1.49-1.79 3.98-1.6zM435.79 188.73c-.04.72-.31 1.06-.75 1.11-1 .12-1.57-.48-1.78-1.37-.14-.61.2-1.13.86-1.11.97.03 1.32.85 1.67 1.37zM330.52 469.45c.35.21.54.26.56.35.26 1.05.45 2.11-.35 3.02-.08.09-.6-.03-.71-.2-.87-1.26-.2-2.19.5-3.17zM409.74 244.98c.07.14.14.27.2.41-.17.65-.36 1.55-1.23 1.02-.68-.41-1.08-1.53-.53-2.14.57-.63 1.13.23 1.56.71zM327.6 566.78c.09 1.68-.87 2.34-2.44 3.08.05-2.02 1.49-2.39 2.44-3.08zM264.05 636.21c.39 1.36 1.03 2.79-.77 3.65-.38.18-.84-.18-.99-.6-.62-1.75 1.26-1.95 1.86-2.95l-.1-.1zM424.77 329.2c-.47-2-.95-3.12-.39-4.5 1.1 1.14 1.01 2.3.39 4.5zM338 591.23l-.18-.17c.05.13.13.26.14.39.06 1.09-.32 1.88-1.5 2.02-.16.02-.51-.33-.52-.52-.06-1.45.72-1.94 2.06-1.72zM383.09 539.57c-.03-2.24 1.78-3.43 2.99-4.95-.56 1.9-1.77 3.39-3.08 4.84.01.01.09.11.09.11zM350.4 568.89c-1.32.29-1.92 2-3.7 1.87-.41-1.87 1.54-2.47 1.88-3.8.16 1.06.82 1.67 1.82 1.93zM319.22 551.81c-.42-.02-.97-.11-.92-.57.09-.91.93-.86 1.58-.91.44-.04.9.19.71.71-.21.57-.79.73-1.37.77zM311.44 101.5c1.06-.7 1.84-.88 2.64-.38.07.05.01.57-.12.65-.75.46-1.54.7-2.52-.27zM369.39 439.25c-.01.4-.22.89-.85.98-.47.07-.73-.29-.76-.73-.03-.58.14-1.11.8-1.17.44-.04.74.28.81.92zM395.75 127.15l.26.15c-.43-.03-.81-.2-.91-.64-.03-.15.24-.54.35-.53.39.02.79.12 1.15.29.46.21 1.22.59.86 1.06-.49.64-1.17.03-1.71-.33zM265.13 109.39c-.06.48-.44.62-.82.72-.38.1-.88.15-.88-.36 0-.26.44-.61.76-.76.36-.16.78-.08.94.4zM443.8 188.53c-.03.33-.23.51-.54.4-.56-.2-.95-.6-.98-1.22-.01-.33.24-.53.54-.43.57.2.86.66.98 1.25zM349.04 111.53c-1.32.77-2.45.6-3.76.23 1.21-1.09 2.36-.65 3.76-.23zM298.43 624.22c-.39.05-.56-.3-.64-.7-.08-.41.02-.84.44-.98.49-.16.73.2.76.64.03.41.02.82-.56 1.04zM240.11 577.97c-.15.18-.32.53-.46.52-.5-.02-.6-.47-.55-.86.02-.2.29-.54.42-.53.48.05.57.46.59.87zM442.95 181.93c-.16.46-.54.55-.91.38-.5-.23-.92-.61-.65-1.23.07-.17.47-.33.67-.29.56.14.88.54.89 1.14zM370.88 325.18c-.18.19-.33.49-.54.54-.42.09-.88-.03-.75-.6.04-.17.45-.36.69-.35.2-.01.4.26.6.41zM323.51 652.01c.51 1.25-.39 1.89-.68 2.72-.41-1.04-.05-1.85.68-2.72zM388.98 539.47c-.06-1.09.65-1.77 1.3-2.6.4 1.44-.66 1.87-1.4 2.5 0-.01.1.1.1.1zM237.3 570.89c.82.69 1.08 1.34.99 2.05-.03.25-.48.25-.69-.01-.47-.58-.41-1.2-.3-2.04zM308.19 666.6c.5 1.21.54 2.36-.71 3.78.32-1.49.55-2.58.77-3.69-.03-.03-.06-.09-.06-.09zM326.18 670.49c.43.69.4 1.79-.01 1.87-.61.12-.32-.79-.35-1.27-.02-.18.22-.38.36-.6zM358.61 323.08c.26.2.63.38.85.68.24.33.3.85-.32.77-.33-.04-.65-.46-.89-.77-.21-.27-.07-.53.36-.68zM314.2 689.77c.45-.22.63-.12.53.21-.08.24-.24.47-.41.67-.21.25-.64.22-.61.02.04-.34.34-.66.49-.9zM365.72 505.99c-.08-.2-.26-.42-.22-.6.06-.29.33-.33.56-.14.08.07.17.27.14.31-.13.17-.31.3-.48.43z"/>
<path class="st0" d="M430.29 191.59c.64.13 1.25-.7 1.88-.13.27.25.63.73.55.98-.24.8-.81.39-1.22.12-.44-.29-.82-.68-1.24-1.04-.01-.02.03.07.03.07zM284.28 468.9l-.4-.52c.19-.11.4-.33.56-.3.16.03.27.31.4.49-.17.11-.36.22-.56.33zM326.54 466.54c-.18-.16-.47-.3-.5-.49-.08-.41.07-.83.6-.73.16.03.35.42.33.64-.01.2-.27.39-.43.58zM426.38 379.61c-.31.03-.52-.12-.48-.44.03-.24.15-.51.32-.69.24-.25.53-.18.61.15.1.41-.01.78-.45.98zM427.73 171.06c.96-.15 1.9-.2 2.61.96-1.19.3-1.7-.75-2.5-1.05a.73.73 0 0 1-.11.09zM318.56 113.67c.07.42-.09.61-.42.56-.24-.04-.51-.15-.69-.32-.26-.24-.17-.59.14-.59.34 0 .68.24.97.35zM363.11 110.27c.26.07.54.12.79.22.24.1.54.21.68.4.19.27.01.53-.32.45-.23-.06-.44-.29-.61-.48-.17-.2-.28-.46-.42-.7l-.12.11z"/>
</svg>
