<svg id="Layer_1" data-name="Layer 1" xmlns="http://www.w3.org/2000/svg" viewBox="0 0 502.65 373.91"><defs><style>.cls-1{fill:#145374;}</style></defs><title>satellite</title><path class="cls-1" d="M215.2,267.78l3.64,1.73c1-2.08-.91-4.08.61-5.89,1.49,1.95.52,4.18.75,6.38l2.39,1.15c.35-2.14.67-4,1-6.06,1.32.36,1.39,1,1.2,1.91-.31,1.46-.55,2.93-.9,4.84.6-.42,1-.53,1-.74a15.42,15.42,0,0,0,1.06-7,8.62,8.62,0,0,1,0-2.38c.3-2,.34-2-.37-3.8.85-1,1.34-2.15.38-3.53-.27-.39,0-1.1-.16-1.63a13,13,0,0,0-.77-2.51c-.35-.77-1.24-1.46-1.25-2.2a31.93,31.93,0,0,1,.56-4.73,20.35,20.35,0,0,0,1.9,1.52,73.79,73.79,0,0,0,7.23,4.2c2.47,1.14,4.23,3.09,6.32,4.66,3.72,2.82,6.77,6.37,10.25,9.46a5.59,5.59,0,0,1,.79.89c1.22,1.66,2.49,3.29,3.62,5s2.21,3.68,3.26,5.55c1.45,2.55,2.87,5.13,4.19,7.5a28.63,28.63,0,0,1,3.41-.89A84.66,84.66,0,0,1,276.27,280a85.82,85.82,0,0,0,16.14-2c2-.4,4.13-.34,6.19-.57a4.48,4.48,0,0,1,4.23,1.71,2.34,2.34,0,0,0,2.05.9c4.81.07,9.62.25,14.72.41a11.66,11.66,0,0,1-5.1.78,23.07,23.07,0,0,0-10.86,2c1.25.16,2.51.42,3.77.47,2.57.11,2.58.07,4.55,2.31l-1.53.91c.08.14.14.37.23.39a18.89,18.89,0,0,0,3,.4c2.49,0,2.84.31,2.59,2.92-2.57-.79-3.48-.27-3.63,2.2-1.59-.13-3.17.25-4.42-1.48-.8-1.12-2.54-.42-2.85.94l-2.76.38,0,.53c3.42.49,6.85.93,10.25,1.49a30.78,30.78,0,0,1,4.83,1.22c1.41.46,2.61,1.58,4.26,1.14.14,0,.41,0,.44.07.76,1.76,3.05,1.53,4,3.17.82,1.44,2.07,2.63,2.94,4a3.72,3.72,0,0,1,.58,2.5,4.6,4.6,0,0,0,2.08,5.21,5.84,5.84,0,0,1,.85,1c.25-.11.49-.16.51-.25,1-4.56,2.6-9,2.55-13.78,0-1.41,1-2.59,1.72-3.81.06-.09.43,0,.86,0-.24,1.09-.47,2.12-.77,3.44l3.5,1.15,1.14-1.24c.65,2.38,1.69,2.75,3.47,1.28,2.87,3,3.17,3,6.11,1.47-.06.51-.11.94-.2,1.64,5.38,1.53,10.8,3.06,16.21,4.61,1.15.33,2.26.8,3.42,1.11.75.2,1.73.56,2.27.25,1-.57,1,.46,1.47.8,1.15-1.31.91-2.79.87-4.18,0-.29-.74-.55-1.28-.92l1.39-1.18-.59-.78a13.49,13.49,0,0,0,2.22-1.1,4.41,4.41,0,0,0,1-1.53c.06-.11-.19-.39-.44-.85l-1.17,2-2.43-2.34c.63-.41,1.3-.81,1.92-1.27,1.19-.87,2-.52,2.69.86a4.65,4.65,0,0,0,2,2.18,3,3,0,0,1,1.85,2.79,18.44,18.44,0,0,0,.56,2.42c1.94-.3,1.22-2.1,2.11-2.84l0,0v2.59c.87-1.42,1.24-4.41,1.21-8.75.15,0,.38-.11.44-.05,1.6,1.92,3.33.91,4.91.09a10.1,10.1,0,0,1,9.22-.13,7.41,7.41,0,0,1,2.29,1.64c1.81,1.91,3.49,4,5.31,5.85a13.1,13.1,0,0,0,5.05,3.56,9.43,9.43,0,0,1,1.62,1c.81.48,1.63.92,2.43,1.41s1.56,1,2.63,1.71c.55-.4,1.28-.95,2.05-1.47,1.33-.91,1.83-.64,2.91.53a18,18,0,0,0,3.7,2.87,19.21,19.21,0,0,0,3.2,1.29c-3.91,7.22-8.41,13.88-12.46,21,5.59,2.05,11.2,4.07,16.78,6.14s11.06,4.15,16.48,6.67l-1.67-.12c-2.47,8.1-4.81,16.22-7.43,24.26s-5.53,16-8.32,24l1.48,1.12a7.3,7.3,0,0,1-1.36,1,4.14,4.14,0,0,0-2.1,2.43c-3.84,8.88-7.74,17.73-11.62,26.59-.09.22-.21.43-.3.65-1.23,2.7-1.11,2.95,1.74,3.81s3.12,1.73,1.7,4.13c-1.18,2-2.48,3.89-3.7,5.85-.84,1.35-1.67,2.72-2.44,4.11-1.16,2.07-2.45,3.94-4.95,4.56-.39.1-.69.53-1.28,1,2.82,1.84,6,2.31,8.91,3.86l-1.54,3.93-3.79.6,0,.05a2.09,2.09,0,0,0-1.56-2.35c-1.09-.37-2.13-.86-3.19-1.3l.06-.29h8.13a1.56,1.56,0,0,0-1.1-.87c-1.49-.21-3-.26-4.48-.51a3.8,3.8,0,0,0-4.64,2.62,1.79,1.79,0,0,0,0,.48l2,1.26v0a8.71,8.71,0,0,1-5.84-3.23c-1.73-2.28-3.16-2.41-5.91-1.35-.52.2-1.05.35-1.61.54-.21.73-.41,1.46-.65,2.31-1.11-.62-.85-1.43-.64-2.16.32-1.1,0-1.75-1.16-1.85a1.86,1.86,0,0,1-1.59-1.19,9.87,9.87,0,0,0-1.85-1.89l1.82-.7c-.85-.45-1.55-1.14-1.95-1-3.22,1.16-4.37-1.87-6.34-3.12-.51-.32-.41-1.61-.61-2.56-1.18-.21-2.26-.47-3.36-.57a2.83,2.83,0,0,1-2.83-2.3c1.48-.74,2.71,1.71,4.15.37-.12-2.1-1.12-3.12-3-2.88a24.91,24.91,0,0,0-3.26.78c-.29.08-.73.25-.79.47-.75,2.69-3.2,2.56-5.19,3.09-1.84.48-2,.66-.84,2.59h-3.88c0-2.12-2.07-2.19-3.54-3.19.36-.31.89-.55,1.06-.95a4.18,4.18,0,0,0,.05-1.56c-1.63,0-1.76,1.49-2.7,2.19l-2.51-1,1-2.33c-1.56-.6-1.58,1.4-2.41,1.42a21.2,21.2,0,0,1-2.47-3.17,6.93,6.93,0,0,1-.41-2.47,26.45,26.45,0,0,1-2-3.14c-.59-1.31-1.6-1.38-2.88-1.13-.24-2.43-1.74-3.17-3.81-3.24-2.47-.08-5-.41-7.4-.29a41.7,41.7,0,0,1-11.35-1.53,49.81,49.81,0,0,1-6.64-2,29.21,29.21,0,0,1-4.21-2.22c-2.49-1.43-4.91-2.77-8-2.32a17,17,0,0,1-12.22-2.84c-1.52-1-2.07-.82-3.64.3a15.41,15.41,0,0,0-4.4,5.55c-1,1.82-1.94,3.67-3,5.47-.82,1.41-1,1.45-3.1,1.78-.66-2.41-2.78-3.15-4.9-3.95s-2.44-2.86-1.28-4.68,2.05-3.55,3-5.37a3,3,0,0,0,.12-1.41c-.17-3.26-.31-6.53-.57-9.78a2.8,2.8,0,0,0-.9-1.85,41,41,0,0,0-4-2.53c-.34-.2-.78-.23-1.09-.46-3.58-2.63-7.39-4.91-10.85-7.74a76.85,76.85,0,0,1-10.41-10.55c-1.82-2.2-3.16-4.8-4.76-7.18-.62-.93-1.43-1.72-2.07-2.64a13.8,13.8,0,0,1-1.68-2.83,7.1,7.1,0,0,0-3.18-3.73,22.7,22.7,0,0,1-3.64-2.67c-1.95-1.77-4.36-1.88-6.55-2.33a28.62,28.62,0,0,1-.16-3.43,10.9,10.9,0,0,1,.75-2.37,2.64,2.64,0,0,0-2-1.69l.45,1c.18.4.62,1,.5,1.14a1.84,1.84,0,0,1-1.31.72c-.75-.08-1.43-.24-1.94.46-1.22,1.65-3.11,2.37-4.71,3.51a49.9,49.9,0,0,1-9.88,5.34c-.81.33-1.66.56-2.5.81a1.76,1.76,0,0,1-2.42-.9,1.89,1.89,0,0,0-.57-.76,2.65,2.65,0,0,0-2.94-.23c-1.05.52-.72,1.49-.57,2.32a7.63,7.63,0,0,0,.68,1.58,16.5,16.5,0,0,1-2.59,1.54,27.58,27.58,0,0,1-4.38,1.21,4.16,4.16,0,0,1-2-.3,8.9,8.9,0,0,1-2.11-1.12,3.14,3.14,0,0,0-3.16-.35,6.53,6.53,0,0,1-3.36.24l1.69-2.11-4.2-2c-1.39,2.12-3.45,1.76-6,1.86l2-1.38-3.11-1.73a5.32,5.32,0,0,0,.87-4c-.29-1.21.8-1.88,3.06-2.07L178,354.67c.21-.33.35-.85.63-.95,2.75-1,3.71-3.76,5.65-5.55A3.36,3.36,0,0,1,187,347l-.57,1,.31.21,1.19-1.08-.17-.29-.81.17c.1-.74.49-1.6.25-2.2-.92-2.23-.76-4.11,1.21-5.45l-13.9-4.83c-3.23-1.11-6.48-2.14-9.68-3.31-1-.38-1.68-.21-2.43,1.39,0-1.57-.1-2.47-1.28-2.59a13.07,13.07,0,0,1-1.82-.45c-.89-.23-1.4-.8-1.18-1.7s1-.87,1.74-.56c1,.42,2,.86,3.09,1.23.82.29,1.68.48,2.52.72l-.06,0c1.07.62,2.16,1.06,3.23.11,1.52,2.35,1.52,2.35,2.94,1.39.6,2.32,2.82,1.81,4.35,2.64l1.81-1.91c-.05,2.12.6,3.37,2.81,3,.94-1.21,1.18-3.11,3.5-4l-2.2,4.18c1.23.83,1.23.83,3.36-1.7l-.74,2.77c1.9.87,2.47.71,3.22-.87a11.35,11.35,0,0,1,1.45-2.94,18.76,18.76,0,0,1,3.39-2.33,3.72,3.72,0,0,1-1.13,4c-.65.63-1.22,1.36-1.82,2l.37.38,1.28-1.06.14,2.34,3.54-5.34.37.15-.24,2c1.48-.19,2-2.43,4.2-1.74l-5.56,5.23c1.22.2,2,.3,2.74.46a1.48,1.48,0,0,0,1.75-.92c.48-.92.91-1.87,1.45-2.75,1.24-2,2.48-4.08,3.85-6a3.21,3.21,0,0,1,1.9-1.24,4.06,4.06,0,0,0,3.08-2.37c.55-1.1,1.23-2.13,1.84-3.19l0,0a4.56,4.56,0,0,0,4.72-2.58c.91-1.68,1.92-3.31,2.95-5.08,1.38.21,2.27-.54,2.93-2.13-2.67-1.06-5.27-2.19-7.93-3.11q-10.66-3.68-21.36-7.18c-4.63-1.53-9.3-2.92-13.92-4.48-2.33-.78-4.6-1.79-6.88-2.73-4.2-1.73-8.39-3.46-12.57-5.23-1.76-.74-3.46-1.62-5.21-2.37a4,4,0,0,0-4.14,1.07c-.73.83-1.49,1.62-2.3,2.49-.05,0-.22.13-.35.09-2.52-.8-2.77-.64-2.94,1.89a1,1,0,0,1,0,.24,10.85,10.85,0,0,0,0,4.21c.51,2.86.3,5.85.44,8.79a16.86,16.86,0,0,0,.46,2.31c.13.63.23,1.27.34,1.9l-.65.18-1.71-4.8c-1.19.93-1.19.93-.28,4.94l-2-1.14c-.1,1.07-.5,2.1-.17,2.75.43.84,1.47.8,2.27.11,1.1,1.41.44,2.65-.25,4-1.41,2.69-2.7,5.43-4.09,8.13-.28.53-.9.89-1.14,1.42-.88,2.05-1.72,4.11-2.42,6.22a1.88,1.88,0,0,0,.65,1.61,36.51,36.51,0,0,0,3.56,2.05l3.82-6.81,11,5.52c-2.31,4.91-5.21,9.28-7.74,14a61.47,61.47,0,0,1-15.87-10.51c.14-1.81,2.32-2.32,2-4.12-3.65-.11-3.65-.11-3.92,1.93-1.6.26-3.46-2.09-5.15.51.77.33,1.35.52,1.87.8,1.28.71,1.48,1.48,1.36,3a3.38,3.38,0,0,0,1,3.26l3.36-2.66c1.37.41,2.16,1.5,3.21,3.11-3-.26-5.5,1.17-7.87-.13a67.67,67.67,0,0,1-6.45-4.56c-.81.77-1.67,1.56-2.49,2.38-1.79,1.8-2.21,2-4.22.52-3.16-2.33-6.87-2.71-10.52-3.39a2.25,2.25,0,0,0-1.18,0c-1.81.8-2.65-.34-3.8-1.48-1.7-1.67-2.37-3.87-3.55-5.8A4,4,0,0,1,93,327c.27-.66.5-1.35.73-2,.68-2.08.68-2.09-1-3.4-1.94-1.53-1.84-2.76.12-4,.64-2.22,1.23-4.27,1.91-6.6l-2.5-.82a11.44,11.44,0,0,1,.84-7.36,15.14,15.14,0,0,0,.88-2.41c1-4.69,1.91-9.4,2.87-14.09a26,26,0,0,1,3.52-8.6c1.94-3.09.69-6.21-2.71-7.14-.31-.09-.67-.26-.93-.17-1.85.69-3.72,1.35-5.49,2.2a19.34,19.34,0,0,0-2.83,2,3.28,3.28,0,0,1-1.41-3.11,6,6,0,0,0-1.88-4.24c-1-1.09-1.72-2.48-2.67-3.65a5,5,0,0,0-1.64-1.16c-2.47-1.24-3.18-2.61-2.6-5.21s2.37-3.88,5.08-3.27c1.23.27,2.37.89,3.58-.24.31-.3,1.42-.09,1.94.23a6.81,6.81,0,0,0,5.23,1,33.38,33.38,0,0,1,5.53-.06s.31-.52.61-1c.54-.77,2.86-1.47,3.59-1a1.74,1.74,0,0,1,.91,2c-.2.75-.46,1.49-.74,2.35a3.62,3.62,0,0,0,4.15-1.82,7.56,7.56,0,0,0,1.28-3.33c.13-2.19,1.4-3.88,2.07-5.83a2.26,2.26,0,0,1,1.93-1.58,2.12,2.12,0,0,0,1.37-.78,27,27,0,0,0,3.48-8.07c.88-3.64,1.63-7.3,2.43-11a1.63,1.63,0,0,1,1.41-1.39,11.16,11.16,0,0,0,2.62-1,1.36,1.36,0,0,1,1.91.32c1.18,1.48,2,3.05,1.45,5.05a3.77,3.77,0,0,0-.09,2l2.46-2.84a28,28,0,0,0,2.69,4.08,16,16,0,0,0,3.36,2.11c.38-2.09,1.76-2.81,3.21-3.54,2.55-1.29,5-2.69,7.54-4.09a4.11,4.11,0,0,0,1.49-1.16c1.11-1.65,2.59-1.58,4.15-1.24.11,1.59.24,3.06.29,4.53a3.54,3.54,0,0,1-.39,1.29c-.2.49-.45,1-.86,1.83,2.51,0,4.71.09,6.9-.05a3.9,3.9,0,0,0,2-1.09c1.83-1.64,3.58-3.37,5.48-5.18l2.13,2.31a2.38,2.38,0,0,0,1.26,3,2.52,2.52,0,0,0,1.63.54c8-.58,15.69,1.17,23.37,3a7.29,7.29,0,0,1,1.64.89l0,0c-2.1-.47-4.19-1-6.3-1.38-1.7-.3-2-.05-2.38,1.74-.17.82-.46,1.09-1.37.85a16.16,16.16,0,0,0,0-2.09c-.05-.32-.38-.79-.63-.82a1.07,1.07,0,0,0-.85.59c-.45,1.35-.81,2.74-1.22,4.17l1.46.82c-.8.74-1.85,1.43-1.28,2.69.41.88.93,1.71,1.47,2.7l-2.35.19a3.72,3.72,0,0,0,.76.45c2,.34,3.91.77,4,3.45,0,.7.67,1.09,1.57,1.14a25,25,0,0,1,3.61.71c0,2-.92,3.18-1.68,4.46s-1.57,2.53-2.37,3.82c1.05,1.49,2.62,2.05,4.32,2.55,3.74,1.09,7.45,2.32,11.14,3.58s7.29,2.58,10.93,3.88Zm145.92,76.41c.61.33,1.13,1,1.9.76l.09-.5-2-.21-1.52-1-.21.53ZM238.79,300.47,237.31,299c-.22-.9-.84-1-1.63-.85-.17,0-.38-.22-.67-.4l1.43-1.69c-1.56-2.14-3.09-4.21-4.73-6.45l-1.4,1.72a3.4,3.4,0,0,0,3.36,2.49,3.28,3.28,0,0,1-.06.86,2.61,2.61,0,0,1-.41.52,2.24,2.24,0,0,1-.51-.07c-1.79-.88-2.12-.68-2.12,1.33,0,.23,0,.47,0,.71l0-.05c-1.82.33-1.6,2.21-2.74,3.29-.11-2.41-.23-4.82-.32-6.62l-2.95-3.61-1.52,3.51a2.9,2.9,0,0,1-.15-3.3,11.38,11.38,0,0,0,.89-3.16c.35-3.46-.64-7,.39-10.42,0-.08-.17-.21-.5-.59l-1,4.29h-2.15a6.37,6.37,0,0,1,.56-4.71,10.56,10.56,0,0,0,.59-1.57,1.5,1.5,0,0,0-1-2.09c-1.33-.53-2.62-1.16-4-1.64q-11.4-4-22.83-8a39.93,39.93,0,0,0-4.38-1c-.77,1.77-1.48,3.34-2.16,4.94-.5,1.19-1.14,2.08-2.75,1.57a10.88,10.88,0,0,1,.24-2.41c.53-1.65,0-3.17-.35-4.71-.23-.95-2.54-2.27-3.71-2.15-1.32.12-1.41,1.24-1.38,2.16.06,2.71-1.8,3.91-3.76,5.05-1.23.71-2.36.44-3.33-.85a21.17,21.17,0,0,0,5.95-4.68c-1.9-.29-2.89.68-4,1.65a43.3,43.3,0,0,1-3.5,2.64l-.47-.31,1-4c-1.59-.06-1.89,1.06-2.5,1.86-1.2,1.57-2.28,3.59-4.32,3.88-2.27.32-3.92,1.71-5.91,2.46-.44.17-.85.4-1.27.6l.43.49,2,.55c-1,.9-2.8,1-2,3l2-.45.4,1.43,1.94-.66c-.18,1.44.82,2.14,2.4,3l-4.72.76-1.71-.73-.15.55,1.91.14L158,278.85l2.57,1.36c-1.24,1.59-2.43.62-3.53.07l-1.63,5a14.11,14.11,0,0,0,1.5.86c7.33,3.13,14.62,6.36,22,9.32,3.54,1.41,7.31,2.25,10.93,3.47,7,2.34,13.89,4.77,20.84,7.13,1.8.62,3.65,1.14,5.48,1.67s3.79,1,5.66,1.6c3.65,1.16,7.27,2.4,10.92,3.55a14.36,14.36,0,0,0,2.52.24c-1.4-1.45-2.5-2.61-3.6-3.76a14.2,14.2,0,0,1,3.65,1.48c.84.46,1.55,1.07,2.65.63.92-.37,1.51.21,1.83,1.06l1,2.62.32-.36c.95.46,1.93.89,2.85,1.4,1.8,1,2.67.83,3.6-.88a8,8,0,0,1-1.79-.87c-.82-.68-1.29-1.86-2.71-1.58a6.8,6.8,0,0,1-.59-1.38l1.68-.43c-.91-1-1.67-1.88-2.42-2.74-1.43,1.92-2.24,2.18-4,1.18.38-1,.77-2,1.2-3.16l-1.1-.6v-5.28h1l.86,1.61C240,300.65,239.51,300.45,238.79,300.47ZM358.7,382.89c.57-.69.82-1.39-.24-2.09.1.71.19,1.42.29,2.13l-.78,2,.53.13C358.57,384.35,358.64,383.62,358.7,382.89Zm36.14,40.48A6.54,6.54,0,0,0,393,423c-1.29.13-.86.76-.31,1.42l2.11-1.09,1.3-.75C395,422.59,395,422.59,394.84,423.37ZM230.91,318.46c2.2-.38,2.2-.38,2.56-2.31l-2.59,2.32c.36-.91.72-1.82,1.13-2.88-1.54.46-1.83,1.61-2.2,2.88Zm184.58,66.87-1.37-1.08-.15,2.09,1.55-1.06c.65,1.87.9,2,2.73,1.15-.31-.16-.52-.29-.74-.38C416.84,385.8,416.16,385.57,415.49,385.33Zm-45.7-17.73,2.25,1.27c-.73-1.31-1.36-2.46-2.2-4v2.75c-1.88.92-1.88.92-1.47,3.29C369.09,369.71,370,368.93,369.79,367.6ZM235.54,322.44c-1-.4-1.85-1.57-3-1.11V325c.79-.31,1.37-.75,1.41-1.23.08-1.14.93-1.12,1.63-1.39,1.56.16,4.24-.91,4.86-2,.38-.66.76-1.35.24-1.84Zm171.34,80.68a17.78,17.78,0,0,1-1.82-1.51c-.22-.24-.08-1-.23-1.07a5.36,5.36,0,0,0-1.57.07c.68,1.95,1.76,2.86,3.67,2.46a11.38,11.38,0,0,0,2.34,1.87c1.88.83,3.85,1.46,5.8,2.1a4.94,4.94,0,0,0,1.54,0l.09-.33-6.54-3.09,1.23-.08c-.91-.71-.91-.71-1.18.13ZM126.57,314c-2.86,1.14-3.94,3.14-2.95,6.13-.47.37-1.35.74-1.34,1.09,0,1.78-.9,3-2,4.15-.19.21-.14.62-.26,1.18,2.63-1.62,4-3.56,3.55-6.46.41-.21,1-.31,1.19-.64a24.62,24.62,0,0,0,1.8-3.64,5,5,0,0,0,0-1.85l2.88-3.9c-.61-.8-1.1-1.07-1.59-.26C127,311.09,126.24,312.38,126.57,314Zm102.81-46.48a7.51,7.51,0,0,0-1,6.58c3-2.55,3.23-4.19,1-6.63.56-1.93-.54-3.21-1.91-5-.14,2.07-.25,3.64-.35,5.21l.34.09.87-2.44C228.76,266.31,229.07,266.92,229.38,267.52ZM229,334.41c.47-.25,1.16-.37,1.36-.75a18.43,18.43,0,0,0,1.79-4.39,3,3,0,0,1,1.8-2.27,13.63,13.63,0,0,1,2-.62c-3-1.11-3.08-1.07-4.38,1.38a14.38,14.38,0,0,0-.87,1.43c-.63,1.72-2,3.21-1.58,5.25-.76,1.11-1.91,2.06-1.52,4.13l2.45-3.44Zm13.64,13.13c1.19.9,1.52-.11,1.82-1.13l-1.85,1.18c.1-.45.19-.91.27-1.28l-2.6-1.51c-2,1.2-3.44,2.83-3,3.49l2.21-.66-1.16,1.84c1.18,1.14,2.32,1.94,3.86,1,.18-.11.28-.33.46-.55l-2.08-.34ZM291,387.87l.57-.69c-1.62-.89-1.62-.89-3.24-.14l2.73.8-3.77,2.22c1.49,0,2.92.09,4.33,0a3.84,3.84,0,0,1,3.87,1.79c.83,1.23,1.8,2.36,3,3.94-.68-2-.94-3.56-1.74-4.82a25.25,25.25,0,0,0-3.41-3.64Zm2.61-17.47c-.76-.51-1.46-1.22-2.66-.93l.7,2.82,2-2,.86,2.4h2.26l.6,1.75c.66,0,1.56-.17,1.65,0a11.33,11.33,0,0,1,.52,2.49,15.24,15.24,0,0,1,3.18-.83,15,15,0,0,1,3.21.53l.07-.3-2-1.62c2,.87,4.07,1.72,6.1,2.61,1.58.69,3.15,1.44,4.75,2.09.32.13.78-.11,1.18-.17l.12-.5a15.15,15.15,0,0,0-2.81-1.54c-2-.6-4-1.16-5.15-3.22-.22-.4-.93-.53-1.41-.78h0c-1.27-.64-2.52-1.3-3.81-1.9s-1.91,0-2.24,1.35l3.21,2a71.61,71.61,0,0,1-6.81-3.19A7.53,7.53,0,0,0,293.6,370.4Zm106-1.77c1.56,2.25,2.47,5,5,6.94l2.24-4.93-7.29-2c2.13-1.28,4,.07,5.89.66l1.62.57c.23-1.1.4-2,.58-2.85a18.14,18.14,0,0,0-4.28-1.15,17.23,17.23,0,0,0-4.19,1c0-.85-.07-1.55-.1-2.34-1.61.78-1.78,1.05-1.14,2A22.52,22.52,0,0,0,399.55,368.63Zm-15.82-15.38c.89,1.63,2.48,2.36,4.06,3.07.77.34,1.19,0,1.22-.92-1.42-1.53-3.44-1.66-5.32-2.11l-3.11-2.54c-1.39,3.13,1.56,3.49,2.74,4.92a9.56,9.56,0,0,0-.73,2,1.79,1.79,0,0,0,.41,1.46c1.3.94,2.7,1.73,4.31,2.73.16-1.54.27-2.68.38-3.71-1.43-1.3-2.76-2.54-4.11-3.75C383,353.9,383.33,353.58,383.73,353.25Zm35.17-7.64.85,1.59-2.8.86.15.49c1.53-.28,3.53.73,4.45-1.05a4.2,4.2,0,0,0-.07-4.53l1.44-.75V344l.46.06c.22-1.1.44-2.2.63-3.17h-6.18a6,6,0,0,1-.65,1.73,6.43,6.43,0,0,1-1.63,1.19c.87.8,1.33,2.07,2.83,1.82Zm-43.26,13.06c1.58-.52.35-2,1.1-2.75l-2-1.68c-.39.54-1.28.77-.59,1.54.43.48.62.79.37,1.43-.4,1.06.25,1.44,1.19,1.52-2.1,1.56-3.08,3.93-4.28,5.87l2.15.88c.12-.46.11-1.3.41-1.44.78-.35,1,.41,1.27,1,.49,1,1.45,1.27,2.78,1.51-1-1.48-1.79-2.88-.41-4a3.17,3.17,0,0,0,1.14-2.12,4,4,0,0,1,2.58-3.42c.22-.09.34-.44.5-.65-1.25-1.33-1.86.06-2.76.57l-.35-1.2-.44.41-2.13,5.81c-.44-.76-1.26-1.15-.41-1.94C376,359.8,375.69,359.12,375.64,358.67Zm-.6,74.79c.71-1.61-.59-1.71-1.63-2.32.19,1.27.63,2,1.68,2.28l-.61.9c-1.74-.25-1.76-1.87-2.64-3.21-.42,1.93-.74,3.45-1.19,5.51l2.16-1.7c-.12,1.07-.22,2-.31,2.85a5.21,5.21,0,0,1-4.15-.53c-1.15-.55-2.29-1.13-3.48-1.58a4.47,4.47,0,0,0-3.66-.27,42.5,42.5,0,0,1,4.1,2.17c2.64,1.81,5.76,1.77,8.69,2.42,1.08.23,1.71-.3,1.24-1.65,1.45.15,2.72.16,3.49-1.16A10,10,0,0,0,375,433.46Zm12-66.76c.79-1.36,1.62-2.7,2.32-4.09.14-.26-.2-.77-.45-1.59-.83,1.48-1.42,2.56-2,3.63.12-.85.05-1.84-.92-1.89-1.19-.06-1.57-.82-2.13-1.57a8.37,8.37,0,0,0-1.24-1.1c-1.26.92-1.27,1.83-.3,2.75l-4.14,4.78-2.83-.13-.09.48c.8.26,1.61.48,2.38.79a11.34,11.34,0,0,1,2.57,1.18c.93.66.76,1.62-.22,2.26-.35.23-.69.48-1,.67,1,1.11,1.91,2.26,3.71,1.42l-1.26-1.13c.38-.32.58-.62.85-.69,2-.51,1.94-.5,2.18-2.33a19.77,19.77,0,0,1,.61-2.44C386.38,367.52,386.5,367.46,387.09,366.7Zm-27.34,1c.65-.19,1.65-.17,1.87-.59a54.4,54.4,0,0,0,3.63-7.49,55,55,0,0,0,1.8-7.58,27.71,27.71,0,0,0,.33-3.22c-1.67-1-3.76.79-4.73-1.41l.85-.95-2.36-.61c-.79,1.47-1.54,2.84-2.28,4.21l-.34-.11.07-1.63-.52-.15c-.53,1.35-1.09,2.69-1.59,4.06a2.59,2.59,0,0,1-1.61,1.88,2.24,2.24,0,0,0-1.21,1.77c.56,2.88-.64,5.34-1.57,7.88a1.86,1.86,0,0,0,.85,2.36,40.51,40.51,0,0,0,3.91,1.79,2.74,2.74,0,0,0,2.94-.26Zm33.07,32.22c.75.63,1.41,1.45,2.65,1.24-.84-1.7-.88-1.71-2.68-1.19a30.56,30.56,0,0,0,.44-3.54,7.12,7.12,0,0,0-2.45-5.77,26.75,26.75,0,0,0-6.38-4,14.55,14.55,0,0,0-6.23-1.12c-4.21.17-8.12,2.9-9.05,6.59-1,4,.85,7.82,5,9.82a61.64,61.64,0,0,0,7.17,2.68,10.39,10.39,0,0,0,3,.48,4.83,4.83,0,0,1,3.14.91,4.3,4.3,0,0,0,1.39.47l.21-.35-1.3-1.62,3-1.82c1,.11,1.6,1.18,2.68.41C392.48,402.11,391.38,401.19,392.82,399.89Zm-33-57.81a4.82,4.82,0,0,1,4.85-1.85,10.28,10.28,0,0,0,2-.07l.08-.49a19.34,19.34,0,0,0-1.88-.69c-.84-.24-1.86-.78-2.52-.5-1.22.52-1.56-.6-2.33-.83-3.67-1.07-7.3-2.29-11-3.28-5.94-1.59-11.92-3.05-17.87-4.57-1.46-.38-1.78-.68-1.53-2.19.36-2.13,1-4.21,1.42-6.31.3-1.38.55-2.76.83-4.18-.78-.32-1.29-.52-1.79-.74a4.81,4.81,0,0,0-4.73.16,14.83,14.83,0,0,1-7.58,1.95c-2.22,0-4.44-.29-6.68-.46.13.73.25,1.48.4,2.35l-3.09,1.53,3.28,4,1.19-.74c.62,3,.26,3.4-2.39,4.19-1.74.53-3.38,1-5.16.33-.07,0-.22.16-.5.39l3.64,3.2-.25.39-2.73-.72.05,0-2.39-1v-2.47c-.34.11-.65.13-.74.27a10.48,10.48,0,0,1-.55,1.22c-.22.26-.66.34-1,.51-.26-.17-.61-.29-.76-.53-.63-1.09-1.33.28-2-.09l-.36,1.4,3.14-.82c-.68,1.28-1.37,2.55-2.22,4.13l15.14,10.26-.3.47L302,340.35c1.35,1.8,2.42,3.11,1.94,5.14l-8.2-2.78c.38,1.37.59,2.14.84,3a1.72,1.72,0,0,0-2.28,1.35c-.3,1.19.6,1.69,1.38,2.27s1.77,1.35,2.62,2.07,1.84,2,3,2.56a20.47,20.47,0,0,0,4.57,1.19c1,.21,2,.31,3,.45l0,.3-3.62,1c.81.39,1.45.68,2.08,1,1.35.69,2.73,1.34,4,2.12.92.55.77,2.21.18,2-1.59-.48-1,1.36-2,1.54-.58-.52-1.14-1.09-1.76-1.57-.36-.27-.94-.68-1.23-.57-1.53.62-2.57-.58-3.83-.88s-1.8-.91-1.52-2.06l-4.53,1.26c2.44,2.63,5.76,3.45,8.69,4.92s6,2.73,9,4.07l-1.05,1.93-5.72-1.31a10.37,10.37,0,0,0-1.28-1.9c-.59-.58-1.66.4-2.35-.61-.53-.77-1.39-.88-2.3,0,1.89,1.18,3.67,2.21,5.36,3.38a4.41,4.41,0,0,1,1.36,1.79c.63,1.4,2.89,2.45,4,1.75,1.5-.93,2.14-.88,3.25.28a3.22,3.22,0,0,0,4,.74c1.4-.81,2.05-.5,2,1.12,0,1,.19,1.5,1.19,1.53l.67-1.22c1.12.05,2.39,1.22,2.94-.68,0-.09.45-.14.67-.08.87.21,1.39.67,1.22,1.7-.2,1.24-.3,2.49-.45,3.79l-1.19.06,1.11,1.52L326,384.44c.58.33,1,.64,1.54.89a47,47,0,0,0,5,2.36,6.9,6.9,0,0,1,3,2.2c1,1.17,2.24,2.13,3.35,3.2a7.17,7.17,0,0,1,.77,1c-.86.2-.86.2-.61,1.37l.56-1.42c1.18,1.12,2.19-.14,3.27-.26,1.63-.19,3.24-.52,5.21-.85-1.13-1-1.44-1.94-.24-3.18-1,0-1.56,0-2.1,0a3.39,3.39,0,0,1-3.07-4.54c.05-.15.34-.22.74-.45v2l1-1.07c1,.76-.74,2.36,1.3,2.6.07-1.27,1.43-1.56,2-2.53a1.9,1.9,0,0,1,2.8-.74c.16.64.29,1.19.55,2.24.41-1.5.75-2.46.91-3.45.07-.47,0-1.26-.34-1.46-1-.61-.82-1.41-.78-2.31a4.87,4.87,0,0,0-.2-2.27c-1.43-2.81-1.27-4.88.74-7.27a3.48,3.48,0,0,0,.24-.83L349.7,368l1.37-.41c.68-1.38-.11-2.05-1.06-2.81-1.71-1.36-1.85-2.24-.93-4l1.43.26a2.36,2.36,0,0,0,.32-.57c.56-4.56,2.25-8.77,4-12.94a23.52,23.52,0,0,1,2.77-4.42,2.1,2.1,0,0,1,2.23-1.09ZM391,366.46c-2.47,5.65-4.9,11.24-7.37,16.9,3.87,3,7.64,6.08,13,5.5-2.34-1.51-5.62-1.08-7.47-3.69,2.86.34,5.41,1.85,8.33,2.28l1.19-1.24-1.85-1.43c.4-1.4.79-2.76,1.2-4.22l1.68,1.33c.06-.64.09-1,.14-1.57L401.2,382l1.61-2.75c-1.65-2.2-3.06-4.34-4.74-6.23a10.43,10.43,0,0,1-2-2.84C395.18,368,393.59,366.9,391,366.46Zm16.9-3.48c-.59-2.46,1.79-3.1,2.4-4.73l-1-.64,1-3c-1-.43-1.74-.83-2.55-1.12-1.28-.45-2.58-.83-3.87-1.25-3.3-1.09-3.68-.88-4.54,2.55a1,1,0,0,0,.07.45l1,.28c-.61.61-1.69,1.31-1.59,1.66.44,1.49-.79,2.14-1.27,3.06a4.08,4.08,0,0,0,2.76,2.58c1.66.55,3.29,1.21,5,1.64a9.09,9.09,0,0,0,3,.1c.29,0,.52-.67.82-1.09ZM131,291.13c2.84.84,2.84.84,3.32-2.4L133,288c2.17-1,2.35-1.23,3.17-3.23.21-.52.46-1,.65-1.54.48-1.31.27-1.77-1-2.44s-2.69-1.4-4.06-2a15.41,15.41,0,0,0-2.88-1.14c-1.19-.29-1.8.39-1.61,1.59.16,1,.32,2,.46,3.05,0,.09-.18.2-.28.31l-2-1.25c-.35,1.11-.58,2-.91,2.85-.21.55-.49,1.45-.85,1.5-1.16.19-1.23,1-1.49,1.69,1.77,1,3.51.64,5.3.18,2.24-.58,3.14.16,3.39,2.57C130.87,290.38,130.94,290.69,131,291.13Zm-9.6,5.27c.5,3,.54,3.06-1.44,4.94a20.93,20.93,0,0,0-5.25,7.27c4.25.69,7.2-2.23,10.6-3.68l1.76,2,2.77-2.56a13.9,13.9,0,0,0-.6-2.85,11.54,11.54,0,0,0-3.36-4.83C124.42,295.53,123,296.53,121.42,296.4Zm59.47-40.17,4.23,2.8.29-.36-1.32-2.08,3.39.82c2.19-1.74,1.74-4.44,2.72-6.63l-3.65-1.37v-2.33c-1.85.68-1.85.68-1.16,3.17-2.34-2.58-3.51.81-5.42.06l3.84,3.32ZM263.55,378a2.34,2.34,0,0,1,2.36,1.1c.52.84,3.58.57,3.84-.34.32-1.14,1.08-1,1.77-1.19.88-.3,1.75-.63,2.87-1-2.14-1.68-3.88-3.51-6.21-4.34-1.57,1.6.3,2.65.4,4-1.82.05-3-1.76-4.77-1l-.23-.54,1.59-.68c-1.5-1.63-2.34-.5-3.3-.06C262.44,375.33,263,376.58,263.55,378Zm172.7,5.38.22-.7a16,16,0,0,0-7.87-3.21c.25,1.53.44,2.77.66,4.09,2.27,1.27,2.64,4,4.34,5.89.08-1,.16-1.92.24-2.94L436,387c-.67-1.51-2.52-2.05-2.9-3.93Zm-56.63-12,.07-.81c-1.5-.63-3-1.34-4.52-1.83-.42-.13-1.47.35-1.51.66-.23,1.52-1.1,2.74-1.6,4.11-.18.49.14,1.15.2,1.58h4.67c-.17-1-.32-1.77-.47-2.58ZM149.26,281.66a10.19,10.19,0,0,1,2.28-1.29c2-.5,2-.43,1.8-2.83l-2.47.44c-1.37-1.31-1.27-1.31-1.29-3.07,0-1.22.4-2.59-.65-3.83-1.31,1.73-.07,4.29-2.27,5.27.41,1.68.78,3.19,1.14,4.7l1.27-.31Zm107.15,33.78c-2.69-1.71-3.41-1.5-4.27,1.1-.33,1-.7,1.95-1,2.93-.41,1.32-.17,1.91,1.08,2.49a12.12,12.12,0,0,0,2.08.51Zm148.48,63.7c-.38,1.06-.73,2.1-1.11,3.14s0,1.62,1.09,1.86a7.54,7.54,0,0,1,1.61.76c.1-.73,0-1.74.34-2,1.37-1,1.22-2.47,1.79-4.07-1.35-.59-2.62-1.16-3.9-1.67-.13-.05-.37.2-.68.38Zm10.41-43.75a17,17,0,0,0,3.25-5.11,8.84,8.84,0,0,0,0-2.06,15,15,0,0,1-1.63-.77c-1-.62-1.7-.7-2.1.72-.15.55-.83.94-1.23,1.36C415.38,331.08,414.42,333.4,415.3,335.39ZM226.36,313.75c-.67-.22-1.42-.45-2.16-.72-2.59-1-2.65-.95-3.47,1.61a4.54,4.54,0,0,1-.34.89c-.68,1.15-.25,1.91,1,2.61l1.41-2.25v1.73Zm203,86.61c.51-.41.91-.67,1.24-1a2.65,2.65,0,0,0,.12-3.24,2.09,2.09,0,0,0-3.12.32c-.56.76-1,1.1-1.95.77-.22-.08-.61.29-1.33.66ZM387.13,423c2.35-1,2.69,2.2,4.9,2.19-.51-1.09-.69-2.35-1.4-2.81a67.88,67.88,0,0,0-6.29-3.34c-.46,3-.46,3,1.67,3.74-.1-.71-.2-1.34-.29-2l.31-.11Zm-107.32-37.7-4.14,1.83c1.78,2.4,2,2.59,3.9,3.18C280.4,388.72,281.44,387.17,279.81,385.28Zm149.52,18.59c-2.75-1.89-5.86-1.7-8.7-2.38l.89,1.68a8.76,8.76,0,0,1,4.88,1.8C427.59,406,428.5,405.54,429.33,403.87ZM164.06,245.09a15.05,15.05,0,0,1,2-.92c1.56-.45,1.77-.71,1.35-2.29-.2-.72-.52-1.4-.79-2.12C163.45,241.34,162.77,243,164.06,245.09ZM376.61,380c0-.06.1-.16.07-.2-.44-.73-1.85.66-1.94-.82.64-1.33,2.92.3,3.11-1.58a25.49,25.49,0,0,1-2.84-1.12,1.87,1.87,0,0,0-2.45.52c.4,1.38.76,2.64,1.12,3.91Zm-110.46,5.14c2.09,2.89,5.79,5.23,8.37,5.22-1.92-2.25-5.25-2.77-6.36-5.83Zm126.28-76.89a8.2,8.2,0,0,0-2.17-1.21c-.57-.12-1.68.2-1.82.59a7.17,7.17,0,0,0-.21,2.93c0,.17,1,.48,1.38.36A3.84,3.84,0,0,0,392.43,308.23Zm1.28,136.27c-1.35-1.95-3.51-2.32-5.46-3.05-.38-.14-1,.26-1.55.44C388.57,444.38,391.09,444.55,393.71,444.5Zm12.49-47.61c.58.39.95.86,1.26.82a11.32,11.32,0,0,1,7.1,1.09c1.24.72,2.51.59,4.08.37a5.57,5.57,0,0,0-.81-.51c-1.86-.62-3.77-1.06-5.63-1.76A7.25,7.25,0,0,0,406.2,396.89Zm-16.8-44.57c-.95-3.38-3.76-4.28-6.63-2.22Zm48.07,28.59c.15-1.2-.08-2.09-.91-2.38-1.82-.62-3.71-.88-5.57.49ZM228,324.67c-2.27-1.52-3.25-1.46-4.27.2-.15.25,0,.69,0,1.05l.87-.2c.94.7,1.71,1.28,2.83,2.1C227.62,326.54,227.77,325.65,228,324.67Zm143.26,47.52-.42-.26-3,.95-1.67,3.68c1.23-.36,2.34-.37,2.87-.92A20.39,20.39,0,0,0,371.21,372.19ZM146.13,233.8l.37-.66-1.85-.61c.88-.6,1.18-.82,1.49-1s.84-.54,1.27-.8c-.47-.35-.92-.7-1.4-1-.1-.07-.3,0-.45,0-.32,2-2.42,2.31-3.91,3.68ZM359,377.39c1.51-2.72,2.1-4.65,1.82-6.63-.83,1.31-1.46,2.36-2.15,3.36C357.51,375.71,357.5,375.79,359,377.39ZM188.89,344.27c1.9-.8,1.86-2.45,2.15-3.88a1,1,0,0,0-.58-.85,1.1,1.1,0,0,0-.93.43c-.34.51-.36,1.38-.8,1.66C187.2,342.61,187.85,343.36,188.89,344.27Zm112.75-62.11a21.53,21.53,0,0,0-11.42,2ZM200.28,341.71l-.86,3.25c2.1,0,4.21.47,5.69-1.79l-4.14.28Zm183.07-34.5.35-.41c-.48-.39-1-.8-1.47-1.18a4.88,4.88,0,0,0-.78-.41c-1.8,1.53-1.8,1.53-1.31,4.58,1.47-.51,1.64-1.92,1.94-3.2Zm20,87.31c-.07.21,0,.13,0,.07a.25.25,0,0,0-.16-.16l-3.66-.53-1.93,1.86,1.79,1ZM114.87,264.94c-2.45,3.66-3.16,5.67-2.91,8C113.88,270.72,114.27,268,114.87,264.94ZM95.75,267c3.07-3.5,3.07-3.5,1.62-5.18C95.57,263.19,96,265.19,95.75,267Zm43.68,49.19c-.8-.93-2.19-.43-3.1-1.48-.69-.79-2,0-2.55,1.48C135.71,316,137.53,317.19,139.43,316.19ZM386.11,346.1l-.14.47c1.26.6,2.73.94,3.15,2.54.05.18.36.3.57.4.6.3,1.22.47,1.63-.26s0-1.24-.62-1.5C389.18,347.17,387.64,346.65,386.11,346.1ZM151.26,245.32a9.09,9.09,0,0,0-1.47.12c-.27,1.77-1.49,3.49-.37,5.51C151.7,249.55,149.81,247.26,151.26,245.32ZM415.74,433.67c-3.52-1.61-4.44-1.73-6.55-.87C411.27,434.11,413.55,433.54,415.74,433.67Zm-34.43-4.42a6.2,6.2,0,0,0-3.35-2.77c-.22-.09-.78.24-.91.51a1.06,1.06,0,0,0,.23,1A5.45,5.45,0,0,0,381.31,429.25ZM434,376l0,.65a33.11,33.11,0,0,0,3.69.53,1.44,1.44,0,0,0,1.11-.87c.12-.65-.44-.92-1.1-.82ZM183.85,246.77l.11-.62-2.83-1.83c-1,1.23-.59,2.22-.17,3.42Zm-72.3,51.75-2.87,3,.2.56c.7,0,1.67.35,2,0C111.73,301.4,111.91,300.26,111.55,298.52Zm278,19.52c-1,1.27-2.19,2.23-1.7,4C390.3,321.1,390.87,319.88,389.51,318Zm-274-35.28c-.62,1.86-1.15,3.46-1.79,5.36,2.16-1.14,2.11-3.18,3.2-4.67ZM353.85,393.61c-1.68,2.39-1.64,2.57.92,4.35C354.47,396.54,354.19,395.2,353.85,393.61ZM397,318.27l-4.18-2C394.11,319,395,319.42,397,318.27Zm-9.18,6.36c-.81,1.27-1.69,2.24-1.3,3.76C388.62,327.11,389,326.22,387.77,324.63Zm-36.53,48.43c.82,1,.82,1,2.24.82,0-.84-.08-1.69-.14-3.12ZM90.73,259.13a3,3,0,0,0-1.35,4C90.72,262,91.38,260.9,90.73,259.13ZM266,381.24l2.35,1.34c.19-.85.33-1.46.5-2.19C267.69,380.32,266.76,380,266,381.24ZM416.34,373l-.3.58c1.13.66,2.25,1.37,3.42,1.95.19.1.65-.33,1.42-.76Zm-36.83-24.5c-2.31,1.65-2.36,1.94-.87,3.42C379,350.69,379.23,349.59,379.51,348.5ZM253.82,323.57c-2.16-1.32-2.16-1.32-2.9.09C252.84,325,252.84,325,253.82,323.57ZM148.61,251.29,147,254.23c1.42-.26,2.35-.71,2.62-1.92C149.71,252.11,149.11,251.76,148.61,251.29ZM403.09,408.35c-1.13-2.08-1.13-2.09,1.1-3.17l-1.49-.58C401,407.55,401,407.55,403.09,408.35ZM117.63,277.62c-.45,1-1,1.62-1,2.24,0,.44.88.82,1.36,1.23l.42-.32ZM402.35,386.46c1.23,1.53,2.1,1.14,3.11.41C404.59,385.11,403.61,386.31,402.35,386.46Zm14-38.64-2.4-2.4c-.64,1-.11,1.78.7,2.45C415.21,348.36,415.81,348.63,416.32,347.82ZM394,360.66c-.86,2.7-.79,2.86,1.28,3.09ZM139.61,269.47c1.2-1,1-2.25,1-3.86C139.11,266.81,139.56,268.18,139.61,269.47ZM416.89,436c-1.34-.58-2.45.1-4.1.59A4.4,4.4,0,0,0,416.89,436Zm-120-66.41V370L299,371c.22-.64.42-1.21.7-2ZM192.1,342.21l.33.37c.51-.23,1.23-.32,1.49-.72.41-.62.27-1.36-.79-1.86Zm131.24,39.14c-1.47-.58-1.47-.58-2.53.33C321.7,382.2,322.49,383,323.34,381.35Zm-46.59,2.87c2.13-1.34,2.45-2,1.93-3.3Zm76,1.38-.21,0-.33,3.77.54,0ZM227.18,279.66c1-1.59,1-1.59.55-3C226.35,277.5,226.82,278.6,227.18,279.66ZM175.91,250.3c-1.92.5-2.08.78-1.56,3Zm249,106-.16.51c1.09.48,2.1,1.25,3.53.6Zm-161.13,24.9-.45-.32c-1.36.69-1.36.69-.83,2.52Zm118.07-44.06c0,1.79,0,1.79,1.77,1.48C383.24,337.79,383,337,381.81,337.13Zm-256.35-63.5-.38.46c.32.33.81,1,.94.92a5.26,5.26,0,0,0,1.32-1.14c.06-.05,0-.26,0-.37ZM391.15,448c-.85-2-1.26-2.24-2.65-2ZM164.67,259.2c1.91-.81,1.91-.81,1.42-2.65ZM366.44,440c-.38.57-.8.92-.79,1.25s.51.59.78.88a3.41,3.41,0,0,0,.67-1.07C367.15,440.83,366.78,440.51,366.44,440Zm28.35-42.41c1.58,1.29,1.58,1.29,3.64.63Zm-74.51-17.73h-2.53C319.16,380.85,319.16,380.85,320.28,379.86ZM198.79,341.1c-1.74.87-1.74.87-.45,2.26Zm158.49,49.3c-1.1.19-1.1.19-2,2.63Zm-117-104.22-.59,0c-.12,1.24-.23,2.48-.35,3.71l.63.05C240.05,288.71,240.16,287.44,240.26,286.18ZM392,412.34l.26-.67c-.75-.28-1.31-1.12-2.48-.33Zm-36-.41-.23.52,2.19,1.2C357.74,412.39,357.17,411.7,356,411.93ZM232,267.64a2.58,2.58,0,0,0,.12-3A2.7,2.7,0,0,0,232,267.64Zm-81.09-6.22c2.06.61,2.06.61,2-.86Zm-27.53,64.69-.39-.52c-1.16,0-1.62.71-1.48,2.05Zm295.2,8.59-.54-.23-1.08,3,.48.17Zm-54.29,51.67c.92-.31,1.41-.75,1.23-1.61a.68.68,0,0,0-.57-.31C364,384.71,364,385.38,364.25,386.37Zm-38.88-8.83c-.71,1.36-.05,1.72,1.17,1.66Zm106.87,16.62c-1.08-.78-1.82-1.13-3-.55C430.14,394.29,430.77,394.94,432.24,394.16Zm-117.32-93a2.64,2.64,0,0,0,3,.79C317.11,300.55,316.14,300.83,314.92,301.12Zm79.52,106.24.25-.65-3-.92-.18.51Zm-36.26-11.59-.52-.06c-.12.68-.24,1.35-.42,2.31C358.55,397.32,358.31,396.53,358.18,395.77Zm-79.37-2.32.26-.52-2.72-1.42-.23.43Zm87.69-10.28.23-.39c-.36-.42-.72-.83-1.28-1.5l-.39,1.63ZM122,226.71l-.35.37,1.65,1.78C123.61,227.24,122.68,227.06,122,226.71Zm3.39,49-.6-.36c-.13.35-.4.72-.36,1s.4.59.7.73c.1.05.59-.31.61-.51S125.47,276,125.34,275.71Zm182.72,85.46c-.13-1.57-1.17-1.56-2.31-1.38Zm-80.5-114.63-.66,0c-.46.58-.76,1.14.47,2Zm-49.83-1.95.06-.54-1.93-.28-.07.62ZM369.94,359.65l.69.26c.19-.71.37-1.43.56-2.14l-.55-.16Zm29.53,24.87.45-.46c-.08-.77-.54-1.06-1.79-1ZM209.69,340.65c.95-.33,1.17-.89.58-1.71Zm139.42,46.08c-.72.49-1.36,1-.31,1.95C348.93,387.84,349,387.29,349.11,386.73Zm9.41,15-.44-.56-1.67,1.34.21.31ZM175.86,258v.58c.69.14,1.48.91,2-.72Zm217.55,44.83-.65,0v1.8l.38,0ZM255.56,313l-.28.59a10.21,10.21,0,0,0,1.15.46c.06,0,.22-.33.33-.51Zm46.23,56.05.31-.52-2-1.23-.3.49Zm-13.52.89.64.6,1-1.35-.51-.46Zm108.65,51.24.36-.67L396,420l-.25.48Zm10.05-6.1.3-.5-1.68-.74-.19.39ZM304.66,369.62l-.44.39,1.23,1.17.32-.33ZM224,327.26l-.34.13a2.64,2.64,0,0,0,.12.81,3.15,3.15,0,0,0,.64.62l.33-.27Zm151.4,22,.54.39.92-1.81-.42-.22Zm-24.16,50.19c.61-.91.33-1.32-.8-1.47ZM160.08,248.17c-1.16.57-1.16.57-1.37,1.84ZM356.3,348.93c-1.16-.05-1.33.48-1.26,1.17,0,.12.18.21.44.49Zm-96.75,27.33-.11.56a10.28,10.28,0,0,0,1.32.35c.1,0,.24-.32.57-.78Zm-16.14-25.68.45.53c.76-.17,1.62-.25,1-2Zm-135.5-18.24.27-.18a1.78,1.78,0,0,0-.34-.72,3.39,3.39,0,0,0-.86-.4l-.2.33Zm258,46.74.31.32.76-.86c-.12-.09-.33-.28-.35-.26A9.12,9.12,0,0,0,365.93,379.08Zm9.7,47.2c.23-.2.49-.31.53-.48s-.16-.38-.25-.57a2.57,2.57,0,0,0-.6.46C375.26,425.77,375.49,426,375.63,426.28Zm-115-55,.35.49,1-.69-.22-.37ZM152.41,283.18l.4.16.84-1.92-.5-.2ZM343.22,397.63l.24-.42-1.33-.66-.16.32C342.38,397.13,342.8,397.38,343.22,397.63ZM116.37,300.31l.31.13.65-1.42-.33-.15Zm80.12,40.56-.49-.34c-.21.35-.43.68-.6,1,0,0,.33.23.5.36Zm187-29.25.39.15c.12-.38.25-.76.38-1.14a3.25,3.25,0,0,0-.41-.09C383.7,310.9,383.59,311.26,383.48,311.62Zm20.6-7.61-.51-.07c0,.5-.11,1-.13,1.49,0,.13.18.26.44.63C404,305.16,404,304.59,404.08,304Zm-229.15-50-.3-.46-1.33.88.22.36Zm-44.69,42.09-.61-.28c-.12.41-.24.82-.34,1.24a1.3,1.3,0,0,0,.39.14C129.88,296.88,130.06,296.51,130.24,296.14ZM360,396.36l.55-.06-.18-1.2-.37,0Zm58.89-57.58-.28.45,1.06.63a1.75,1.75,0,0,0,.21-.36C419.52,339.25,419.18,339,418.84,338.78ZM151.23,283.13l.47.11.28-1.39-.37-.09Zm239.49,75.53c-.13-.29-.16-.57-.31-.67s-.41,0-.62,0a2.7,2.7,0,0,0,.24.76C390.06,358.85,390.41,358.72,390.72,358.66Zm-218.9-118.6v-.58l-1.33.09v.3ZM295,368.61l-.27.22.57.79.38-.42Zm-162.27-51.5-.11.6h1.26l0-.38Zm252.75,2.43.41.18.64-1.35-.42-.19ZM379.8,420.4l.29-.18-.63-1.11-.32.19ZM398,417.68l-.74.73a5.71,5.71,0,0,0,.67.72s.46-.27.44-.37A7.25,7.25,0,0,0,398,417.68Zm-14.84,2.38a7.12,7.12,0,0,0-.76-.31,1.14,1.14,0,0,0-.17.35,5.33,5.33,0,0,0,.69.48Zm-13.36-37.23-.25-.32c-.25.2-.5.4-.74.62,0,0,.15.19.23.3ZM405,410.73l-.14.29,1.16.53.16-.34ZM393.83,349l-.34-.31-.43.47.42.37Zm25.65,32.87a3.35,3.35,0,0,0-.31.35,3.68,3.68,0,0,0,.45.43c.09-.1.27-.25.25-.3A2.83,2.83,0,0,0,419.48,381.86ZM164.24,238.37l.39.29a3.64,3.64,0,0,0,.35-.52s-.27-.25-.3-.23A2.75,2.75,0,0,0,164.24,238.37Zm72.46,39.22-.13-.06v1.39h.2C236.75,278.47,236.72,278,236.7,277.59Zm70.79,40.82v.28c.14.06.32.19.42.14s.29-.28.43-.42Zm-63.15,2.43-.37-.24-.58.88.37.24Zm170.83,79.41-.12-.45-1.25.51.11.3Zm3.65-23.12a3.59,3.59,0,0,0-1-.39c-.18,0-.36.18-.53.29.14.16.25.41.42.47S418.12,377.39,418.82,377.13Zm-29-42-.18.31,1.25.77.18-.32Zm-18.1,5.69-.43.16.35.93a2,2,0,0,0,.38-.16A9.18,9.18,0,0,0,371.69,340.82Zm59.12,51.69,0-.28-1.21-.24-.06.35ZM226.53,288.59a2.18,2.18,0,0,0-.66-.15c-.09,0-.26.27-.23.31s.29.37.41.35S226.31,288.84,226.53,288.59Zm-108.07-1.78a1.74,1.74,0,0,0,.36-.52c0-.08-.25-.22-.39-.34a3.52,3.52,0,0,0-.31.57C118.11,286.57,118.31,286.69,118.46,286.81ZM367.84,365l-.39-.12-.33,1,.27.11ZM170.39,253.82l.28-.48-.95-.34-.15.33Zm231.49,87.92.36-.29-.5-.61c-.1.08-.28.22-.27.25A5.47,5.47,0,0,0,401.88,341.74ZM238,313.16c-.2.26-.4.42-.42.6s.22.28.35.42c.14-.14.38-.28.41-.45S238.2,313.41,238,313.16Zm47.45,55.41c.39-.2.61-.26.61-.33a4.1,4.1,0,0,0-.06-.78C285.89,367.75,285.75,368.05,285.49,368.57Zm154.38-17.22-.12.32.88.35.13-.32ZM415.23,377l-.34-.22c-.06.13-.18.26-.16.38s.21.14.32.22Zm-22.65-17a4.34,4.34,0,0,0-.83-.26c-.1,0-.31.16-.31.25a1.88,1.88,0,0,0,.19.53ZM227.57,323l.62-.39c-.11-.15-.21-.42-.34-.43a.65.65,0,0,0-.52.25C227.27,322.52,227.46,322.76,227.57,323Zm144.5,56.31-.07-.44a2.43,2.43,0,0,0-.47.28s.12.24.18.37Zm49.29-50.43c-.15.51-.28.73-.24.91a.74.74,0,0,0,.38.49c.15,0,.38-.13.57-.21C421.93,329.85,421.8,329.62,421.36,328.88Zm-28.89,9-.09-.37-1,.19,0,.29Zm-96.21-6.64.38.12.3-.88a3.92,3.92,0,0,0-.4-.11C296.43,330.61,296.35,330.91,296.26,331.2Zm-173.9-60.64.16-.3-.83-.46-.16.3Zm-10,31.66.26.3.83-.75-.25-.28ZM356,378.09l-.23-.43a3.36,3.36,0,0,0-.51.32s.14.34.17.33A3,3,0,0,0,356,378.09Zm-126.87-61-.28-.08-.31,1,.35.09Zm117.34,77.76c-.08-.17-.15-.39-.19-.38a3,3,0,0,0-.59.16l.22.48Zm68.45-4.63-.36.42c.11.08.26.27.31.24a1.88,1.88,0,0,0,.44-.36ZM226.39,284.79a3.79,3.79,0,0,0,.34-.52s-.21-.22-.25-.2a.6.6,0,0,0-.29.3C226.17,284.46,226.29,284.59,226.39,284.79Z" transform="translate(-78.08 -192.53)"/><path class="cls-1" d="M517.18,418.5a1,1,0,0,1,.6,1.33c-.75,2.65-1.53,5.28-2.46,7.89-1.26,3.51-3.17,6.7-4.51,10.16a21.79,21.79,0,0,0-.62,2.36l-1.91-.94c-1,.92-1.38,1.8-.77,3a3.9,3.9,0,0,1,.1,1.81c-.24,4-2.2,7.45-3.69,11-1.11,2.63-2.49,5.15-3.74,7.72-.17.35-.23.86-.51,1-2.29,1.5-3.26,3.8-4,6.28,0,.13-.2.23-.43.48-2-.91-3.56-2.53-5.56-3.94.41-.8.75-1.58,1.18-2.3a4.36,4.36,0,0,0,.4-3.86,28.06,28.06,0,0,1-.93-5.57c-.15-1.51.9-2.28,2.19-2.76a1.94,1.94,0,0,1,.69-.17c3.33.12,4.66-2,5.77-4.75,3.93-9.6,8-19.15,12-28.73.82-2,1.45-4.06,2.2-6.08.47-1.3.72-2.79,2.81-3.15-1.52-1.13-.82-2.24-.69-3.39s1.43-1.27,1.28-2.52a8.35,8.35,0,0,1,.63-3c.27-1,.61-2,.9-3,.91-3.06,1.8-6.13,2.72-9.18.22-.75.55-1.46.88-2.33,1.62.28,3.09.59,4.58.76,1.06.13,2,.83,3.24.18.38-.2,1.24.47,2.21.88a21.77,21.77,0,0,1-1.64,3.55,7.62,7.62,0,0,0-1.65,5c-2.59.17-3.19,2.11-3.73,4.08a2.34,2.34,0,0,0-.11.94c.23,1.68-1,2.79-1.64,4.1a27.63,27.63,0,0,0-2.06,7.17,5.52,5.52,0,0,1-.51,1.14l-2.17-.74c-.49.69-.84,1.71-1.51,2s-1.61-.21-2.63-.4c-.18.43-.42,1-.65,1.51,1.06-.64,1.89-.91,2.54.45a17.22,17.22,0,0,0,1.24,1.94c-.58.47-1.16.93-1.64,1.33-1,.07-1.82-.94-2.87-.11l3.78,1.22C516.77,420,517,419.24,517.18,418.5Zm-6.7,5.72,3.6,1.07.11-.37-2.81-1.29L512,421l-.51-.12C511.16,421.91,510.86,422.92,510.48,424.22Zm8.06-17.7c2.3-.26,2.3-.26,2-2.08Zm-2.46,6.07,0-.47a2.26,2.26,0,0,0-.87-.12,5.31,5.31,0,0,0-1.21.71ZM509.38,437h-1.72C508.19,438,508.19,438,509.38,437Z" transform="translate(-78.08 -192.53)"/><path class="cls-1" d="M533.13,333.06a34.63,34.63,0,0,0,1,3.73,2.15,2.15,0,0,0,1.33,1.18,5,5,0,0,1,3.25,2.23c1.27,1.79,2.34,1.89,3.94.41,1.94-1.78,3.81-3.65,5.66-5.54a3.43,3.43,0,0,0,1.06-1.81c.23-2.35,1.69-3.2,3.78-3.64A6.26,6.26,0,0,0,558.1,325a4.8,4.8,0,0,1,3.8-3.79c.46-.13,1-.13,1.41-.27,2.61-.85,3.32-.49,4.32-3.92l1.68.64a32.1,32.1,0,0,0,.63,4.57c.12.46,1.13.68,2,.67l-1.15-1.09c1-1.15,1.43-2.89,3.64-3.08-.22,2.76-1.36,5-2.23,7.39-.1.29-.49.5-.53.77-.44,3-2.41,3.62-5,3.41-1.75-.15-3.51-.11-5.26-.16-1.52,0-2,.26-2.45,1.73-.28.91-.46,1.86-.73,2.78-.77,2.67-2.07,3.66-4.84,3.75-1.66,0-4.86,2.32-5.34,3.86a2.39,2.39,0,0,0,0,1.4c.72,2,.08,3.25-1.81,4a1.75,1.75,0,0,0-.75.59,3.37,3.37,0,0,1-4.11,1.49c-1.33-.35-3,1.21-3.41,2.66a3.79,3.79,0,0,1-.57,1.54c-1.55,1.8-2.66,3.67-1.3,6.13-2.63,1.06-5-.18-7.65.5a19.09,19.09,0,0,1,0-2.28c.5-4.27,1.11-8.54,1.52-12.82a26.53,26.53,0,0,0-.27-4.45c-2.79-.19-5.36.12-8,0-2.34-.11-4.74,1.08-7.12,1.71a1.8,1.8,0,0,1-1.11.15c1-1.59,1.92-3.19,2.92-4.77a1.21,1.21,0,0,1,1.88-.29c1.72,1.16,3.75.52,5.59,1,.41.11,1.24-.44,1.54-.9A10.68,10.68,0,0,1,533.13,333.06Z" transform="translate(-78.08 -192.53)"/><path class="cls-1" d="M326.14,541.37l1.26-3.3-3.06,2.37L309.1,526a13.75,13.75,0,0,1,1.8-.3c6.72,0,13.43,0,20.15,0a2.44,2.44,0,0,1,2.7,1.75c1.61-1.67,3.4-1.8,5.27-1.74,4.23.11,8.47.16,12.7.24a6.68,6.68,0,0,1,1,.26l-15.53,26c-1.17-1.35-3.07-1.74-2.49-3.87a2.11,2.11,0,0,0-1.1-.51c-.32,0-.66.31-1.31.66Zm3.73-6.65,1.6-3C329.07,532.85,329.07,532.85,329.87,534.72Zm-13.14-3.17.36-.36-1-.8-.25.26Zm-4.25-3.89.24-.5-.91-.35-.14.32Z" transform="translate(-78.08 -192.53)"/><path class="cls-1" d="M520.57,281.7a30.37,30.37,0,0,0-2.06,2.89,2.32,2.32,0,0,1-2.31,1.31c-3.19,0-6.38.1-9.57.13a4.69,4.69,0,0,1-1.63-.22,2.27,2.27,0,0,0-2.45.1c-.37.27-1.22-.11-2-.22,1.19-2.22,2.27-4.12,3.25-6.07.59-1.16,1.53-1.22,2.91-1l-1.49-1.88,3.27-4c-.63-2.09,1.28-2.67,2.65-3.62-.43-1.89.31-3.75,3.14-5.1l-.4-.78c1.59-2.51,3.11-4.92,4.77-7.53,4.23,3.08,7,7.3,10.64,10.79l-2.54,5.22.05-.07-3.89,6.31.05-.07q-1.22,2-2.45,3.91Zm-8.81,2.44.14.45,1-.36-.11-.33Z" transform="translate(-78.08 -192.53)"/><path class="cls-1" d="M346.8,505.39c1.49-2.13,3-4.24,4.47-6.4s3-4.52,4.43-6.8a2.72,2.72,0,0,1,2.19-1.24c.72-.07,1.42-.24,2.14-.28,3.35-.18,6.7-.36,10.05-.47,1.15,0,2.31.14,3.93.25-1.08,1.36-1.85,2.32-2.64,3.27-.07.1-.25.11-.38.16.91,1.37-.49,2.15-.9,3.12a35.19,35.19,0,0,1-2.67,4.89,9.65,9.65,0,0,1-1.81,1.62c0,2.2-.72,3.26-2.62,3.5.44,2.43-.62,4.33-2.8,4.95a3,3,0,0,1-.63,2.52,47.34,47.34,0,0,0-3.94,5.88c-3.4-3.77-7.49-6.72-10.47-11,.41-.18.67-.31.94-.4a1.6,1.6,0,0,1,.45-.07l.31-3.55Zm16-2.15.06-.19-1.29-.56c.4.44.48.6.61.65A3.09,3.09,0,0,0,362.82,503.24Z" transform="translate(-78.08 -192.53)"/><path class="cls-1" d="M491.8,265.84c1.07-.12,1.33-1,1.72-1.78a39.22,39.22,0,0,1,5.29-8.29c1.16,0,2.43.81,3.48-.4.15-.18.61-.12.93-.13l13.6-.49c0,.57.08,1,0,1-1.95,1-1.82,3.49-3.49,4.75-.64.49-.77,1.63-1.21,2.44-1.24,2.25-2.38,4.58-3.82,6.7s-2.58,4.48-4,6.66c-.58.91-1.25,1.75-1.92,2.67l-3.5-1.52-3.21,5.77-8.31-8.89,2-.25c-1.26-1.28-.57-2.44.1-3.64.83-1.53,1.58-3.11,2.36-4.66Zm10.33,11.07c.05-.18.11-.36.16-.54-1.64-1.1-1.64-1.1-3.38-.61Zm-11.07-1.17-.31.42,1,.71.2-.27Z" transform="translate(-78.08 -192.53)"/><path class="cls-1" d="M379.46,514.07c-1.23,1.75-2.55,3.44-3.67,5.26a2.65,2.65,0,0,1-2.49,1.44c-3,0-6.05.23-9.07.34a3.61,3.61,0,0,1-1.65-.13,2.5,2.5,0,0,0-2.83,0c-.24.17-.91-.29-1.31-.44,3.71-8.14,8.43-15.45,13.1-22.93.71.29,1.44.56,2.15.88a1.68,1.68,0,0,0,2.31-.61c.77-1.27,1.38-2.64,2.11-4.09l-2.57-1.67c1.45-.21,1.49-.25,2.45.74,1.83,1.89,3.62,3.82,5.41,5.75.92,1,1.83,2,2.77,3L384.69,505l.05-.07-1.49,2.47.05-.07-1.49,2.47,0-.07-2,3.67C379.76,513.6,379.61,513.83,379.46,514.07Z" transform="translate(-78.08 -192.53)"/><path class="cls-1" d="M516.16,225.36a18.16,18.16,0,0,0,1.65-1.37,3.89,3.89,0,0,1,3-1.19l15.85.11c-5.56,9.1-10.6,17.89-16.63,26.21.07-.72.13-1.44.21-2.26-.53-.49-1.12-1-1.7-1.57s-1.19-1-2.1-.43a1.39,1.39,0,0,1-1.29-.15c-2-1.75-4-3.56-6.29-5.61l2.33-.39c-2.11-1.15-1.3-2.49-.76-3.79.64-.95,1.29-1.89,1.94-2.84,1.6-1,2-2.72,2.43-4.38C515.26,226.92,515.71,226.14,516.16,225.36Zm-.58,18.55.64-.63-1.1-.91-.55.6Z" transform="translate(-78.08 -192.53)"/><path class="cls-1" d="M542.18,246.67c-.72.94-1.39,1.93-2.18,2.81a2.44,2.44,0,0,1-1.51.9c-3,0-6-.16-9.06-.29-1.12-.05-2.26,0-2.6-1.55-.07-.32-.86-.54-1.36-.68-1.61-.44-1.89-1.11-1-2.52a2,2,0,0,1,.62-.71c1.1-.62,2.08-1.25,1.63-2.8-.06-.23.22-.58.4-.85,1-1.58,2.12-3.14,3.15-4.73.5-.79.88-1.65,1.35-2.47a9.93,9.93,0,0,1,1.4-2.2,8.06,8.06,0,0,0,1.9-3.12c.66-1.69,2-3.12,3.14-4.84a109.11,109.11,0,0,1,11.14,10.31l-1.34,3.19.05-.06-1.49,2.46,0-.07-2.93,4.87,0-.07-1.49,2.47Zm-11.24,1.69,0-.41-1.13.11,0,.4Zm3.84,0a2.48,2.48,0,0,0,.13-.35s-.15-.12-.18-.1a1.94,1.94,0,0,0-.31.26Z" transform="translate(-78.08 -192.53)"/><path class="cls-1" d="M357.72,549.89c-1.32,2.64-3.5,3.32-6.3,3-1.89-.23-3.82-.08-5.74-.12-1.39,0-2.77-.12-3.22-2.06l-1.77,1.53c-.18-.2-.36-.31-.36-.42a6,6,0,0,1,1.84-5.19c.53-.47.55-1.47,1-2.13,1.32-2.14,2.72-4.23,4.07-6.35.25-.39.4-.84.64-1.24.61-1,1.23-2,1.86-3,.28-.46.6-.9.87-1.36.51-.89,1-1.8,1.49-2.68.63-1.07,1.29-2.12,2.11-3.46,4,3.19,7.42,6.67,11,10.11-.35,1-.64,1.77-.93,2.58l-2.27,4.22c-1.42.81-1.87,2.2-2.2,3.66C359.07,547.94,358.4,548.92,357.72,549.89Z" transform="translate(-78.08 -192.53)"/><path class="cls-1" d="M392.22,459.27c-.66,2.4-1.22,4.32-2.58,5.84a3.66,3.66,0,0,0-1.32,2.11,4.23,4.23,0,0,1-.91,1.67c-1.28,1.85-2.64,3.64-3.87,5.53-.55.85-.69,2-1.28,2.79A30.79,30.79,0,0,0,380,481a36,36,0,0,1-3,4.24c-1.88-1.82-3.15-3.79-5.38-5-2.06-1.1-3.68-3-5.65-4.7.71-1.56,1.26-3,2-4.39,1.7-3,3.54-5.88,5.26-8.85a5.45,5.45,0,0,1,5.42-3C383,459.39,387.32,459.27,392.22,459.27Zm-19.44,20,.38-.33-.92-.85-.27.26Z" transform="translate(-78.08 -192.53)"/><path class="cls-1" d="M504.57,308l-4.4,6.82c-.22.34-.4.7-.58,1-.89,1.7-2.1,2.6-4.21,2.24a47.43,47.43,0,0,0-4.78-.09,9.16,9.16,0,0,1-3-.71c-.47-.2-.71-.93-1.29-1.77a2.65,2.65,0,0,0-2.8,1.29c-.3.47-1.51.34-2.31.48l-.19-.44,2-1.31c-1.29-1.11-.33-2,.41-2.74a15.71,15.71,0,0,1,2.93-1.7l-1.4-.72a3.3,3.3,0,0,1,.23-.67c1-1.5,2.3-2.72,2.83-4.56.25-.86,1.51-1.36,2-2.2s.51-2,1.06-2.75a12.53,12.53,0,0,1,2.45-2.07,1.72,1.72,0,0,1,0-2.22c.8-.94,2.3-1.45,2.12-3.13,0-.19.92-.48,1.66-.84l10.39,9.72c-.46,1.18-.82,2.13-1.19,3.09l.05-.07c-.49.91-1,1.81-1.48,2.71ZM492,315.61c1.6,1,3,.51,4.26.66C495.13,315.33,493.84,315.28,492,315.61Zm-2.47.16a3.37,3.37,0,0,0-.74-.22c-.12,0-.23.16-.34.25.14.13.27.36.41.36S489.24,316,489.57,315.77Z" transform="translate(-78.08 -192.53)"/><path class="cls-1" d="M480.24,308.17l-3.69,6.39-.53-.17c0-.73.08-1.46.13-2.44-1.39,1.11-2.54.44-3.54-.42-1.61-1.42-3.13-2.94-4.79-4.52.67-1.4,1.2-2.73,1.91-4,1.78-3.11,3.66-6.16,5.44-9.27a5.13,5.13,0,0,1,5.2-3c3.67.22,7.36,0,11,.07,1.09,0,2.18.14,3.78.25l-11.24,18.67Zm-9.05-1.05c-.58-.43-.84-1.37-2-1.22.4,1.17,1.2,1.24,2.08,1.17,0,1,.24,1.82,1.64,1.81Zm9.71-1.66c-.76.83-.82,1.59-.1,2a7.13,7.13,0,0,0,2.43.72c.18,0,.6-.54.65-.87a1.14,1.14,0,0,0-.46-1A26.63,26.63,0,0,0,480.9,305.46Zm-6.27,4.93c-.16-.14-.3-.35-.47-.39s-.27.22-.4.34a2.21,2.21,0,0,0,.53.35S474.48,310.53,474.63,310.39Z" transform="translate(-78.08 -192.53)"/><path class="cls-1" d="M396.71,462.23c1,.76,2,1.47,2.92,2.3,1.92,1.74,3.8,3.53,5.92,5.51l-2.08,3.64a.78.78,0,0,1,0,.26c-.49.9-1,1.8-1.48,2.7l0-.07c-.81,1.39-1.63,2.77-2.44,4.15l-.45.42c-.49.9-1,1.8-1.48,2.7l.05-.06c-1.33,2.49-3.53,2.73-6,2.44-2.11-.26-4.33.36-6.32-.82-.88-.51-1.74-1.06-2.59-1.58-1,.08-1.2,2.13-2.59,1.16.2-.9.35-1.67.55-2.43a2.3,2.3,0,0,1,.43-1.09c1.24-1.28,1.73-3,2.59-4.45.67-1.14,1.7-2,2.17-3.37a20.87,20.87,0,0,1,2-3.18c.58-1,1-2.11,1.56-3.17,3.93,2.09,4,2.1,6-1.79a24.8,24.8,0,0,0,1.22-3.32Zm-9.14,21.38a2.21,2.21,0,0,0-.62-.18c-.1,0-.19.18-.29.28a2.28,2.28,0,0,0,.57.27C387.3,484,387.41,483.79,387.57,483.61Z" transform="translate(-78.08 -192.53)"/><path class="cls-1" d="M380.11,492.53l30.33,10.83.46-1.46,1.77,2.14c1.22-1.36-.06-1.86-1.05-2.94l2.78.67c-.11,1.12-.21,2.11-.32,3.25-1.45-.18-2,.79-2.65,1.89-2.2,3.79-4.51,7.5-6.79,11.25a4.9,4.9,0,0,1-3.3-2.06c-4.59-5-9.11-10-13.7-15-2-2.17-4.1-4.23-6.15-6.34-.57-.6-1.11-1.23-1.67-1.85Zm8.31,7.6.34-.32-1.05-.77-.23.3Zm-2.4-2.78.28-.28c-.05-.13-.07-.35-.16-.39a3.38,3.38,0,0,0-.72-.1Z" transform="translate(-78.08 -192.53)"/><path class="cls-1" d="M329.09,490.17c2.35-4.78,5.61-8.85,7.72-13.77L349.08,481l1.34-1.84,2.51.77a4.18,4.18,0,0,1,0,1.32c-.31,1,.19,1.24,1,1.54,4.16,1.61,8.3,3.3,12.46,4.9a32.85,32.85,0,0,0,3.47.91C366.63,489.53,331.45,490.91,329.09,490.17Zm27.05-3.23a4.43,4.43,0,0,0-.31.86c0,.12.14.36.21.36a2.06,2.06,0,0,0,.56-.19C356.52,487.79,356.44,487.6,356.14,486.94Z" transform="translate(-78.08 -192.53)"/><path class="cls-1" d="M511.83,253.38l-12.77.4-.14-.45,2-1.78c-1.62,0-2.83-.07-4,0a3.4,3.4,0,0,0-3.16,1.76c-.28.53-1.52.73-2.33.77-3.27.15-6.54.15-9.81.27-2.63.09-5.25.29-7.88.4a21.1,21.1,0,0,1-2.32-.15,7,7,0,0,1,.46-1.46c2.25-3.77,4.55-7.51,6.77-11.3a1.79,1.79,0,0,1,2.58-.84q9.91,3.91,19.85,7.79c1,.38,2,.68,2.92,1.08s2.19.15,2.25,1.68c0,.15.66.33,1,.41,1.55.34,3.11.66,4.66,1Zm-24.57-.53a9.63,9.63,0,0,0,5.67-.47C491,252.12,489,251.15,487.26,252.85Zm-5.76,0c-.76.28-1.7-.47-2.45.55C480.46,253.73,480.46,253.73,481.5,252.82Zm3.34.34c0-.18,0-.37,0-.55a3.77,3.77,0,0,0-.88-.1,3.35,3.35,0,0,0-.78.29l.05.36Zm-8.94.11.21.47,1.37-.58-.22-.51Zm26.3-1.69v.25h1.2v-.25Z" transform="translate(-78.08 -192.53)"/><path class="cls-1" d="M526.75,261.17l3.25,1.19-2.46-3,.32-.45c1.24.44,2.49.85,3.72,1.31q7.5,2.79,15,5.62a11.76,11.76,0,0,1,2.36,1.09c1.45.92,2.78,2.1,4.71,1.53.15-.05.4.22.54.31-.17,1.75-.33,3.44-.53,5.14a2.28,2.28,0,0,1-.32.89c-1.78,2.92-3.58,5.82-5.49,8.91a12.35,12.35,0,0,1-1.7-1.15c-1.12-1.13-2.2-2.31-3.22-3.53a1.44,1.44,0,0,1-.23-1.23,1.23,1.23,0,0,0-1-1.81c-2.89-.14-3.81-2.39-5-4.34l1.08-.14c-2.35-3.33-3.4-4.39-4.84-4.86.12.59.23,1.11.33,1.63l-2-2.1,1.78-.77-2-1.77-1.49,1c-.92-1.21-1.81-2.36-2.7-3.52Zm12.72,12.18-.49.53,1.26,1.16.4-.41Zm4.68,6.22.52-.29c-.24-.32-.47-.65-.73-.95a1.38,1.38,0,0,0-.33.2C543.78,278.89,544,279.23,544.15,279.57Z" transform="translate(-78.08 -192.53)"/><path class="cls-1" d="M331,511.15c-.24,0-.56,0-.7-.11-1.26-1.2-2.43-.83-3.61.13-.1.08-.3,0-.64.08-.35-2.05-1.82-2.67-3.76-2.91a12.48,12.48,0,0,1-3-1.19c.46-2.06,6.07-11.5,8.2-13.77a18.85,18.85,0,0,1,1.91,1.56q9,9.48,17.89,19c.75.8,1.91,1.52,1,3-.09.15.52.72.81,1.1l0,0-3.72-1.55-.05.05a3.77,3.77,0,0,1,.47,0c.66,0,1.05-.16,1-.91s-.6-.82-1.17-.61a3.52,3.52,0,0,0-.76.54l.06,0c-.26-1.09-.8-1.68-2-1.16a3.94,3.94,0,0,1-.92.16l0,0a1.81,1.81,0,0,0-1.75-1.86c-.38-.06-.86,0-1.11-.27-1.08-.95-1.93-.61-2.89.22-.27.22-.94,0-1.43,0l0,0,.76-1.28-1.26,0-.66-.22a5.26,5.26,0,0,0-.58-.74c-.86-.78-1.62-.5-2.11.75Zm-7.07-4.77-.71-.21c-.09.43-.18.86-.28,1.29l.85.13C323.8,507.19,323.85,506.78,323.89,506.38Z" transform="translate(-78.08 -192.53)"/><path class="cls-1" d="M348,524.33c-6.29.5-37.13.14-39-.44a9.15,9.15,0,0,1,.56-1.49c1.68-2.9,3.36-5.8,5.1-8.67.92-1.52,1.17-1.55,2.7-1,7.33,2.74,14.67,5.46,22,8.22C342.09,522,344.77,523.07,348,524.33Z" transform="translate(-78.08 -192.53)"/><path class="cls-1" d="M479.68,278.43l-1.36-.31c-.42-1-.67-2.44-1.12-2.51-1.56-.23-2.93-2.32-4.72-.65l.06.05c-.33-2.38-2.53-2.12-4-2.65a9.42,9.42,0,0,1-2.38-.77,1.75,1.75,0,0,0-1.69.15c-1.14,1.31-2.1.59-3.12,0,.13-1.91,5.74-11.55,8-13.88,1.86.92,19.86,20,21.59,22.88-.19.12-.52.37-.55.34-1.39-1.46-3.26-1.7-5.09-2.16a18.82,18.82,0,0,1-3.55-1.8,2.82,2.82,0,0,0-1.11-.43,7.41,7.41,0,0,0-1.51.28c.17.49.34,1,.5,1.46Z" transform="translate(-78.08 -192.53)"/><path class="cls-1" d="M376.53,527.53a1.88,1.88,0,0,0-1.58-2c-2.36-.71-4.69-1.51-7-2.29-.18-.06-.28-.34-.43-.54,2.15-.67,33.11-2,34.72-1.47-.33,1.69-6,11.37-8.13,13.79l-10.8-4.18,4.5.68a9.29,9.29,0,0,0-1.35-1.13c-2.3-1.11-4.65-2.13-6.93-3.3A2.32,2.32,0,0,0,376.53,527.53Z" transform="translate(-78.08 -192.53)"/><path class="cls-1" d="M498.74,208.76C502,210,505,211,508,212.15q6.72,2.53,13.41,5.13a3.77,3.77,0,0,1,1.66.88c1,1.35,2.35,1.45,3.78,1.66s2.58.56,3.86.86l-.06.52c-6.48,0-13,.08-19.44,0s-12.8.18-19.75-.4Zm21.72,10.74c-1.68-1-1.68-1-2.49.45Zm-4,.14,0-.58a2,2,0,0,0-2.3.7Zm-19.8-.56,0,.54,1.19-.21,0-.33Zm11.67.23a2.71,2.71,0,0,0-.67-.35c-.11,0-.25.12-.38.19.12.15.23.39.38.44S508,219.46,508.29,219.31Z" transform="translate(-78.08 -192.53)"/><path class="cls-1" d="M379.46,514.07l.44-.71c.24-.22.43-.54.71-.63,1.59-.55,1.81-1.63,1.24-3l0,.07,1.49-2.47-.05.07,1.49-2.47-.05.07,2.93-1.76,15,15.8c-1.1.34-1.73.56-2.37.72a5.11,5.11,0,0,1-1,0l-21.75.69a3.3,3.3,0,0,1,.26-3.21C378.43,516.23,378.92,515.13,379.46,514.07Z" transform="translate(-78.08 -192.53)"/><path class="cls-1" d="M575.87,237.79c-2.16,4.22-4.84,8-7.15,11.87-2.17-1-16.68-14.74-17.5-16.55,1.53-.36,1.91,1.55,3.49,1.69-1.15-1.44-1.94-2.77-3.88-2.58a2.19,2.19,0,0,1-1.54-.44c-1.84-1.65-3.6-3.39-5.37-5.11-.14-.14-.16-.4-.24-.62.22,0,.43-.12.5-.06,1.8,1.71,4.16,1.8,6.38,2.4s4.5,1.62,6.75,2.45c5.61,2.06,11.24,4.11,16.85,6.18C574.67,237.2,575.16,237.46,575.87,237.79ZM559.44,239c-.21-.8-.56-1.38-1.6-1.16.21,1.09.93,1.09,1.64,1.11.57,1,.91,2.3,2.4,2.42.54.75,1.06,1.52,1.63,2.25s.66,1.82,2,1.61c-.94-2.19-1.81-3.08-3.67-3.81A2.92,2.92,0,0,0,559.44,239Zm-9.91-8.92.33-.22-.59-.88-.32.21Z" transform="translate(-78.08 -192.53)"/><path class="cls-1" d="M534.27,305.9a117.78,117.78,0,0,1-7,11.56c-2.37-.73-3.53-2.57-5-4q-9.72-9.08-19.35-18.24a2.33,2.33,0,0,1-.76-1.24Zm-17.48-.26c0,1.28.86,1.4,1.78,1.48Zm4.43,4.08-.42.41,1.09.85.24-.25Zm2.28,2.57-.23.3.68.64.33-.43Zm-11-10.33.25-.32-.89-.71-.25.33Z" transform="translate(-78.08 -192.53)"/><path class="cls-1" d="M359.06,528.86a3.57,3.57,0,0,1,.66-.19,23.75,23.75,0,0,0,6.77,2.34,70.56,70.56,0,0,1,7.21,2.6c2.33.85,4.67,1.67,7,2.52a2.16,2.16,0,0,1,.47.33l-.17,2,4.24,1.6c1.19.46,1.68-.55,2.27-1.38l3.45,1.19c-.57,2.09-5.25,10-7.14,12a20.84,20.84,0,0,1-2.18-1.62c-5.14-4.9-10.25-9.85-15.4-14.76-1.62-1.54-3.34-3-5-4.48C360.55,530.41,359.91,529.72,359.06,528.86Z" transform="translate(-78.08 -192.53)"/><path class="cls-1" d="M511,289.41c-.11-.53-.21-1.06-.36-1.81l35.3-1.44a14.21,14.21,0,0,1-.78,2q-3.21,5.34-6.49,10.63c-1.17,1.88-1.21,1.86-3.22,1-.59-.24-1.16-.51-1.7-.74-.49-.82.9-1.73-.28-2.41-1.41-.81-1.64,1.22-3,1.17.1-.52.32-1,.21-1.31a2.13,2.13,0,0,0-.89-1.2c-2-.83-4.08-1.53-6.1-2.31-3.48-1.34-6.95-2.69-10.4-4.1a1.91,1.91,0,0,0-2.37.42Z" transform="translate(-78.08 -192.53)"/><path class="cls-1" d="M526.77,271.68l4-3.67,15.13,16.35a22.85,22.85,0,0,1-3.16.62c-7.09.22-14.19.39-21.28.57a5.22,5.22,0,0,1-.86-.1c-1.31-1.32,1.14-2.49,0-3.75l0,.06a6.65,6.65,0,0,0,2.45-3.91l-.05.07c1.31-.18,2.52-.42,2.23-2.26-.06-.38.32-.83.5-1.26l1.16-2.79Zm9.36,11.39c-1.52-.91-1.52-.91-2.6.28Zm-5.85-.1v.45h1.81V283Zm-6.45.88c-1.35-.2-1.35-.2-1.39,1.11Z" transform="translate(-78.08 -192.53)"/><path class="cls-1" d="M423.87,334.1c1-3.51,4.46-9.29,6.82-11.31C438.92,330,447,337.44,454.89,345l-.28.5Z" transform="translate(-78.08 -192.53)"/><path class="cls-1" d="M463.59,335.83l-1.5-.27c-.9,3.58-3,6.41-5,9.67l-2.24-2.39,2.86-.28c.44-1.26.94-2.66,1.54-4.36l-5.19-2.05-1.45,1.73-1.7-1.31-.3.27,2.75,3.1c-.6.74-1.14.39-1.62,0-1.66-1.5-3.3-3-5.07-4.63a9,9,0,0,1,.64-2c1.89-3.21,3.85-6.37,5.76-9.57a3.05,3.05,0,0,1,3.37-1.53c2.51.23,5.07-.1,7.61,0a27.06,27.06,0,0,1,5.14.71,8.6,8.6,0,0,1,2.16,1.37c1,.63,1.75.28,2.28-.7-.64-1.18-2.35.46-2.86-1.28l5,.42a81.9,81.9,0,0,1-4.88,8.53c-1.86,2.55-2.55,5.91-5.39,7.88-.69-.86.74-2.63-1.2-2.84,2.37-.05,2.85-.42,3.72-3.05l-12.63-4.52c-.1,1.88.69,3.53-.37,5.08-.14.2.41,1.17.84,1.4a13.87,13.87,0,0,0,3.14,1.14,2.28,2.28,0,0,0,1.73-.13c.74-.71-.12-1.25-.52-1.79l0,0Zm-5.52-8.47.78-1.24c-1.84-.31-3.11-1.8-5.2-1.25,1.12,1.88,2.84,2.08,4.47,2.46,3.55,1.83,7.39,2.85,11.22,4.33l1.77-3.28-2.73.56c-.84-1.74-.54-1.95-2.72-.69-.23-.46-.34-1.15-.72-1.35a14.24,14.24,0,0,0-3.27-1.25,2.9,2.9,0,0,0-1.68.49A20.1,20.1,0,0,0,458.07,327.36Zm-9.82,6.95-.41.48c.39.32.76.68,1.17,1,.09.06.36-.13.8-.32Z" transform="translate(-78.08 -192.53)"/><path class="cls-1" d="M346.85,505.33l-3.05,2.74c-.59-.54-1.07-.93-1.49-1.38q-3.44-3.65-6.85-7.33c-.67-.73-1.6-1.29-1.25-2.59.07-.24-.63-.89-1.07-1a6.24,6.24,0,0,1-4-3.62L354.06,491a7.21,7.21,0,0,1-.39,2.49c-1.24,1.91-1.83,4.29-4,5.56a.83.83,0,0,0-.32.35c-.87,2-1.73,4-2.6,6Zm-6.48-3.07-.27.21c0,.14.08.37.17.4a3,3,0,0,0,.67,0Z" transform="translate(-78.08 -192.53)"/><path class="cls-1" d="M360.78,447.32c1.54.77,3.06,1.57,4.63,2.28.94.43,2,.65,2.91,1.1a4.48,4.48,0,0,1,1.54,1.26c1,1.27,2.18,2,3.71,1.5,2-.71,3.62.3,5.09,1.24a7.09,7.09,0,0,0,2.06.87,45.44,45.44,0,0,1,6.11,2.09c-4.16.64-8.32.17-12.45.28s-8.31.06-12.46,0-8.36.25-12.94-.34c.86-1.56,1.45-2.67,2.07-3.75,1.08-1.86,2.2-3.71,3.29-5.56,1.17-2,1.45-2.1,3.62-1.41.75.24,1.54.36,2.32.53Z" transform="translate(-78.08 -192.53)"/><path class="cls-1" d="M491.85,265.78c-.7.94-1.46,1.85-2.1,2.84-1,1.53-1.89,3.14-3.95,3.81L471.23,257l.25-.55,25.13-1.08a9.21,9.21,0,0,1-.69,2.77c-1.28,1.86-1.84,4.24-4,5.52-.82.49-.41,1.43-.12,2.18ZM478.42,262l-.57.57c1.87,1.59,2.86,4.09,5.27,5.12l.4-.39Zm-1.75-.75.51-.53-1.46-1.31-.47.51Zm-3.08-3.77-.17.38a2.13,2.13,0,0,0,.44.5,5.24,5.24,0,0,0,1,.33c-.27-.49-.33-.75-.49-.87A3.34,3.34,0,0,0,473.59,257.52ZM485.22,269l-.53.53.81.8.6-.59Z" transform="translate(-78.08 -192.53)"/><path class="cls-1" d="M471,282.05c-.2-1-.34-1.71-.59-2.94l3.3,1.44c-.76,2.28.64,2.92,2.35,3.61,2.12.85,4.52,1.13,6.28,2.84.34.33,1.06.23,1.59.38,1.56.45,3.12.94,4.68,1.41l-.12.62L452.13,289c2-3.37,3.8-6.53,5.71-9.63,1-1.64,1.08-1.62,2.88-1Zm-8.35,4.65c1.14.66,1.14.66,2.24-.15Zm-3.47,0v.6l1.66-.09,0-.51Zm-3.41.16.09.41,1.51-.34-.07-.35Zm21.87.22c.35.12.58.27.76.23s.26-.29.39-.45c-.21-.09-.41-.25-.61-.24S477.9,286.88,477.65,287.1Z" transform="translate(-78.08 -192.53)"/><path class="cls-1" d="M405.67,465.65c-.16-.53-.16-1,.56-.93a13.53,13.53,0,0,1,2.27.71c2.62.95,5.25,1.89,7.85,2.89,1.29.5,2.57.84,3.44,2.26s2.62,1.19,4.15.76c1-.27,1.95-.45,3.05-.7.27,2.87,3.16,1.8,4.49,3.59l-6.83,11.27a21,21,0,0,1-2.7-1.82c-4.59-4.29-9.13-8.65-13.71-13-.72-.68-1.41-1.32-1.23-2.42a.83.83,0,0,1,0-.31l1.38.13c-.72-1.21-.72-1.21-1.87-1.61ZM420.81,481l.45-.45-.38-1.06-.46.46Zm-1.91-3.11a4,4,0,0,0-.57-.23.77.77,0,0,0-.15.3,3.46,3.46,0,0,0,.52.32Zm-8.63-8.23a3.75,3.75,0,0,0-.6-.24.84.84,0,0,0-.17.34,5.15,5.15,0,0,0,.56.33Z" transform="translate(-78.08 -192.53)"/><path class="cls-1" d="M467.38,320.59,432,320.16a4.53,4.53,0,0,1,.21-1.41c1.71-2.87,3.48-5.71,5.2-8.59a1.86,1.86,0,0,1,2.62-.84c6.47,2.5,13,4.95,19.42,7.47.8.31,2,.21,2.15,1.54,0,.16.67.26,1,.36,1.6.42,3.19.82,4.79,1.22Zm-8.12-1.41.15-.83-4-.59-.09.54Z" transform="translate(-78.08 -192.53)"/><path class="cls-1" d="M304.09,539.46l-3.6-.87c.56-2.2,5.19-10,6.95-11.85a13.19,13.19,0,0,1,1.45,1.07q9.25,8.69,18.48,17.41c.47.43.83,1,1.32,1.39.81.66.82,1.42.4,2.59l-4.33-2c.66-.37,1.1-.78.39-1.53-.88.45-.62,1-.33,1.57l-3.92-1.51c.68-.11,1.56.34,2-.64-1.57-.91-1.63-.88-1.92.69l-5.29-1.93c.2-.12.5-.19.58-.36a4.64,4.64,0,0,0,.21-1l-1.26-.13a5.39,5.39,0,0,0,.09,1c.06.21.29.36.44.54l-3.09-1.28,1.49-.61c-1-1.2-1.74-1-2.66-.18l1.06.84-5-1.55,1-1.48c-.9-.88-1.73-.2-2.53-.17l0,0a5.8,5.8,0,0,0-1.06-1.4c-.23-.17-.8.12-1.22.2l.32,1.2Zm22.15,7.76,2,.73C327.44,546.75,327.44,546.75,326.24,547.22Zm-7.13-4c-.3.38-.65.66-.6.8a1,1,0,0,0,.66.53c.22,0,.48-.27.71-.42Zm-9.43-3.63a5.15,5.15,0,0,0-.35,1c0,.12.12.36.18.36s.46-.07.52-.2S309.94,540.43,309.68,539.64Z" transform="translate(-78.08 -192.53)"/><path class="cls-1" d="M360.62,559.78c-.67-2-1-2-3.15-.28a4.19,4.19,0,0,1-.64-.19c-.36-.15-.71-.35-1.38-.69l1.59-.32c-.53-1.23-3.14-2.28-5-2l0,.06c-1-1.59-1-1.61-2.94-1l.05,0c.33-1.33,1.35-1.35,2.44-1.35,3.91,0,7.82,0,11.73,0q7.89,0,15.78,0c1,0,2,.16,3.43.29a122.52,122.52,0,0,1-7.2,12.17l-5-2.47,1.38-.59c-.2-.29-.34-.75-.6-.83a3.25,3.25,0,0,0-1.22.11l.5,1.35-2.86-1.09,0,0,.9-.19c-.16-.38-.21-.91-.44-1-1.47-.56-2.88-2-4.61-.5a1,1,0,0,1-.88.09,9.36,9.36,0,0,1-2.94-1.58l1.11-.06a1.52,1.52,0,1,1,0,.06Z" transform="translate(-78.08 -192.53)"/><path class="cls-1" d="M361.94,543.3l2.27-4.22,2.28-1c2.77,1.89,14.14,12.8,15,14.34-1.57.51-19.37.65-23.77.16V549.9l2-2.94C360.79,545.93,362.65,545.39,361.94,543.3Z" transform="translate(-78.08 -192.53)"/><path class="cls-1" d="M483.78,493.8c-2.09-1.7-3.64.52-5.42.95-2.06.5-2.32,2.84-2.86,5l-4-.58a11.5,11.5,0,0,0,.95-2.82c0-.49-.64-1-1.3-2,.26-1.76,1.76-3.72,3.14-6.29l-10.22-9.32c4.29-.23,6.39.83,8.15,3.71a4.84,4.84,0,0,0,1.32,1.31c.82.61,1.7,1.13,2.81,1.86l3.7-3.55c1.32.76,2.25,2.21,4.39,1.85-.66-1-1.16-1.88-1.72-2.68s-1-1.67-.45-2.64c.39-.65,1.74-.45,2.82.38a6.35,6.35,0,0,1,2.36,3.92l-1.65.79C487.32,488.63,487.22,491.85,483.78,493.8Z" transform="translate(-78.08 -192.53)"/><path class="cls-1" d="M361.2,479c-2.58-.78-5.19-1.47-7.73-2.38s-2.35-.95-4.73,0c.26-2.08-1.61-2.19-2.74-2.92a14.34,14.34,0,0,0-3.13-1.12c-.66-.22-1.31-.47-2.11-.77.68-2.14,1.07-4.2,3.15-4.75a41.89,41.89,0,0,1,2.19-4.9c1.11-1.81,1.83-1.83,3.4-.38q7.37,6.81,14.7,13.68a11.46,11.46,0,0,1,2.32,2.79l-2.2-.44L363.09,479l.06,0a7.29,7.29,0,0,0-.39-1.33c-.16-.3-.55-.75-.75-.71a1.53,1.53,0,0,0-1,.72c-.13.37.11.88.18,1.33Zm-3.41-1.56c1,.37,1.89,1.06,2.49-.24a1.24,1.24,0,0,0-.44-1.11C358.68,475.43,358.16,476.15,357.79,477.43Zm-14.14-5.58c1.59,1,1.59,1,2.32-.79C344.82,470.28,344.11,470.62,343.65,471.85Zm12.48,3.61c.12-.07.31-.12.35-.22s-.11-.24-.18-.37l-.49.3Z" transform="translate(-78.08 -192.53)"/><path class="cls-1" d="M403.45,473.94a.78.78,0,0,0,0-.26c1.08-.77,2.16-1.55,3.35-2.42l15.35,14.29c-.74.33-1.14.67-1.53.67-7.42,0-14.84,0-22.33,0-.24-.94-.42-1.7-.61-2.46l-.05.06c1.23-.5,1.36-1.6,1.48-2.7l.45-.42c.34-.33.62-.82,1-1,1.63-.59,1.77-1.76,1.41-3.19l0,.07C402.47,475.74,403,474.84,403.45,473.94Zm7.43,9.65,0,.56,1.09-.06v-.38Zm-5,.4c-.15-.17-.24-.34-.34-.35a.57.57,0,0,0-.4.16s.06.32.09.32A3.73,3.73,0,0,0,405.91,484Z" transform="translate(-78.08 -192.53)"/><path class="cls-1" d="M547.89,237.12l2.79-1.73c5.21,4.72,10.24,9.63,15.38,14.67-1.71.56-19.56.56-24.19.11.11-1.17.21-2.33.31-3.5l0,.05,1.49-2.47,0,.07c.92-.62,2.3-.7,2.51-2.15l.42-2.72,0,.07,1.49-2.46Zm-2,12.2.14-.62-1.87-.44-.15.67Zm10.1-.45,0-.55-1.22.2,0,.35Zm2.56-.54,0,.49,1.3-.22,0-.27Zm-9,.08a3.18,3.18,0,0,0-.76-.21c-.11,0-.21.17-.32.27.15.13.3.36.46.36S549.23,248.62,549.53,248.41Z" transform="translate(-78.08 -192.53)"/><path class="cls-1" d="M196.4,234.35l4.44.4c.79-1.9,2.31-3.66,1.29-5.75a31.34,31.34,0,0,1,3.83-.52,2.63,2.63,0,0,1,1.88.69,19.43,19.43,0,0,1,1.93,3.2,18,18,0,0,1,.78,1.87,18,18,0,0,0-1.53,2.25c-.74,1.62-1,3.38-2.18,4.91a4.51,4.51,0,0,0-.83,4.48,3.14,3.14,0,0,1-.15,1.61c-.33,1.6-1.18,3.16-.12,4.83.2.31-.12.92-.13,1.4,0,1.19,0,2.38-.05,3.89l-1,.32c-.17-.12-.29-.18-.29-.21.3-1.36-1.39-1.73-1.43-2.83s.73-2.58.24-3.24c-1.37-1.88-.28-3.42,0-5.14.27-1.48.29-3,.41-4.5-1.46,1.2-2.8,4.09-3.72,7.06-.83,2.67-1.15,5.25,0,7.87-2.07.55-2.41.39-4.05-1.74,2-.4,2.26-1.85,2.14-3.44-1-1.16-1.84-.6-2.69.21l-1.17-2.05h2.12L200.93,236l-4.48-1.72Z" transform="translate(-78.08 -192.53)"/><path class="cls-1" d="M504.57,308l.61-.59c.5-.9,1-1.8,1.48-2.71l-.05.07,2.7-1.36c4.43,3.45,14,12.83,14.93,14.66a16.25,16.25,0,0,1-1.85.22c-6.55-.06-13.1-.15-19.65-.23a5.71,5.71,0,0,1-1.66-.12,1,1,0,0,1-.64-1.52c1.08-1.84,1.32-4.24,3.57-5.35.32-.16.4-.94.48-1.44A12.62,12.62,0,0,0,504.57,308Zm7.07,7.8h-4.42C508.74,315.86,510.19,317.73,511.64,315.83Zm-9.16.12c.92.92,1.47.89,2.47,0Zm16.44.59,0-.62-1.6.08v.45Zm-4.14,0,0-.59-1.29.06v.39Z" transform="translate(-78.08 -192.53)"/><path class="cls-1" d="M364.18,473.59l-14.92-13.86a6.26,6.26,0,0,1,1.36-.4c6.69,0,13.38-.06,20.07,0,.87,0,2.16-.49,2.47.74a3.71,3.71,0,0,1-.69,2.33c-.79,1.36-1.33,2.93-2.93,3.67a1,1,0,0,0-.51.74c.17,1.79-1.15,2.9-1.82,4.3A4.46,4.46,0,0,1,364.18,473.59Z" transform="translate(-78.08 -192.53)"/><path class="cls-1" d="M516.16,225.36c-.45.78-.9,1.56-1.34,2.34-.49.52-.88,1.32-1.47,1.52-1.74.57-1.35,1.67-1,2.86-.65.95-1.3,1.89-1.94,2.84-1,.83-2,1.68-3.1,2.58-5.11-4.86-10.08-9.49-14.92-14.43,1.68-1,1.42,1.21,2.67,1l.15-1.2a13,13,0,0,1,1.57-.19c5.82,0,11.65.06,17.47.13C516.48,222.79,516.72,223.16,516.16,225.36Zm-10.9,7.79c.09.9.4,1.59,1.69,1.26l-1.73-1.21-1.47-1.86C503.72,232.49,503.74,233.63,505.26,233.15Zm-8.21-7.58-.31.22.46.8.45-.31Zm2,1.56-.34.41.91.75.32-.38Z" transform="translate(-78.08 -192.53)"/><path class="cls-1" d="M466.07,305.35l-14.86-14.19c1.09-.4,1.1-.41,2.94,1.08.83.66,1.61,1.38,2.76,2.38-.18-2.14-2.12-2.35-2.62-3.84a5.56,5.56,0,0,1,1.28-.28q9,.11,18,.27c1.84,0,2.21.62,1.23,2.19s-1.45,3.77-3.54,4.62a1,1,0,0,0-.43.81c.26,2.34-1.63,3.72-2.53,5.52C467.94,304.55,466.9,304.83,466.07,305.35Zm-7.22-8.91.49-.52L458,294.7l-.41.43Zm7,6.42c-.11-.57-.08-.83-.2-.93a2,2,0,0,0-.67-.29l-.19.32Z" transform="translate(-78.08 -192.53)"/><path class="cls-1" d="M566.84,252.59a92.37,92.37,0,0,1-7.43,11.77l-4-1.56.59-2.09c-6.75-3-13.83-5.23-20.64-8.33C537.48,251.71,564.32,251.82,566.84,252.59Z" transform="translate(-78.08 -192.53)"/><path class="cls-1" d="M518.28,332l-4.1-1.83,1-2.18c-6.63-3-13.57-5-20.47-8,3.36-.68,28.57-.36,30.55.39A115,115,0,0,1,518.28,332Z" transform="translate(-78.08 -192.53)"/><path class="cls-1" d="M489.32,235.39l-1.92-.3-1.15,1.68-3.16-1.62c.77-2.3,5.58-10.09,7-11.36,1.74.68,18.8,16.77,20.53,19.47-2.44-.86-4.66-1.58-6.84-2.42-2.59-1-5.11-2.2-7.72-3.14-1.37-.49-2.44-.91-2.6-2.64-.06-.58-.92-1.27-1.57-1.58a11.05,11.05,0,0,0-3-.82c-.36-.06-.8.29-1.2.45a4.23,4.23,0,0,0,.58,1.12,4.7,4.7,0,0,0,1.19.65Z" transform="translate(-78.08 -192.53)"/><path class="cls-1" d="M153.72,355.23l3.26-2.7c.05,0,.16-.07.19-.13.48-.89.74-2,2-2.1.93-.07,1.86-.09,3.08-.15l-2.8-1.62c.88-1.43.88-1.43,4.33-.55-1.47-1.2-2.43-2.64-1.64-4.39s2.68-1.85,4.19-1.6a24.19,24.19,0,0,1,5.58,1.95,3.82,3.82,0,0,1,1.53,1.77,2.36,2.36,0,0,1-1.69,3.67,26.8,26.8,0,0,1-4,.31l4,1.68c-.73,1.79-.73,1.79-3.46,1.32a12.45,12.45,0,0,1,1,1.38c.8,1.44.12,2.56-1.53,2.51-.68,0-1.36-.17-2.49-.32.6.57,1,.78,1.13,1.1.24.51.61,1.31.39,1.61a2.24,2.24,0,0,1-1.72.95A25.53,25.53,0,0,1,153.72,355.23ZM170.88,347c-1.71-2.39-4.23-3.17-6-2C166.38,347.16,168.08,347.76,170.88,347Zm-9.34,5.29-.16.54c1.76,1.35,2.66,1.63,5.15,1.35ZM159,356.33l3.73-.32C161.24,354.88,160.1,355.54,159,356.33Z" transform="translate(-78.08 -192.53)"/><path class="cls-1" d="M409.58,495.91l-.16-1.76-8.08-3a60.39,60.39,0,0,1-8.11-3.51c9.2-.07,18.41-.16,27.61-.2a7.2,7.2,0,0,1,1.77.45c-.67,2.28-4.62,8.92-6.84,11.54l-8.25-3.29,2.1-.28a6.71,6.71,0,0,0,1.59.91,1.71,1.71,0,0,0,1.17-.48.92.92,0,0,0,0-.82,2.67,2.67,0,0,0-1.45-.41A4.31,4.31,0,0,0,409.58,495.91Z" transform="translate(-78.08 -192.53)"/><path class="cls-1" d="M469.34,310.79l-16.63-6.43c-1.33-.52-2.68-1-4-1.54-1.79-.75-3.45-1.12-4.25,1.37l-1.95-.83c1.64-1.68,2.4-3.73,3.52-5.58a58.23,58.23,0,0,1,3.91-5.19C451.55,293.29,466.45,307.16,469.34,310.79Z" transform="translate(-78.08 -192.53)"/><path class="cls-1" d="M451.37,322.21c1,1.71-1.15,2.54-1.22,4.11a5.63,5.63,0,0,1-2.46,3.64c-1.38,1-1,3.11-3.16,3.5l-12.47-11.52c3.51-.08,6.6-.23,9.68-.19S448.12,322.05,451.37,322.21ZM442,328.53l-.25.31.84.66.25-.31Z" transform="translate(-78.08 -192.53)"/><path class="cls-1" d="M506.26,341.28l-5-1.38a7,7,0,0,0-1.36-.35c-2.53-.15-3.05-.74-4.13-3.17a5.13,5.13,0,0,0-2.69-2.09,6.24,6.24,0,0,1-3.41-2.93c1,.27,1.94.47,2.86.82,2.09.78,4.14,1.63,6.21,2.47a1.49,1.49,0,0,0,2.25-1,1.8,1.8,0,0,1,.41-.55l4.39.75a2.56,2.56,0,0,0,.29,3.51l1.42-2.86,2.28,2.06a5.19,5.19,0,0,1,5,.68c-.54,2.07-5.24,9.58-7.15,11.13l2.24-4.69c-1.49-.65-2.23.12-2.86,1.09-.51.78-1,1.5-2.15.56.55-.7,1.06-1.38,1.59-2a1.3,1.3,0,0,0-.18-2.07c.76,0,1.56.06,1.53-1.29l-2-.13a7.36,7.36,0,0,0-5.29-1.86c1.72,1.16,3.06,2.81,5.34,1.81C505.28,340.49,505.75,340.89,506.26,341.28Zm-5.1-6c.79.57,1.39,1.21,2.1.29a.83.83,0,0,0-.14-.81C502.4,334.19,501.74,334.2,501.16,335.32Zm-2.49,2.42.33-.57-1.33-.47-.17.37Z" transform="translate(-78.08 -192.53)"/><path class="cls-1" d="M155.7,312.85c1.49-.22,1.49-.22,2.81,1.88l-2.31,4.18-1.57-.83-.32.27,1.41,2.26-1.25.13v1.75c-.24,0-.46,0-.53-.06-2.47-2.8-4.95-5.58-7.35-8.44a1.93,1.93,0,0,1-.24-1.72c1.19-2.41,2.53-4.76,3.92-7.34a9.79,9.79,0,0,1,1.34,1.06c1.14,1.34,2.2,2.75,3.37,4.06a2.81,2.81,0,0,1,.77,2.84c-1.71,1.62-1.83,2-1,3.59C155.11,315.15,155.41,314,155.7,312.85ZM151,309.14c-.55-.22-.87-.45-1.18-.43s-.36.4-.54.63a2.8,2.8,0,0,0,.89.52C150.36,309.88,150.6,309.52,151,309.14Z" transform="translate(-78.08 -192.53)"/><path class="cls-1" d="M484.28,345.63c.49-1,.4-2.21,1.77-2.48.49-.1.8-1.1,1.18-1.66-1.68-2-11.6-6.31-15.64-6.81-.39-2.52,0-3.13,1.8-3.85l-1.73,1.48c6,2.54,11.43,4.53,17.17,6.59.64-1.27,1.24-2.43,1.89-3.7,1.08.11.93.8.45,1.61q-2.26,3.81-4.56,7.6c-.65,1.09-1.35,2.14-1.95,3.08-1.81.3-2.88-.57-4.18-1.34a46.39,46.39,0,0,0-7.09-2.89c-1.78-.68-3.58-1.28-5.4-1.92.41-1.3,1.33-.93,2.27-.58,3.89,1.42,7.79,2.85,11.69,4.25C482.68,345.27,483.44,345.41,484.28,345.63Z" transform="translate(-78.08 -192.53)"/><path class="cls-1" d="M186.27,217.3l1.6-.09,1.62,3c-2.75-1.7-4.44-.33-6.21,1.33-.24-.63-.54-1-.51-1.43a46.54,46.54,0,0,1,.55-6.14,9.54,9.54,0,0,1,1.55-2.93c2.27-3.72,4.57-7.42,6.8-11a2.89,2.89,0,0,1,.53.13c.05,0,.12.12.11.19a2.09,2.09,0,0,1-.05.71C190.29,206.44,188.3,211.8,186.27,217.3Z" transform="translate(-78.08 -192.53)"/><path class="cls-1" d="M572.91,310.07c-.51,0-.9.06-1.28.11l-1.18.15c2.61,3.34.75,4.29-2.2,4.86a29.72,29.72,0,0,0-2.6-4.17,8.24,8.24,0,0,1-2-6.18l1-.12c0-.13.13-.3.08-.4-.35-.72-.89-1.53.2-2s1.43.47,1.6,1.23a7.77,7.77,0,0,0,2.53,4.18,3.91,3.91,0,0,0,.74.41l2.1-1.55C572.28,307.8,572.58,308.87,572.91,310.07Zm-3,3.24.36-.14-.48-1.19-.29.11C569.62,312.5,569.76,312.9,569.89,313.31Z" transform="translate(-78.08 -192.53)"/><path class="cls-1" d="M440.7,439.53l-.59-1.57c.94-1.23,2.18-.56,3.42-.52l2.33-3.26c.42,1.08-.17,1.8-.36,2.55-.35,1.47,0,1.77,1.49,2.24a32.22,32.22,0,0,1,4.38,1.84c.28.13.4.6.64,1a2.26,2.26,0,0,1-2.53.18,22.72,22.72,0,0,0-4.37-1.09,8,8,0,0,0-2.45.47c.26,1.79.48,3.26.68,4.65-2.76,1.28-3.39,1.05-4.34-1.4a11.57,11.57,0,0,1-.41-1.12c-.48-1.78-.27-2.32,1.27-3.37Z" transform="translate(-78.08 -192.53)"/><path class="cls-1" d="M171.71,342.72c0-1.44.86-1.79,1.85-2.11.39-.13.62-.76.93-1.16-.51-.28-1.15-.9-1.51-.77-1.36.51-2.27-.05-3.28-.8-.32-.24-1,0-1.48,0a7.21,7.21,0,0,0,.08,1.32c.07.29.48.54.47.8a1.86,1.86,0,0,1-.45,1.24,1.47,1.47,0,0,1-1.28,0,3.78,3.78,0,0,1-1.49-4.6,3.21,3.21,0,0,1,4.38-1.71,9.69,9.69,0,0,0,3.58.9,4,4,0,0,1,3.65,2.7,3,3,0,0,1-1,3.48A3.77,3.77,0,0,1,171.71,342.72Z" transform="translate(-78.08 -192.53)"/><path class="cls-1" d="M208.1,256.18c1.27-1.8,2.35-3.17,3.25-4.64,1.29-2.1,2.44-4.28,3.66-6.42,1.09-1.93,2.21-3.85,3.29-5.79.54-1,1-2,1.7-3.26.49.62,1,1,1,1.37a6.08,6.08,0,0,1-.17,2.83c-2.7,6.12-6.16,11.71-11.74,15.68A5.77,5.77,0,0,1,208.1,256.18Z" transform="translate(-78.08 -192.53)"/><path class="cls-1" d="M491.56,370.88c0-3,2.37-4.7,3.71-7a17.41,17.41,0,0,0,1.94.63c1.84.35,2.53,2.09,3.72,3.18.81.74-.17,2.65-1.58,3.71a4.87,4.87,0,0,1,.23,1.88,10.22,10.22,0,0,1-1.26,1.92A4.82,4.82,0,0,1,497,377c-.07-.41-.31-.9-.17-1.21.86-1.92-.1-3.93.53-5.9l-4-2a6.64,6.64,0,0,0-.54,2c.1,1.22-.59,1.09-1.34,1Zm6-4-.25,0-.26.95.34.08Z" transform="translate(-78.08 -192.53)"/><path class="cls-1" d="M447.79,467.92a2.93,2.93,0,0,1-.35-3.05c.44-1.54.93-3.06,1.37-4.59.33-1.14.49-2.26-1.3-2.76l5-6.41c.27.58.48.8.45,1-.77,4.08-1.58,8.14-2.35,12.22C450.19,466.5,450.22,466.51,447.79,467.92Z" transform="translate(-78.08 -192.53)"/><path class="cls-1" d="M482.07,332.19l-6.23-2.52,2.43-.64c-1.59-.87-1.59-.87-2.39.69l-2.1-.25c.16-1.78,1.28-2.48,2.72-3.11-.63-.79-.76-1.51.23-2.07.82-.47,1.57-.86,2.25.42l-1.19,1.49c.1.26.11.49.21.53,1.53.71,3,1.86,4.93.94l3.75,3.48-.27.49-2.09-.66c-1.19-.38-2-.09-2.29,1.25Zm-7-3.3a2.4,2.4,0,0,0,.4-.46c0-.05-.11-.2-.17-.31a4.28,4.28,0,0,0-.45.4S475,328.73,475.06,328.89Z" transform="translate(-78.08 -192.53)"/><path class="cls-1" d="M499.43,352.78l1.33.57c-.87,2.76-1.68,5.36-2.58,8.22-.56-.31-1.57-.56-1.64-1-.28-1.6-1.53-2-2.69-2.4-4.64-1.76-9.3-3.44-13.94-5.18-1.85-.7-3.69-1.47-5.53-2.2l.09-.48a17.37,17.37,0,0,1,2.51.47c2.87,1,5.72,2.06,8.56,3.12,3.37,1.25,6.73,2.5,10.08,3.8a1.7,1.7,0,0,0,2.45-.73c.71-1.33,2.27-2.41,1.41-4.27Z" transform="translate(-78.08 -192.53)"/><path class="cls-1" d="M407,468a.83.83,0,0,0,0,.31c-.56-.11-1.27,0-1.65-.34-2-1.68-4-3.45-5.9-5.23a2.88,2.88,0,0,1-.81-1.4c-.49-2.26.75-3.25,3.39-2.77l-.46,2.93c1.85,0,1.1-1.73,2-2.21,1.94,1.67,2,2,.19,4.73l1.91,1.63.87.87C406.69,467,406.85,467.5,407,468Z" transform="translate(-78.08 -192.53)"/><path class="cls-1" d="M191.87,222.59c2.53,1.62,5.6,1.67,6.82,4.68-5.27-2.69-11-3-16.94-3.86a22.19,22.19,0,0,1,2.85-.89c.93-.17,1.91-.09,2.86-.19s1.89-.28,3.06-.46c.51-.93.6-2.47,2.33-3Z" transform="translate(-78.08 -192.53)"/><path class="cls-1" d="M305.18,543l10.26,3.8c-1.84,2-2.08,1.94-3.94,1a9.69,9.69,0,0,0-3.36-1,4.82,4.82,0,0,1-3.15-1.5C304.32,544.58,304.34,543.88,305.18,543Z" transform="translate(-78.08 -192.53)"/><path class="cls-1" d="M348,559.56c-1.88-.35-3.74-.78-5.63-1s-3.94-.27-6.06-.4c-.18-1.13-.35-2.18-.52-3.28C337.79,554.91,346.35,558,348,559.56Z" transform="translate(-78.08 -192.53)"/><path class="cls-1" d="M502.44,346.26l-13-5a2.32,2.32,0,0,1,3-.88c2.1.73,4.15,1.57,6.23,2.37.14.06.4.13.41.2C499.16,345.23,501.6,344.8,502.44,346.26Z" transform="translate(-78.08 -192.53)"/><path class="cls-1" d="M159.66,315.69c.06.62.21,1,.1,1.2q-3.19,6.67-6.46,13.32c-.11.23-.46.33-1.2.84a9,9,0,0,1,.34-2.11q3.12-6.33,6.33-12.6C158.86,316.16,159.13,316.07,159.66,315.69Z" transform="translate(-78.08 -192.53)"/><path class="cls-1" d="M529.37,366a9,9,0,0,1,1.64.48,1.68,1.68,0,0,1,.43,2.91,3.51,3.51,0,0,1-4,.65,2.61,2.61,0,0,1-1.31-1.71,2.72,2.72,0,0,1,1.2-1.8A5.52,5.52,0,0,1,529.37,366Z" transform="translate(-78.08 -192.53)"/><path class="cls-1" d="M190.76,198l-1.61,2.09c-.66-2.39,2-6.69,4.5-7.54.72,1.68.57,2.77-.77,5.57Z" transform="translate(-78.08 -192.53)"/><path class="cls-1" d="M486.77,472.41c1.63-.09,3.76,2,3.7,3.69,0,1-.76,1.65-1.74,1.27a5.35,5.35,0,0,1-3.15-3.32A1.24,1.24,0,0,1,486.77,472.41Z" transform="translate(-78.08 -192.53)"/><path class="cls-1" d="M507,207.78c2.36.35,4.72.64,7.06,1.05,2.49.44,2.75.75,3.1,3.19l-10.29-3.88Z" transform="translate(-78.08 -192.53)"/><path class="cls-1" d="M470.13,348.82l-7.53-.4-.06-.54c1.27-.42,1.76-2.4,3.81-1.36C467.58,347.15,469.16,347.1,470.13,348.82Z" transform="translate(-78.08 -192.53)"/><path class="cls-1" d="M550.67,282.43c1.24-2,2.43-4,3.74-5.95a1.5,1.5,0,0,1,1.39-.29c.68.27.77.94.38,1.59a2,2,0,0,1-.45.54,14.75,14.75,0,0,0-3.82,4.13c-.12.21-.52.26-.79.38Z" transform="translate(-78.08 -192.53)"/><path class="cls-1" d="M541.11,298.18c.14,1,.17,1.36.26,1.74.64,2.93.49,3.26-2.15,4.61-.4.21-.84.35-1.52.64a9.71,9.71,0,0,1,1.67-3.46A24.34,24.34,0,0,1,541.11,298.18Z" transform="translate(-78.08 -192.53)"/><path class="cls-1" d="M580.73,322.69c-2-.7-3.65-1.18-5.21-1.89-1-.46-.54-1.31-.1-2C577.82,318.74,579,319.54,580.73,322.69Z" transform="translate(-78.08 -192.53)"/><path class="cls-1" d="M202.39,325.45l-1.2-1.08c1.06-1,.16-3.15,2.25-3.63.59,1.31.59,1.31-.67,3.28l2.8-1,.19.28-3.42,2.14Z" transform="translate(-78.08 -192.53)"/><path class="cls-1" d="M482.86,365.9c-3-.84-3.19-1.16-2-3.84l2.78.88Z" transform="translate(-78.08 -192.53)"/><path class="cls-1" d="M210.3,321.69c-.52-1.62.34-2.75,1.39-3.78.84-.81,1.76-1.55,2.75-2.42.74,2-1.69,1.93-1.93,3.22.55.64,1.08,1.27-.32,1.76a9.41,9.41,0,0,0-1.92,1.25Z" transform="translate(-78.08 -192.53)"/><path class="cls-1" d="M165.48,329.31a18.44,18.44,0,0,1-1-2.06,3.39,3.39,0,0,1,0-1.19,6.66,6.66,0,0,1,.25-2.17l.95,3.19,1.3-3.14a5.92,5.92,0,0,1-1.58,5.33Z" transform="translate(-78.08 -192.53)"/><path class="cls-1" d="M205.37,258.41c2.14-1.11,4.08,0,6.18-.08-.32.35-.57.85-1,1C209.64,259.78,206.84,259.27,205.37,258.41Z" transform="translate(-78.08 -192.53)"/><path class="cls-1" d="M480.36,477.87a4.15,4.15,0,0,1,.28-1.25c.94-1.57,2-3.09,2.91-4.66.81-1.33,1.9-1.87,3.81-1.35-3.4.71-4.07,3.62-5.62,5.74a11.13,11.13,0,0,0-.84,1.65Z" transform="translate(-78.08 -192.53)"/><path class="cls-1" d="M530.7,217.15l-7.09-2.7C526.85,214,529.11,214.76,530.7,217.15Z" transform="translate(-78.08 -192.53)"/><path class="cls-1" d="M473.41,356.37c-2.46-.16-4.77-.7-6.34-3.06l6.53,2.59Z" transform="translate(-78.08 -192.53)"/><path class="cls-1" d="M360.78,447.32l-.5.07a2.32,2.32,0,0,1-1.2-3.09l2.57.83C362.27,446.22,361.83,446.89,360.78,447.32Z" transform="translate(-78.08 -192.53)"/><path class="cls-1" d="M150.06,325.71a10.81,10.81,0,0,1,1.39,1.31,1.69,1.69,0,0,1-.41,2.66c-.34-1.83-1.18-3.05-3.21-3.09.6-1.44,1.36-1.43,2.31-.81Z" transform="translate(-78.08 -192.53)"/><path class="cls-1" d="M157.57,329.68c-.29,2-.54,4-2.19,5.44A8.85,8.85,0,0,1,157.57,329.68Z" transform="translate(-78.08 -192.53)"/><path class="cls-1" d="M570.83,303.53v1.79a6.65,6.65,0,0,1-1.34,0,1.77,1.77,0,0,1-1.61-2Z" transform="translate(-78.08 -192.53)"/><path class="cls-1" d="M502.55,375c.32-.47.55-1.16,1-1.35a4.41,4.41,0,0,1,2-.07c.14,0,.39.66.32.74a3.22,3.22,0,0,1-2.95,1.21Z" transform="translate(-78.08 -192.53)"/><path class="cls-1" d="M490.53,345.83c2.19.62,4.35.7,6,2.17C494.46,347.8,492.36,347.63,490.53,345.83Z" transform="translate(-78.08 -192.53)"/><path class="cls-1" d="M491.5,348.91c-2.29,0-4.11.33-5.43-1.72C488.23,346.54,489.64,347.51,491.5,348.91Z" transform="translate(-78.08 -192.53)"/><path class="cls-1" d="M484.91,326.44l4.77,3.24c-2.93.65-3.68-1.65-5.16-2.68Z" transform="translate(-78.08 -192.53)"/><path class="cls-1" d="M476.73,422c1.51,2.48,1.51,2.53-.05,4.17-.14-.5-.45-1-.33-1.24.59-1.37.15-2.09-1.3-2.48Z" transform="translate(-78.08 -192.53)"/><path class="cls-1" d="M150.06,325.71l.08.07c.32-.73.61-1.49,1-2.19.07-.12.55,0,.84,0l.82.78a4.76,4.76,0,0,1-.07,1.14,6.19,6.19,0,0,1-.58,1.15Z" transform="translate(-78.08 -192.53)"/><path class="cls-1" d="M513.52,333.41c-.29.94-.46,1.46-.63,2-1.63.54-1.52-1.22-2.41-1.61C511.47,331.46,512.41,333.74,513.52,333.41Z" transform="translate(-78.08 -192.53)"/><path class="cls-1" d="M194.39,326.79a35.3,35.3,0,0,1,2.91-2.16c.23-.14.8.28,1.72.64l-4.22,1.91Z" transform="translate(-78.08 -192.53)"/><path class="cls-1" d="M502.3,357.52l3.23-6.4c.25,1.73-1.46,4.73-3.27,6.36Z" transform="translate(-78.08 -192.53)"/><path class="cls-1" d="M521.89,375.2a24.79,24.79,0,0,1,2.05-7.63l.49.15-2.56,7.44Z" transform="translate(-78.08 -192.53)"/><path class="cls-1" d="M451.66,475.14c1.51-.67,2.5-.44,3.35.6C453.7,476.9,453.7,476.9,451.66,475.14Z" transform="translate(-78.08 -192.53)"/><path class="cls-1" d="M404.7,457.09c-1.22,1.05-1.22,1.05-3.28-.48C402.76,455.49,403.66,456.44,404.7,457.09Z" transform="translate(-78.08 -192.53)"/><path class="cls-1" d="M161.65,322.11c.38,1.7-.73,2.87-1.48,4.17A5,5,0,0,1,161.65,322.11Z" transform="translate(-78.08 -192.53)"/><path class="cls-1" d="M499.48,352.73a4.9,4.9,0,0,1-3.36-1c2.09-1.07,2.76-.82,3.31,1.07Z" transform="translate(-78.08 -192.53)"/><path class="cls-1" d="M152.8,324.37l-.82-.78-.79-1.64c1.53.24,2.15,1.15,3.24,2.27Z" transform="translate(-78.08 -192.53)"/><path class="cls-1" d="M501.42,207.4c-1.31.3-2.18.06-2.74-1C500,205.71,500,205.71,501.42,207.4Z" transform="translate(-78.08 -192.53)"/><path class="cls-1" d="M432.4,472.62c.69-1.15-1.55-2.4.26-3.52C432.23,470.26,434.17,471.5,432.4,472.62Z" transform="translate(-78.08 -192.53)"/><path class="cls-1" d="M526.79,261.13l-3.48-3.19c2.35.59,2.79,1.05,3.44,3.23Z" transform="translate(-78.08 -192.53)"/><path class="cls-1" d="M476.65,320.26l2,1.05c-.11,1.05-.81,1-1.51.73S475.94,321.31,476.65,320.26Z" transform="translate(-78.08 -192.53)"/><path class="cls-1" d="M490.27,360.36c-1-2-1-2,.94-2.35C490.87,358.84,490.61,359.49,490.27,360.36Z" transform="translate(-78.08 -192.53)"/><path class="cls-1" d="M328.48,296.55l-2.1-2.85.4-.29a5.9,5.9,0,0,1,2.23,2.74Z" transform="translate(-78.08 -192.53)"/><path class="cls-1" d="M315.37,284.59l-1.78,1C313.07,284.25,313.07,284.25,315.37,284.59Z" transform="translate(-78.08 -192.53)"/><path class="cls-1" d="M480.28,425.88c-.38,1.31-.38,1.31-2.45,1.11Z" transform="translate(-78.08 -192.53)"/><path class="cls-1" d="M563.76,260.94l1.85-2.66v3Z" transform="translate(-78.08 -192.53)"/><path class="cls-1" d="M310.17,278.78l-2.33.32c.66-1.54,1.55-.85,2.23-1.07Z" transform="translate(-78.08 -192.53)"/><path class="cls-1" d="M497.34,252.52c.05,1.44-.77,1.29-1.81,1.15A1.37,1.37,0,0,1,497.34,252.52Z" transform="translate(-78.08 -192.53)"/><path class="cls-1" d="M502.26,357.48a6.18,6.18,0,0,1-1.88,3.37c-.05-1.5,1.24-2.24,1.92-3.33Z" transform="translate(-78.08 -192.53)"/><path class="cls-1" d="M416.87,460.74c-.24.7-.75.73-1.32.5-1.16-.46-2.31-1-3.46-1.45l0,0,4.84,1Z" transform="translate(-78.08 -192.53)"/><path class="cls-1" d="M154,303.15l-.24,1.86a2.87,2.87,0,0,1-.63-.1c0-.62,0-1.24,0-1.86Z" transform="translate(-78.08 -192.53)"/><path class="cls-1" d="M333.63,511.18l.66.22c.16.41.33.83.5,1.24l0,0L331,511.15l0,0Z" transform="translate(-78.08 -192.53)"/><path class="cls-1" d="M387.63,450.24l2.47,1.21-.2.47-3.35-1.29,0-.29,1.1-.06Z" transform="translate(-78.08 -192.53)"/><path class="cls-1" d="M378,528.43c1.7.54,3.66.53,4.85,2.2Z" transform="translate(-78.08 -192.53)"/><path class="cls-1" d="M491.52,370.85l3,2.35-3.18-.95c.07-.46.15-.91.22-1.37Z" transform="translate(-78.08 -192.53)"/><path class="cls-1" d="M215.28,262l-.52,2.83-.55-.09.5-2.86Z" transform="translate(-78.08 -192.53)"/><path class="cls-1" d="M350,298.25c1.69,1.5,1.69,1.5.38,2.53C350.22,300,350.13,299.39,350,298.25Z" transform="translate(-78.08 -192.53)"/><path class="cls-1" d="M574.47,307v2.56C573.48,308,573.48,308,574.47,307Z" transform="translate(-78.08 -192.53)"/><path class="cls-1" d="M508.27,399.12c.36.39.74.73.7.79a4.64,4.64,0,0,1-.93,1,1.78,1.78,0,0,1-.64-.47A12.33,12.33,0,0,1,508.27,399.12Z" transform="translate(-78.08 -192.53)"/><path class="cls-1" d="M202.34,325.41l-.86,1.83-1.53-.49,0-.42,2.49-.88Z" transform="translate(-78.08 -192.53)"/><path class="cls-1" d="M393.45,456.84l2.11,1.4C393.93,458.76,393.55,458.54,393.45,456.84Z" transform="translate(-78.08 -192.53)"/><path class="cls-1" d="M368.78,481.45l3,1.2-.18.43-3-1.21Z" transform="translate(-78.08 -192.53)"/><path class="cls-1" d="M397.58,492.08l2.85,1-.12.35-2.85-1Z" transform="translate(-78.08 -192.53)"/><path class="cls-1" d="M545.14,292.83c.23,1.08-.36,1.47-1.92,1.65l1.36-2Z" transform="translate(-78.08 -192.53)"/><path class="cls-1" d="M197,329.15l-2.45,1C195.2,328.87,195.2,328.87,197,329.15Z" transform="translate(-78.08 -192.53)"/><path class="cls-1" d="M203.26,320c-.39-1.54-.39-1.54,1.11-1.63Z" transform="translate(-78.08 -192.53)"/><path class="cls-1" d="M555.6,266.1l2.4.56C556.69,267.84,556.14,267,555.6,266.1Z" transform="translate(-78.08 -192.53)"/><path class="cls-1" d="M149.26,323.68c-.65-1.1-.23-1.53,1.16-2Z" transform="translate(-78.08 -192.53)"/><path class="cls-1" d="M396.75,462.18a2.51,2.51,0,0,1-2.6-1.51c1.34.13,2.16.5,2.56,1.56Z" transform="translate(-78.08 -192.53)"/><path class="cls-1" d="M503.49,343.31l-1.2-1.09c.29-.18.45-.37.63-.37C504.16,341.79,503.9,342.4,503.49,343.31Z" transform="translate(-78.08 -192.53)"/><path class="cls-1" d="M491.51,440.08c1.52.16,1.82.59,1.62,1.31,0,.16-.49.35-.5.33C492.32,441.32,492.05,440.89,491.51,440.08Z" transform="translate(-78.08 -192.53)"/><path class="cls-1" d="M322.55,295.2l-.72-2.11c1.19.43,1.54,1,1.38,1.86Z" transform="translate(-78.08 -192.53)"/><path class="cls-1" d="M333.83,297.78l-1.16-2c1.36,0,1.49.87,1.85,1.55Z" transform="translate(-78.08 -192.53)"/><path class="cls-1" d="M486.35,240.79l1.9.74c-1.12.86-1.65.54-2.11-.09Z" transform="translate(-78.08 -192.53)"/><path class="cls-1" d="M385.8,303v-4.26l.41,0c-.15,1.4-.3,2.8-.44,4.2Z" transform="translate(-78.08 -192.53)"/><path class="cls-1" d="M502.61,350.92c-.4,1.38-.84,1.86-2.05,1.36Z" transform="translate(-78.08 -192.53)"/><path class="cls-1" d="M208.1,318.11c-.58,1.45-.58,1.45-2,1.57C206.88,319.07,207.4,318.67,208.1,318.11Z" transform="translate(-78.08 -192.53)"/><path class="cls-1" d="M390.49,465.79l1.25-2.22.58.34-1.29,2.2Z" transform="translate(-78.08 -192.53)"/><path class="cls-1" d="M534.79,304.82c.18-.68.36-1.35.68-2.51a1.92,1.92,0,0,1-.2,2.68Z" transform="translate(-78.08 -192.53)"/><path class="cls-1" d="M199.71,324.27l-1.39-.29.07-.57,1.41.13Z" transform="translate(-78.08 -192.53)"/><path class="cls-1" d="M516,336.17c-.24-.67-.46-1.3-.68-1.93C516.86,334.6,516.86,334.6,516,336.17Z" transform="translate(-78.08 -192.53)"/><path class="cls-1" d="M503.37,348.68c.19-.41.37-.82.55-1.23a4.26,4.26,0,0,1,.56.27,13.22,13.22,0,0,1-.53,1.22Z" transform="translate(-78.08 -192.53)"/><path class="cls-1" d="M179.54,328.24c.34,1.33.26,2.06-.84,2.48C178.93,330,179.17,329.34,179.54,328.24Z" transform="translate(-78.08 -192.53)"/><path class="cls-1" d="M349.07,518c1-.41,1.92-.38,2.58,1.24L349.11,518Z" transform="translate(-78.08 -192.53)"/><path class="cls-1" d="M475.67,277.08l-1.46-.62.17-.43,1.48.6Z" transform="translate(-78.08 -192.53)"/><path class="cls-1" d="M482.88,238.83l-2-.27C480.94,237.72,481.32,237.77,482.88,238.83Z" transform="translate(-78.08 -192.53)"/><path class="cls-1" d="M340,514.62l-2.58-.85a1.91,1.91,0,0,1,2.54.88Z" transform="translate(-78.08 -192.53)"/><path class="cls-1" d="M375.05,488.3l1.86.9C375.57,489.83,375.11,489.48,375.05,488.3Z" transform="translate(-78.08 -192.53)"/><path class="cls-1" d="M496.17,288.55l1.73,1.54C496.65,289.85,495.81,289.93,496.17,288.55Z" transform="translate(-78.08 -192.53)"/><path class="cls-1" d="M460.32,475.45c-.23-.3-.5-.51-.52-.73s.32-.34.5-.51a3.6,3.6,0,0,1,.5.68C460.83,475,460.55,475.18,460.32,475.45Z" transform="translate(-78.08 -192.53)"/><path class="cls-1" d="M574.63,327.27l-2.17-.22C573.59,326.09,574.12,326.59,574.63,327.27Z" transform="translate(-78.08 -192.53)"/><path class="cls-1" d="M495,372.12a3.64,3.64,0,0,1-.34-1c0-.17.26-.34.57-.72a3.41,3.41,0,0,1,.22.94C495.43,371.56,495.24,371.73,495,372.12Z" transform="translate(-78.08 -192.53)"/><path class="cls-1" d="M458.36,475c-.12.42-.25.84-.38,1.25l-.57-.16.39-1.26Z" transform="translate(-78.08 -192.53)"/><path class="cls-1" d="M499.14,284.64l-.9,1-.41-.32.78-1.12Z" transform="translate(-78.08 -192.53)"/><path class="cls-1" d="M328.65,298.25c.3.11.61.21.9.34,0,0-.08.24-.12.37l-.92-.31Z" transform="translate(-78.08 -192.53)"/><path class="cls-1" d="M346.86,555.3l2.36.06-.05,0,.49,1,0,0-2.78-1Z" transform="translate(-78.08 -192.53)"/><path class="cls-1" d="M323.05,550.05c.37,0,.74.05,1.1.11,0,0,0,.27.05.42l-1.17-.05Z" transform="translate(-78.08 -192.53)"/><path class="cls-1" d="M500.14,347.24l1,.08v.37l-1,.11C500.13,347.61,500.14,347.43,500.14,347.24Z" transform="translate(-78.08 -192.53)"/><path class="cls-1" d="M215.24,267.82l1.4-1.85c.06,1.46-.77,1.56-1.44,1.81Z" transform="translate(-78.08 -192.53)"/><path class="cls-1" d="M345.39,516.43l-2.87-1-.06,0h2.45l-.06,0,.49,1Z" transform="translate(-78.08 -192.53)"/><path class="cls-1" d="M492.29,236.43l-1.16-.25.07-.35,1.17.17Z" transform="translate(-78.08 -192.53)"/><path class="cls-1" d="M436.13,426.08a6.62,6.62,0,0,1-.47-1.2c0-.11.36-.45.43-.41a6.22,6.22,0,0,1,.87.61Z" transform="translate(-78.08 -192.53)"/><path class="cls-1" d="M392.5,537.09l1.33.63,0,.31a3.29,3.29,0,0,1-.89,0,2.76,2.76,0,0,1-.68-.47Z" transform="translate(-78.08 -192.53)"/><path class="cls-1" d="M472.15,313.85l1.53.79-.16.33c-.44-.2-.89-.4-1.32-.63C472.15,314.32,472.18,314.15,472.15,313.85Z" transform="translate(-78.08 -192.53)"/><path class="cls-1" d="M480.82,418.77c-.16.28-.3.56-.47.83a2.39,2.39,0,0,1-.4-.19l.53-.84Z" transform="translate(-78.08 -192.53)"/><path class="cls-1" d="M573.62,301.26c.15.18.31.3.3.39a.53.53,0,0,1-.3.32c-.09,0-.23-.11-.35-.18Z" transform="translate(-78.08 -192.53)"/><path class="cls-1" d="M384.71,535.21l1,.72-.18.32-1.12-.52Z" transform="translate(-78.08 -192.53)"/><path class="cls-1" d="M376.57,527.47l1.46,1-2.17-.4,0-.38Z" transform="translate(-78.08 -192.53)"/><path class="cls-1" d="M479.64,278.47l2.06.12c-1.05.94-1.44,0-2-.16Z" transform="translate(-78.08 -192.53)"/><path class="cls-1" d="M339.93,514.65l2.09-.09,0,0,.49,1,.06,0-2.54-.86Z" transform="translate(-78.08 -192.53)"/><path class="cls-1" d="M217.19,263.77l.06-1.4c1.34.48.65,1,.44,1.47Z" transform="translate(-78.08 -192.53)"/><path class="cls-1" d="M528.41,296.89l-.9-.36.08-.3.93.14Z" transform="translate(-78.08 -192.53)"/><path class="cls-1" d="M521.83,349.85l-1.21-.05c0-.19,0-.54.09-.54a8.34,8.34,0,0,1,1.12,0Z" transform="translate(-78.08 -192.53)"/><path class="cls-1" d="M518.13,247.34a2.57,2.57,0,0,1-.14-.58c0-.06.34-.18.36-.15a3.26,3.26,0,0,1,.26.53Z" transform="translate(-78.08 -192.53)"/><path class="cls-1" d="M388.41,488.71l1,.2,0,.36-1-.07Z" transform="translate(-78.08 -192.53)"/><path class="cls-1" d="M346.9,555.26l-1.69-.26c.76-.63,1.19-.13,1.65.3Z" transform="translate(-78.08 -192.53)"/><path class="cls-1" d="M352.07,556.25c-.75,1.13-.75,1.13-2.39,0l0,0h2.45Z" transform="translate(-78.08 -192.53)"/><path class="cls-1" d="M510.9,289.36c-.27.86-.27.86-1.22.17l1.27-.12Z" transform="translate(-78.08 -192.53)"/><path class="cls-1" d="M521.87,375.16v2.57l-.29,0c.11-.83.21-1.67.32-2.5Z" transform="translate(-78.08 -192.53)"/><path class="cls-1" d="M524.19,248.63a2.7,2.7,0,0,1,.18.67c0,.11-.25.31-.28.29s-.41-.27-.39-.38S523.94,248.91,524.19,248.63Z" transform="translate(-78.08 -192.53)"/><path class="cls-1" d="M363.09,479a6,6,0,0,1-.42.76c-.5-.21-1-.49-1.47-.75l0,.05h2Z" transform="translate(-78.08 -192.53)"/><path class="cls-1" d="M457,349.64l.82.75c-.11.1-.31.29-.33.27-.27-.23-.51-.49-.76-.74Z" transform="translate(-78.08 -192.53)"/><path class="cls-1" d="M368.38,479.83l.94.57-.18.32-1-.55Z" transform="translate(-78.08 -192.53)"/><path class="cls-1" d="M307.25,291.6l.28.51-.53.2-.21-.58Z" transform="translate(-78.08 -192.53)"/><path class="cls-1" d="M386.16,487.86l.32.29c-.1.07-.22.22-.31.2s-.22-.17-.33-.27Z" transform="translate(-78.08 -192.53)"/><path class="cls-1" d="M516.74,292.59l-.77-.42.1-.24.88.31Z" transform="translate(-78.08 -192.53)"/><path class="cls-1" d="M419.64,462l.5.55c-.16.13-.33.4-.46.38s-.36-.27-.53-.41Z" transform="translate(-78.08 -192.53)"/><path class="cls-1" d="M544.61,258.5l-.81-.35.08-.28.84.2Z" transform="translate(-78.08 -192.53)"/><path class="cls-1" d="M509.12,244.75c-.13.05-.26.17-.37.15s-.24-.16-.36-.25a1.46,1.46,0,0,1,.49-.23C508.94,244.41,509,244.63,509.12,244.75Z" transform="translate(-78.08 -192.53)"/><path class="cls-1" d="M403.45,494l.39.48c-.13.05-.28.16-.39.13s-.22-.17-.33-.27Z" transform="translate(-78.08 -192.53)"/><path class="cls-1" d="M387.69,450.28c-.2-.37-.39-.75-.58-1.13.56.21,1.23.38.52,1.09Z" transform="translate(-78.08 -192.53)"/><path class="cls-1" d="M384.22,449.62l-1-.17a3.23,3.23,0,0,1,.51-.34C383.82,449.09,384,449.31,384.22,449.62Z" transform="translate(-78.08 -192.53)"/><path class="cls-1" d="M531.85,378.3l.71,1.36C531.59,379.43,531.59,379.43,531.85,378.3Z" transform="translate(-78.08 -192.53)"/><path class="cls-1" d="M533.25,268.27a2.33,2.33,0,0,1,1.73,2Z" transform="translate(-78.08 -192.53)"/><path class="cls-1" d="M462.5,435c.6-.29.85-.51,1-.45a3.08,3.08,0,0,1,.82.6s-.18.35-.23.34C463.74,435.43,463.4,435.31,462.5,435Z" transform="translate(-78.08 -192.53)"/><path class="cls-1" d="M367.65,524.88l-.89-.4.06-.23.95.16Z" transform="translate(-78.08 -192.53)"/><path class="cls-1" d="M370.42,525.6c-.12,0-.25.14-.36.12s-.24-.16-.35-.24a1.22,1.22,0,0,1,.45-.18C370.24,525.31,370.33,525.49,370.42,525.6Z" transform="translate(-78.08 -192.53)"/><path class="cls-1" d="M520,293.73l-1-.6a3.41,3.41,0,0,1,.71,0C519.71,293.11,519.76,293.32,520,293.73Z" transform="translate(-78.08 -192.53)"/><path class="cls-1" d="M448.9,433.86c.2.26.42.43.42.6s-.3.4-.4.38a.67.67,0,0,1-.42-.45C448.47,434.27,448.72,434.09,448.9,433.86Z" transform="translate(-78.08 -192.53)"/><path class="cls-1" d="M534.93,270.18l1.74,1.49Z" transform="translate(-78.08 -192.53)"/><path class="cls-1" d="M472.48,275c.25,1.61-.53.53-1.31.25l1.37-.2Z" transform="translate(-78.08 -192.53)"/><path class="cls-1" d="M458.15,345.39l1.1.65-.19.36-1.17-.53Z" transform="translate(-78.08 -192.53)"/><path class="cls-1" d="M375.17,294.6a4.36,4.36,0,0,1,.49.87s-.34.34-.44.3a.8.8,0,0,1-.4-.48C374.78,295.15,375,295,375.17,294.6Z" transform="translate(-78.08 -192.53)"/><path class="cls-1" d="M306,539.46c-.63,1.32-1.27.41-1.9,0l0,0h2Z" transform="translate(-78.08 -192.53)"/><path class="cls-1" d="M478.49,316.57a4.89,4.89,0,0,1,.81-.44c.05,0,.31.34.27.46a.74.74,0,0,1-.45.45C479,317.07,478.81,316.82,478.49,316.57Z" transform="translate(-78.08 -192.53)"/><path class="cls-1" d="M482,332.23l1.79.23-.13.45-1.61-.72Z" transform="translate(-78.08 -192.53)"/><path class="cls-1" d="M487.59,281.53l-.95-.29.1-.33,1,.28Z" transform="translate(-78.08 -192.53)"/><path class="cls-1" d="M490.25,282.07c-.1.18-.2.39-.23.38a5.2,5.2,0,0,1-.53-.26c.06-.11.14-.32.19-.31A2.72,2.72,0,0,1,490.25,282.07Z" transform="translate(-78.08 -192.53)"/><path class="cls-1" d="M475.4,356.44c.15.38.31.76.67,1.65L474.89,357Z" transform="translate(-78.08 -192.53)"/><path class="cls-1" d="M493.51,284l-.85-.57.11-.31a1.71,1.71,0,0,1,.65.11c.16.09.24.33.35.51Z" transform="translate(-78.08 -192.53)"/><path class="cls-1" d="M496.13,209.59c.1-.31.2-.62.32-.92a2.6,2.6,0,0,1,.4.09c-.12.32-.24.64-.37,1Z" transform="translate(-78.08 -192.53)"/><path class="cls-1" d="M367.56,562.92l-1.86-.35.16-.49,1.65.88Z" transform="translate(-78.08 -192.53)"/><path class="cls-1" d="M547.53,259c-.13.17-.2.36-.29.36a.51.51,0,0,1-.37-.18c0-.06,0-.22,0-.34Z" transform="translate(-78.08 -192.53)"/><path class="cls-1" d="M359.85,342c-1.54-1-3,.3-4.93.17a5.57,5.57,0,0,1,5-1.71c-.06.59-.11,1.11-.16,1.63Z" transform="translate(-78.08 -192.53)"/><path class="cls-1" d="M306.73,373.28l1.08,1.33-3-.76c.61-1,1.29-.71,1.94-.56Z" transform="translate(-78.08 -192.53)"/><path class="cls-1" d="M418.38,345.64c-.07-.2-.14-.41-.33-.92l2,.84-.13.35-1-.3Z" transform="translate(-78.08 -192.53)"/><path class="cls-1" d="M460.23,334.42l-1.75-.27.09-.37,1.61.67Z" transform="translate(-78.08 -192.53)"/><path class="cls-1" d="M339,383.86c-.06,1-.13,2-.21,3.26-3.63-.53-6.5-2.54-9.6-3.76.16-1.29.28-2.29.39-3.3l1.48-.82-1.28-1.12c1.41-1.28,2.52-.13,3.68.12l.45.58-2.24,2.58-.75-.35,3.28,2.69c1-1.63-1.07-2.26-.54-3.64.88-.13,1.85,2,2.58-.36,1,2.72,1,3.09-1,4.48l2.37.71,1.4-1Z" transform="translate(-78.08 -192.53)"/><path class="cls-1" d="M316.81,364c.93.4,1.89.76,2.81,1.19a18,18,0,0,0,6.35,1.89c.87.06,1.46.6.89,1.68a5.76,5.76,0,0,0-.35,1.55c-2.21.49-2.23.39-3.34-1.43a4.47,4.47,0,0,0-2.06-1.76c-2-.8-2.06-.7-3.42-1.9l-1.06-.93Z" transform="translate(-78.08 -192.53)"/><path class="cls-1" d="M320.2,331.65c-2.46-1.22-4.06.43-6,1.36.69-3.66,3.21-4.05,6.17-4Z" transform="translate(-78.08 -192.53)"/><path class="cls-1" d="M312.41,358.52c3.62.64,7.36.66,11.13,2.1-.42.18-.6.34-.76.32q-5.23-.88-10.46-1.81Z" transform="translate(-78.08 -192.53)"/><path class="cls-1" d="M333.53,335.83a6.74,6.74,0,0,1-6.81,3c1-.51,2-1.05,3.08-1.52S331.92,336.48,333.53,335.83Z" transform="translate(-78.08 -192.53)"/><path class="cls-1" d="M321.36,340.21c2.11.19.43,2.27,1.9,2.62l-3,2.34Z" transform="translate(-78.08 -192.53)"/><path class="cls-1" d="M333.92,372.9a6.68,6.68,0,0,1-4.73-3C330.77,370.94,333,370.88,333.92,372.9Z" transform="translate(-78.08 -192.53)"/><path class="cls-1" d="M339,383.89l1.9-1.45,2.5.89-3.1,2.56c-.51-.71.16-2.17-1.34-2Z" transform="translate(-78.08 -192.53)"/><path class="cls-1" d="M335.29,341.86c1.84-1.66,3.71-1.58,5.7-2.24C339.53,341.43,339.1,341.59,335.29,341.86Z" transform="translate(-78.08 -192.53)"/><path class="cls-1" d="M305.45,333c-.09,1.43-.38,2.75-1.83,3.47l.05.05a3.67,3.67,0,0,1-.83-.45c-.72-.67-.57-1.58.22-1.48,1.39.17,1.6-1.09,2.44-1.54Z" transform="translate(-78.08 -192.53)"/><path class="cls-1" d="M329.37,362.28c-1.63.81-2.85-.18-4.15-.79C326.79,360.92,328,361.78,329.37,362.28Z" transform="translate(-78.08 -192.53)"/><path class="cls-1" d="M326.17,343.34c-.3-2,1.48-1.53,2.15-2.59C328.58,342.56,328.58,342.56,326.17,343.34Z" transform="translate(-78.08 -192.53)"/><path class="cls-1" d="M313.5,340.2a7.11,7.11,0,0,1-1.35-1.18,1.44,1.44,0,0,1,0-1.1.84.84,0,0,1,.79-.25,1.91,1.91,0,0,1,.79,1C313.8,339,313.62,339.38,313.5,340.2Z" transform="translate(-78.08 -192.53)"/><path class="cls-1" d="M322.41,332.31c-1.59,1.16-3.05.45-4.5,0Z" transform="translate(-78.08 -192.53)"/><path class="cls-1" d="M335.83,339l4.54-.67.07.38-4.47,1Z" transform="translate(-78.08 -192.53)"/><path class="cls-1" d="M335.64,373.53c1,.74,2,1.49,3,2.24l-.29.43c-1-.69-2-1.38-3-2.08Z" transform="translate(-78.08 -192.53)"/><path class="cls-1" d="M312.9,330.53l-2.57,1.87C310.54,330.62,311,330,312.9,330.53Z" transform="translate(-78.08 -192.53)"/><path class="cls-1" d="M308.35,353.78l2.79.6C310,355.41,309.17,354.51,308.35,353.78Z" transform="translate(-78.08 -192.53)"/><path class="cls-1" d="M310.17,336.45l-1,2.27C308.14,337.35,308.19,337.21,310.17,336.45Z" transform="translate(-78.08 -192.53)"/><path class="cls-1" d="M331.44,339.44l2.65-.19C333,339.84,333,339.85,331.44,339.44Z" transform="translate(-78.08 -192.53)"/><path class="cls-1" d="M329.86,333.43c1.42-.69,1.6.13,1.76,1Z" transform="translate(-78.08 -192.53)"/><path class="cls-1" d="M313.72,355.54l1.5.21v.39l-1.57.14Z" transform="translate(-78.08 -192.53)"/><path class="cls-1" d="M304.08,353.28l1.41-.29.09.43-1.38.31Z" transform="translate(-78.08 -192.53)"/><path class="cls-1" d="M319.89,349l1.67.89c-1.09.41-1.39-.23-1.63-.93Z" transform="translate(-78.08 -192.53)"/><path class="cls-1" d="M336.6,344.75l-.32,2.1a3.33,3.33,0,0,1-.27-2.18Z" transform="translate(-78.08 -192.53)"/><path class="cls-1" d="M348.05,374.05l-.93-1.18.16-.25a3.84,3.84,0,0,1,.74.5,3,3,0,0,1,.34.73Z" transform="translate(-78.08 -192.53)"/><path class="cls-1" d="M303.62,336.46c-.6.57-.6.57-1.36.14l1.41-.09Z" transform="translate(-78.08 -192.53)"/><path class="cls-1" d="M341.37,392.31l-.77-.52.19-.28.78.49Z" transform="translate(-78.08 -192.53)"/><path class="cls-1" d="M338.29,364.54c.34.09.68.17,1,.28a1.05,1.05,0,0,1-.08.34c-.35,0-.69,0-1-.07Z" transform="translate(-78.08 -192.53)"/><path class="cls-1" d="M335.77,364.69c-.23.21-.38.44-.53.44s-.39-.17-.58-.28c.12-.17.22-.45.37-.48S335.43,364.53,335.77,364.69Z" transform="translate(-78.08 -192.53)"/><path class="cls-1" d="M346.1,383.08c-.11-.22-.3-.46-.25-.53a.77.77,0,0,1,.52-.31c.11,0,.22.26.34.4Z" transform="translate(-78.08 -192.53)"/><path class="cls-1" d="M319.93,349l-1.3-.89.3-.29,1,1.22Z" transform="translate(-78.08 -192.53)"/><path class="cls-1" d="M230.58,297.18l2-.69c.88.94,1,1.71-.24,2.71l-1.71-2.07Z" transform="translate(-78.08 -192.53)"/><path class="cls-1" d="M192,262.91c.49,1.59-1,1.86-1.77,2.78-.11-.38-.42-1-.28-1.11A19.06,19.06,0,0,1,192,262.91Z" transform="translate(-78.08 -192.53)"/><path class="cls-1" d="M225.11,299l-.82-1.44C225.42,297.83,225.42,297.83,225.11,299Z" transform="translate(-78.08 -192.53)"/><path class="cls-1" d="M222.41,302.22c1.64-.33,2.08-.11,1.93.72l-.67.68Z" transform="translate(-78.08 -192.53)"/><path class="cls-1" d="M159,284.62l.41-1.47.41.1-.34,1.49Z" transform="translate(-78.08 -192.53)"/><path class="cls-1" d="M227.92,308c-.13-.3-.31-.52-.26-.64s.32-.21.51-.23.24.26.21.33A3.08,3.08,0,0,1,227.92,308Z" transform="translate(-78.08 -192.53)"/><path class="cls-1" d="M232.18,311.35c-.29.11-.53.28-.66.22s-.24-.34-.36-.52c.18-.1.39-.3.53-.26S232,311.1,232.18,311.35Z" transform="translate(-78.08 -192.53)"/><path class="cls-1" d="M237.37,299l.5,1.51C236.84,300.26,236.39,299.85,237.37,299Z" transform="translate(-78.08 -192.53)"/><path class="cls-1" d="M353.42,364.46l.77,1.09C353.29,365.65,352.85,365.52,353.42,364.46Z" transform="translate(-78.08 -192.53)"/><path class="cls-1" d="M359.79,367.62l-1.92-.38a1.34,1.34,0,0,1,1.88.43Z" transform="translate(-78.08 -192.53)"/><path class="cls-1" d="M392.82,380.85l-2.44-.3a9.05,9.05,0,0,0,2-1.12c.35-.36.72-1.07.58-1.44a2.09,2.09,0,0,0-1.32-1.17,21.71,21.71,0,0,0-3.45-.05c.39-.68.79-1.47,1.58-1,1.88,1.14,3.27.64,4.45-1.42.5,1.29.18,2.79,1.85,2.6,0,.49.13,1.18-.13,1.43C395,379.24,394,380,392.82,380.85Z" transform="translate(-78.08 -192.53)"/><path class="cls-1" d="M395.2,381.48c.22.91.44,1.83.65,2.73l-1.51.88-4.44-1.45a10.51,10.51,0,0,1,5.35-2.11Z" transform="translate(-78.08 -192.53)"/><path class="cls-1" d="M387.25,381.93l2-.93.16.32-1.91,1Z" transform="translate(-78.08 -192.53)"/><path class="cls-1" d="M395.25,381.53c.19-.48.39-1,.66-1.63.49,1.32.49,1.32-.71,1.58Z" transform="translate(-78.08 -192.53)"/><path class="cls-1" d="M398.38,377.68a7.83,7.83,0,0,1-.64.55s-.3-.25-.28-.27a7.91,7.91,0,0,1,.52-.66Z" transform="translate(-78.08 -192.53)"/><path class="cls-1" d="M391,374l-.18.39-.46-.25c.1-.11.18-.27.3-.3S390.91,373.94,391,374Z" transform="translate(-78.08 -192.53)"/><path class="cls-1" d="M381.85,370.61l.72-1,.47.44-.81,1Z" transform="translate(-78.08 -192.53)"/><path class="cls-1" d="M386.89,364.74c.08.66.17,1.32.25,2C386.19,366.17,386.19,365.5,386.89,364.74Z" transform="translate(-78.08 -192.53)"/><path class="cls-1" d="M403.08,371.34l-.9-.33.11-.31.9.31Z" transform="translate(-78.08 -192.53)"/><path class="cls-1" d="M429.26,397.64l-.32.26c-.05-.11-.17-.25-.14-.33s.2-.17.31-.26Z" transform="translate(-78.08 -192.53)"/></svg>