<svg id="icons" xmlns="http://www.w3.org/2000/svg" viewBox="0 0 366.34 366.34"><title>linkedin</title><path d="M301.35,8.63H87.65A76.33,76.33,0,0,0,11.33,85v213.7A76.33,76.33,0,0,0,87.65,375h213.7a76.32,76.32,0,0,0,76.32-76.32V85A76.31,76.31,0,0,0,301.35,8.63Zm-167.91,290H87.65V130.74h45.79ZM110.55,111.39a26.93,26.93,0,1,1,26.71-26.93A26.83,26.83,0,0,1,110.55,111.39ZM316.61,298.65H270.82V213.11c0-51.41-61.06-47.52-61.06,0v85.54H164V130.74h45.79v26.94c21.31-39.47,106.85-42.39,106.85,37.8Z" transform="translate(-11.33 -8.63)"/></svg>