<svg id="icons" xmlns="http://www.w3.org/2000/svg" viewBox="0 0 370.44 361.3"><title>github</title><path d="M194.5,11.15C92.23,11.15,9.28,94.08,9.28,196.37A185.25,185.25,0,0,0,136,372.12c9.24,1.72,12.24-4,12.24-8.9V328.74C96.67,339.94,86,306.88,86,306.88c-8.43-21.41-20.58-27.1-20.58-27.1-16.81-11.5,1.28-11.26,1.28-11.26,18.6,1.3,28.39,19.1,28.39,19.1,16.51,28.3,43.32,20.12,53.9,15.39,1.65-12,6.45-20.15,11.76-24.76-41.14-4.71-84.38-20.59-84.38-91.55,0-20.23,7.23-36.75,19.07-49.71-1.91-4.68-8.26-23.53,1.81-49,0,0,15.56-5,51,19a175.72,175.72,0,0,1,92.75,0c35.36-24,50.89-19,50.89-19,10.08,25.51,3.73,44.36,1.82,49,11.88,13,19.06,29.49,19.06,49.71,0,71.14-43.33,86.81-84.57,91.39,6.64,5.75,12.7,17,12.7,34.3v50.83c0,4.92,3,10.71,12.37,8.89A185.27,185.27,0,0,0,379.72,196.37C379.72,94.08,296.79,11.15,194.5,11.15Z" transform="translate(-9.28 -11.15)"/></svg>